<svg id="Layer_1" data-name="Layer 1" xmlns="http://www.w3.org/2000/svg" viewBox="0 0 32.31 26.08"><defs><style>.cls-1{fill:#231f20;}</style></defs><title>board level shielding etch outlines</title><path class="cls-1" d="M3.61,2.79c-.17,0-.28.07-.28.18,0,.38.93.18.92.8,0,.3-.27.49-.65.49A1.07,1.07,0,0,1,2.9,4L3,3.74A.89.89,0,0,0,3.61,4c.2,0,.32-.08.32-.21C3.93,3.4,3,3.61,3,3c0-.3.26-.48.63-.48a1.09,1.09,0,0,1,.6.18L4.11,3A1.06,1.06,0,0,0,3.61,2.79Z"/><path class="cls-1" d="M6,3.6a.6.6,0,0,1-.62.66A.51.51,0,0,1,4.87,4v.7H4.59V2.94h.28v.23a.52.52,0,0,1,.46-.24A.62.62,0,0,1,6,3.6Zm-.28,0a.4.4,0,1,0-.8,0,.4.4,0,0,0,.4.43A.4.4,0,0,0,5.67,3.59Z"/><path class="cls-1" d="M7,4.25V4.09a.51.51,0,0,1-.43.17.41.41,0,0,1-.46-.4c0-.24.18-.39.5-.39H7v0c0-.17-.1-.27-.31-.27a.69.69,0,0,0-.39.14l-.11-.2a.93.93,0,0,1,.56-.17c.34,0,.53.18.53.46v.86Zm0-.46V3.67H6.68c-.19,0-.27.05-.27.18S6.5,4,6.66,4,7,3.93,7,3.79Z"/><path class="cls-1" d="M8.43,2.93v.28A.39.39,0,0,0,8,3.57v.68H7.69V2.94H8v.27A.49.49,0,0,1,8.43,2.93Z"/><path class="cls-1" d="M9.18,3.65,9,3.89v.36H8.67V2.43H9v1.1l.57-.59h.33l-.49.51.52.8H9.56Z"/><path class="cls-1" d="M11.3,2.53v.26h-.86v.5h.78v.26h-.78v.7h-.29V2.53Z"/><path class="cls-1" d="M12.73,2.94V4.25h-.29V4a.46.46,0,0,1-.46.26.45.45,0,0,1-.48-.5V2.94h.28v.74a.29.29,0,0,0,.31.32.37.37,0,0,0,.35-.41V2.94Z"/><path class="cls-1" d="M14.4,3.44v.81h-.29V3.52a.29.29,0,0,0-.31-.32.36.36,0,0,0-.37.36v.69h-.28V2.94h.28V3.2a.48.48,0,0,1,.48-.27A.46.46,0,0,1,14.4,3.44Z"/><path class="cls-1" d="M16.76,2.53v.26h-.94v.47h.84v.26h-.84V4h1v.26H15.53V2.53Z"/><path class="cls-1" d="M17.43,2.43V4.25h-.29V2.43Z"/><path class="cls-1" d="M19,3.71H18a.39.39,0,0,0,.4.32.48.48,0,0,0,.37-.15l.15.16a.71.71,0,0,1-.54.22.63.63,0,0,1-.67-.66.65.65,0,0,1,.66-.67C18.85,2.93,19,3.23,19,3.71Zm-.25-.21a.34.34,0,0,0-.36-.34A.37.37,0,0,0,18,3.5Z"/><path class="cls-1" d="M19.85,3.18a.39.39,0,0,0-.39.42.39.39,0,0,0,.39.42.5.5,0,0,0,.39-.16l.15.16a.65.65,0,0,1-.55.24.63.63,0,0,1-.66-.66.64.64,0,0,1,.66-.67.68.68,0,0,1,.54.22l-.15.18A.55.55,0,0,0,19.85,3.18Z"/><path class="cls-1" d="M21.43,4.17a.62.62,0,0,1-.32.09.34.34,0,0,1-.37-.38V3.21h-.18V3h.18V2.63H21V3h.39v.22H21v.62c0,.14.05.18.14.18a.45.45,0,0,0,.2-.06Z"/><path class="cls-1" d="M22.43,2.93v.28a.39.39,0,0,0-.45.36v.68h-.29V2.94H22v.27A.46.46,0,0,1,22.43,2.93Z"/><path class="cls-1" d="M23.9,3.6a.68.68,0,0,1-1.36,0,.68.68,0,0,1,1.36,0Zm-1.08,0a.4.4,0,0,0,.4.43.4.4,0,0,0,.4-.43.39.39,0,0,0-.4-.42A.39.39,0,0,0,22.82,3.6Z"/><path class="cls-1" d="M25.45,3.44v.81h-.28V3.52a.29.29,0,0,0-.32-.32.37.37,0,0,0-.37.36v.69H24.2V2.94h.28V3.2A.5.5,0,0,1,25,2.93.46.46,0,0,1,25.45,3.44Z"/><path class="cls-1" d="M26.14,2.57a.16.16,0,0,1-.17.17.17.17,0,0,1,0-.34A.16.16,0,0,1,26.14,2.57Zm0,.37V4.25h-.28V2.94Z"/><path class="cls-1" d="M27.08,3.18a.39.39,0,0,0-.39.42.39.39,0,0,0,.39.42.52.52,0,0,0,.39-.16l.15.16a.65.65,0,0,1-.55.24.63.63,0,0,1-.66-.66.64.64,0,0,1,.66-.67.69.69,0,0,1,.54.22l-.16.18A.5.5,0,0,0,27.08,3.18Z"/><path class="cls-1" d="M28.29,3.16c-.11,0-.19,0-.19.13s.69.11.69.58c0,.27-.24.39-.5.39a.81.81,0,0,1-.53-.18l.1-.2A.74.74,0,0,0,28.3,4c.12,0,.22,0,.22-.14,0-.27-.69-.12-.69-.59,0-.26.23-.38.48-.38a.78.78,0,0,1,.46.14l-.11.2A.75.75,0,0,0,28.29,3.16Z"/><path class="cls-1" d="M4.19,5.48v.19h-.9v.61H4.1v.18H3.29V7.2H3.1V5.48Z"/><path class="cls-1" d="M5.22,5.66a.69.69,0,0,0-.7.68.69.69,0,0,0,.7.69.75.75,0,0,0,.51-.21L5.85,7a.94.94,0,0,1-.64.26.87.87,0,1,1,0-1.73,1,1,0,0,1,.63.25l-.12.14A.74.74,0,0,0,5.22,5.66Z"/><path class="cls-1" d="M6.9,5.66a.69.69,0,0,0-.7.68A.69.69,0,0,0,6.9,7a.75.75,0,0,0,.51-.21L7.53,7a.94.94,0,0,1-.64.26.87.87,0,1,1,0-1.73,1,1,0,0,1,.63.25l-.12.14A.74.74,0,0,0,6.9,5.66Z"/><path class="cls-1" d="M8.82,5.48V7.2H8.63V5.48Z"/><path class="cls-1" d="M10.92,6.34A.85.85,0,0,1,10,7.2H9.34V5.48H10A.86.86,0,0,1,10.92,6.34Zm-.2,0A.67.67,0,0,0,10,5.67H9.54V7H10A.66.66,0,0,0,10.72,6.35Z"/><path class="cls-1" d="M11.39,6.37a.12.12,0,0,1-.24,0,.12.12,0,1,1,.24,0Zm0,.73a.12.12,0,0,1-.24,0,.12.12,0,1,1,.24,0Z"/><path class="cls-1" d="M13,5.67c-.22,0-.37.09-.37.23,0,.45,1,.22,1,.84,0,.29-.25.47-.62.47A1,1,0,0,1,12.33,7l.09-.17A.88.88,0,0,0,13,7c.25,0,.4-.1.4-.27,0-.46-1-.21-1-.83,0-.27.24-.44.59-.44a1,1,0,0,1,.55.16l-.08.17A.93.93,0,0,0,13,5.67Z"/><path class="cls-1" d="M15.11,5.48v.19h-.9v.61H15v.18h-.81V7.2H14V5.48Z"/><path class="cls-1" d="M16.57,5.48v.19h-1v.57h.87v.18H15.6V7h1V7.2H15.4V5.48Z"/><path class="cls-1" d="M17.48,6.39v.14H16.9V6.39Z"/><path class="cls-1" d="M19,6.76h-.93l-.19.44h-.21l.77-1.72h.2l.77,1.72h-.21Zm-.07-.18-.39-.88-.39.88Z"/><path class="cls-1" d="M20.79,7.2l-.36-.55h-.57V7.2h-.19V5.48h.65c.43,0,.68.22.68.58a.55.55,0,0,1-.39.56l.4.58Zm-.47-.72c.31,0,.49-.14.49-.41s-.18-.4-.49-.4h-.46v.81Z"/><path class="cls-1" d="M22.53,5.48v.19H22V7.2h-.2V5.67h-.56V5.48Z"/><path class="cls-1" d="M24,5.48v.19H23v.57h.87v.18H23V7h1V7.2h-1.2V5.48Z"/><path class="cls-1" d="M24.66,5.48l.63,1.25.63-1.25h.24V7.2H26V5.77L25.35,7h-.12l-.62-1.25V7.2h-.19V5.48Z"/><path class="cls-1" d="M26.88,5.48V7.2h-.19V5.48Z"/><path class="cls-1" d="M27.9,5.67c-.22,0-.36.09-.36.23,0,.45,1,.22,1,.84,0,.29-.25.47-.62.47A1,1,0,0,1,27.22,7l.09-.17a.88.88,0,0,0,.57.24c.25,0,.41-.1.41-.27,0-.46-1-.21-1-.83,0-.27.24-.44.6-.44a1,1,0,0,1,.54.16l-.08.17A.93.93,0,0,0,27.9,5.67Z"/><path class="cls-1" d="M3.34,8.44,4,9.69,4.6,8.44h.24v1.72H4.66V8.73L4,10H3.91L3.28,8.73v1.43H3.1V8.44Z"/><path class="cls-1" d="M6.52,9.51a.66.66,0,1,1-.66-.65A.63.63,0,0,1,6.52,9.51Zm-1.12,0a.45.45,0,0,0,.46.49.49.49,0,0,0,0-1A.45.45,0,0,0,5.4,9.51Z"/><path class="cls-1" d="M8.05,8.33v1.83h-.2V9.88a.53.53,0,0,1-.5.29.62.62,0,0,1-.62-.66.6.6,0,0,1,.62-.65.52.52,0,0,1,.5.29V8.33Zm-.2,1.18a.47.47,0,1,0-.46.49A.45.45,0,0,0,7.85,9.51Z"/><path class="cls-1" d="M9.64,9.58H8.59a.45.45,0,0,0,.47.43.53.53,0,0,0,.4-.17l.1.11a.66.66,0,0,1-.52.21.65.65,0,0,1,0-1.3C9.46,8.86,9.66,9.15,9.64,9.58Zm-.17-.15A.4.4,0,0,0,9,9a.43.43,0,0,0-.45.41Z"/><path class="cls-1" d="M10.18,8.33v1.83H10V8.33Z"/><path class="cls-1" d="M10.79,9.32a.12.12,0,1,1-.24,0,.12.12,0,1,1,.24,0Zm0,.73a.12.12,0,1,1-.24,0,.12.12,0,1,1,.24,0Z"/><path class="cls-1" d="M13,9.72h-.94l-.19.44h-.21l.78-1.72h.2l.77,1.72h-.22Zm-.08-.18-.39-.89-.39.89Z"/><path class="cls-1" d="M14.31,8.86V9a.43.43,0,0,0-.46.43v.69h-.2V8.87h.2v.28A.46.46,0,0,1,14.31,8.86Z"/><path class="cls-1" d="M15.24,10.07a.53.53,0,0,1-.3.09c-.18,0-.32-.11-.32-.36V9.05h-.19V8.9h.19V8.57h.18V8.9h.42v.15H14.8v.72c0,.15.07.22.18.22a.44.44,0,0,0,.2-.07Z"/><path class="cls-1" d="M16.62,9.58H15.57A.45.45,0,0,0,16,10a.53.53,0,0,0,.4-.17l.1.11a.66.66,0,0,1-.52.21.65.65,0,0,1,0-1.3C16.44,8.86,16.64,9.15,16.62,9.58Zm-.17-.15A.4.4,0,0,0,16,9a.43.43,0,0,0-.45.41Z"/><path class="cls-1" d="M19.1,9.36v.8h-.2V9.41A.33.33,0,0,0,18.55,9a.43.43,0,0,0-.43.48v.64h-.19V9.41A.33.33,0,0,0,17.57,9a.43.43,0,0,0-.42.48v.64H17V8.87h.19v.29a.49.49,0,0,1,.49-.3.43.43,0,0,1,.46.33.51.51,0,0,1,.51-.33A.45.45,0,0,1,19.1,9.36Z"/><path class="cls-1" d="M19.74,8.49a.12.12,0,0,1-.12.13.13.13,0,0,1-.13-.13.13.13,0,0,1,.13-.13A.12.12,0,0,1,19.74,8.49Zm0,.38v1.29h-.19V8.87Z"/><path class="cls-1" d="M20.52,9c-.15,0-.26.05-.26.17,0,.29.72.14.72.61,0,.25-.22.36-.47.36A.71.71,0,0,1,20,10l.07-.14a.66.66,0,0,0,.44.17c.15,0,.27-.06.27-.19,0-.32-.72-.16-.71-.61,0-.25.21-.35.45-.35a.78.78,0,0,1,.41.11l-.07.15A.71.71,0,0,0,20.52,9Z"/><path class="cls-1" d="M21.25,8.44l.59,1.5.6-1.5h.2l-.7,1.72h-.2L21,8.44Z"/><path class="cls-1" d="M23.54,8.44v1.72h-.19V8.62h-.41V8.44Z"/><path class="cls-1" d="M3.29,11.39v1.72H3.1V11.39Z"/><path class="cls-1" d="M4.55,11.56a.7.7,0,0,0-.7.69.69.69,0,0,0,.7.68.77.77,0,0,0,.51-.2l.12.13a.94.94,0,0,1-.64.26.87.87,0,1,1,0-1.73.89.89,0,0,1,.63.25l-.12.14A.75.75,0,0,0,4.55,11.56Z"/><path class="cls-1" d="M5.64,12.27a.12.12,0,0,1-.12.13.12.12,0,0,1-.12-.13.12.12,0,0,1,.12-.12A.12.12,0,0,1,5.64,12.27Zm0,.73a.12.12,0,0,1-.12.13A.12.12,0,0,1,5.4,13a.12.12,0,0,1,.12-.12A.12.12,0,0,1,5.64,13Z"/><path class="cls-1" d="M7.85,12.67H6.92l-.19.44H6.52l.77-1.72h.2l.77,1.72H8.05Zm-.08-.18-.39-.89L7,12.49Z"/><path class="cls-1" d="M9.59,12.58c0,.32-.25.54-.66.54A1.13,1.13,0,0,1,8.34,13l.09-.16a.82.82,0,0,0,.49.16c.3,0,.48-.15.48-.36s-.18-.33-.48-.33H8.69v-.12l.57-.57H8.42v-.18H9.51v.13l-.6.6H9C9.36,12.14,9.59,12.3,9.59,12.58Z"/><path class="cls-1" d="M10.53,12.3v.14H10V12.3Z"/><path class="cls-1" d="M12,12.67H11.1l-.19.44H10.7l.77-1.72h.2l.77,1.72h-.21ZM12,12.49l-.39-.89-.38.89Z"/><path class="cls-1" d="M13.34,11.81V12a.42.42,0,0,0-.46.42v.69h-.19V11.82h.19v.29A.47.47,0,0,1,13.34,11.81Z"/><path class="cls-1" d="M14.27,13a.53.53,0,0,1-.29.1c-.19,0-.33-.11-.33-.37V12h-.19v-.15h.19v-.34h.19v.34h.41V12h-.41v.71c0,.16.06.22.17.22a.37.37,0,0,0,.21-.07Z"/><path class="cls-1" d="M15.66,12.54H14.6a.46.46,0,0,0,.47.42.53.53,0,0,0,.4-.17l.11.11a.69.69,0,0,1-.52.22.66.66,0,0,1,0-1.31C15.47,11.81,15.68,12.1,15.66,12.54Zm-.17-.16a.41.41,0,0,0-.44-.41.44.44,0,0,0-.45.41Z"/><path class="cls-1" d="M18.13,12.31v.8h-.19v-.75a.34.34,0,0,0-.36-.37.43.43,0,0,0-.42.48v.64H17v-.75A.33.33,0,0,0,16.6,12a.43.43,0,0,0-.42.48v.64H16V11.82h.19v.29a.5.5,0,0,1,.49-.3.44.44,0,0,1,.47.34.49.49,0,0,1,.51-.34A.45.45,0,0,1,18.13,12.31Z"/><path class="cls-1" d="M18.78,11.45a.13.13,0,0,1-.13.13.12.12,0,0,1-.12-.13.12.12,0,0,1,.12-.13A.13.13,0,0,1,18.78,11.45Zm0,.37v1.29h-.19V11.82Z"/><path class="cls-1" d="M19.55,12c-.15,0-.26,0-.26.17,0,.3.73.15.73.61,0,.25-.23.37-.48.37a.8.8,0,0,1-.5-.18l.08-.14a.67.67,0,0,0,.43.16c.15,0,.27-.06.28-.19,0-.31-.72-.15-.72-.61,0-.25.21-.35.45-.35a.69.69,0,0,1,.41.12l-.07.14A.71.71,0,0,0,19.55,12Z"/><path d="M22.78,21.05l.56.38a3.34,3.34,0,0,1-6.06-1.57H15.93v2.38a.08.08,0,0,1,0,.07l-.6.4,0,0V16.27h2.83v0l-.47.62a.07.07,0,0,1-.06,0H15.93v2.24h1.35A3.31,3.31,0,0,1,18.45,17a3.2,3.2,0,0,1,1.64-.74,3.33,3.33,0,0,1,3.21,1.34l-.54.39a2.66,2.66,0,0,0-2.28-1.09,2.6,2.6,0,0,0-1.82.83,2.66,2.66,0,0,0,.12,3.77,2.67,2.67,0,0,0,4-.42Z"/><path d="M22.14,18.41l-.55.4a1.2,1.2,0,0,0-1-.51,1.19,1.19,0,0,0-.87.36,1.22,1.22,0,0,0,0,1.75,1.19,1.19,0,0,0,1,.34,1.26,1.26,0,0,0,.89-.52l.55.38a1.89,1.89,0,0,1-2,.78,1.9,1.9,0,0,1-.11-3.69A1.89,1.89,0,0,1,22.14,18.41Z"/><path d="M6.42,21.74l-.33,0a2.28,2.28,0,1,1,0-4.55l.33,0v-1l-.33,0a3.3,3.3,0,1,0,0,6.6l.33,0Z"/><path d="M11.66,17.21l.33,0v-1l-.33,0a3.3,3.3,0,1,0,0,6.6l.33,0v-1l-.33,0A2.27,2.27,0,0,1,9.44,20h1.92V19H9.44A2.27,2.27,0,0,1,11.66,17.21Z"/></svg>