<?xml version="1.0" encoding="utf-8"?>
<!-- Generator: Adobe Illustrator 23.0.3, SVG Export Plug-In . SVG Version: 6.00 Build 0)  -->
<svg version="1.1" id="Layer_1" xmlns="http://www.w3.org/2000/svg" xmlns:xlink="http://www.w3.org/1999/xlink" x="0px" y="0px"
	 viewBox="0 0 33.3149605 27.0787392" style="enable-background:new 0 0 33.3149605 27.0787392;" xml:space="preserve">
<style type="text/css">
	.st0{fill:none;stroke:#000000;stroke-width:0.1;stroke-linecap:round;stroke-miterlimit:10;stroke-dasharray:0.072,1.08;}
</style>
<title>board level shielding etch no curves</title>
<g>
	<path d="M7.648489,25.5202847l-0.1736755,0.0140228l-0.2409158-0.0242901l-0.2243905-0.0696392l-0.2030754-0.1102295
		l-0.1769223-0.1459808l-0.1459703-0.1769238l-0.1102285-0.2030659l-0.0696397-0.2243977l-0.0242891-0.2409172l0.0242891-0.2409153
		l0.0696397-0.2243996l0.1102281-0.2030659l0.1459708-0.1769218l0.1769223-0.1459713l0.2030659-0.11022l0.2243905-0.0696392
		l0.2409158-0.0242805l0.1736755,0.0140228v-0.5436687l-0.1736755-0.00877l-0.349422,0.0352039l-0.3254623,0.1010361
		l-0.2945571,0.1598606l-0.2566037,0.2117424L6.0370164,23.369482l-0.1598606,0.2945557L5.7761312,23.9895l-0.035234,0.349432
		l0.035234,0.3494301l0.1010246,0.3254623l0.1598606,0.2945576l0.2117424,0.2566128l0.2566037,0.2117424l0.2945571,0.1598625
		l0.3254623,0.1010342l0.3494315,0.0352249l0.1736755-0.00877v-0.5436687V25.5202847z"/>
	<path d="M10.4041052,23.1434326l0.1736851,0.0140228v-0.5436687l-0.1736851-0.0087719l-0.349432,0.035223l-0.3254623,0.1010361
		l-0.2945576,0.1598606L9.17805,23.1128769L8.9663076,23.369482L8.806447,23.6640377L8.7054138,23.9895l-0.0352249,0.349432
		l0.0352249,0.3494301l0.1010332,0.3254623l0.1598606,0.2945576L9.17805,25.5649948l0.2566032,0.2117424l0.2945576,0.1598625
		l0.3254623,0.1010342l0.349431,0.0352249l0.1736851-0.00877v-0.5436687l-0.1736851,0.0140209l-0.209446-0.0183029
		l-0.197485-0.0528221l-0.1824274-0.0842171l-0.1642561-0.1124878l-0.1429873-0.1376228l-0.1185751-0.159626l-0.0911245-0.1785221
		l-0.0605679-0.1944122h1.0077991v-0.5151157H9.2372351l0.0605392-0.1942768l0.0911245-0.1785221l0.118576-0.1596336
		l0.1429863-0.1376247l0.1642561-0.1124763l0.1824284-0.084219l0.197484-0.0528221l0.2094469-0.0183029L10.4041052,23.1434326z"/>
</g>
<g>
	<path d="M27.8073616,20.2305431l0.007576,0.0666828l-0.0023785,0.0398827l-0.0099983,0.0412369l-0.0207081,0.0380783
		l-0.0345306,0.0304375l-0.0514507,0.0182972l-0.0453758,0.0014973l-0.0499954-0.0088596l-0.0527344-0.0177574l-0.1062603-0.0562172
		l-0.0947857-0.0739498l-0.0383949-0.0399075l-0.0365715-0.048214l-0.0252399-0.0457687l-0.014555-0.0435257l-0.004509-0.0414524
		l0.0049362-0.0395908l0.0137424-0.0379124l0.021904-0.0364437l0.0294437-0.0351505l0.0533886-0.0438862l0.0584507-0.0285892
		l0.0597477-0.016222l0.057333-0.0067654l0.0922928,0.0032806l0.0374489,0.006258l-0.0715714-0.0499611l-0.0824642-0.0451832
		l-0.1073875-0.0433102l-0.1276245-0.0299416l-0.1431694-0.0050507l-0.1541481,0.0313396l-0.1604156,0.0792484l-0.121603,0.0990906
		l-0.0781918,0.1061363l-0.0378208,0.1116047l-0.000473,0.1154366l0.0338211,0.1176796l0.065134,0.1183662l0.3039341,0.3349705
		l0.045002,0.1009159l0.003891,0.0948391l-0.031395,0.084549l-0.0608768,0.0698948l-0.0844574,0.0510654l-0.1022377,0.0279465
		L26.6299,21.2261715l-0.0750465-0.0160294l-0.0629158-0.0267296L26.441288,21.148365l-0.0382271-0.0409775l-0.0256023-0.0444736
		l-0.0129528-0.0456676l-0.0001011-0.044426l0.0129185-0.0408077l0.0214176-0.0310574l0.0286674-0.0276871l0.0666027-0.0442924
		l0.083149-0.0376759l-0.031126-0.0096493l-0.0841885-0.0155678l-0.123518-0.0013866l-0.072216,0.010891L26.18923,20.7975578
		l-0.0688438,0.0295696l-0.0641556,0.038847l-0.0578976,0.0497932l-0.0500755,0.0624294l-0.0406513,0.0767498l-0.0296707,0.0927429
		l-0.0170879,0.1103973l-0.0029545,1.8603573l0.7394028-0.7806053l0.0713711-0.0492764l0.0750446-0.0346088l0.082058-0.0186234
		l0.27281-0.001318l0.1677208-0.0213165l0.1553097-0.0412807l0.1431694-0.0599174l0.1313095-0.0772419l0.1196976-0.0932178
		l0.1083584-0.107872l0.0972862-0.1212063l0.1387386-0.2472763l0.0705814-0.2461605l0.0128517-0.2367344l-0.0344296-0.2189693
		l-0.0712681-0.1929283l-0.0976925-0.1585464l-0.1136551-0.1158752l-0.1191921-0.064888"/>
	<path d="M19.9771214,23.4565887l-0.178194,0.0170441l-0.0829353,0.0218353l-0.0781784,0.0311813l-0.072937,0.0408993
		l-0.0671997,0.0509548l-0.060976,0.0613689l-0.0542583,0.0721474h-0.0076294v-0.2438602l-0.5211239,0.0889587v2.4927979
		l0.5478745,0.4665394v-1.375061h0.0080357l0.0544605,0.0665112l0.061676,0.0580025l0.0682011,0.0494308l0.0739956,0.0407314
		l0.079092,0.0319023l0.0834198,0.0229397l0.0871201,0.013855l0.0900726,0.0046444l0.2060719-0.0214195l0.178318-0.0608749
		l0.1506653-0.0951805l0.1230793-0.1242619l0.0955849-0.1481857l0.0681686-0.1669102l0.0408421-0.1804581l0.0135956-0.1888256
		l-0.0133476-0.1999493l-0.040493-0.1893883l-0.0683594-0.1739559l-0.0969486-0.1534939l-0.1262589-0.1280518l-0.1562347-0.0976238
		l-0.186964-0.0622292l-0.2183819-0.0218468 M19.8610764,25.0741196l-0.1226845-0.0132904l-0.1021576-0.0377083
		l-0.0829353-0.0588112l-0.0649796-0.0766582l-0.0483055-0.0911655l-0.032917-0.1024036l-0.0188141-0.1103649l-0.0003052-0.2305107
		l0.0180378-0.1116047l0.0318909-0.1042328l0.0472221-0.0932598l0.0640659-0.0787315l0.0823727-0.0606499l0.1021786-0.0389938
		l0.1234856-0.0137863l0.1213779,0.0139332l0.1015148,0.0393429l0.082777,0.061079l0.0651798,0.0791264l0.0487328,0.0934868
		l0.03339,0.1041737l0.019165,0.1111755l0.0004845,0.2294979l-0.0180378,0.1103649l-0.0318241,0.1024036l-0.0471573,0.0911655
		l-0.0639725,0.0766582l-0.0822945,0.0588112l-0.1021328,0.0377064l-0.1234531,0.0132904"/>
	<path d="M18.00177,24.2688389l-0.4265862-0.097683l-0.0798244-0.0322533l-0.0616302-0.0401993l-0.0397167-0.0505714
		l-0.0140686-0.0633659l0.008049-0.0532436l0.0222511-0.0415401l0.0336723-0.0312481l0.042284-0.022377l0.0481033-0.0149384
		l0.1024036-0.0131989l0.1206226,0.001667l0.0673351,0.0090981l0.0614948,0.01647l0.0543137,0.0249252l0.0458469,0.034462
		l0.0360737,0.0450916l0.024971,0.0567513l0.012558,0.0694962h0.520834l-0.0323315-0.1609459l-0.0623646-0.1323338
		l-0.0884914-0.1058998l-0.1106911-0.0816612l-0.1289768-0.0596447l-0.1433468-0.0398731l-0.3141022-0.029232l-0.3164234,0.0272255
		l-0.1465492,0.0381927l-0.1317501,0.0582943l-0.1116714,0.0811672l-0.0862942,0.1068115l-0.0556564,0.1352787l-0.0197277,0.1664467
		l0.0140591,0.1164169l0.039772,0.0964184l0.0619221,0.0789108l0.080513,0.0638275l0.0955391,0.0512257l0.7981358,0.2199402
		l0.0706921,0.0353851l0.0515652,0.0405827l0.0315628,0.0471306l0.0107212,0.0550823L18.077755,24.938406l-0.0253086,0.0524769
		l-0.0385189,0.0422859l-0.0487442,0.0328388l-0.0559826,0.0241928l-0.0602207,0.0163231l-0.1212063,0.0121193l-0.0790119-0.0045776
		l-0.0762749-0.0139675l-0.0711327-0.0237637l-0.0636883-0.0339451l-0.0536499-0.0444965l-0.0412941-0.0554638l-0.0265484-0.0667915
		l-0.0093784-0.0785294h-0.5207157l0.0269203,0.1742706l0.0627213,0.1443863l0.0935688,0.1165638l0.1193256,0.0907822
		l0.1401024,0.0670528l0.1558723,0.0453529l0.1666164,0.025713l0.3411827,0.0001564l0.164114-0.0252514l0.1539001-0.0446415
		l0.1382084-0.0661163l0.1170254-0.0896664l0.0903873-0.1153011l0.0582485-0.1430092l0.020628-0.1728287l-0.0140686-0.1218739
		l-0.0398388-0.1014576l-0.0620022-0.0833435l-0.0805912-0.0676384l-0.0956059-0.0543575l-0.3410358-0.1070938"/>
	<path d="M22.9176426,23.999052l-0.0213509-0.1547241l-0.0596809-0.1231365l-0.0914478-0.0949306l-0.116642-0.0700855
		l-0.1352787-0.0486317l-0.3002243-0.046423l-0.3194122,0.0029316l-0.1634598,0.0238094l-0.1543083,0.0423412l-0.1399212,0.0630379
		l-0.1203728,0.0859013l-0.0956879,0.1109161l-0.0658131,0.1381187l-0.0308094,0.1674843h0.5482216l0.0124683-0.0717754
		l0.0225468-0.0605488l0.03232-0.0498486L21.7605,23.8738403l0.0507298-0.0299511l0.0594883-0.0207787l0.0678291-0.0120831
		l0.1463833-0.0018845l0.0661602,0.0072498l0.0602093,0.0141926l0.0527248,0.0228634l0.0436821,0.0332546l0.0331211,0.0453854
		l0.0210018,0.0592289l0.0073376,0.0748081l-0.0501213,0.1230564l-0.1465492,0.0653858l-0.7015018,0.1109276l-0.2155628,0.095562
		l-0.1536312,0.1683407l-0.0600281,0.2671719l0.0135269,0.1371841l0.038868,0.117712l0.0617428,0.0986176l0.0821247,0.0798817
		l0.1000137,0.0614948l0.1154366,0.0434914l0.1283436,0.025816l0.2315273,0.0055027l0.1827374-0.0259304l0.1726933-0.0561733
		l0.0802364-0.0408554l0.07481-0.0501099l0.0684719-0.059927l0.0138988,0.0934429l0.0251617,0.0909977h0.5553799
		l-0.0172939-0.0333805l-0.0264912-0.0892944l-0.0252972-1.2960224L22.9176426,23.999052z M22.3692169,24.6792145
		l-0.0090981,0.1183662l-0.0183506,0.0724621l-0.033762,0.0730858l-0.0538311,0.0675602l-0.0785389,0.0558815l-0.1079273,0.0380459
		l-0.141964,0.0140476l-0.1275883-0.0110817l-0.0570068-0.0154114l-0.0503025-0.0233803l-0.0419693-0.0323772l-0.0320053-0.0424213
		l-0.0203915-0.0534897l-0.0071583-0.0656204l0.0069885-0.0659161l0.0198631-0.0547543l0.0311012-0.0447216l0.0406971-0.0359058
		l0.0486679-0.0282497l0.0549793-0.0218258l0.4912701-0.0943661l0.0471554-0.0200882l0.0391846-0.0258503v0.1960392
		L22.3692169,24.6792145z"/>
	<path d="M23.7564049,23.8628273h-0.007349v-0.3546524l-0.521122,0.088913v1.8206272h0.5479851l0.0066051-0.9845142
		l0.0208664-0.1152782l0.0367069-0.1041985l0.0541096-0.0906906l0.0731182-0.0747547l0.093668-0.0563641l0.1158085-0.0356216
		l0.1648006-0.0120525l0.171669,0.0181618v-0.4875278l-0.0584507-0.0132141l-0.0613708-0.0050716l-0.1017399,0.0076084
		l-0.0986729,0.0220966l-0.0939846,0.0354996l-0.0876713,0.0478325l-0.0797234,0.059103l-0.0701656,0.0692863l-0.0589695,0.078392
		l-0.0461521,0.0864201"/>
	<polygon points="26.6128426,23.5080509 25.9635105,23.5080509 25.2724686,24.1957111 25.2724686,22.7809353 24.724596,23.0684013 
		24.724596,25.4177151 25.2724686,25.4177151 25.2724686,24.7604923 25.4855309,24.5643406 26.0334053,25.4177151 
		26.6973896,25.4177151 25.8597965,24.2103653 26.6128426,23.5080509 	"/>
	<path d="M27.0303173,23.3607903v0.1474075h-0.1670341l-0.3734341,0.3508301h0.5404663v1.5586872h0.5481091v-1.5586872h0.37817
		v-0.3508301h-0.3781891l0.0027847-0.1694336l0.0086346-0.0461197l0.0148811-0.0377312l0.0215855-0.0298176l0.0286236-0.0223541
		l0.0360737-0.015377l0.0439644-0.0088806l0.2525177,0.008522v-0.391695l-0.2890301-0.0148258l-0.1573048,0.0109921
		l-0.1360531,0.0318565l-0.1148739,0.0510902l-0.093792,0.0686779l-0.0728035,0.0846157l-0.0518551,0.0989208l-0.0310688,0.1116047
		l-0.0103378,0.1225834"/>
	<path d="M29.4341602,24.5091019l-0.0060425,0.134758l-0.018465,0.1141396l-0.0313854,0.094347l-0.0448322,0.0753708
		l-0.0587769,0.0571995l-0.0732765,0.0398388l-0.088213,0.0233116l-0.1037121,0.0075855l-0.0891476-0.0072594l-0.0745029-0.0218334
		l-0.0607166-0.0364456l-0.0477638-0.0511227l-0.0355797-0.0658817l-0.0244408-0.0806351l-0.0140228-0.0954723l-0.004509-1.188839
		h-0.5483017l0.0074291,1.3443279l0.0245743,0.1527748l0.0450935,0.1342392l0.0690136,0.1138592l0.0963402,0.0917397
		l0.1270485,0.0677738l0.1612053,0.0420036l0.1986637,0.0143967l0.087019-0.0047016l0.0865097-0.0142593l0.0846958-0.0240231
		l0.0816288-0.0340328l0.0772762-0.0442371l0.0716534-0.0546856l0.0647526-0.0653839l0.0565796-0.0762272h0.0114651v0.2659321
		h0.5211983v-1.9094944h-0.5484581V24.5091019z"/>
	<path d="M31.4277191,23.4566116l-0.0870953,0.0047131l-0.0865097,0.0142708l-0.0846615,0.0240574l-0.0815601,0.0340557
		l-0.077198,0.04426l-0.0715828,0.0546856l-0.0647182,0.0653839L30.8178139,23.77421H30.806303v-0.2659779h-0.5211678v1.9095936
		h0.5485497l0.0060425-1.1356182l0.0184307-0.1142635l0.0313625-0.0944233l0.0447655-0.075407l0.0587101-0.0572109
		l0.0731297-0.0398521l0.0880775-0.0233116l0.1035328-0.007576l0.0892048,0.0072727l0.0745831,0.0218697l0.0607853,0.0364895
		l0.0478535,0.0511818l0.0357475,0.0658913l0.0244961,0.0806713l0.0140686,0.0954819l0.004509,1.1888046h0.5481434
		l-0.0074387-1.3443394l-0.0245857-0.1527157l-0.0450935-0.1342182l-0.0690498-0.1138592l-0.0963516-0.0917625l-0.1270599-0.0678082
		l-0.1612053-0.0420132l-0.1986332-0.0144062"/>
</g>
<g>
	<path d="M12.0779352,24.0951462l-0.0067196,0.3194294l1.1396446,1.1396446l0.3246717-0.0014782l0.2556152-1.5120087
		l1.1699944-1.1697598l-0.2063122-0.2063217l-1.1775322,1.1772861l-1.4993429,0.253149L12.0779352,24.0951462z
		 M13.2942972,25.2250214l-0.8889227-0.8891659l1.0700893-0.180687l-0.1811666,1.0698261V25.2250214z"/>
	<path d="M15.0290222,25.9357872l-0.1757841-0.2254429l-0.0485039-0.095293l-0.0335207-0.1050243l-0.0101547-0.1118374
		l0.111989-0.4355488l0.0370684-0.2834625l-0.0016279-0.128767l-0.0151606-0.1204586l-0.028759-0.1124306l-0.0424147-0.1046486
		l-0.0814409-0.1344509l-0.0959339-0.104414l-0.1118746-0.0821381l-0.1293411-0.0675316l-0.2064915,0.2324467l0.1233845,0.0511761
		l0.1011562,0.0641708l0.0424519,0.0371075l0.0371437,0.0405331l0.0319309,0.0440216l0.0267925,0.0475826l0.0299921,0.0764427
		l0.0195646,0.0849514l0.00912,0.0933437l-0.0130911,0.2115345l-0.1505718,0.6046047l-0.0024185,0.0971088l0.0109634,0.0879536
		l0.0224075,0.0799904l0.0319214,0.0733395l0.0846968,0.1315346l-2.8622866,0.0080738l0.0083475-2.8623428l0.131609,0.0843296
		l0.0734043,0.0317707l0.0799913,0.0223045l0.0878687,0.0109634l0.0969315-0.0022774l0.6046419-0.1502075l0.2116766-0.0131741
		l0.0933256,0.0091476l0.084857,0.0196495l0.076293,0.0301132l0.0475054,0.0267925l0.0439863,0.0319214l0.040513,0.0371342
		l0.0708447,0.0902481l0.0575647,0.112072l0.0239229,0.0644264l0.2290392-0.2140369l-0.0652733-0.1250324l-0.0811119-0.1095695
		l-0.1041956-0.094965l-0.1344805-0.0812531l-0.104949-0.0427723l-0.1128635-0.0294914l-0.1209278-0.0159988l-0.2666359,0.0089779
		l-0.300703,0.0648212l-0.1634932,0.0537643l-0.1232338,0.0259361l-0.1153193-0.0081024l-0.105401-0.0332298l-0.0935335-0.0494442
		l-0.1434202-0.1118279l-0.0718899-0.0696392l-0.2380924,0.0036793l-0.0092325,3.5778923l3.5813169-0.0094967v-0.2376213
		L15.0290222,25.9357872z"/>
</g>
<g>
	<path d="M1.6772125,1.2572602L1.6032628,1.2609038L1.5368066,1.2717087L1.4785314,1.2894686L1.4291589,1.314023
		L1.3894914,1.3451543L1.3602506,1.3826904L1.3421584,1.4264483L1.3359712,1.4762218l0.0486734,0.142457l0.1283292,0.0963385
		l0.5967422,0.2122588L2.290626,2.0391059l0.1276071,0.1656706l0.0477107,0.2394717L2.4508765,2.5779281l-0.0436437,0.119163
		L2.3373394,2.8006713L2.2434528,2.8877521L2.1278429,2.9571643L1.9929368,3.0080149L1.8409927,3.0392721L1.6742905,3.0499048
		L1.4316566,3.0257742L1.202967,2.9578285L0.9955779,2.8528163L0.8168337,2.7174516l0.153044-0.3060994l0.1705174,0.1315603
		l0.1813565,0.0959148l0.1829951,0.0587106l0.089246,0.0148954l0.0862095,0.0050073l0.087539-0.004308l0.0776511-0.0126958
		l0.067304-0.0208993l0.0563388-0.0287707l0.0448006-0.0363562l0.0327125-0.0436549l0.0200284-0.0506785l0.0068059-0.057416
		L2.0247209,2.3179355L1.8963114,2.2212763l-0.597842-0.2055676L1.1169178,1.9074652L0.9885083,1.7454039L0.9398004,1.5091748
		l0.0141622-0.1283292l0.0412487-0.1146599l0.0663875-0.0999707l0.0896471-0.084113l0.1110047-0.0672584l0.1304488-0.0493495
		l0.1479909-0.0303866l0.2656187-0.006359l0.1990707,0.0303636l0.1874406,0.056671L2.3625128,1.094488l0.0762868,0.0462903
		L2.2923439,1.4519995L2.1221817,1.3634868L1.9586881,1.3029773L1.8082451,1.2682824L1.6772116,1.2572026L1.6772125,1.2572602z"/>
	<path d="M4.5382781,2.2465868L4.5245285,2.4179866L4.4843683,2.5732534l-0.0648751,0.137037L4.3315988,2.8270473
		L4.2223358,2.9214609L4.093411,2.9914689L3.9465084,3.0350094l-0.163219,0.0148954L3.6907094,3.0451841L3.6041675,3.0311024
		L3.5237899,3.0079002L3.4497371,2.9758179L3.3821349,2.9349706L3.3211215,2.8856099L3.2668452,2.8279417l-0.0474246-0.065769
		v0.8575139H2.8745358V1.4432688h0.3448849v0.2760683l0.0474131-0.0657687l0.0541959-0.0576679l0.060796-0.049361
		l0.067178-0.0408477l0.0733311-0.0320824L3.601681,1.4503728l0.085098-0.0140704L3.7774346,1.431559l0.1626229,0.0151131
		l0.1471775,0.043964l0.129807,0.0707988l0.1105237,0.0955824l0.0893035,0.118338l0.0661697,0.1390769l0.0411115,0.1577533
		l0.0141277,0.1744132V2.2465868z M4.1911821,2.2348769L4.1819696,2.1275384L4.155261,2.0291717l-0.04283-0.0877795
		l-0.0575533-0.075531L3.983964,1.8042287L3.9010885,1.7581562l-0.093508-0.0288278l-0.102675-0.0099913L3.602483,1.7292138
		L3.5091922,1.7577786L3.4264431,1.8034844L3.3556213,1.864796L3.2981138,1.9401435L3.2553067,2.0279686L3.2286093,2.1267364
		l-0.0091662,0.10814l0.0091662,0.1111422l0.0266974,0.100704l0.0427957,0.0889368l0.0575075,0.0758059l0.0708218,0.0613232
		l0.0827491,0.0454767l0.0932908,0.02829L3.704917,2.756283l0.1026635-0.0098996l0.0934741-0.028645L3.9839647,2.671792
		l0.0709136-0.0617359l0.0575533-0.076035l0.04283-0.0888793l0.0267086-0.1002116l0.0091662-0.1100767L4.1911821,2.2348769z"/>
	<path d="M5.8556805,3.0381947V2.8434091L5.8096876,2.8927813L5.7575312,2.9354508L5.6994276,2.971463L5.6356187,3.0008526
		L5.4917526,3.0398901l-0.1640549,0.012959L5.2048106,3.0431671L5.0949631,3.0152552L4.9992089,2.970845L4.9185338,2.9114816
		L4.8539906,2.8388493L4.8066235,2.7547247l-0.0291829-0.093955L4.7674952,2.5585876L4.777647,2.4546294l0.0300541-0.0932221
		l0.0492692-0.081569l0.0679345-0.069L5.010839,2.1553245l0.1032705-0.0410883L5.234086,2.0884557l0.61865-0.0095217
		L5.8467093,1.9592097L5.8286629,1.8958358L5.7986774,1.8409406l-0.0418673-0.045958L5.7031293,1.7584318l-0.0654135-0.026674
		L5.5606494,1.7153724l-0.088685-0.0055455L5.3561707,1.7199788L5.2386804,1.7504684L5.1201367,1.8012617L5.0010424,1.8723925
		L4.8604417,1.6321992l0.1582918-0.0869545l0.1546364-0.0627898L5.3430624,1.44438L5.546659,1.4315586l0.1455159,0.0096935
		l0.1280775,0.0285188l0.110065,0.0465539L6.021832,1.5801228l0.0723801,0.0802057l0.0527067,0.0958916L6.1794019,1.86695
		l0.0146093,1.1712217L5.8556805,3.0381947z M5.852747,2.4772582V2.3308029L5.2743602,2.3425815L5.2176318,2.3578436
		L5.171628,2.3799231L5.1361084,2.4091868L5.1110387,2.44607L5.0961432,2.4908361L5.0912046,2.5439322L5.0966244,2.59531
		l0.015892,0.0461409l0.0258837,0.0404012l0.0353708,0.034179l0.0443769,0.0274994l0.0528674,0.0202234L5.3318686,2.776243
		L5.400238,2.7805281l0.0891314-0.0058777l0.0824971-0.0169921l0.0745459-0.0270984l0.0652304-0.0362644l0.0545969-0.0444229
		l0.0426121-0.0515609L5.83815,2.5404832l0.0146432-0.063076L5.852747,2.4772582z"/>
	<path d="M7.5531898,1.4315472v0.3295312L7.4385185,1.7638969L7.3354888,1.78459L7.2448797,1.8217481l-0.077548,0.0522023
		L7.1035452,1.9397765L7.0542188,2.0178053L7.020051,2.1066389L7.0017185,2.2048566v0.833338H6.6568336V1.4432688h0.3448849
		v0.3178096L7.04598,1.6848944l0.0518823-0.0664563l0.0592141-0.0565796L7.2233267,1.515282l0.07301-0.0364478l0.079495-0.02617
		l0.0856943-0.0158119L7.5531898,1.4315472z"/>
	<path d="M8.4684973,2.306638L8.1982727,2.5915058v0.4466889H7.8533883V0.8134932h0.3448844v1.3430223l0.7044582-0.7132468
		h0.3961706L8.7079449,2.0605896l0.6356316,0.9776051H8.9356728L8.4684744,2.306638H8.4684973z"/>
	<path d="M11.053484,0.9394507l-0.0029221,0.3178095H9.99825v0.6055993h0.9534531v0.3148878H9.99825v0.860436H9.6445541V0.9394507
		H11.053484z"/>
	<path d="M12.7956095,1.4432688v1.5949488h-0.3448839V2.7262404l-0.0446854,0.0775015l-0.0529938,0.0662727l-0.0609455,0.0553761
		l-0.0685062,0.0448008l-0.0756226,0.0345342l-0.0824976,0.0245891L11.9766064,3.04421l-0.0948839,0.0056489L11.7514563,3.039077
		l-0.115633-0.0315671l-0.1001434-0.0515609l-0.0838261-0.0704093L11.385191,2.7973135l-0.0486507-0.1050925l-0.0297909-0.1209161
		l-0.0101175-1.1279795h0.3448839l0.0065193,0.9819477l0.0191698,0.0761724l0.0312004,0.0661469l0.042613,0.0555024
		l0.0534277,0.044239l0.0636377,0.0323806l0.0732279,0.0198681l0.0822105,0.0067601l0.0978394-0.0116296l0.0866337-0.0294013
		L12.27285,2.6398234l0.0625143-0.0599368l0.049612-0.0727007l0.0361385-0.0838034l0.0220919-0.0932448l0.007493-0.8867666
		L12.7956095,1.4432688z"/>
	<path d="M14.8328476,2.0459464v0.9922597h-0.3456411l-0.0066338-0.9818904l-0.0195475-0.0761725l-0.0319099-0.0661583
		l-0.0437117-0.0555023l-0.0549994-0.0442507l-0.0656757-0.0323687l-0.0757961-0.0198339l-0.085453-0.0067601l-0.0941048,0.0093154
		l-0.0843077,0.0248637l-0.0740185,0.0390488l-0.0632706,0.0519046l-0.0520535,0.0633969l-0.0403433,0.0735486l-0.0281744,0.08236
		l-0.0155487,0.0898077v0.8487256h-0.3448839V1.4432688h0.3448839v0.3061569l0.0467491-0.0773641l0.0549173-0.0659062
		l0.0628357-0.0548036l0.0704784-0.0440444l0.077857-0.0336406l0.0849714-0.0236036l0.1902027-0.0184587l0.1318703,0.0107819
		l0.117135,0.03167l0.1015053,0.0515609l0.0850182,0.0703977l0.0676022,0.0882262l0.049531,0.1050582l0.0302839,0.1209159
		l0.0103121,0.1357311H14.8328476z"/>
	<path d="M17.7151432,0.9394507v0.3178095h-1.1453037v0.5697246h1.0252132v0.3148879h-1.0252132v0.5785124h1.1804581v0.3178096
		h-1.5348854V0.9394507H17.7151432z"/>
	<path d="M18.5221424,0.8134932v2.2247014h-0.3456421V0.8134932H18.5221424z"/>
	<path d="M20.4495296,2.3725441h-1.2053776l0.0265026,0.087791l0.0382805,0.0783725l0.0492687,0.0682437l0.059351,0.0574157
		l0.0686092,0.0458317l0.0770435,0.0336404l0.0846291,0.020705l0.0913773,0.0070577l0.1273098-0.0121799l0.1189232-0.0357833
		L20.093668,2.665329l0.0951805-0.079736l0.1830635,0.1947856L20.3098888,2.840945l-0.0683689,0.0535202l-0.0744762,0.0461526
		l-0.0803547,0.038487l-0.1773586,0.0526378l-0.1979485,0.018115l-0.1758633-0.0148482l-0.1583614-0.0435405l-0.1390419-0.0700998
		l-0.1178799-0.0946317l-0.0948849-0.1171341l-0.0700436-0.137553l-0.0433674-0.1559772l-0.0148964-0.1723509l0.0152187-0.173336
		l0.0441227-0.1567334l0.0707989-0.1381946l0.0952511-0.1176963l0.1173992-0.0951813l0.1373234-0.0707414l0.1550045-0.0443195
		l0.1704273-0.0159495l0.1948872,0.0168316l0.1644459,0.0492692l0.1347122,0.079885l0.105711,0.1086788l0.0774212,0.1356624
		l0.0498543,0.1608242l0.0230198,0.1841751l-0.0031052,0.2056823L20.4495296,2.3725441z M20.149332,2.1206405l-0.011734-0.0917897
		l-0.0258827-0.0816035l-0.0391979-0.0707988l-0.0516987-0.0593408l-0.0633621-0.0472641l-0.074213-0.0345572l-0.08424-0.0211859
		l-0.0934963-0.0072067l-0.0908966,0.0073217l-0.0832634,0.0214604l-0.0747414,0.0349123l-0.065424,0.047585l-0.0553665,0.0595815
		l-0.0444794,0.0707529l-0.0327587,0.0812141l-0.020256,0.0909419L20.149332,2.1206405z"/>
	<path d="M21.4776649,1.7339917L21.3782883,1.743479l-0.0907021,0.0276138l-0.0805931,0.0444111l-0.0691128,0.0599595
		l-0.0561428,0.0740873l-0.0418911,0.0869431L21.013689,2.1350322l-0.0090275,0.108736l0.0090275,0.1089423l0.0261574,0.0985384
		l0.0418911,0.0869546l0.0561428,0.0740299l0.0691147,0.0598218l0.080595,0.0443196l0.0907021,0.0274992l0.0993729,0.009464
		l0.1437168-0.0122712l0.1271839-0.0364246l0.057188-0.0271213l0.0525684-0.0329416l0.0478935-0.0387051l0.0430927-0.0444109
		l0.191864,0.1918638l-0.0579109,0.0669835l-0.0659618,0.0590658l-0.0738239,0.0508163L21.8618965,2.972472l-0.0889816,0.0334229
		l-0.0962467,0.0242453l-0.2136669,0.0197766l-0.17029-0.0149074l-0.1546822-0.0435405l-0.1368542-0.0700998L20.884304,2.8267374
		l-0.0946655-0.1171341l-0.0703297-0.1376102l-0.0437927-0.1559775l-0.015089-0.1723506l0.015089-0.1734164l0.0437927-0.1569742
		l0.0703297-0.1385497l0.0946884-0.118017l0.1168709-0.0953761l0.1368523-0.0706843l0.1546841-0.0439299l0.170311-0.0151017
		l0.2041225,0.0171871l0.1788712,0.0503119l0.0796127,0.0370551l0.0728836,0.0446861l0.0660191,0.0521338l0.059021,0.0593523
		l-0.1889324,0.2218835l-0.0913773-0.0767683l-0.0515594-0.0312229l-0.0553532-0.0260327l-0.1219482-0.0353593l-0.136694-0.0108391
		L21.4776649,1.7339917z"/>
	<path d="M23.4036007,2.936471L23.308075,2.9861753l-0.0973911,0.0365164L23.1115952,3.045218l-0.1004639,0.0076885
		L22.922905,3.0462954l-0.0829678-0.0200627L22.7641773,2.992065l-0.0665359-0.0488799l-0.0552731-0.0641649L22.6003857,2.798929
		l-0.0266724-0.0966136l-0.0093498-0.9412146h-0.2255383V1.5032966h0.2255383V1.0653852h0.3412533v0.437912h0.4715996v0.257804
		h-0.4715996l0.0029221,0.821101l0.0086174,0.0466797l0.0141048,0.0374906l0.0193977,0.0290461l0.0244751,0.0213232
		l0.0293427,0.0143223l0.0340195,0.0080206l0.038475,0.0025208l0.0546322-0.0044687l0.0572319-0.0131879l0.1283283-0.0511713
		l0.0864162,0.2636249L23.4036007,2.936471z"/>
	<path d="M24.6191998,1.4315472v0.3295312L24.504528,1.7638969L24.4015331,1.78459l-0.0906429,0.0371581L24.233284,1.8739505
		l-0.0638657,0.0658261l-0.0494518,0.0780288l-0.0343761,0.0888336L24.06703,2.2048566v0.833338h-0.3441753V1.4432688H24.06703
		v0.3178096l0.0445156-0.0761839l0.0520515-0.0664563l0.0593414-0.0565796l0.0663414-0.0465765l0.0730686-0.0364478
		l0.0795288-0.026193l0.0856953-0.0158119l0.0916634-0.0053051L24.6191998,1.4315472z"/>
	<path d="M26.419178,2.2378099l-0.0155602,0.1734393l-0.0452023,0.1569743L26.2857952,2.706773l-0.0978394,0.1180172
		l-0.1208344,0.0953763l-0.1416206,0.070684l-0.1601944,0.0439301l-0.1765442,0.0151012L25.41082,3.0347805l-0.1611099-0.0439301
		l-0.1421719-0.070684l-0.1210537-0.0953417l-0.097887-0.1180174l-0.0725632-0.1385496l-0.0450878-0.1569743l-0.0155029-0.1734393
		l0.0155029-0.1723621l0.0450878-0.1559774l0.0725632-0.1374954l0.097887-0.1171119l0.121088-0.09462l0.14217-0.0701112
		l0.1611099-0.0435405l0.1779423-0.0149757l0.1765442,0.0149757l0.1601944,0.0435405l0.1416206,0.0701112l0.1208344,0.09462
		l0.0978413,0.1171119l0.0726185,0.1375527l0.0452023,0.1559775l0.0155602,0.1723621L26.419178,2.2378099z M25.0995865,2.243665
		l0.0091648,0.1110046l0.0266743,0.1003718l0.042841,0.0884669l0.0576801,0.0752673l0.0712223,0.0607271l0.0834141,0.0450068
		l0.0942993,0.0279577l0.1038551,0.0096018l0.1023998-0.0096018l0.0932102-0.0279577l0.0826359-0.0450068l0.0706844-0.0607271
		l0.0573692-0.0752676l0.0426807-0.0884669l0.0266171-0.1003718l0.0091667-0.1110046l-0.0091667-0.1099966l-0.0266171-0.0998905
		l-0.0426807-0.0883982l-0.0573692-0.0755081l-0.0706844-0.0611856l-0.0826359-0.0454652l-0.0931969-0.0282663l-0.1024017-0.0097508
		l-0.1038532,0.0097508l-0.0942993,0.0283126L25.3071823,1.808732L25.23596,1.8699175l-0.0576801,0.0755081l-0.042841,0.0883983
		l-0.0266743,0.0998905l-0.0091648,0.1099963L25.0995865,2.243665z"/>
	<path d="M28.3055592,2.0459464v0.9922597h-0.3456421l-0.0066357-0.9818904l-0.0195465-0.0761725l-0.0318985-0.0661469
		L27.8581238,1.858494l-0.0549984-0.0442507l-0.0655823-0.0323801L27.661644,1.7620293l-0.0854416-0.0067601l-0.0941162,0.0093154
		L27.397768,1.7894483l-0.0740395,0.0390488l-0.0633278,0.0519046l-0.0521336,0.0633969l-0.0404797,0.0735486l-0.0283585,0.08236
		l-0.0157776,0.0898077v0.8487256h-0.3441849V1.4432688h0.3441849v0.3061569l0.046978-0.0773641l0.0551014-0.0659062
		l0.0629635-0.0548036l0.07057-0.0440444l0.0779133-0.0336406l0.0849972-0.0236036l0.1902027-0.0184587l0.1318684,0.0107819
		l0.117136,0.03167l0.1015053,0.0515609l0.0850182,0.0703977l0.0676022,0.0882262l0.0494061,0.1050926l0.030283,0.1209159
		l0.010313,0.135731L28.3055592,2.0459464z"/>
	<path d="M29.1403751,0.9877802l-0.0039997,0.0423945l-0.0114594,0.038854l-0.0182629,0.0346719l-0.0242805,0.0297906
		L29.0527992,1.157828l-0.0341091,0.0181838l-0.0379276,0.0113891l-0.0410061,0.0039414l-0.0414219-0.0039414l-0.0381203-0.0113891
		L28.8260689,1.157828l-0.0294704-0.0243368l-0.0240612-0.0297906l-0.0180798-0.0346719l-0.0113564-0.038854L28.739172,0.9877802
		l0.0039291-0.0433798l0.0113564-0.0396675l0.0180798-0.0353022l0.0240612-0.0303062l0.0294514-0.0246689l0.0341454-0.0184128
		l0.0381203-0.011458l0.04142-0.0039873l0.041008,0.0039873l0.0379257,0.011458l0.034111,0.0184128l0.0295734,0.0246804
		l0.0242805,0.0303062l0.0182629,0.0353021l0.0114574,0.0396675l0.0039997,0.0433797L29.1403751,0.9877802z M29.109621,1.4432688
		v1.5949488h-0.3412533V1.4432688H29.109621z"/>
	<path d="M30.2886124,1.7339917L30.1892242,1.743479l-0.0906887,0.0276138l-0.0806065,0.0444111l-0.0691013,0.0599595
		l-0.0562,0.0740873l-0.0418797,0.0869431l-0.0261707,0.0985384l-0.0090294,0.108736l0.0090294,0.1089423l0.0261707,0.0985384
		l0.0418797,0.0869546l0.0562,0.0740299l0.0691032,0.0598218l0.0806065,0.0443196l0.0906906,0.0274992l0.0993862,0.009464
		l0.1437054-0.0122712l0.1271839-0.0364246l0.0571499-0.0271213l0.0525684-0.0329416l0.0478954-0.0387051l0.0430908-0.0444109
		l0.1918526,0.1918638l-0.057909,0.0669835l-0.0659618,0.0590658l-0.0738239,0.0508163l-0.0814896,0.0422685l-0.0889702,0.0334229
		l-0.0962467,0.024245l-0.2136784,0.0197766l-0.1703682-0.0148964l-0.1546822-0.0435405l-0.1368542-0.0700998l-0.1168709-0.0946317
		l-0.0945988-0.1171341l-0.0703506-0.1376102l-0.0438061-0.1559775L29.4713707,2.243665l0.0150795-0.1734164l0.0438061-0.1569742
		l0.0703506-0.1386412l0.0946884-0.118017l0.1168709-0.0953761l0.1368542-0.0706843l0.1546822-0.0439299l0.1702995-0.0151016
		l0.2041359,0.017187l0.1788578,0.050312l0.0796108,0.037055l0.0728951,0.0446862l0.0660191,0.0521338l0.0590096,0.0593523
		L30.7455997,1.914134l-0.0913773-0.0767683l-0.0515614-0.0312229l-0.0553665-0.0260327l-0.1219921-0.0352906L30.28862,1.7339803
		L30.2886124,1.7339917z"/>
	<path d="M31.761982,1.7039604l-0.0934639,0.0088685l-0.039896,0.0114579l-0.0343761,0.0165454l-0.0280132,0.0218617
		L31.5452747,1.790193L31.532156,1.8234897L31.5275745,1.862905l0.0365047,0.0912282l0.0961781,0.0627553l0.447298,0.1569741
		l0.1355247,0.0883985l0.0955009,0.1296926l0.0355186,0.1849313l-0.0131531,0.1140983l-0.0373993,0.0976102l-0.0585022,0.0814211
		l-0.0766907,0.0658028l-0.0916634,0.0504949l-0.1036835,0.0355198l-0.1125736,0.02106l-0.206749,0.0033114l-0.17589-0.0285418
		L31.3312435,2.961518l-0.1473274-0.0826464L31.120554,2.8279183l0.123024-0.2453151l0.0553417,0.0438154l0.1283302,0.0728037
		l0.1411743,0.0509763l0.1414356,0.0266745l0.1205502,0.001008l0.0494747-0.0074365l0.0443535-0.012604l0.0383263-0.0180347
		l0.0313931-0.0236378l0.0235481-0.029424l0.014801-0.0354166l0.0051346-0.0416043l-0.0360565-0.1012998L31.9063644,2.4401
		l-0.4418888-0.1558282l-0.1338863-0.0851328l-0.0943336-0.1265073l-0.0350971-0.1827545l0.0127411-0.1127577l0.0361843-0.0958802
		l0.0565796-0.0795754l0.073904-0.063844l0.0882263-0.0486619l0.0994205-0.0340647l0.1075783-0.0200169l0.1888142-0.0037695
		l0.1514187,0.0215869l0.1441269,0.0415353l0.1294785,0.0597647l0.0568886,0.0361727L32.220562,1.845203l-0.1111412-0.058848
		l-0.1180191-0.0444913l-0.1180172-0.0281637l-0.1111431-0.009831L31.761982,1.7039604z"/>
	<path d="M2.1385558,4.3197112v0.1881967H1.2114805v0.6370625H2.041908v0.1852751H1.2114805v0.767478H1.0086744V4.3197112H2.1385558
		z"/>
	<path d="M3.2055104,4.4998531L3.0592039,4.514061L2.9231634,4.554863L2.8002427,4.6195316L2.6932712,4.7053518L2.6051133,4.8096194
		L2.5386572,4.9295845L2.496675,5.0624971L2.4820428,5.2057219L2.496675,5.34866l0.0419822,0.1330957l0.0664561,0.1204119
		l0.0881579,0.1048975l0.1069715,0.0865192l0.1229208,0.0653105l0.1360404,0.0412483l0.1463065,0.0143914L3.3505795,5.899765
		l0.138974-0.0423946l0.1283293-0.0670748l0.1133535-0.088902l0.124491,0.1347342L3.7133849,5.9476366L3.5524344,6.0324135
		L3.377964,6.0862656L3.1952553,6.1050911L3.0085936,6.0870795L2.8354068,6.0352778l-0.1561952-0.082119L2.5435147,5.8440671
		L2.4318571,5.7113957L2.3477442,5.5585351L2.2946939,5.3888655L2.2762351,5.20579l0.0186882-0.181036L2.348592,4.8568263
		l0.0850413-0.1514745l0.1128154-0.1315718L2.683429,4.4655252l0.1575353-0.0815573l0.1745048-0.0514235l0.1878417-0.0178976
		l0.1804857,0.0179543L3.555918,4.3841619L3.7142897,4.465754l0.1392946,0.1081634L3.7312934,4.7211061L3.6188676,4.6286864
		L3.4903779,4.5590792L3.3508887,4.5151496C3.3508887,4.5151496,3.2055099,4.4998531,3.2055104,4.4998531z"/>
	<path d="M4.9469032,4.4998531L4.8005967,4.514061L4.664556,4.554863L4.5416355,4.6195316L4.4346638,4.7053518L4.3465061,4.8096194
		L4.2800498,4.9295845L4.2380562,5.0624971L4.2234359,5.2057219L4.2380562,5.34866l0.0419936,0.1330957l0.0664563,0.1204119
		l0.0881577,0.1048975l0.1069717,0.0865192L4.664556,5.8588948l0.1360407,0.0412483l0.1463065,0.0143914L5.0920181,5.899879
		l0.1389623-0.0423946l0.1283984-0.0670748l0.1133533-0.0889025l0.1244912,0.1347342L5.4548812,5.9477501L5.2938275,6.0324135
		L5.1193576,6.0862656L4.9366488,6.1050911L4.7499871,6.0870795L4.5767994,6.0352778l-0.1562181-0.082119L4.2848959,5.8440671
		L4.1732383,5.7113957L4.0891256,5.5585351L4.0360751,5.3888655L4.0176163,5.20579l0.0186882-0.181036l0.0536804-0.1679277
		l0.085041-0.1514745l0.1128154-0.1315718l0.1369805-0.1082549l0.1575351-0.0815573l0.1744933-0.0514235l0.1878533-0.0178976
		l0.1804857,0.0179543l0.1721101,0.0515609L5.4556828,4.465754l0.1393404,0.1080599L5.4727321,4.7210031L5.3603063,4.628686
		L5.2318058,4.5590792L5.0922823,4.5151496L4.9469032,4.4998531z"/>
	<path d="M6.9372773,4.3197112v1.7780123h-0.202806V4.3197112H6.9372773z"/>
	<path d="M9.1121826,5.2087116L9.0940447,5.3920388L9.0417509,5.5608487l-0.083231,0.1512451L8.8475485,5.8427143
		L8.7120237,5.9496861L8.5551634,6.029892L8.3801661,6.080307L7.4791713,6.0977235V4.3197112l0.9065309,0.0174732
		l0.1734848,0.0504155l0.1555996,0.0802059l0.1345053,0.1069598l0.1102028,0.130621l0.0826797,0.1512451l0.0519733,0.1687984
		l0.0180349,0.18327V5.2087116z M8.9063749,5.2108774L8.8920641,5.0654526L8.8509293,4.9317379L8.7857227,4.81214
		L8.6990776,4.7089381L8.5937214,4.6245503L8.4723482,4.5613251L8.3376827,4.5216575L7.6820121,4.5079079v1.401607
		l0.6625457-0.0136461l0.1333599-0.039381l0.1200218-0.0627785l0.1040726-0.0838265l0.0854979-0.10256l0.0643024-0.1189108
		l0.0405159-0.1329126L8.9063749,5.2108774z"/>
	<path d="M9.5969582,5.2343426L9.5945625,5.2609367L9.5876884,5.285491L9.5766888,5.3075361L9.5620346,5.3266139
		L9.5441599,5.3422542L9.5235357,5.3540101L9.5004826,5.3614006L9.4755049,5.363956L9.4497576,5.3614006L9.4260855,5.3540101
		L9.4047966,5.3422542L9.3864641,5.3266139L9.3715696,5.3075361L9.3603745,5.285491L9.3533401,5.2609367L9.3509445,5.2343426
		l0.002429-0.0267997l0.0070353-0.0246577L9.371604,5.1608286l0.0148945-0.019032l0.0183325-0.0155597l0.0211859-0.0116525
		l0.0236721-0.0073218l0.0257463-0.0025325l0.0249786,0.0025325l0.0230532,0.0073218l0.0206242,0.0116525l0.0178747,0.0155597
		l0.0146542,0.019032l0.0109997,0.0220566l0.0068741,0.0246577l0.0023947,0.0267997H9.5969582z M9.5969582,5.9886093
		L9.5945625,6.015203L9.5876884,6.0397463L9.5766888,6.0618024L9.5620346,6.0808802L9.5441599,6.0965204L9.5235357,6.1082649
		L9.5004826,6.1156554L9.4755049,6.1182222L9.4497576,6.1156554L9.4260855,6.1082649L9.4047966,6.0965776L9.3864641,6.0809379
		L9.3715696,6.0618601L9.3603745,6.0398035L9.3533392,6.0152259L9.3509445,5.9886098l0.002429-0.0268116l0.0070353-0.0246463
		L9.371604,5.9150953l0.0148945-0.0190315l0.0183325-0.0155597l0.0211859-0.0116644l0.0236721-0.0073104l0.0257463-0.0025439
		l0.0249786,0.0025439l0.0230532,0.0073104l0.0206242,0.0116644l0.0178747,0.0155597l0.0146542,0.0190315l0.0109997,0.0220566
		l0.0068741,0.0246463l0.0023947,0.0268116L9.5969582,5.9886093z"/>
	<path d="M11.5880661,4.771533L11.581501,4.7092934l-0.0192842-0.0551815l-0.0314293-0.0477681L11.487855,4.566401
		l-0.0539207-0.0317383l-0.0642681-0.0231452L11.2956247,4.497344l-0.083209-0.0048122l-0.0638208,0.0038495l-0.1309767,0.029676
		l-0.1303225,0.0564423l-0.1235619,0.0802059L10.7064438,4.710772l-0.088604-0.1552553l0.1411848-0.1026978l0.1534681-0.0774446
		l0.1610298-0.0488796l0.1638489-0.0170269l0.1212711,0.0078263L11.4678593,4.34021l0.0959034,0.0371237l0.0813522,0.0505066
		l0.0654478,0.0630188l0.0483294,0.074717l0.0299292,0.0855451l0.0103121,0.0955253l-0.0060501,0.0645881l-0.0176105,0.0676827
		L11.7086954,5.021626l-0.1035795,0.1492972L10.894722,5.9095263h1.0112915v0.1881971h-1.2706318V5.9329581l0.8016453-0.8406367
		l0.0808592-0.1161952l0.0518932-0.108633l0.0136347-0.0498881l0.0046864-0.046061L11.5880661,4.771533z"/>
	<path d="M13.4583387,5.6429687h-0.9680939l-0.1977186,0.4547439h-0.2160292l0.7974749-1.7780008h0.2108955l0.7945404,1.7780118
		h-0.2204285C13.6589794,6.0977235,13.4583387,5.6429796,13.4583387,5.6429687z M13.3770561,5.4547601l-0.4042492-0.9138989
		l-0.3983707,0.9138985L13.3770561,5.4547601z"/>
	<path d="M14.6614933,4.510108l-0.0819016,0.0042276l-0.0737085,0.0125008l-0.0647717,0.0203152l-0.0549641,0.0278082
		l-0.0442047,0.0349584l-0.0326319,0.0417295l-0.0202227,0.0481234l-0.0068741,0.0542073l0.0430365,0.1434307l0.1134338,0.0961437
		l0.5276051,0.1909471l0.1599188,0.0932331l0.1127577,0.1390538l0.0420847,0.2034931L15.269043,5.725636l-0.0349121,0.0945854
		l-0.0561438,0.082818l-0.0756226,0.0700312L15.0088673,6.029295l-0.109664,0.0414205l-0.1241474,0.0255852l-0.1369562,0.0087652
		l-0.1921301-0.0199456l-0.1824799-0.0558004l-0.165452-0.0859342l-0.1409912-0.1100202l0.0922709-0.1750207l0.134058,0.1053214
		l0.1486092,0.0782008l0.1551991,0.0486965l0.1538229,0.0167627l0.0914564-0.0048122l0.0816612-0.0141392l0.0711193-0.0230651
		l0.059845-0.0315895l0.0478153-0.0396328l0.0350733-0.0473671l0.0215979-0.0546427l0.0073566-0.0615177l-0.042016-0.1473269
		l-0.112587-0.0981946l-0.5264359-0.1885638l-0.1600914-0.0906439L14.102562,4.9697671l-0.0429783-0.2004228l0.0112858-0.0999818
		l0.0329189-0.0895438l0.0531073-0.0782237l0.0718412-0.0659981l0.0891428-0.0528903l0.1050129-0.0388765l0.1194153-0.0239816
		l0.2094288-0.0051327l0.152483,0.0232363l0.1450005,0.0433912l0.1310682,0.0603147l0.0582867,0.0355201L15.1521587,4.65732
		l-0.1246519-0.0668688L14.8997049,4.544734l-0.124239-0.0262275l-0.1139374-0.0083756L14.6614933,4.510108z"/>
	<path d="M15.6691303,4.3197112l0.4876976,1.5495296l0.4818516-1.5495291h0.2035732l0.487709,1.5495291l0.4818535-1.5495291
		h0.2108936l-0.5960884,1.7780118h-0.2079601l-0.4803867-1.5063214l-0.4861965,1.5063214h-0.2079754l-0.5946674-1.7780008
		L15.6691303,4.3197112z"/>
	<path d="M19.3803883,4.7561564L19.3753815,4.823472l-0.0147247,0.0623312l-0.0239925,0.0571752l-0.0328045,0.0518131
		l-0.0412464,0.0462899L19.2135029,5.081677l-0.0566025,0.0346951l-0.0636368,0.028645l0.0824966,0.0301456l0.0734921,0.0385447
		l0.0638905,0.0465536l0.0536442,0.0541844l0.0428066,0.0614376l0.0313377,0.0682893l0.0192604,0.0747514l0.0065536,0.0808477
		l-0.0115509,0.1121159l-0.0338917,0.0996842l-0.0551109,0.0864615l-0.0751991,0.0724716l-0.0941391,0.0577145L19.084898,6.0703955
		l-0.1286392,0.0258727l-0.144186,0.0087996l-0.1442451-0.0086737l-0.1287403-0.0255623l-0.112196-0.041707L18.332489,5.9719496
		l-0.0754623-0.0719328l-0.0553532-0.0859923L18.1676197,5.714684l-0.0116291-0.1119442l0.006691-0.0817986L18.182354,5.445456
		l0.0320835-0.0688162l0.0437698-0.0617814l0.054882-0.0543909l0.0653915-0.0466685l0.0752792-0.0385904l0.084547-0.0301456
		L18.472126,5.1153641l-0.0587444-0.0357032l-0.0508862-0.0415463l-0.0426579-0.0472302l-0.0338688-0.0527067l-0.0247364-0.058023
		l-0.0151482-0.063168l-0.0051441-0.0681405l0.0101757-0.0968771l0.029789-0.0863929l0.048296-0.0751414l0.0656872-0.0631561
		l0.0819588-0.050415l0.097105-0.0369406l0.1111431-0.0227098l0.1240768-0.0077457l0.1258774,0.0077572l0.1122875,0.0228128
		l0.0976791,0.0372043l0.0821209,0.0509534l0.0655727,0.0640268l0.0480442,0.076448l0.0295486,0.0882263l0.0100708,0.0992947
		L19.3803883,4.7561564z M18.3478527,5.5821838l0.0079288,0.0803547l0.0234203,0.0710392l0.0383148,0.0613232l0.0526276,0.0511599
		l0.0663528,0.0405498l0.0795059,0.0295043l0.0920773,0.0180349l0.1040382,0.0061073l0.1031208-0.0061073l0.0915165-0.0180001
		l0.0792198-0.0294242l0.0662727-0.0403895l0.0527058-0.0508962l0.0384426-0.0609336l0.0235443-0.0705242l0.0080204-0.0796213
		l-0.0080204-0.0760007l-0.0235806-0.0677962l-0.0385666-0.0589633l-0.0529003-0.0495901l-0.0666275-0.0395989l-0.0797348-0.0290117
		l-0.0922356-0.0178514l-0.1041088-0.006073l-0.1031208,0.0059466l-0.0913429,0.0175304l-0.0789795,0.0285764l-0.0660095,0.0391059
		l-0.0524197,0.0491433l-0.0382004,0.0586419l-0.0233727,0.0676017l-0.0079288,0.0761156L18.3478527,5.5821838z
		 M18.415226,4.7693443l0.006876,0.0677509l0.020153,0.0601659l0.0329304,0.0521336L18.52034,4.9930491l0.0568199,0.0347404
		l0.0679455,0.0253568l0.0785084,0.0155482L18.812151,5.073977l0.0884209-0.0052824l0.0781765-0.0155482l0.0674763-0.0253568
		l0.0562801-0.0347404l0.0446186-0.0436544l0.0324593-0.0521336l0.0198345-0.0601659l0.006712-0.0677509l-0.006712-0.0685987
		l-0.0198288-0.0605669l-0.0324612-0.0521793l-0.0446167-0.0434718l-0.056282-0.0343742l-0.0674763-0.025001l-0.0781765-0.0152507
		l-0.0884209-0.005156l-0.0885353,0.005156l-0.0785103,0.0152507l-0.0679455,0.025001l-0.056818,0.0343742l-0.0451565,0.0434718
		l-0.0329304,0.0521793l-0.020153,0.0605664C18.4221058,4.7007451,18.4152298,4.7693439,18.415226,4.7693443z"/>
	<path d="M20.3601933,5.2570415v0.1450005h-0.5975552V5.2570415H20.3601933z"/>
	<path d="M21.9199772,5.6429687h-0.966629l-0.1991844,0.4547439H20.538868l0.7981968-1.7780008h0.2094421l0.7952614,1.7780118
		h-0.2211399C22.1206284,6.0977235,21.9199886,5.6429796,21.9199772,5.6429687z M21.8394165,5.4547601l-0.4042282-0.9138985
		l-0.3983574,0.9138985H21.8394165z"/>
	<path d="M23.7917156,6.0977235l-0.3734722-0.5689912L22.8324089,5.533865v0.5638585h-0.2035732V4.3197112l0.8331432,0.0101171
		l0.1394806,0.0298944l0.120182,0.0490055l0.1000977,0.0674186l0.0792332,0.0851669l0.0575638,0.1022391l0.0351315,0.1186357
		l0.0118828,0.1343446l-0.0067387,0.1052184l-0.019928,0.0963159l-0.0327358,0.087081l-0.045145,0.0775242l-0.0571518,0.0676022
		L23.7751045,5.407702l-0.0799999,0.0468855l-0.0908394,0.0360236l0.4188786,0.6070662L23.7917156,6.0977235z M23.3040085,5.3456683
		l0.114212-0.0067487l0.1006699-0.0201659l0.0865879-0.0334921l0.0719891-0.0466909l0.0569-0.0598221l0.0412483-0.0728154
		l0.0251389-0.0857286l0.0084915-0.0985384l-0.0084534-0.0957766l-0.0251389-0.0834823l-0.0412483-0.0710392l-0.0569-0.0584359
		l-0.071991-0.0457172l-0.086586-0.0328383l-0.1006699-0.0198107l-0.5858707-0.0066581v0.8377495L23.3040085,5.3456683z"/>
	<path d="M25.5946159,4.3197112v0.1881967h-0.5814457v1.5898156h-0.2021065V4.5079079h-0.5799789V4.3197112H25.5946159z"/>
	<path d="M26.9918346,5.5514307l-0.0120983,0.1180172l-0.0355186,0.1069255L26.8865261,5.87081l-0.0787182,0.080492
		l-0.0985374,0.0651155L26.5920544,6.064713L26.457365,6.0947556l-0.1509686,0.0103121L26.138237,6.0923381l-0.1631947-0.0358629
		l-0.1505814-0.055285l-0.1302528-0.0712113L25.7835789,5.76228l0.1126328,0.0700774l0.1260395,0.0527639l0.134882,0.0332279
		l0.1389961,0.0115838l0.1109581-0.006875l0.0984478-0.0200167l0.0852356-0.0322199l0.0713158-0.0435405l0.056694-0.0538526
		l0.0413742-0.0632248l0.0253334-0.0716701l0.0085945-0.0792089L26.785387,5.4797611l-0.0257015-0.0694013l-0.0419006-0.0589848
		l-0.0574398-0.0484676l-0.0721855-0.0378113l-0.0862217-0.0271554l-0.0995121-0.0163736l-0.3478527-0.0054765V5.0915422
		l0.5916882-0.5836344h-0.8655701L25.777771,4.3197112h1.124794v0.1347456l-0.6224747,0.6173205l0.2399864,0.0187907
		l0.1171455,0.0274992l0.1027889,0.0409851l0.0870819,0.0540361l0.070076,0.0666623l0.0517197,0.0788765l0.0320015,0.0906901
		l0.0109787,0.1020904L26.9918346,5.5514307z"/>
	<path d="M27.7197247,4.3197112l0.6502972,1.2903042l0.6473751-1.2903042h0.2489834v1.7780123h-0.1889305L29.075983,4.6192336
		l-0.648819,1.2902927h-0.1215572l-0.6444187-1.2902927v1.4784899H27.467823V4.3197112H27.7197247z"/>
	<path d="M30.0191212,4.3197112v1.7780123h-0.2035732V4.3197112H30.0191212z"/>
	<path d="M31.0750866,4.510108l-0.0818348,0.0042276l-0.0735931,0.012455l-0.0645313,0.0203152l-0.0546417,0.027854
		L30.756546,4.6099181l-0.0324039,0.0417295l-0.02005,0.0481234l-0.006876,0.0542073l0.0429783,0.1434307l0.1132736,0.0961437
		l0.5268383,0.1909471l0.1596889,0.0932331l0.112587,0.1390538l0.042017,0.2034931L31.6825905,5.725636l-0.0349007,0.0945854
		l-0.0561447,0.082818l-0.0756226,0.0700312L31.4224262,6.029295l-0.1096649,0.0414205l-0.1241589,0.0255852l-0.1369572,0.0087652
		l-0.1920605-0.0199456l-0.1823063-0.0558004l-0.1649933-0.0859342l-0.1401653-0.1100998l0.0908051-0.1750202l0.134058,0.1053214
		l0.1486092,0.0782008l0.1551991,0.0486965l0.1538353,0.0167627l0.0914574-0.0048122l0.0816612-0.0141392l0.0711212-0.0230651
		l0.059845-0.0315895l0.0477867-0.0395536l0.0350857-0.0473671l0.0215874-0.0546427l0.0073566-0.0615177l-0.042017-0.1473269
		l-0.112587-0.0981946l-0.5264263-0.1885638l-0.1601028-0.0906439L30.516098,4.9697671l-0.0429783-0.2004228l0.0112953-0.0999818
		l0.0329208-0.0895438l0.0531082-0.0782237l0.0718403-0.0659981l0.0891438-0.0528903l0.1050014-0.0388765l0.1194286-0.0239816
		l0.2094269-0.0051327l0.152483,0.0232363l0.1450005,0.0433912l0.1310558,0.0603147l0.0582886,0.0355201L31.5657082,4.65732
		l-0.124651-0.0668688L31.3132439,4.544734l-0.1242275-0.0262275l-0.1139469-0.0083756L31.0750866,4.510108z"/>
	<path d="M1.2598102,7.3792291l0.6503313,1.2903037l0.6480856-1.2903037h0.24897v1.7780004H2.6189427L2.6160209,7.6787391
		L1.9686687,8.9690905H1.8463778L1.2012255,7.6787391v1.4784904H1.0086399V7.3792291H1.2598102z"/>
	<path d="M4.5500569,8.4864569L4.5371666,8.6301746l-0.037353,0.130621L4.4399576,8.8764057L4.3595686,8.975173L4.2606063,9.0552416
		L4.145041,9.1147432l-0.130208,0.037055l-0.1428812,0.012764L3.7281766,9.1517868l-0.1306207-0.037055L3.4819334,9.0552301
		L3.3831661,8.9751625L3.3030977,8.8763952L3.2436194,8.7607841l-0.037055-0.130621l-0.012764-0.1437168l0.012764-0.142663
		L3.2436194,8.21416l0.0595012-0.1147299l0.0800683-0.098012l0.0987673-0.0794487l0.1156225-0.0590429l0.1306207-0.0367689
		l0.1437173-0.0126719l0.1428809,0.0126719l0.130208,0.0367689L4.260571,7.9219694l0.0989623,0.0794487l0.080389,0.098012
		l0.0598564,0.1147518l0.037353,0.1296234l0.0128903,0.142663L4.5500569,8.4864569z M3.3915765,8.4893789L3.400651,8.5969915
		l0.0263531,0.097393l0.0422456,0.0858316l0.0568087,0.0730562l0.0700312,0.0590191l0.0818896,0.0437241l0.0924084,0.0271559
		l0.1015866,0.009326l0.1007156-0.009326l0.0919387-0.0271559l0.081718-0.0437241L4.216435,8.8532724L4.273427,8.7802162
		l0.0424857-0.0858316l0.0265484-0.097393l0.0091662-0.1076126L4.3424611,8.3831301L4.3159127,8.2866192L4.2733464,8.201211
		L4.2163548,8.1282701L4.1462665,8.069169L4.064548,8.0252628L3.9725752,7.9979129l-0.1007156-0.009418L3.770273,7.9979129
		L3.6778646,8.0252638L3.5959747,8.06917L3.5259435,8.1282711L3.4691348,8.2012119L3.4268894,8.2866201L3.4005363,8.383131
		L3.3914618,8.4893799L3.3915765,8.4893789z"/>
	<path d="M6.133215,7.2723141v1.8849154H5.9354968v-0.287056L5.8945346,8.9370079L5.8460102,8.9960508L5.790256,9.0469704
		l-0.0626411,0.042428L5.6584201,9.1230278L5.5830035,9.1474905L5.5016522,9.162385l-0.086863,0.0050535L5.2776375,9.1545944
		L5.1531348,9.1171951L5.043138,9.0572357L4.949286,8.9766293L4.8731709,8.8773232L4.8167977,8.7612305L4.7817135,8.6302996
		L4.7696366,8.4864569l0.0120769-0.1433849l0.0350847-0.130208L4.8730683,8.097723l0.0757251-0.0982409l0.0934973-0.0796099
		l0.1095157-0.0591116l0.1237454-0.0368028L5.411902,7.811286l0.0869775,0.0050526l0.0816379,0.0149636l0.0758858,0.0245423
		l0.0697336,0.0337901l0.063179,0.0427155L5.84554,7.9836707L5.8943968,8.043252l0.0410886,0.0675335V7.2723141H6.133215z
		 M5.9354968,8.49158L5.9263306,8.3852262L5.8997364,8.287982L5.8571472,8.2014065L5.7999258,8.1270666L5.7295055,8.0665455
		l-0.0822458-0.045167l-0.0926604-0.028244l-0.101655-0.0097623L5.3502922,7.9931345l-0.0933938,0.028244l-0.0827608,0.045167
		l-0.070776,0.0605326L5.0459118,8.2014065l-0.0427041,0.086565L4.9765792,8.3852158L4.9674129,8.4915686l0.0091662,0.1064453
		l0.0266285,0.097002l0.0427041,0.0861187l0.0574269,0.0737429l0.070776,0.0599136l0.0827608,0.0446053l0.0933938,0.0278425
		l0.1026521,0.009614l0.1016779-0.009614l0.0926604-0.0278425l0.0822458-0.0446053l0.0704203-0.0599136l0.0572214-0.073698
		l0.0425892-0.0861187l0.0265942-0.097002l0.0091662-0.1064453V8.49158z"/>
	<path d="M7.7881923,8.5626183H6.6963515l0.0195699,0.094677l0.0333085,0.0851555l0.046061,0.0746603l0.0577707,0.0632248
		l0.0684838,0.050827L6.999723,8.9686527l0.0868635,0.0231915l0.0945396,0.0079403l0.1198502-0.0111942l0.1101351-0.0328255
		l0.0987792-0.0532913l0.0856929-0.0725746l0.1091027,0.1142359L7.6541448,8.9935532L7.5982289,9.0372772L7.53725,9.0750189
		L7.4714589,9.1065292L7.32655,9.1496792L7.1657262,9.1645737l-0.1414719-0.012661L6.8959246,9.115098L6.7824907,9.0559864
		L6.6858215,8.9763546L6.6075296,8.8780804L6.5494719,8.7629385L6.5133104,8.6327763L6.5008674,8.4893799l0.0125351-0.1435337
		L6.549747,8.2157173l0.0582867-0.1150036l0.0783839-0.0981264l0.0966139-0.0795178l0.1129751-0.0591803l0.12747-0.0371008
		l0.1401191-0.0133138l0.1517258,0.0136576l0.1310329,0.0398626l0.110157,0.0643816l0.0891199,0.0872412l0.0679002,0.1084042
		l0.0465193,0.1279287L7.785006,8.4007072l0.003231,0.161912L7.7881923,8.5626183z M7.6109834,8.4051743L7.5986891,8.3123646
		L7.5723362,8.2290649L7.5325656,8.1561699L7.4803743,8.094492L7.4165421,8.0449705L7.3419051,8.0085001L7.2572994,7.9859958
		L7.1635509,7.9782848L7.0710273,7.9859958L6.9863415,8.0085449L6.910398,8.0449705L6.8442392,8.094492L6.788794,8.1561699
		L6.7450137,8.2291002L6.7138705,8.3123989L6.6963172,8.4052095L7.6109834,8.4051743z"/>
	<path d="M8.3447409,7.2723141v1.8849154H8.1470213V7.2723141H8.3447409z"/>
	<path d="M8.9774151,8.2938604L8.9750195,8.3204536L8.9681454,8.3450079L8.9571457,8.367054L8.9424915,8.3861313
		L8.9246168,8.4017715l-0.0206814,0.011755L8.8808928,8.4209061L8.8559036,8.4234724L8.8301573,8.4209061L8.8064613,8.4135275
		l-0.0211859-0.011755L8.766943,8.3861322L8.7520485,8.3670549L8.7408533,8.3450089L8.7338295,8.3204546L8.73139,8.2938614
		l0.0024395-0.0268002L8.7408533,8.242404l0.0111952-0.0220566L8.766943,8.2013159l0.0183325-0.0155602l0.0211859-0.0116529
		l0.0236731-0.0073214l0.0257463-0.002532l0.0249891,0.002532l0.0230417,0.0073214l0.0206823,0.0116529l0.0178747,0.0155602
		l0.0146542,0.0190315L8.9681225,8.242404l0.0068741,0.0246572l0.0023956,0.0268002L8.9774151,8.2938604z M8.9774151,9.0481262
		L8.9750195,9.0747204L8.9681454,9.0992622L8.9571457,9.1213083l-0.014678,0.0190783L8.924593,9.1560392L8.9039106,9.1677837
		l-0.0230417,0.00739L8.8558798,9.1777401L8.8301325,9.1751738L8.8064613,9.1677818L8.7852755,9.1560373L8.766943,9.1403856
		L8.7520485,9.1213083L8.7408533,9.0992622L8.7338295,9.0747204L8.73139,9.0481491l0.0024395-0.0268116l0.0070238-0.0246468
		l0.0111952-0.0220556L8.766943,8.9556026l0.0183325-0.0155602l0.0211859-0.0116644l0.0236731-0.0073109l0.0257463-0.0025434
		l0.0249891,0.0025434l0.0230417,0.0073109l0.0206823,0.0116644l0.0178747,0.0155602l0.0146542,0.0190325l0.0109997,0.0220556
		l0.0068741,0.0246468l0.0024185,0.0268116V9.0481262z"/>
	<path d="M11.2658567,8.702486h-0.9680948l-0.1977186,0.4547434H9.8840141l0.7974749-1.7780004h0.210906l0.7952633,1.7780004
		h-0.221139L11.2658796,8.702486H11.2658567z M11.1845627,8.5142775l-0.4042253-0.9138989L10.381979,8.5142775H11.1845627z"/>
	<path d="M12.6242561,7.8134732v0.1933303l-0.1006002,0.0063591l-0.0901518,0.0222282l-0.0790606,0.0371246l-0.0674992,0.0509987
		l-0.0553417,0.0638676l-0.0426464,0.075737l-0.0294008,0.0865993l-0.0155935,0.0964642v0.7110472h-0.1977882V7.8208065h0.1977177
		v0.2973003l0.0370092-0.0691271l0.0439186-0.0606465l0.0506668-0.05195l0.0572901-0.0430813l0.0636721-0.0340185
		l0.0698929-0.0247717l0.0760126-0.0153313l0.0819473-0.0057287L12.6242561,7.8134732z"/>
	<path d="M13.5850182,9.0656919L13.513257,9.108017l-0.0744762,0.0310049l-0.0769863,0.019043l-0.079175,0.006485
		l-0.0707645-0.0045824l-0.0649328-0.0161562l-0.0579996-0.02806L13.039011,9.0755339l-0.0407562-0.0527058l-0.0304775-0.065505
		l-0.0191011-0.0786247l-0.0066109-0.861639h-0.1925859V7.8618155h0.1925859V7.5110412h0.1962643v0.3507743h0.4239445v0.1552439
		h-0.4239445l0.0029221,0.7924786l0.0086966,0.0478725l0.0143223,0.0395641l0.0198221,0.031601L13.2093,8.9525576
		l0.0303869,0.0167055l0.0355196,0.0097733l0.0404119,0.0031853l0.0520535-0.0059242l0.0529356-0.0133944l0.0539103-0.020956
		l0.0549297-0.0285645l0.0556507,0.1523104L13.5850182,9.0656919z"/>
	<path d="M15.0217791,8.5626183H13.929204l0.0193872,0.094677l0.0332279,0.0851555l0.0461302,0.0746603l0.057909,0.0632248
		l0.0686102,0.050827l0.0782585,0.0374899l0.0868397,0.0231915l0.0943565,0.0079403l0.1199532-0.0111942l0.1103516-0.0328274
		l0.0988131-0.0532913l0.0444803-0.0339499l0.0408812-0.0386238l0.1083689,0.1142359l-0.0501165,0.0494184l-0.0556974,0.0437241
		l-0.0608988,0.0377417L14.704278,9.1065283l-0.1448183,0.0431499l-0.160182,0.0148945l-0.1417236-0.012661L14.1290531,9.115097
		l-0.1135254-0.0591116l-0.0968208-0.0796099l-0.0783491-0.0982752l-0.0581388-0.11514l-0.0361605-0.1301622L13.733614,8.4894018
		l0.0126038-0.1435337l0.0364132-0.1301289l0.0584354-0.1150036l0.0784636-0.0981264l0.0966597-0.0795178l0.1129532-0.0591803
		l0.1273775-0.0371013l0.1399145-0.0133133l0.1517601,0.0136576l0.131114,0.0398626l0.1102715,0.0643816l0.0892467,0.0872412
		l0.068037,0.1084042l0.0466461,0.1279287l0.0250349,0.1457567l0.0032654,0.161912L15.0217791,8.5626183z M14.8431034,8.4051743
		l-0.0118141-0.0928097l-0.0260668-0.0832996l-0.039484-0.0729294l-0.0520763-0.0616789l-0.0638094-0.0495205l-0.0747061-0.0364704
		l-0.0847893-0.0225496l-0.093955-0.0077114l-0.0925236,0.007791l-0.0846977,0.0225492l-0.0758972,0.0364704l-0.0661592,0.0495214
		l-0.0554562,0.0616779l-0.0437698,0.0729303L13.946744,8.3124437l-0.0175419,0.0928097L14.8431034,8.4051743z"/>
	<path d="M17.5789089,8.3341351v0.8230944h-0.1977196l-0.0064259-0.8576965L17.355835,8.2234983l-0.0308666-0.065712
		L17.282732,8.1028671l-0.0531197-0.04354l-0.0634079-0.0317268L17.093092,8.0082588l-0.0823612-0.0065765L16.9125023,8.013278
		l-0.0867481,0.0285187l-0.0747643,0.0441942l-0.0622845,0.0586643l-0.0492687,0.0719213l-0.035841,0.0839415l-0.021862,0.0947695
		l-0.0074005,0.7619543H16.373682l-0.0063705-0.8576975l-0.0188046-0.0760355l-0.0307426-0.065712l-0.0423012-0.0549297
		l-0.053175-0.04354l-0.0637054-0.0317268l-0.0737915-0.0193415l-0.0832653-0.0065765L15.9040184,8.013278l-0.0866795,0.0285187
		l-0.0751877,0.0441942l-0.0630198,0.0586643l-0.0501738,0.0719213l-0.036665,0.0839415l-0.0224924,0.0947695l-0.0076427,0.7619543
		h-0.1947851V7.8208065h0.1947851v0.302434l0.0376968-0.0729303l0.0458317-0.0629044l0.0537033-0.0529938l0.0611858-0.0432191
		l0.0683126-0.0335717L15.904006,7.83356l0.0815697-0.0146666l0.0876875-0.0054202l0.0906773,0.005878l0.0828304,0.0173817
		l0.0744781,0.0284958l0.0657673,0.0392323l0.0565567,0.0496125l0.0469227,0.0595813l0.0368252,0.0692062l0.0262852,0.0784416
		l0.0361156-0.0819244l0.0454426-0.0706615l0.0543804-0.0595813l0.0628815-0.0485592l0.0710392-0.0377197l0.0786705-0.0269942
		l0.0859356-0.0164313l0.0928097-0.0060043l0.1113834,0.0090399l0.0986519,0.0265937l0.0852585,0.0433798l0.0712223,0.0593977
		l0.0565338,0.074626l0.0411797,0.0891094l0.0252075,0.1028004l0.0085354,0.1157255L17.5789089,8.3341351z"/>
	<path d="M18.2541161,7.4378128l-0.002533,0.0276599l-0.007309,0.0255399l-0.011631,0.0229168L18.2171402,7.533751
		l-0.0189514,0.0162587l-0.0219212,0.0122142l-0.0244732,0.0076766l-0.0265598,0.0026693l-0.0270519-0.0026693l-0.024828-0.0076766
		l-0.0221939-0.0122142L18.0320492,7.533751l-0.0156174-0.0198216l-0.0116863-0.0229168l-0.0073223-0.025528l-0.002533-0.0276599
		l0.002533-0.0284958l0.0073223-0.025918l0.0116863-0.0229168l0.0156174-0.0196395l0.0191116-0.0159383l0.0221939-0.011847
		l0.024828-0.00739l0.0270519-0.0025439l0.0265598,0.0025439l0.0244732,0.00739l0.0219212,0.011847l0.0189514,0.0159383
		l0.0155029,0.0196395l0.011631,0.0229168l0.0073109,0.025918l0.002533,0.0284958L18.2541161,7.4378128z M18.223362,7.8208065
		v1.3364229h-0.1947861V7.8208065H18.223362z"/>
	<path d="M19.0523129,7.97824l-0.0542183,0.0025544l-0.0499916,0.007791l-0.0448475,0.0132914L18.864481,8.020896
		l-0.0317745,0.0250015l-0.0238323,0.0312004l-0.014986,0.0376625l-0.0052013,0.0443535l0.0320816,0.0941048l0.084444,0.0639925
		l0.3931236,0.1395588l0.1193924,0.0717382l0.084444,0.1056995l0.0320835,0.152483l-0.0105076,0.0912971L19.493866,8.9560289
		l-0.0468044,0.0651159l-0.0612774,0.0525236l-0.0733299,0.0402632l-0.0828533,0.028348l-0.0899563,0.0167627l-0.1661415,0.0024529
		l-0.1412067-0.0241995l-0.1329117-0.047471l-0.1175804-0.0697784l-0.0508747-0.0429354l0.076149-0.144989l0.0955257,0.0716457
		l0.1106148,0.0533943l0.118866,0.0333433l0.1202297,0.0114584l0.0572109-0.0028763l0.0533485-0.0087194l0.0483627-0.0147352
		l0.0422802-0.0208998l0.0350609-0.0272131l0.0267429-0.0336857l0.017313-0.0403099l0.0067482-0.04708l-0.029789-0.1011276
		l-0.0830936-0.0683584l-0.3920574-0.1406927l-0.1193123-0.0695047l-0.0841122-0.1028585l-0.0312042-0.1493998l0.0099812-0.0885696
		l0.0284042-0.0753937l0.0444908-0.0626287l0.0582752-0.050312l0.0697441-0.0383959l0.0788879-0.0269036l0.0857162-0.0158343
		l0.1498241-0.0029912l0.1160679,0.0167637l0.1088505,0.0316353l0.0979538,0.0445137l0.0437241,0.0264568l-0.0761604,0.1523108
		l-0.0831165-0.0445032l-0.0908051-0.0336637l-0.0946426-0.0212998l-0.0946522-0.0074482L19.0523129,7.97824z"/>
	<path d="M19.8168335,7.3792291l0.6121883,1.5495286l0.6136303-1.5495286h0.213829l-0.7264347,1.7780004h-0.2108955
		l-0.7220478-1.7780004H19.8168335z"/>
	<path d="M22.1909256,7.3762951v1.7809343h-0.2035847V7.5645032h-0.418869V7.3762951H22.1909256z"/>
	<path d="M1.2114805,10.4387465v1.7780008H1.0086744v-1.7780008H1.2114805z"/>
	<path d="M2.5149615,10.6188879L2.368655,10.6330957l-0.1360404,0.0407896l-0.1229327,0.0646801l-0.1069601,0.0858202
		l-0.0881577,0.1042671l-0.0664562,0.119976l-0.0419934,0.1329126l-0.0146203,0.1432247l0.0146203,0.1429377l0.0419934,0.1330967
		l0.0664562,0.1204119l0.0881577,0.1048975l0.1069601,0.0865192l0.1229327,0.0653105l0.1360404,0.0412493l0.1463065,0.0143909
		l0.1450691-0.0147696l0.1389625-0.0423937l0.1283979-0.0670633l0.1133535-0.0889139l0.124491,0.1347466l-0.1423421,0.1115084
		L2.861886,12.1513462l-0.1744704,0.053772l-0.1827087,0.018815L2.3180447,12.206068l-0.173187-0.051755l-0.1562065-0.082119
		l-0.1356851-0.1091375l-0.1116579-0.1326723l-0.084113-0.1528606l-0.0530503-0.1696701l-0.0184587-0.1830053l0.018688-0.181036
		l0.053669-0.167963l0.085041-0.151474l0.112815-0.1315727l0.1369799-0.1082659l0.1575356-0.0815458l0.1745048-0.0514698
		l0.1878533-0.0178976l0.1804857,0.0179434l0.1721098,0.0515614l0.1583834,0.0815916l0.1392946,0.1081638l-0.1222908,0.1471891
		l-0.1124258-0.0923281l-0.1285014-0.0695963l-0.1394775-0.0439291l-0.1453788-0.015296L2.5149615,10.6188879z"/>
	<path d="M3.6441553,11.3533773l-0.0024061,0.0265932l-0.0068748,0.0245552l-0.0109999,0.0220451l-0.0146549,0.0190783
		l-0.0178747,0.0156393l-0.0206244,0.0117559L3.5476668,11.480423l-0.0249784,0.0025673L3.4969423,11.480423l-0.0236719-0.0073786
		l-0.0211856-0.0117559l-0.0183325-0.0156393l-0.0148954-0.0190783l-0.0111945-0.0220451l-0.0070353-0.0245552l-0.0024292-0.0265932
		l0.0024292-0.0268002l0.0070353-0.0246572l0.0111945-0.0220556l0.0148954-0.0190325l0.0183325-0.0155602l0.0211856-0.0116529
		l0.0236719-0.0073214l0.0257461-0.0025311l0.0249784,0.0025311l0.0230536,0.0073214l0.0206244,0.0116529l0.0178747,0.0155602
		l0.0146549,0.0190325l0.0109999,0.0220556l0.0068748,0.0246572L3.6441553,11.3533773z M3.6441553,12.1076441l-0.0024061,0.0265932
		l-0.0068748,0.0245428l-0.0109999,0.0220451l-0.0146549,0.0190773l-0.0178747,0.0156527l-0.0206244,0.0117445l-0.0230536,0.00739
		l-0.0249784,0.0025663l-0.0257461-0.0025663l-0.0236719-0.00739l-0.0211856-0.0117445l-0.0183325-0.0156527l-0.0148954-0.0190773
		l-0.0111945-0.0220451l-0.0070353-0.0245428l-0.0024292-0.0265932l0.0024292-0.0268126l0.0070353-0.0246458l0.0111945-0.0220566
		l0.0148954-0.0190315l0.0183325-0.0155602l0.0211856-0.0116653l0.0236719-0.0073099l0.0257461-0.0025444l0.0249784,0.0025444
		l0.0230536,0.0073099l0.0206244,0.0116653l0.0178747,0.0155602l0.0146549,0.0190315l0.0109999,0.0220566l0.0068748,0.0246458
		L3.6441553,12.1076441z"/>
	<path d="M5.9325633,11.7619925H4.9644794l-0.1977186,0.4547548H4.5507326l0.7974749-1.7780008H5.559114l0.7952633,1.7780008
		h-0.221139l-0.2006516-0.4547548H5.9325633z M5.8512802,11.5737953l-0.4042253-0.9138994L5.048696,11.5737953H5.8512802z"/>
	<path d="M7.7376633,11.6704655l-0.012054,0.1180162l-0.0354161,0.106926l-0.0575991,0.0944366l-0.0786362,0.080492
		l-0.0985394,0.0651159l-0.1172266,0.048295l-0.1347909,0.0300426L7.0522246,12.224102l-0.1680541-0.0127182l-0.1630359-0.0357952
		l-0.1505461-0.0552845l-0.1305633-0.0712109l0.0886045-0.1676998l0.1131592,0.0700769l0.1264844,0.0527639l0.1349978,0.0332289
		l0.1386418,0.0115833l0.1109586-0.0068741l0.0984473-0.0200176l0.0852361-0.0322199l0.0713143-0.04354l0.0566945-0.0538521
		l0.0413742-0.0632248l0.0253339-0.071681l0.0085931-0.0791979l-0.008697-0.0797253l-0.02562-0.0693998l-0.0417309-0.0589504
		L7.406527,11.421896l-0.0720701-0.0378675l-0.0861058-0.0271549l-0.099432-0.0163736l-0.3485513-0.005477v-0.1244907
		l0.5916896-0.5836344H6.5264525l-0.0029221-0.1881971h1.1255274v0.1347456l-0.6224418,0.6173439l0.2392535,0.0187788
		l0.1171346,0.0275002l0.1028008,0.0409851l0.087081,0.0540361l0.0700769,0.0666618l0.0517216,0.0788774l0.0320024,0.0906897
		l0.0109653,0.1020899L7.7376633,11.6704655z"/>
	<path d="M8.7035694,11.3760767v0.1450005H8.1067467v-0.1450005H8.7035694z"/>
	<path d="M10.2640753,11.7619925H9.2959461l-0.1977186,0.4547548H8.8822441l0.7974749-1.7780008h0.2108955l0.7952747,1.7780008
		h-0.221138l-0.2006531-0.4547548H10.2640753z M10.1827927,11.5737953l-0.4042253-0.9138994l-0.3983707,0.9138994H10.1827927z"/>
	<path d="M11.6224747,10.8729906v0.1933298l-0.100647,0.0063477l-0.0901623,0.0222406l-0.0790606,0.0371237l-0.0674992,0.0509996
		l-0.0553417,0.0638666l-0.0426464,0.075737l-0.0293894,0.0865993l-0.0155945,0.0964651v0.7110472h-0.1977186v-1.3364687h0.1977186
		v0.2973118l0.0370092-0.0691376l0.0439186-0.0606365l0.0506668-0.0519495l0.0572901-0.0430813l0.0636606-0.0340185
		l0.0698938-0.0247717l0.0760126-0.0153313l0.0819359-0.0057287L11.6224747,10.8729906z"/>
	<path d="M12.5832367,12.1252089l-0.0717611,0.042326l-0.0744762,0.0310049l-0.0769863,0.019042l-0.079175,0.0064859
		l-0.070776-0.0045834l-0.0649204-0.0161552l-0.0579777-0.0280266l-0.0499105-0.0402174l-0.0407438-0.0527058l-0.0304785-0.065505
		l-0.0191002-0.0786247l-0.0066118-0.861639h-0.1925964v-0.1552553h0.1925964v-0.3507633h0.1962528v0.3507633h0.4239445v0.1552553
		h-0.4239445l0.0029325,0.7924786l0.0086966,0.0478725l0.0143223,0.0395641l0.0198116,0.031601l0.0252075,0.023982
		l0.0303984,0.0167055l0.0354614,0.0097733l0.0404243,0.0031853l0.052042-0.0059242l0.052947-0.0133944l0.053853-0.020956
		l0.0549402-0.0285645l0.0556507,0.1523104L12.5832367,12.1252089z"/>
	<path d="M14.0200653,11.6221247h-1.0925856l0.0195704,0.0946884l0.0333204,0.0851555l0.0460491,0.0746593l0.0577707,0.0632248
		l0.0684843,0.050828l0.0781775,0.0374899l0.086874,0.0231905l0.0945292,0.0079412l0.1199646-0.0111952l0.1103401-0.0328274
		l0.098814-0.0532904l0.0444908-0.0339499l0.0408707-0.0386248l0.1083813,0.1142359l-0.0500946,0.0494184l-0.0556173,0.0437241
		l-0.0608187,0.0377426l-0.0656996,0.031497l-0.1447716,0.0431623l-0.1605034,0.0148954l-0.1417122-0.0126724l-0.1285019-0.0368032
		l-0.1135359-0.0591116l-0.0968208-0.0796099l-0.0783501-0.0982742l-0.0581255-0.1151409l-0.0361614-0.1301737l-0.0124435-0.1433859
		l0.0125237-0.1435337l0.0363445-0.1301279l0.0582867-0.1150045l0.0783834-0.0981255l0.0966139-0.0795183l0.1129761-0.0591803
		l0.1274815-0.0371122l0.1401081-0.0133028l0.1517611,0.0136585l0.131114,0.0398617l0.1102829,0.0643816l0.0892467,0.0872297
		l0.0680361,0.1084146l0.0466347,0.1279287l0.0250473,0.1457462l0.0032644,0.161912V11.6221247z M13.841321,11.4646921
		l-0.0118361-0.0928097l-0.0261354-0.0832987l-0.0395765-0.0729303l-0.0521564-0.0616779l-0.0638552-0.0495214l-0.0746946-0.0364704
		l-0.0846748-0.0225487l-0.093771-0.0077114l-0.0925121,0.0077114l-0.0846977,0.0225487l-0.0759087,0.0364704l-0.0661583,0.0495214
		l-0.0554457,0.0616779l-0.0437803,0.0729303l-0.0311432,0.0832987l-0.0175533,0.0928097H13.841321z"/>
	<path d="M16.5771732,11.3936529v0.8230944h-0.1977291l-0.0064278-0.8576975l-0.0189171-0.0760345l-0.0309372-0.065712
		l-0.0422668-0.0548716l-0.0531082-0.04354l-0.0634098-0.0317278l-0.0731697-0.0193977l-0.0823612-0.0065765l-0.098217,0.0116062
		l-0.0867481,0.0285196l-0.0747643,0.0441933L15.68682,11.204174l-0.0492697,0.0719213l-0.03584,0.0839415l-0.0218725,0.0947685
		l-0.0074024,0.7619553h-0.2006397l-0.0063829-0.8576975l-0.0187912-0.0760345l-0.0307531-0.065712l-0.0422001-0.0548716
		l-0.0531988-0.043541l-0.063694-0.0317268l-0.0737209-0.0193977l-0.0832644-0.0065765l-0.0974617,0.011569l-0.0866804,0.0285187
		l-0.0751867,0.0441942l-0.0630198,0.0586643l-0.0501738,0.0719223l-0.036665,0.0839405l-0.0224934,0.0947695l-0.0076418,0.7619543
		h-0.1947861v-1.3364573h0.1947861v0.3024902l0.0376959-0.0729303l0.0458326-0.0629044l0.0536909-0.0529938l0.0611858-0.0432196
		l0.0683241-0.0335712l0.075119-0.0240612l0.0815697-0.0146666l0.087676-0.0054197l0.0906897,0.0058775l0.082818,0.0173693
		l0.0744762,0.0285082l0.0657578,0.0392323l0.0565681,0.049612l0.0469093,0.0595818l0.0368376,0.0692062l0.0262842,0.0784416
		l0.0361042-0.0819244l0.045454-0.0706615l0.054368-0.0595818l0.062892-0.0485592l0.070982-0.0377188l0.0786819-0.0269947
		l0.0859346-0.0164309l0.0928087-0.0060053l0.1113834,0.0090408l0.0986404,0.0265932l0.0852718,0.0433798l0.0712109,0.0593977
		l0.0565319,0.074626l0.0411911,0.0891085l0.0252075,0.1027899l0.0085468,0.1157255L16.5771732,11.3936529z"/>
	<path d="M17.2523575,10.4973297l-0.0025444,0.0276604l-0.0072994,0.0255175l-0.011631,0.0229158l-0.0155144,0.0198221
		l-0.0189381,0.0162582l-0.0219326,0.0122147l-0.0244637,0.0076761l-0.0265694,0.0026693l-0.02705-0.0027151l-0.024828-0.0076761
		l-0.0221939-0.0122147l-0.0191116-0.0162582l-0.0156174-0.0198221l-0.0116863-0.0229168l-0.0073223-0.0255165l-0.0025425-0.0276604
		l0.0025425-0.0284958l0.0073223-0.0259285l0.0116863-0.0229168l0.0156174-0.019639l0.0191116-0.0159388l0.0221939-0.0118475
		l0.024828-0.00739l0.0270405-0.0025434l0.0265713,0.0025434l0.0244637,0.00739l0.0219307,0.0118475l0.0189381,0.0159388
		l0.0155144,0.019639l0.011631,0.0229168l0.0072994,0.0259285l0.0025444,0.0284958L17.2523575,10.4973297z M17.2215919,10.8803129
		v1.3364344h-0.1947842v-1.3364687L17.2215919,10.8803129z"/>
	<path d="M18.0505428,11.0377569l-0.0542183,0.0025549l-0.0500031,0.0077915l-0.0448475,0.0132904l-0.038763,0.0190201
		l-0.0317745,0.0250015l-0.0238419,0.0312004L17.79212,11.1742783l-0.0052013,0.0443535l0.0320816,0.0941048l0.0844555,0.0639925
		l0.3931122,0.1395464l0.1194038,0.0717497l0.084444,0.1056995l0.0320835,0.152483l-0.0105076,0.0912981l-0.0298824,0.0780411
		l-0.0468044,0.0651035l-0.0612774,0.0525236l-0.0733318,0.0402746l-0.0828514,0.028347l-0.0899563,0.0167637l-0.1661415,0.0024519
		l-0.1411953-0.0241995l-0.1329117-0.047471l-0.1175823-0.0697784l-0.0508614-0.0429554l0.0761604-0.14499l0.0955143,0.0716467
		l0.1106262,0.0533943l0.1188526,0.0333433l0.1202412,0.0114584l0.0572109-0.0028763l0.0533371-0.0087204l0.0483742-0.0147352
		l0.0422688-0.0208988l0.0350723-0.0272131l0.0267429-0.0336866l0.0173016-0.040309l0.0067482-0.047081l-0.029789-0.1011276
		l-0.0830803-0.0683699l-0.3920708-0.1406813l-0.1192989-0.0695038l-0.0841255-0.1028585l-0.0312328-0.1494236l0.0099812-0.0885706
		l0.0283928-0.0753927l0.0444622-0.0625496l0.0582886-0.050312l0.0697327-0.0383959l0.0788975-0.0269032l0.0857182-0.0158348
		l0.1498127-0.0029907l0.1160812,0.0167627l0.1088505,0.0316353l0.0979538,0.0445147l0.0437241,0.0264568l-0.0761604,0.1523104
		l-0.0831165-0.0445032l-0.0908051-0.0336637l-0.0946541-0.0213118l-0.0946426-0.0074358L18.0505428,11.0377569z"/>
</g>
<rect class="st0" width="33.3149605" height="27.0787392"/>
<path d="M3.191035,22.5005207H2.6616368l-0.1031151,0.588995l-0.2148652,0.0706635l-0.2016413,0.1017628l-0.4890543-0.343502
	L1.278286,23.292799l0.3431929,0.4885063L1.519227,23.9832706l-0.0712039,0.2154236l-0.5873944,0.1028252v0.5295067
	l0.5864428,0.1025906l0.0708069,0.2164288l0.1024698,0.2028828l-0.3420951,0.4869823l0.3746969,0.3739967l0.4867121-0.3413467
	l0.2410698,0.1243019l0.329845-0.8915443l-0.0800617-0.0482311l-0.1157067-0.0917244l-0.086529-0.1157608L2.374063,24.7153778
	l-0.0187688-0.1471214l0.04495-0.2221737l0.1225073-0.1816235l0.1815515-0.1225567l0.2220819-0.0449677l0.2220821,0.0449677
	l0.1815517,0.1225567l0.1225073,0.1816235l0.04495,0.2221737L3.478699,24.7153225L3.424458,24.8495312l-0.08657,0.1157837
	l-0.1157639,0.091795l-0.0800178,0.0482197l0.3296151,0.891304l0.2414343-0.1240292l0.4865661,0.3413353l0.3744235-0.3740292
	l-0.341804-0.4870129l0.1025014-0.2034187l0.070745-0.2159004l0.5863352-0.1025524v-0.5295067l-0.5872698-0.1027832
	L4.3334246,23.983242l-0.1022139-0.2018776l0.3429022-0.4885654l-0.374402-0.3743916l-0.4890244,0.343565l-0.202126-0.1019707
	l-0.2145147-0.0704536L3.191035,22.5005207L3.191035,22.5005207L3.191035,22.5005207L3.191035,22.5005207L3.191035,22.5005207
	L3.191035,22.5005207z"/>
</svg>
