<svg id="Layer_1" data-name="Layer 1" xmlns="http://www.w3.org/2000/svg" viewBox="0 0 27.08 33.31"><defs><style>.cls-1{fill:#231f20;}.cls-2{fill:none;stroke:#231f20;stroke-miterlimit:10;stroke-width:0.17px;}</style></defs><title>board level shielding etch outlines</title><path d="M6.65,22.46a4.25,4.25,0,1,0,4,5.67h-.6a3.48,3.48,0,0,1-.8,1.18,3.68,3.68,0,0,1-5.21,0A3.69,3.69,0,0,1,3,26.7a3.83,3.83,0,0,1,0-.47l3.38-.81V26.7l4.42-1A4.25,4.25,0,0,0,6.65,22.46ZM3.12,25.62A3.73,3.73,0,0,1,4,24.1a3.68,3.68,0,0,1,5.21,0,3.85,3.85,0,0,1,.81,1.2L6.93,26V24.71Z"/><rect x="4.25" y="27.07" width="4.79" height="0.7"/><polygon points="9.04 28.19 4.25 28.19 4.25 28.89 6.24 28.89 6.24 29.95 7.08 29.95 7.08 28.89 9.04 28.89 9.04 28.19"/><path class="cls-1" d="M3.43,2.91c-.14,0-.23,0-.23.15,0,.3.76.14.76.64,0,.25-.22.41-.53.41a.86.86,0,0,1-.57-.22L3,3.68a.74.74,0,0,0,.47.21c.17,0,.27-.07.27-.17,0-.32-.76-.14-.76-.64,0-.24.21-.39.51-.39a1,1,0,0,1,.49.14L3.84,3A.84.84,0,0,0,3.43,2.91Z"/><path class="cls-1" d="M5.34,3.57a.49.49,0,0,1-.5.54.43.43,0,0,1-.38-.19v.57H4.23V3h.23v.18A.43.43,0,0,1,4.83,3,.5.5,0,0,1,5.34,3.57Zm-.23,0a.33.33,0,0,0-.33-.34.32.32,0,0,0-.32.34.32.32,0,0,0,.32.35A.33.33,0,0,0,5.11,3.56Z"/><path class="cls-1" d="M6.22,4.1V4a.45.45,0,0,1-.35.14.34.34,0,0,1-.38-.33c0-.19.15-.32.4-.32h.33v0c0-.14-.09-.22-.26-.22a.56.56,0,0,0-.31.11l-.1-.16A.78.78,0,0,1,6,3c.28,0,.43.14.43.37v.7Zm0-.37v-.1H5.93c-.15,0-.22,0-.22.14s.08.16.2.16A.29.29,0,0,0,6.22,3.73Z"/><path class="cls-1" d="M7.35,3v.22A.33.33,0,0,0,7,3.54V4.1H6.75V3H7v.21A.38.38,0,0,1,7.35,3Z"/><path class="cls-1" d="M8,3.61l-.18.19v.3H7.55V2.62h.23v.89L8.25,3h.26l-.39.41.42.65H8.27Z"/><path class="cls-1" d="M9.68,2.7v.21H9v.41h.64v.21H9V4.1H8.74V2.7Z"/><path class="cls-1" d="M10.84,3V4.1h-.23V3.89a.38.38,0,0,1-.37.22.37.37,0,0,1-.39-.41V3h.23v.59a.23.23,0,0,0,.24.26.29.29,0,0,0,.29-.33V3Z"/><path class="cls-1" d="M12.2,3.44V4.1H12V3.5a.23.23,0,0,0-.25-.26.3.3,0,0,0-.3.29V4.1h-.23V3h.23v.2A.39.39,0,0,1,11.81,3,.37.37,0,0,1,12.2,3.44Z"/><path class="cls-1" d="M14.13,2.7v.21h-.77v.38h.69V3.5h-.69v.39h.79V4.1h-1V2.7Z"/><path class="cls-1" d="M14.66,2.62V4.1h-.23V2.62Z"/><path class="cls-1" d="M16,3.66h-.81a.33.33,0,0,0,.33.26.39.39,0,0,0,.3-.12l.13.13a.61.61,0,0,1-.44.18.52.52,0,0,1-.55-.54A.51.51,0,0,1,15.45,3C15.82,3,16,3.27,16,3.66Zm-.2-.17a.28.28,0,0,0-.3-.28.31.31,0,0,0-.31.28Z"/><path class="cls-1" d="M16.63,3.23a.31.31,0,0,0-.31.34.31.31,0,0,0,.31.34A.38.38,0,0,0,17,3.78l.13.13a.54.54,0,0,1-.46.2.51.51,0,0,1-.53-.54A.51.51,0,0,1,16.62,3a.54.54,0,0,1,.44.17l-.12.15A.41.41,0,0,0,16.63,3.23Z"/><path class="cls-1" d="M17.92,4a.52.52,0,0,1-.26.08.28.28,0,0,1-.3-.31V3.25h-.15V3.08h.15v-.3h.23v.3h.31v.17h-.31v.51c0,.11,0,.14.11.14a.34.34,0,0,0,.16,0Z"/><path class="cls-1" d="M18.73,3v.22a.32.32,0,0,0-.37.29V4.1h-.23V3h.23v.21A.38.38,0,0,1,18.73,3Z"/><path class="cls-1" d="M19.93,3.57A.56.56,0,1,1,19.38,3,.52.52,0,0,1,19.93,3.57Zm-.88,0a.32.32,0,0,0,.33.35.32.32,0,0,0,.32-.35.33.33,0,0,0-.32-.35A.33.33,0,0,0,19.05,3.57Z"/><path class="cls-1" d="M21.19,3.44V4.1H21V3.5a.24.24,0,0,0-.26-.26.31.31,0,0,0-.3.29V4.1h-.23V3h.23v.2A.39.39,0,0,1,20.79,3,.37.37,0,0,1,21.19,3.44Z"/><path class="cls-1" d="M21.74,2.73a.13.13,0,0,1-.13.14.14.14,0,0,1,0-.28A.13.13,0,0,1,21.74,2.73Zm0,.31V4.1H21.5V3Z"/><path class="cls-1" d="M22.51,3.23a.32.32,0,0,0-.32.34.32.32,0,0,0,.32.34.37.37,0,0,0,.31-.13l.13.13a.52.52,0,0,1-.45.2A.51.51,0,0,1,22,3.57.51.51,0,0,1,22.5,3a.57.57,0,0,1,.44.17l-.13.15A.38.38,0,0,0,22.51,3.23Z"/><path class="cls-1" d="M23.49,3.21c-.09,0-.15,0-.15.11s.56.09.56.47c0,.22-.19.32-.41.32A.66.66,0,0,1,23.06,4l.09-.16a.58.58,0,0,0,.35.13c.1,0,.18,0,.18-.12s-.56-.09-.56-.48c0-.21.19-.3.39-.3a.73.73,0,0,1,.37.1l-.08.17A.73.73,0,0,0,23.49,3.21Z"/><path class="cls-1" d="M3.91,5.1v.15H3.18v.5h.65V5.9H3.18v.6H3V5.1Z"/><path class="cls-1" d="M4.74,5.24a.56.56,0,1,0,0,1.12.63.63,0,0,0,.42-.17l.1.1a.79.79,0,0,1-.52.22.71.71,0,1,1,0-1.41.73.73,0,0,1,.51.2l-.09.12A.6.6,0,0,0,4.74,5.24Z"/><path class="cls-1" d="M6.11,5.24a.56.56,0,1,0,0,1.12.63.63,0,0,0,.41-.17l.1.1a.77.77,0,0,1-.52.22.71.71,0,1,1,0-1.41.73.73,0,0,1,.51.2l-.1.12A.59.59,0,0,0,6.11,5.24Z"/><path class="cls-1" d="M7.67,5.1V6.5H7.51V5.1Z"/><path class="cls-1" d="M9.38,5.8a.7.7,0,0,1-.73.7H8.09V5.1h.57A.69.69,0,0,1,9.38,5.8Zm-.16,0a.55.55,0,0,0-.56-.55H8.25v1.1h.41A.54.54,0,0,0,9.22,5.8Z"/><path class="cls-1" d="M9.76,5.82a.1.1,0,0,1-.1.1.1.1,0,0,1,0-.2A.1.1,0,0,1,9.76,5.82Zm0,.59a.11.11,0,0,1-.1.11.1.1,0,0,1-.1-.11.1.1,0,0,1,.1-.1A.11.11,0,0,1,9.76,6.41Z"/><path class="cls-1" d="M11.08,5.25c-.18,0-.3.07-.3.19,0,.37.78.18.78.68,0,.24-.2.39-.5.39a.78.78,0,0,1-.54-.22l.07-.14a.69.69,0,0,0,.47.2c.2,0,.33-.08.33-.22,0-.37-.79-.17-.79-.68,0-.22.2-.36.49-.36a.91.91,0,0,1,.44.13l-.07.15A.65.65,0,0,0,11.08,5.25Z"/><path class="cls-1" d="M12.78,5.1v.15h-.73v.5h.66V5.9h-.66v.6h-.16V5.1Z"/><path class="cls-1" d="M14,5.1v.15h-.79v.47h.7v.14h-.7v.49H14V6.5H13V5.1Z"/><path class="cls-1" d="M14.71,5.84V6h-.47V5.84Z"/><path class="cls-1" d="M15.93,6.14h-.76L15,6.5h-.17l.63-1.4h.17l.62,1.4h-.17ZM15.87,6l-.32-.72L15.23,6Z"/><path class="cls-1" d="M17.4,6.5l-.3-.45h-.46V6.5h-.16V5.1H17c.35,0,.56.17.56.47a.44.44,0,0,1-.32.45l.33.48ZM17,5.91c.26,0,.4-.12.4-.34s-.14-.32-.4-.32h-.37v.66Z"/><path class="cls-1" d="M18.81,5.1v.15h-.46V6.5h-.16V5.25h-.45V5.1Z"/><path class="cls-1" d="M20,5.1v.15h-.78v.47h.7v.14h-.7v.49H20V6.5h-1V5.1Z"/><path class="cls-1" d="M20.55,5.1l.51,1,.51-1h.19V6.5h-.15V5.34l-.51,1H21l-.51-1V6.5h-.15V5.1Z"/><path class="cls-1" d="M22.35,5.1V6.5h-.16V5.1Z"/><path class="cls-1" d="M23.18,5.25c-.18,0-.3.07-.3.19,0,.37.79.18.79.68,0,.24-.21.39-.51.39a.77.77,0,0,1-.53-.22l.07-.14a.66.66,0,0,0,.46.2c.2,0,.33-.08.33-.22,0-.37-.79-.17-.79-.68,0-.22.2-.36.49-.36a.88.88,0,0,1,.44.13l-.07.15A.65.65,0,0,0,23.18,5.25Z"/><path class="cls-1" d="M3.22,7.5l.51,1,.51-1h.19V8.9H4.28V7.74l-.51,1H3.68l-.51-1V8.9H3V7.5Z"/><path class="cls-1" d="M5.8,8.37a.54.54,0,1,1-.53-.53A.51.51,0,0,1,5.8,8.37Zm-.91,0a.38.38,0,1,0,.75,0,.38.38,0,1,0-.75,0Z"/><path class="cls-1" d="M7,7.42V8.9H6.88V8.67a.43.43,0,0,1-.4.24A.5.5,0,0,1,6,8.37a.5.5,0,0,1,.5-.53.43.43,0,0,1,.41.24V7.42Zm-.16,1A.37.37,0,0,0,6.51,8a.4.4,0,0,0,0,.79A.36.36,0,0,0,6.88,8.38Z"/><path class="cls-1" d="M8.34,8.43H7.48a.38.38,0,0,0,.38.35.45.45,0,0,0,.33-.14l.08.09a.55.55,0,0,1-.42.18.54.54,0,0,1,0-1.07C8.19,7.84,8.35,8.08,8.34,8.43ZM8.2,8.31A.33.33,0,0,0,7.85,8a.36.36,0,0,0-.37.34Z"/><path class="cls-1" d="M8.77,7.42V8.9H8.62V7.42Z"/><path class="cls-1" d="M9.27,8.22a.09.09,0,0,1-.1.1.1.1,0,0,1,0-.2A.09.09,0,0,1,9.27,8.22Zm0,.59a.1.1,0,1,1-.19,0,.1.1,0,0,1,.09-.1A.1.1,0,0,1,9.27,8.81Z"/><path class="cls-1" d="M11.07,8.54h-.76l-.16.36H10l.63-1.4h.16l.63,1.4h-.18ZM11,8.39l-.32-.72-.31.72Z"/><path class="cls-1" d="M12.13,7.84V8a.36.36,0,0,0-.38.35V8.9H11.6V7.85h.15v.23A.4.4,0,0,1,12.13,7.84Z"/><path class="cls-1" d="M12.88,8.83a.4.4,0,0,1-.23.08c-.16,0-.27-.09-.27-.3V8h-.15V7.88h.15V7.6h.15v.28h.34V8h-.34v.58c0,.13.05.18.14.18a.37.37,0,0,0,.17,0Z"/><path class="cls-1" d="M14,8.43h-.86a.38.38,0,0,0,.39.35.42.42,0,0,0,.32-.14l.09.09a.57.57,0,0,1-.43.18.54.54,0,0,1,0-1.07C13.86,7.84,14,8.08,14,8.43Zm-.14-.12A.33.33,0,0,0,13.52,8a.36.36,0,0,0-.37.34Z"/><path class="cls-1" d="M16,8.25V8.9h-.15V8.29a.27.27,0,0,0-.29-.3.35.35,0,0,0-.35.39V8.9h-.16V8.29a.27.27,0,0,0-.29-.3.35.35,0,0,0-.34.39V8.9h-.16V7.85h.16v.24a.4.4,0,0,1,.4-.25.36.36,0,0,1,.38.28.39.39,0,0,1,.41-.28A.37.37,0,0,1,16,8.25Z"/><path class="cls-1" d="M16.55,7.55a.1.1,0,0,1-.1.1.1.1,0,0,1-.11-.1.1.1,0,0,1,.11-.11A.1.1,0,0,1,16.55,7.55Zm0,.3V8.9h-.15V7.85Z"/><path class="cls-1" d="M17.17,8c-.11,0-.2,0-.2.14s.58.12.58.5c0,.2-.18.3-.38.3a.64.64,0,0,1-.41-.15l.06-.12a.52.52,0,0,0,.35.14c.13,0,.23,0,.23-.16s-.58-.12-.58-.49c0-.2.17-.29.36-.29a.62.62,0,0,1,.34.1l-.06.12A.5.5,0,0,0,17.17,8Z"/><path class="cls-1" d="M17.77,7.5l.48,1.22.49-1.22h.17l-.58,1.4h-.16L17.6,7.5Z"/><path class="cls-1" d="M19.64,7.5V8.9h-.16V7.65h-.33V7.5Z"/><path class="cls-1" d="M3.18,9.9v1.4H3V9.9Z"/><path class="cls-1" d="M4.2,10a.56.56,0,1,0,0,1.12A.59.59,0,0,0,4.61,11l.1.1a.75.75,0,0,1-.52.22.71.71,0,1,1,0-1.41.73.73,0,0,1,.51.2l-.1.12A.56.56,0,0,0,4.2,10Z"/><path class="cls-1" d="M5.09,10.62a.1.1,0,0,1-.1.1.1.1,0,0,1,0-.2A.1.1,0,0,1,5.09,10.62Zm0,.59a.11.11,0,0,1-.1.11.1.1,0,0,1-.1-.11.1.1,0,0,1,.1-.1A.11.11,0,0,1,5.09,11.21Z"/><path class="cls-1" d="M6.88,10.94H6.12L6,11.3H5.8l.62-1.4h.17l.63,1.4H7Zm-.06-.15-.32-.72-.31.72Z"/><path class="cls-1" d="M8.3,10.87c0,.26-.21.44-.54.44a.91.91,0,0,1-.48-.14L7.35,11a.71.71,0,0,0,.4.13c.25,0,.39-.12.39-.29s-.14-.27-.39-.27H7.56v-.1L8,10.05H7.35V9.9h.89V10l-.49.48h.09C8.11,10.51,8.3,10.64,8.3,10.87Z"/><path class="cls-1" d="M9.06,10.64v.11H8.59v-.11Z"/><path class="cls-1" d="M10.28,10.94H9.52l-.16.36H9.19l.63-1.4H10l.62,1.4h-.17Zm-.06-.15-.32-.72-.31.72Z"/><path class="cls-1" d="M11.35,10.24v.15a.36.36,0,0,0-.38.35v.56h-.16V10.25H11v.23A.4.4,0,0,1,11.35,10.24Z"/><path class="cls-1" d="M12.1,11.23a.41.41,0,0,1-.24.08.26.26,0,0,1-.27-.3V10.4h-.15v-.12h.15V10h.16v.28h.33v.12h-.33V11c0,.13.05.18.14.18a.41.41,0,0,0,.17-.05Z"/><path class="cls-1" d="M13.23,10.83h-.86a.37.37,0,0,0,.38.35.45.45,0,0,0,.33-.14l.08.09a.56.56,0,0,1-.42.18.54.54,0,0,1,0-1.07C13.08,10.24,13.24,10.48,13.23,10.83Zm-.14-.12a.33.33,0,0,0-.35-.34.35.35,0,0,0-.37.34Z"/><path class="cls-1" d="M15.24,10.65v.65h-.16v-.61a.27.27,0,0,0-.29-.3.35.35,0,0,0-.34.39v.52h-.16v-.61a.27.27,0,0,0-.29-.3.35.35,0,0,0-.35.39v.52H13.5V10.25h.15v.24a.4.4,0,0,1,.4-.25.36.36,0,0,1,.38.28.4.4,0,0,1,.41-.28A.38.38,0,0,1,15.24,10.65Z"/><path class="cls-1" d="M15.76,10a.1.1,0,1,1-.2,0,.1.1,0,1,1,.2,0Zm0,.3V11.3h-.16V10.25Z"/><path class="cls-1" d="M16.39,10.37c-.12,0-.21,0-.21.14s.59.12.59.5c0,.2-.19.3-.39.3a.62.62,0,0,1-.4-.15L16,11a.5.5,0,0,0,.35.14c.12,0,.22,0,.22-.16S16,10.9,16,10.53c0-.2.18-.29.37-.29a.59.59,0,0,1,.33.1l-.06.12A.47.47,0,0,0,16.39,10.37Z"/><path d="M10.27,18.94l.55.39a3.34,3.34,0,0,1-6.06-1.58H3.41v2.38a.07.07,0,0,1,0,.07l-.6.4,0,0V14.16H5.56v0l-.47.63s0,0-.06,0H3.41v2.24H4.76a3.33,3.33,0,0,1,1.17-2.2,3.21,3.21,0,0,1,1.64-.75,3.33,3.33,0,0,1,3.21,1.34l-.54.39A2.66,2.66,0,0,0,8,14.76a2.6,2.6,0,0,0-1.81.83,2.65,2.65,0,0,0,.11,3.77,2.55,2.55,0,0,0,2.1.7A2.62,2.62,0,0,0,10.27,18.94Z"/><path d="M9.62,16.3l-.55.4a1.23,1.23,0,0,0-1-.51,1.19,1.19,0,0,0-.87.36,1.23,1.23,0,0,0,1,2.09,1.26,1.26,0,0,0,.89-.52l.55.39a1.9,1.9,0,1,1,0-2.21Z"/><path d="M18.7,19.6a1.84,1.84,0,0,1-.33,0,2.28,2.28,0,1,1,0-4.55l.33,0v-1l-.33,0a3.3,3.3,0,0,0,0,6.6,1.83,1.83,0,0,0,.33,0Z"/><path d="M23.94,15.08l.33,0v-1l-.33,0a3.3,3.3,0,0,0,0,6.6,1.83,1.83,0,0,0,.33,0v-1a1.84,1.84,0,0,1-.33,0,2.28,2.28,0,0,1-2.22-1.79h1.92v-1H21.72A2.27,2.27,0,0,1,23.94,15.08Z"/><path class="cls-1" d="M13,27.5l-.27-.43h-.4v.43H12V26.06h.59c.37,0,.58.18.58.49a.47.47,0,0,1-.3.47l.32.48Zm-.33-.65c.22,0,.35-.1.35-.29s-.13-.28-.35-.28h-.34v.57Z"/><path class="cls-1" d="M15.79,25.67c0,.51-.21.79-.59.79s-.6-.28-.6-.79.22-.79.6-.79S15.79,25.16,15.79,25.67Zm-.92,0c0,.4.11.58.33.58s.32-.18.32-.58-.1-.59-.32-.59S14.87,25.27,14.87,25.67Z"/><path class="cls-1" d="M16.59,24.88v1.57h-.26V25.12H16v-.24Z"/><path class="cls-1" d="M18.15,26c0,.29-.24.5-.62.5A1.06,1.06,0,0,1,17,26.3l.11-.22a.66.66,0,0,0,.44.16c.24,0,.38-.1.38-.27s-.14-.26-.38-.26h-.23v-.15l.46-.44H17v-.24h1v.17l-.5.49h.09C18,25.57,18.15,25.72,18.15,26Z"/><path class="cls-1" d="M18.59,24.88,19,26.16l.38-1.28h.26L20,26.16l.38-1.28h.28l-.53,1.57h-.27l-.37-1.22-.38,1.22h-.27l-.52-1.57Z"/><path class="cls-1" d="M21.1,24.88l.38,1.28.38-1.28h.26l.38,1.28.38-1.28h.27l-.52,1.57h-.28L22,25.23l-.37,1.22h-.28l-.52-1.57Z"/><path class="cls-1" d="M24.11,26.1h-.79l-.15.35h-.28l.7-1.57h.27l.69,1.57h-.29Zm-.1-.24-.29-.69-.3.69Z"/><path class="cls-1" d="M15.34,27v1.58h-.26V27.25h-.34V27Z"/><path class="cls-1" d="M17.12,28.1c0,.29-.24.5-.61.5a1,1,0,0,1-.57-.17l.11-.22a.66.66,0,0,0,.44.17c.24,0,.37-.11.37-.28s-.14-.25-.38-.25h-.23v-.16l.46-.44H16V27h1v.16l-.5.49h.09C16.93,27.7,17.12,27.85,17.12,28.1Z"/><path class="cls-1" d="M18.56,27.8c0,.51-.21.79-.59.79s-.6-.28-.6-.79.22-.79.6-.79S18.56,27.29,18.56,27.8Zm-.92,0c0,.4.11.59.33.59s.32-.19.32-.59-.11-.59-.32-.59S17.64,27.4,17.64,27.8Z"/><path class="cls-1" d="M19.5,27v1.58h-.27V27.25H18.9V27Z"/><path class="cls-1" d="M21,27.44c0-.13-.1-.2-.28-.2a.71.71,0,0,0-.44.19l-.11-.2a1,1,0,0,1,.59-.23c.31,0,.52.16.52.4a.87.87,0,0,1-.3.51l-.43.44h.8v.24H20.16v-.2l.6-.62A.57.57,0,0,0,21,27.44Z"/><path class="cls-1" d="M22.66,28.1c0,.29-.23.5-.61.5a1,1,0,0,1-.57-.17l.11-.22a.66.66,0,0,0,.44.17c.24,0,.37-.11.37-.28s-.14-.25-.38-.25h-.23v-.16l.46-.44h-.7V27h1v.16l-.5.49h.09C22.47,27.7,22.66,27.85,22.66,28.1Z"/><path class="cls-1" d="M23.7,27l-.52.95h.48v-.37h.25V28h.23v.24H23.9v.39h-.25V28.2h-.76V28l.55-1Z"/><rect class="cls-2" x="11.55" y="25.55" width="2.15" height="2.46"/></svg>