G75*
%MOIN*%
%OFA0B0*%
%FSLAX25Y25*%
%IPPOS*%
%LPD*%
%AMOC8*
5,1,8,0,0,1.08239X$1,22.5*
%
%ADD10C,0.00800*%
%ADD11C,0.03150*%
%ADD12C,0.02000*%
D10*
X0041689Y0044102D02*
X0041689Y0064587D01*
X0062174Y0064587D01*
X0062174Y0044102D01*
X0041689Y0044102D01*
X0061152Y0042018D02*
X0061152Y0040758D01*
X0061152Y0042018D02*
X0062411Y0042018D01*
X0065010Y0042018D02*
X0066506Y0042018D01*
X0069104Y0042018D02*
X0070364Y0042018D01*
X0070364Y0040758D01*
X0070364Y0035640D02*
X0070364Y0034380D01*
X0069104Y0034380D01*
X0066506Y0034380D02*
X0065010Y0034380D01*
X0062411Y0034380D02*
X0061152Y0034380D01*
X0061152Y0035640D01*
X0078350Y0044136D02*
X0078350Y0052734D01*
X0085449Y0052734D02*
X0085449Y0044136D01*
X0102744Y0044102D02*
X0102744Y0064587D01*
X0123229Y0064587D01*
X0123229Y0044102D01*
X0102744Y0044102D01*
X0122207Y0042018D02*
X0122207Y0040758D01*
X0122207Y0042018D02*
X0123467Y0042018D01*
X0126065Y0042018D02*
X0127561Y0042018D01*
X0130159Y0042018D02*
X0131419Y0042018D01*
X0131419Y0040758D01*
X0131419Y0035640D02*
X0131419Y0034380D01*
X0130159Y0034380D01*
X0127561Y0034380D02*
X0126065Y0034380D01*
X0123467Y0034380D02*
X0122207Y0034380D01*
X0122207Y0035640D01*
X0139405Y0044136D02*
X0139405Y0052734D01*
X0146504Y0052734D02*
X0146504Y0044136D01*
X0163799Y0044102D02*
X0163799Y0064587D01*
X0184284Y0064587D01*
X0184284Y0044102D01*
X0163799Y0044102D01*
X0183262Y0042018D02*
X0183262Y0040758D01*
X0183262Y0042018D02*
X0184522Y0042018D01*
X0187120Y0042018D02*
X0188616Y0042018D01*
X0191215Y0042018D02*
X0192474Y0042018D01*
X0192474Y0040758D01*
X0192474Y0035640D02*
X0192474Y0034380D01*
X0191215Y0034380D01*
X0188616Y0034380D02*
X0187120Y0034380D01*
X0184522Y0034380D02*
X0183262Y0034380D01*
X0183262Y0035640D01*
X0200460Y0044136D02*
X0200460Y0052734D01*
X0207559Y0052734D02*
X0207559Y0044136D01*
X0224854Y0044102D02*
X0224854Y0064587D01*
X0245339Y0064587D01*
X0245339Y0044102D01*
X0224854Y0044102D01*
X0244317Y0042018D02*
X0244317Y0040758D01*
X0244317Y0042018D02*
X0245577Y0042018D01*
X0248175Y0042018D02*
X0249671Y0042018D01*
X0252270Y0042018D02*
X0253530Y0042018D01*
X0253530Y0040758D01*
X0253530Y0035640D02*
X0253530Y0034380D01*
X0252270Y0034380D01*
X0249671Y0034380D02*
X0248175Y0034380D01*
X0245577Y0034380D02*
X0244317Y0034380D01*
X0244317Y0035640D01*
X0261515Y0044136D02*
X0261515Y0052734D01*
X0268615Y0052734D02*
X0268615Y0044136D01*
X0285909Y0044102D02*
X0285909Y0064587D01*
X0306394Y0064587D01*
X0306394Y0044102D01*
X0285909Y0044102D01*
X0305372Y0042018D02*
X0305372Y0040758D01*
X0305372Y0042018D02*
X0306632Y0042018D01*
X0309230Y0042018D02*
X0310726Y0042018D01*
X0313325Y0042018D02*
X0314585Y0042018D01*
X0314585Y0040758D01*
X0314585Y0035640D02*
X0314585Y0034380D01*
X0313325Y0034380D01*
X0310726Y0034380D02*
X0309230Y0034380D01*
X0306632Y0034380D02*
X0305372Y0034380D01*
X0305372Y0035640D01*
X0322570Y0044136D02*
X0322570Y0052734D01*
X0329670Y0052734D02*
X0329670Y0044136D01*
X0346964Y0044102D02*
X0346964Y0064587D01*
X0367449Y0064587D01*
X0367449Y0044102D01*
X0346964Y0044102D01*
X0366427Y0042018D02*
X0366427Y0040758D01*
X0366427Y0042018D02*
X0367687Y0042018D01*
X0370285Y0042018D02*
X0371782Y0042018D01*
X0374380Y0042018D02*
X0375640Y0042018D01*
X0375640Y0040758D01*
X0375640Y0035640D02*
X0375640Y0034380D01*
X0374380Y0034380D01*
X0371782Y0034380D02*
X0370285Y0034380D01*
X0367687Y0034380D02*
X0366427Y0034380D01*
X0366427Y0035640D01*
X0383626Y0044136D02*
X0383626Y0052734D01*
X0390725Y0052734D02*
X0390725Y0044136D01*
X0375640Y0075750D02*
X0375640Y0077010D01*
X0375640Y0075750D02*
X0374380Y0075750D01*
X0371782Y0075750D02*
X0370285Y0075750D01*
X0367687Y0075750D02*
X0366427Y0075750D01*
X0366427Y0077010D01*
X0366427Y0082128D02*
X0366427Y0083388D01*
X0367687Y0083388D01*
X0367449Y0085472D02*
X0367449Y0105957D01*
X0346964Y0105957D01*
X0346964Y0085472D01*
X0367449Y0085472D01*
X0370285Y0083388D02*
X0371782Y0083388D01*
X0374380Y0083388D02*
X0375640Y0083388D01*
X0375640Y0082128D01*
X0383626Y0085506D02*
X0383626Y0094104D01*
X0390725Y0094104D02*
X0390725Y0085506D01*
X0375640Y0117120D02*
X0375640Y0118380D01*
X0375640Y0117120D02*
X0374380Y0117120D01*
X0371782Y0117120D02*
X0370285Y0117120D01*
X0367687Y0117120D02*
X0366427Y0117120D01*
X0366427Y0118380D01*
X0366427Y0123498D02*
X0366427Y0124758D01*
X0367687Y0124758D01*
X0367449Y0126842D02*
X0367449Y0147327D01*
X0346964Y0147327D01*
X0346964Y0126842D01*
X0367449Y0126842D01*
X0370285Y0124758D02*
X0371782Y0124758D01*
X0374380Y0124758D02*
X0375640Y0124758D01*
X0375640Y0123498D01*
X0383626Y0126876D02*
X0383626Y0135474D01*
X0390725Y0135474D02*
X0390725Y0126876D01*
X0375640Y0158490D02*
X0375640Y0159750D01*
X0375640Y0158490D02*
X0374380Y0158490D01*
X0371782Y0158490D02*
X0370285Y0158490D01*
X0367687Y0158490D02*
X0366427Y0158490D01*
X0366427Y0159750D01*
X0366427Y0164868D02*
X0366427Y0166128D01*
X0367687Y0166128D01*
X0367449Y0168212D02*
X0367449Y0188697D01*
X0346964Y0188697D01*
X0346964Y0168212D01*
X0367449Y0168212D01*
X0370285Y0166128D02*
X0371782Y0166128D01*
X0374380Y0166128D02*
X0375640Y0166128D01*
X0375640Y0164868D01*
X0383626Y0168246D02*
X0383626Y0176844D01*
X0390725Y0176844D02*
X0390725Y0168246D01*
X0375640Y0199860D02*
X0375640Y0201120D01*
X0375640Y0199860D02*
X0374380Y0199860D01*
X0371782Y0199860D02*
X0370285Y0199860D01*
X0367687Y0199860D02*
X0366427Y0199860D01*
X0366427Y0201120D01*
X0366427Y0206238D02*
X0366427Y0207498D01*
X0367687Y0207498D01*
X0367449Y0209582D02*
X0367449Y0230067D01*
X0346964Y0230067D01*
X0346964Y0209582D01*
X0367449Y0209582D01*
X0370285Y0207498D02*
X0371782Y0207498D01*
X0374380Y0207498D02*
X0375640Y0207498D01*
X0375640Y0206238D01*
X0383626Y0209616D02*
X0383626Y0218215D01*
X0390725Y0218215D02*
X0390725Y0209616D01*
X0375640Y0241230D02*
X0375640Y0242490D01*
X0375640Y0241230D02*
X0374380Y0241230D01*
X0371782Y0241230D02*
X0370285Y0241230D01*
X0367687Y0241230D02*
X0366427Y0241230D01*
X0366427Y0242490D01*
X0366427Y0247608D02*
X0366427Y0248868D01*
X0367687Y0248868D01*
X0367449Y0250952D02*
X0367449Y0271437D01*
X0346964Y0271437D01*
X0346964Y0250952D01*
X0367449Y0250952D01*
X0370285Y0248868D02*
X0371782Y0248868D01*
X0374380Y0248868D02*
X0375640Y0248868D01*
X0375640Y0247608D01*
X0383626Y0250986D02*
X0383626Y0259585D01*
X0390725Y0259585D02*
X0390725Y0250986D01*
X0375640Y0282600D02*
X0375640Y0283860D01*
X0375640Y0282600D02*
X0374380Y0282600D01*
X0371782Y0282600D02*
X0370285Y0282600D01*
X0367687Y0282600D02*
X0366427Y0282600D01*
X0366427Y0283860D01*
X0366427Y0288978D02*
X0366427Y0290238D01*
X0367687Y0290238D01*
X0367449Y0292322D02*
X0367449Y0312808D01*
X0346964Y0312808D01*
X0346964Y0292322D01*
X0367449Y0292322D01*
X0370285Y0290238D02*
X0371782Y0290238D01*
X0374380Y0290238D02*
X0375640Y0290238D01*
X0375640Y0288978D01*
X0383626Y0292356D02*
X0383626Y0300955D01*
X0390725Y0300955D02*
X0390725Y0292356D01*
X0375640Y0323971D02*
X0375640Y0325230D01*
X0375640Y0323971D02*
X0374380Y0323971D01*
X0371782Y0323971D02*
X0370285Y0323971D01*
X0367687Y0323971D02*
X0366427Y0323971D01*
X0366427Y0325230D01*
X0366427Y0330348D02*
X0366427Y0331608D01*
X0367687Y0331608D01*
X0367449Y0333693D02*
X0367449Y0354178D01*
X0346964Y0354178D01*
X0346964Y0333693D01*
X0367449Y0333693D01*
X0370285Y0331608D02*
X0371782Y0331608D01*
X0374380Y0331608D02*
X0375640Y0331608D01*
X0375640Y0330348D01*
X0383626Y0333726D02*
X0383626Y0342325D01*
X0390725Y0342325D02*
X0390725Y0333726D01*
X0375640Y0365341D02*
X0375640Y0366600D01*
X0375640Y0365341D02*
X0374380Y0365341D01*
X0371782Y0365341D02*
X0370285Y0365341D01*
X0367687Y0365341D02*
X0366427Y0365341D01*
X0366427Y0366600D01*
X0366427Y0371718D02*
X0366427Y0372978D01*
X0367687Y0372978D01*
X0367449Y0375063D02*
X0367449Y0395548D01*
X0346964Y0395548D01*
X0346964Y0375063D01*
X0367449Y0375063D01*
X0370285Y0372978D02*
X0371782Y0372978D01*
X0374380Y0372978D02*
X0375640Y0372978D01*
X0375640Y0371718D01*
X0383626Y0375096D02*
X0383626Y0383695D01*
X0390725Y0383695D02*
X0390725Y0375096D01*
X0329670Y0375096D02*
X0329670Y0383695D01*
X0322570Y0383695D02*
X0322570Y0375096D01*
X0314585Y0372978D02*
X0313325Y0372978D01*
X0314585Y0372978D02*
X0314585Y0371718D01*
X0310726Y0372978D02*
X0309230Y0372978D01*
X0306632Y0372978D02*
X0305372Y0372978D01*
X0305372Y0371718D01*
X0306394Y0375063D02*
X0306394Y0395548D01*
X0285909Y0395548D01*
X0285909Y0375063D01*
X0306394Y0375063D01*
X0305372Y0366600D02*
X0305372Y0365341D01*
X0306632Y0365341D01*
X0309230Y0365341D02*
X0310726Y0365341D01*
X0313325Y0365341D02*
X0314585Y0365341D01*
X0314585Y0366600D01*
X0306394Y0354178D02*
X0306394Y0333693D01*
X0285909Y0333693D01*
X0285909Y0354178D01*
X0306394Y0354178D01*
X0322570Y0342325D02*
X0322570Y0333726D01*
X0329670Y0333726D02*
X0329670Y0342325D01*
X0314585Y0331608D02*
X0313325Y0331608D01*
X0314585Y0331608D02*
X0314585Y0330348D01*
X0310726Y0331608D02*
X0309230Y0331608D01*
X0306632Y0331608D02*
X0305372Y0331608D01*
X0305372Y0330348D01*
X0305372Y0325230D02*
X0305372Y0323971D01*
X0306632Y0323971D01*
X0309230Y0323971D02*
X0310726Y0323971D01*
X0313325Y0323971D02*
X0314585Y0323971D01*
X0314585Y0325230D01*
X0306394Y0312808D02*
X0306394Y0292322D01*
X0285909Y0292322D01*
X0285909Y0312808D01*
X0306394Y0312808D01*
X0322570Y0300955D02*
X0322570Y0292356D01*
X0329670Y0292356D02*
X0329670Y0300955D01*
X0314585Y0290238D02*
X0314585Y0288978D01*
X0314585Y0290238D02*
X0313325Y0290238D01*
X0310726Y0290238D02*
X0309230Y0290238D01*
X0306632Y0290238D02*
X0305372Y0290238D01*
X0305372Y0288978D01*
X0305372Y0283860D02*
X0305372Y0282600D01*
X0306632Y0282600D01*
X0309230Y0282600D02*
X0310726Y0282600D01*
X0313325Y0282600D02*
X0314585Y0282600D01*
X0314585Y0283860D01*
X0306394Y0271437D02*
X0306394Y0250952D01*
X0285909Y0250952D01*
X0285909Y0271437D01*
X0306394Y0271437D01*
X0322570Y0259585D02*
X0322570Y0250986D01*
X0329670Y0250986D02*
X0329670Y0259585D01*
X0314585Y0248868D02*
X0314585Y0247608D01*
X0314585Y0248868D02*
X0313325Y0248868D01*
X0310726Y0248868D02*
X0309230Y0248868D01*
X0306632Y0248868D02*
X0305372Y0248868D01*
X0305372Y0247608D01*
X0305372Y0242490D02*
X0305372Y0241230D01*
X0306632Y0241230D01*
X0309230Y0241230D02*
X0310726Y0241230D01*
X0313325Y0241230D02*
X0314585Y0241230D01*
X0314585Y0242490D01*
X0306394Y0230067D02*
X0306394Y0209582D01*
X0285909Y0209582D01*
X0285909Y0230067D01*
X0306394Y0230067D01*
X0322570Y0218215D02*
X0322570Y0209616D01*
X0329670Y0209616D02*
X0329670Y0218215D01*
X0314585Y0207498D02*
X0313325Y0207498D01*
X0314585Y0207498D02*
X0314585Y0206238D01*
X0310726Y0207498D02*
X0309230Y0207498D01*
X0306632Y0207498D02*
X0305372Y0207498D01*
X0305372Y0206238D01*
X0305372Y0201120D02*
X0305372Y0199860D01*
X0306632Y0199860D01*
X0309230Y0199860D02*
X0310726Y0199860D01*
X0313325Y0199860D02*
X0314585Y0199860D01*
X0314585Y0201120D01*
X0306394Y0188697D02*
X0306394Y0168212D01*
X0285909Y0168212D01*
X0285909Y0188697D01*
X0306394Y0188697D01*
X0322570Y0176844D02*
X0322570Y0168246D01*
X0329670Y0168246D02*
X0329670Y0176844D01*
X0314585Y0166128D02*
X0313325Y0166128D01*
X0314585Y0166128D02*
X0314585Y0164868D01*
X0310726Y0166128D02*
X0309230Y0166128D01*
X0306632Y0166128D02*
X0305372Y0166128D01*
X0305372Y0164868D01*
X0305372Y0159750D02*
X0305372Y0158490D01*
X0306632Y0158490D01*
X0309230Y0158490D02*
X0310726Y0158490D01*
X0313325Y0158490D02*
X0314585Y0158490D01*
X0314585Y0159750D01*
X0306394Y0147327D02*
X0306394Y0126842D01*
X0285909Y0126842D01*
X0285909Y0147327D01*
X0306394Y0147327D01*
X0322570Y0135474D02*
X0322570Y0126876D01*
X0329670Y0126876D02*
X0329670Y0135474D01*
X0314585Y0124758D02*
X0313325Y0124758D01*
X0314585Y0124758D02*
X0314585Y0123498D01*
X0310726Y0124758D02*
X0309230Y0124758D01*
X0306632Y0124758D02*
X0305372Y0124758D01*
X0305372Y0123498D01*
X0305372Y0118380D02*
X0305372Y0117120D01*
X0306632Y0117120D01*
X0309230Y0117120D02*
X0310726Y0117120D01*
X0313325Y0117120D02*
X0314585Y0117120D01*
X0314585Y0118380D01*
X0306394Y0105957D02*
X0306394Y0085472D01*
X0285909Y0085472D01*
X0285909Y0105957D01*
X0306394Y0105957D01*
X0322570Y0094104D02*
X0322570Y0085506D01*
X0329670Y0085506D02*
X0329670Y0094104D01*
X0314585Y0083388D02*
X0313325Y0083388D01*
X0314585Y0083388D02*
X0314585Y0082128D01*
X0310726Y0083388D02*
X0309230Y0083388D01*
X0306632Y0083388D02*
X0305372Y0083388D01*
X0305372Y0082128D01*
X0305372Y0077010D02*
X0305372Y0075750D01*
X0306632Y0075750D01*
X0309230Y0075750D02*
X0310726Y0075750D01*
X0313325Y0075750D02*
X0314585Y0075750D01*
X0314585Y0077010D01*
X0268615Y0085506D02*
X0268615Y0094104D01*
X0261515Y0094104D02*
X0261515Y0085506D01*
X0253530Y0083388D02*
X0252270Y0083388D01*
X0253530Y0083388D02*
X0253530Y0082128D01*
X0249671Y0083388D02*
X0248175Y0083388D01*
X0245577Y0083388D02*
X0244317Y0083388D01*
X0244317Y0082128D01*
X0245339Y0085472D02*
X0245339Y0105957D01*
X0224854Y0105957D01*
X0224854Y0085472D01*
X0245339Y0085472D01*
X0244317Y0077010D02*
X0244317Y0075750D01*
X0245577Y0075750D01*
X0248175Y0075750D02*
X0249671Y0075750D01*
X0252270Y0075750D02*
X0253530Y0075750D01*
X0253530Y0077010D01*
X0253530Y0117120D02*
X0252270Y0117120D01*
X0253530Y0117120D02*
X0253530Y0118380D01*
X0249671Y0117120D02*
X0248175Y0117120D01*
X0245577Y0117120D02*
X0244317Y0117120D01*
X0244317Y0118380D01*
X0244317Y0123498D02*
X0244317Y0124758D01*
X0245577Y0124758D01*
X0245339Y0126842D02*
X0245339Y0147327D01*
X0224854Y0147327D01*
X0224854Y0126842D01*
X0245339Y0126842D01*
X0248175Y0124758D02*
X0249671Y0124758D01*
X0252270Y0124758D02*
X0253530Y0124758D01*
X0253530Y0123498D01*
X0261515Y0126876D02*
X0261515Y0135474D01*
X0268615Y0135474D02*
X0268615Y0126876D01*
X0253530Y0158490D02*
X0252270Y0158490D01*
X0253530Y0158490D02*
X0253530Y0159750D01*
X0249671Y0158490D02*
X0248175Y0158490D01*
X0245577Y0158490D02*
X0244317Y0158490D01*
X0244317Y0159750D01*
X0244317Y0164868D02*
X0244317Y0166128D01*
X0245577Y0166128D01*
X0245339Y0168212D02*
X0245339Y0188697D01*
X0224854Y0188697D01*
X0224854Y0168212D01*
X0245339Y0168212D01*
X0248175Y0166128D02*
X0249671Y0166128D01*
X0252270Y0166128D02*
X0253530Y0166128D01*
X0253530Y0164868D01*
X0261515Y0168246D02*
X0261515Y0176844D01*
X0268615Y0176844D02*
X0268615Y0168246D01*
X0253530Y0199860D02*
X0252270Y0199860D01*
X0253530Y0199860D02*
X0253530Y0201120D01*
X0249671Y0199860D02*
X0248175Y0199860D01*
X0245577Y0199860D02*
X0244317Y0199860D01*
X0244317Y0201120D01*
X0244317Y0206238D02*
X0244317Y0207498D01*
X0245577Y0207498D01*
X0245339Y0209582D02*
X0245339Y0230067D01*
X0224854Y0230067D01*
X0224854Y0209582D01*
X0245339Y0209582D01*
X0248175Y0207498D02*
X0249671Y0207498D01*
X0252270Y0207498D02*
X0253530Y0207498D01*
X0253530Y0206238D01*
X0261515Y0209616D02*
X0261515Y0218215D01*
X0268615Y0218215D02*
X0268615Y0209616D01*
X0253530Y0241230D02*
X0252270Y0241230D01*
X0253530Y0241230D02*
X0253530Y0242490D01*
X0249671Y0241230D02*
X0248175Y0241230D01*
X0245577Y0241230D02*
X0244317Y0241230D01*
X0244317Y0242490D01*
X0244317Y0247608D02*
X0244317Y0248868D01*
X0245577Y0248868D01*
X0245339Y0250952D02*
X0245339Y0271437D01*
X0224854Y0271437D01*
X0224854Y0250952D01*
X0245339Y0250952D01*
X0248175Y0248868D02*
X0249671Y0248868D01*
X0252270Y0248868D02*
X0253530Y0248868D01*
X0253530Y0247608D01*
X0261515Y0250986D02*
X0261515Y0259585D01*
X0268615Y0259585D02*
X0268615Y0250986D01*
X0253530Y0282600D02*
X0252270Y0282600D01*
X0253530Y0282600D02*
X0253530Y0283860D01*
X0249671Y0282600D02*
X0248175Y0282600D01*
X0245577Y0282600D02*
X0244317Y0282600D01*
X0244317Y0283860D01*
X0244317Y0288978D02*
X0244317Y0290238D01*
X0245577Y0290238D01*
X0245339Y0292322D02*
X0245339Y0312808D01*
X0224854Y0312808D01*
X0224854Y0292322D01*
X0245339Y0292322D01*
X0248175Y0290238D02*
X0249671Y0290238D01*
X0252270Y0290238D02*
X0253530Y0290238D01*
X0253530Y0288978D01*
X0261515Y0292356D02*
X0261515Y0300955D01*
X0268615Y0300955D02*
X0268615Y0292356D01*
X0253530Y0323971D02*
X0252270Y0323971D01*
X0253530Y0323971D02*
X0253530Y0325230D01*
X0249671Y0323971D02*
X0248175Y0323971D01*
X0245577Y0323971D02*
X0244317Y0323971D01*
X0244317Y0325230D01*
X0244317Y0330348D02*
X0244317Y0331608D01*
X0245577Y0331608D01*
X0245339Y0333693D02*
X0245339Y0354178D01*
X0224854Y0354178D01*
X0224854Y0333693D01*
X0245339Y0333693D01*
X0248175Y0331608D02*
X0249671Y0331608D01*
X0252270Y0331608D02*
X0253530Y0331608D01*
X0253530Y0330348D01*
X0261515Y0333726D02*
X0261515Y0342325D01*
X0268615Y0342325D02*
X0268615Y0333726D01*
X0253530Y0365341D02*
X0252270Y0365341D01*
X0253530Y0365341D02*
X0253530Y0366600D01*
X0249671Y0365341D02*
X0248175Y0365341D01*
X0245577Y0365341D02*
X0244317Y0365341D01*
X0244317Y0366600D01*
X0244317Y0371718D02*
X0244317Y0372978D01*
X0245577Y0372978D01*
X0245339Y0375063D02*
X0245339Y0395548D01*
X0224854Y0395548D01*
X0224854Y0375063D01*
X0245339Y0375063D01*
X0248175Y0372978D02*
X0249671Y0372978D01*
X0252270Y0372978D02*
X0253530Y0372978D01*
X0253530Y0371718D01*
X0261515Y0375096D02*
X0261515Y0383695D01*
X0268615Y0383695D02*
X0268615Y0375096D01*
X0207559Y0375096D02*
X0207559Y0383695D01*
X0200460Y0383695D02*
X0200460Y0375096D01*
X0192474Y0372978D02*
X0191215Y0372978D01*
X0192474Y0372978D02*
X0192474Y0371718D01*
X0188616Y0372978D02*
X0187120Y0372978D01*
X0184522Y0372978D02*
X0183262Y0372978D01*
X0183262Y0371718D01*
X0184284Y0375063D02*
X0184284Y0395548D01*
X0163799Y0395548D01*
X0163799Y0375063D01*
X0184284Y0375063D01*
X0183262Y0366600D02*
X0183262Y0365341D01*
X0184522Y0365341D01*
X0187120Y0365341D02*
X0188616Y0365341D01*
X0191215Y0365341D02*
X0192474Y0365341D01*
X0192474Y0366600D01*
X0184284Y0354178D02*
X0184284Y0333693D01*
X0163799Y0333693D01*
X0163799Y0354178D01*
X0184284Y0354178D01*
X0200460Y0342325D02*
X0200460Y0333726D01*
X0207559Y0333726D02*
X0207559Y0342325D01*
X0192474Y0331608D02*
X0191215Y0331608D01*
X0192474Y0331608D02*
X0192474Y0330348D01*
X0188616Y0331608D02*
X0187120Y0331608D01*
X0184522Y0331608D02*
X0183262Y0331608D01*
X0183262Y0330348D01*
X0183262Y0325230D02*
X0183262Y0323971D01*
X0184522Y0323971D01*
X0187120Y0323971D02*
X0188616Y0323971D01*
X0191215Y0323971D02*
X0192474Y0323971D01*
X0192474Y0325230D01*
X0184284Y0312808D02*
X0184284Y0292322D01*
X0163799Y0292322D01*
X0163799Y0312808D01*
X0184284Y0312808D01*
X0200460Y0300955D02*
X0200460Y0292356D01*
X0207559Y0292356D02*
X0207559Y0300955D01*
X0192474Y0290238D02*
X0192474Y0288978D01*
X0192474Y0290238D02*
X0191215Y0290238D01*
X0188616Y0290238D02*
X0187120Y0290238D01*
X0184522Y0290238D02*
X0183262Y0290238D01*
X0183262Y0288978D01*
X0183262Y0283860D02*
X0183262Y0282600D01*
X0184522Y0282600D01*
X0187120Y0282600D02*
X0188616Y0282600D01*
X0191215Y0282600D02*
X0192474Y0282600D01*
X0192474Y0283860D01*
X0184284Y0271437D02*
X0184284Y0250952D01*
X0163799Y0250952D01*
X0163799Y0271437D01*
X0184284Y0271437D01*
X0200460Y0259585D02*
X0200460Y0250986D01*
X0207559Y0250986D02*
X0207559Y0259585D01*
X0192474Y0248868D02*
X0192474Y0247608D01*
X0192474Y0248868D02*
X0191215Y0248868D01*
X0188616Y0248868D02*
X0187120Y0248868D01*
X0184522Y0248868D02*
X0183262Y0248868D01*
X0183262Y0247608D01*
X0183262Y0242490D02*
X0183262Y0241230D01*
X0184522Y0241230D01*
X0187120Y0241230D02*
X0188616Y0241230D01*
X0191215Y0241230D02*
X0192474Y0241230D01*
X0192474Y0242490D01*
X0184284Y0230067D02*
X0184284Y0209582D01*
X0163799Y0209582D01*
X0163799Y0230067D01*
X0184284Y0230067D01*
X0200460Y0218215D02*
X0200460Y0209616D01*
X0207559Y0209616D02*
X0207559Y0218215D01*
X0192474Y0207498D02*
X0191215Y0207498D01*
X0192474Y0207498D02*
X0192474Y0206238D01*
X0188616Y0207498D02*
X0187120Y0207498D01*
X0184522Y0207498D02*
X0183262Y0207498D01*
X0183262Y0206238D01*
X0183262Y0201120D02*
X0183262Y0199860D01*
X0184522Y0199860D01*
X0187120Y0199860D02*
X0188616Y0199860D01*
X0191215Y0199860D02*
X0192474Y0199860D01*
X0192474Y0201120D01*
X0184284Y0188697D02*
X0184284Y0168212D01*
X0163799Y0168212D01*
X0163799Y0188697D01*
X0184284Y0188697D01*
X0200460Y0176844D02*
X0200460Y0168246D01*
X0207559Y0168246D02*
X0207559Y0176844D01*
X0192474Y0166128D02*
X0191215Y0166128D01*
X0192474Y0166128D02*
X0192474Y0164868D01*
X0188616Y0166128D02*
X0187120Y0166128D01*
X0184522Y0166128D02*
X0183262Y0166128D01*
X0183262Y0164868D01*
X0183262Y0159750D02*
X0183262Y0158490D01*
X0184522Y0158490D01*
X0187120Y0158490D02*
X0188616Y0158490D01*
X0191215Y0158490D02*
X0192474Y0158490D01*
X0192474Y0159750D01*
X0184284Y0147327D02*
X0184284Y0126842D01*
X0163799Y0126842D01*
X0163799Y0147327D01*
X0184284Y0147327D01*
X0200460Y0135474D02*
X0200460Y0126876D01*
X0207559Y0126876D02*
X0207559Y0135474D01*
X0192474Y0124758D02*
X0191215Y0124758D01*
X0192474Y0124758D02*
X0192474Y0123498D01*
X0188616Y0124758D02*
X0187120Y0124758D01*
X0184522Y0124758D02*
X0183262Y0124758D01*
X0183262Y0123498D01*
X0183262Y0118380D02*
X0183262Y0117120D01*
X0184522Y0117120D01*
X0187120Y0117120D02*
X0188616Y0117120D01*
X0191215Y0117120D02*
X0192474Y0117120D01*
X0192474Y0118380D01*
X0184284Y0105957D02*
X0184284Y0085472D01*
X0163799Y0085472D01*
X0163799Y0105957D01*
X0184284Y0105957D01*
X0200460Y0094104D02*
X0200460Y0085506D01*
X0207559Y0085506D02*
X0207559Y0094104D01*
X0192474Y0083388D02*
X0191215Y0083388D01*
X0192474Y0083388D02*
X0192474Y0082128D01*
X0188616Y0083388D02*
X0187120Y0083388D01*
X0184522Y0083388D02*
X0183262Y0083388D01*
X0183262Y0082128D01*
X0183262Y0077010D02*
X0183262Y0075750D01*
X0184522Y0075750D01*
X0187120Y0075750D02*
X0188616Y0075750D01*
X0191215Y0075750D02*
X0192474Y0075750D01*
X0192474Y0077010D01*
X0146504Y0085506D02*
X0146504Y0094104D01*
X0139405Y0094104D02*
X0139405Y0085506D01*
X0131419Y0083388D02*
X0130159Y0083388D01*
X0131419Y0083388D02*
X0131419Y0082128D01*
X0127561Y0083388D02*
X0126065Y0083388D01*
X0123467Y0083388D02*
X0122207Y0083388D01*
X0122207Y0082128D01*
X0123229Y0085472D02*
X0123229Y0105957D01*
X0102744Y0105957D01*
X0102744Y0085472D01*
X0123229Y0085472D01*
X0122207Y0077010D02*
X0122207Y0075750D01*
X0123467Y0075750D01*
X0126065Y0075750D02*
X0127561Y0075750D01*
X0130159Y0075750D02*
X0131419Y0075750D01*
X0131419Y0077010D01*
X0131419Y0117120D02*
X0131419Y0118380D01*
X0131419Y0117120D02*
X0130159Y0117120D01*
X0127561Y0117120D02*
X0126065Y0117120D01*
X0123467Y0117120D02*
X0122207Y0117120D01*
X0122207Y0118380D01*
X0122207Y0123498D02*
X0122207Y0124758D01*
X0123467Y0124758D01*
X0123229Y0126842D02*
X0123229Y0147327D01*
X0102744Y0147327D01*
X0102744Y0126842D01*
X0123229Y0126842D01*
X0126065Y0124758D02*
X0127561Y0124758D01*
X0130159Y0124758D02*
X0131419Y0124758D01*
X0131419Y0123498D01*
X0139405Y0126876D02*
X0139405Y0135474D01*
X0146504Y0135474D02*
X0146504Y0126876D01*
X0131419Y0158490D02*
X0131419Y0159750D01*
X0131419Y0158490D02*
X0130159Y0158490D01*
X0127561Y0158490D02*
X0126065Y0158490D01*
X0123467Y0158490D02*
X0122207Y0158490D01*
X0122207Y0159750D01*
X0122207Y0164868D02*
X0122207Y0166128D01*
X0123467Y0166128D01*
X0123229Y0168212D02*
X0123229Y0188697D01*
X0102744Y0188697D01*
X0102744Y0168212D01*
X0123229Y0168212D01*
X0126065Y0166128D02*
X0127561Y0166128D01*
X0130159Y0166128D02*
X0131419Y0166128D01*
X0131419Y0164868D01*
X0139405Y0168246D02*
X0139405Y0176844D01*
X0146504Y0176844D02*
X0146504Y0168246D01*
X0131419Y0199860D02*
X0131419Y0201120D01*
X0131419Y0199860D02*
X0130159Y0199860D01*
X0127561Y0199860D02*
X0126065Y0199860D01*
X0123467Y0199860D02*
X0122207Y0199860D01*
X0122207Y0201120D01*
X0122207Y0206238D02*
X0122207Y0207498D01*
X0123467Y0207498D01*
X0123229Y0209582D02*
X0123229Y0230067D01*
X0102744Y0230067D01*
X0102744Y0209582D01*
X0123229Y0209582D01*
X0126065Y0207498D02*
X0127561Y0207498D01*
X0130159Y0207498D02*
X0131419Y0207498D01*
X0131419Y0206238D01*
X0139405Y0209616D02*
X0139405Y0218215D01*
X0146504Y0218215D02*
X0146504Y0209616D01*
X0131419Y0241230D02*
X0131419Y0242490D01*
X0131419Y0241230D02*
X0130159Y0241230D01*
X0127561Y0241230D02*
X0126065Y0241230D01*
X0123467Y0241230D02*
X0122207Y0241230D01*
X0122207Y0242490D01*
X0122207Y0247608D02*
X0122207Y0248868D01*
X0123467Y0248868D01*
X0123229Y0250952D02*
X0123229Y0271437D01*
X0102744Y0271437D01*
X0102744Y0250952D01*
X0123229Y0250952D01*
X0126065Y0248868D02*
X0127561Y0248868D01*
X0130159Y0248868D02*
X0131419Y0248868D01*
X0131419Y0247608D01*
X0139405Y0250986D02*
X0139405Y0259585D01*
X0146504Y0259585D02*
X0146504Y0250986D01*
X0131419Y0282600D02*
X0131419Y0283860D01*
X0131419Y0282600D02*
X0130159Y0282600D01*
X0127561Y0282600D02*
X0126065Y0282600D01*
X0123467Y0282600D02*
X0122207Y0282600D01*
X0122207Y0283860D01*
X0122207Y0288978D02*
X0122207Y0290238D01*
X0123467Y0290238D01*
X0123229Y0292322D02*
X0123229Y0312808D01*
X0102744Y0312808D01*
X0102744Y0292322D01*
X0123229Y0292322D01*
X0126065Y0290238D02*
X0127561Y0290238D01*
X0130159Y0290238D02*
X0131419Y0290238D01*
X0131419Y0288978D01*
X0139405Y0292356D02*
X0139405Y0300955D01*
X0146504Y0300955D02*
X0146504Y0292356D01*
X0131419Y0323971D02*
X0131419Y0325230D01*
X0131419Y0323971D02*
X0130159Y0323971D01*
X0127561Y0323971D02*
X0126065Y0323971D01*
X0123467Y0323971D02*
X0122207Y0323971D01*
X0122207Y0325230D01*
X0122207Y0330348D02*
X0122207Y0331608D01*
X0123467Y0331608D01*
X0123229Y0333693D02*
X0123229Y0354178D01*
X0102744Y0354178D01*
X0102744Y0333693D01*
X0123229Y0333693D01*
X0126065Y0331608D02*
X0127561Y0331608D01*
X0130159Y0331608D02*
X0131419Y0331608D01*
X0131419Y0330348D01*
X0139405Y0333726D02*
X0139405Y0342325D01*
X0146504Y0342325D02*
X0146504Y0333726D01*
X0131419Y0365341D02*
X0131419Y0366600D01*
X0131419Y0365341D02*
X0130159Y0365341D01*
X0127561Y0365341D02*
X0126065Y0365341D01*
X0123467Y0365341D02*
X0122207Y0365341D01*
X0122207Y0366600D01*
X0122207Y0371718D02*
X0122207Y0372978D01*
X0123467Y0372978D01*
X0123229Y0375063D02*
X0123229Y0395548D01*
X0102744Y0395548D01*
X0102744Y0375063D01*
X0123229Y0375063D01*
X0126065Y0372978D02*
X0127561Y0372978D01*
X0130159Y0372978D02*
X0131419Y0372978D01*
X0131419Y0371718D01*
X0139405Y0375096D02*
X0139405Y0383695D01*
X0146504Y0383695D02*
X0146504Y0375096D01*
X0085449Y0375096D02*
X0085449Y0383695D01*
X0078350Y0383695D02*
X0078350Y0375096D01*
X0070364Y0372978D02*
X0069104Y0372978D01*
X0070364Y0372978D02*
X0070364Y0371718D01*
X0066506Y0372978D02*
X0065010Y0372978D01*
X0062411Y0372978D02*
X0061152Y0372978D01*
X0061152Y0371718D01*
X0062174Y0375063D02*
X0062174Y0395548D01*
X0041689Y0395548D01*
X0041689Y0375063D01*
X0062174Y0375063D01*
X0061152Y0366600D02*
X0061152Y0365341D01*
X0062411Y0365341D01*
X0065010Y0365341D02*
X0066506Y0365341D01*
X0069104Y0365341D02*
X0070364Y0365341D01*
X0070364Y0366600D01*
X0062174Y0354178D02*
X0062174Y0333693D01*
X0041689Y0333693D01*
X0041689Y0354178D01*
X0062174Y0354178D01*
X0078350Y0342325D02*
X0078350Y0333726D01*
X0070364Y0331608D02*
X0069104Y0331608D01*
X0070364Y0331608D02*
X0070364Y0330348D01*
X0066506Y0331608D02*
X0065010Y0331608D01*
X0062411Y0331608D02*
X0061152Y0331608D01*
X0061152Y0330348D01*
X0061152Y0325230D02*
X0061152Y0323971D01*
X0062411Y0323971D01*
X0065010Y0323971D02*
X0066506Y0323971D01*
X0069104Y0323971D02*
X0070364Y0323971D01*
X0070364Y0325230D01*
X0062174Y0312808D02*
X0062174Y0292322D01*
X0041689Y0292322D01*
X0041689Y0312808D01*
X0062174Y0312808D01*
X0078350Y0300955D02*
X0078350Y0292356D01*
X0070364Y0290238D02*
X0070364Y0288978D01*
X0070364Y0290238D02*
X0069104Y0290238D01*
X0066506Y0290238D02*
X0065010Y0290238D01*
X0062411Y0290238D02*
X0061152Y0290238D01*
X0061152Y0288978D01*
X0061152Y0283860D02*
X0061152Y0282600D01*
X0062411Y0282600D01*
X0065010Y0282600D02*
X0066506Y0282600D01*
X0069104Y0282600D02*
X0070364Y0282600D01*
X0070364Y0283860D01*
X0062174Y0271437D02*
X0062174Y0250952D01*
X0041689Y0250952D01*
X0041689Y0271437D01*
X0062174Y0271437D01*
X0078350Y0259585D02*
X0078350Y0250986D01*
X0070364Y0248868D02*
X0070364Y0247608D01*
X0070364Y0248868D02*
X0069104Y0248868D01*
X0066506Y0248868D02*
X0065010Y0248868D01*
X0062411Y0248868D02*
X0061152Y0248868D01*
X0061152Y0247608D01*
X0061152Y0242490D02*
X0061152Y0241230D01*
X0062411Y0241230D01*
X0065010Y0241230D02*
X0066506Y0241230D01*
X0069104Y0241230D02*
X0070364Y0241230D01*
X0070364Y0242490D01*
X0062174Y0230067D02*
X0062174Y0209582D01*
X0041689Y0209582D01*
X0041689Y0230067D01*
X0062174Y0230067D01*
X0078350Y0218215D02*
X0078350Y0209616D01*
X0070364Y0207498D02*
X0069104Y0207498D01*
X0070364Y0207498D02*
X0070364Y0206238D01*
X0066506Y0207498D02*
X0065010Y0207498D01*
X0062411Y0207498D02*
X0061152Y0207498D01*
X0061152Y0206238D01*
X0061152Y0201120D02*
X0061152Y0199860D01*
X0062411Y0199860D01*
X0065010Y0199860D02*
X0066506Y0199860D01*
X0069104Y0199860D02*
X0070364Y0199860D01*
X0070364Y0201120D01*
X0062174Y0188697D02*
X0062174Y0168212D01*
X0041689Y0168212D01*
X0041689Y0188697D01*
X0062174Y0188697D01*
X0078350Y0176844D02*
X0078350Y0168246D01*
X0070364Y0166128D02*
X0069104Y0166128D01*
X0070364Y0166128D02*
X0070364Y0164868D01*
X0066506Y0166128D02*
X0065010Y0166128D01*
X0062411Y0166128D02*
X0061152Y0166128D01*
X0061152Y0164868D01*
X0061152Y0159750D02*
X0061152Y0158490D01*
X0062411Y0158490D01*
X0065010Y0158490D02*
X0066506Y0158490D01*
X0069104Y0158490D02*
X0070364Y0158490D01*
X0070364Y0159750D01*
X0062174Y0147327D02*
X0062174Y0126842D01*
X0041689Y0126842D01*
X0041689Y0147327D01*
X0062174Y0147327D01*
X0078350Y0135474D02*
X0078350Y0126876D01*
X0070364Y0124758D02*
X0069104Y0124758D01*
X0070364Y0124758D02*
X0070364Y0123498D01*
X0066506Y0124758D02*
X0065010Y0124758D01*
X0062411Y0124758D02*
X0061152Y0124758D01*
X0061152Y0123498D01*
X0061152Y0118380D02*
X0061152Y0117120D01*
X0062411Y0117120D01*
X0065010Y0117120D02*
X0066506Y0117120D01*
X0069104Y0117120D02*
X0070364Y0117120D01*
X0070364Y0118380D01*
X0062174Y0105957D02*
X0062174Y0085472D01*
X0041689Y0085472D01*
X0041689Y0105957D01*
X0062174Y0105957D01*
X0078350Y0094104D02*
X0078350Y0085506D01*
X0070364Y0083388D02*
X0069104Y0083388D01*
X0070364Y0083388D02*
X0070364Y0082128D01*
X0066506Y0083388D02*
X0065010Y0083388D01*
X0062411Y0083388D02*
X0061152Y0083388D01*
X0061152Y0082128D01*
X0061152Y0077010D02*
X0061152Y0075750D01*
X0062411Y0075750D01*
X0065010Y0075750D02*
X0066506Y0075750D01*
X0069104Y0075750D02*
X0070364Y0075750D01*
X0070364Y0077010D01*
X0085449Y0085506D02*
X0085449Y0094104D01*
X0085449Y0126876D02*
X0085449Y0135474D01*
X0085449Y0168246D02*
X0085449Y0176844D01*
X0085449Y0209616D02*
X0085449Y0218215D01*
X0085449Y0250986D02*
X0085449Y0259585D01*
X0085449Y0292356D02*
X0085449Y0300955D01*
X0085449Y0333726D02*
X0085449Y0342325D01*
D11*
X0040901Y0043315D03*
X0040901Y0084685D03*
X0040901Y0126055D03*
X0040901Y0167425D03*
X0040901Y0208795D03*
X0040901Y0250165D03*
X0040901Y0291535D03*
X0040901Y0332905D03*
X0040901Y0374275D03*
X0101956Y0374275D03*
X0101956Y0332905D03*
X0101956Y0291535D03*
X0101956Y0250165D03*
X0101956Y0208795D03*
X0101956Y0167425D03*
X0101956Y0126055D03*
X0101956Y0084685D03*
X0101956Y0043315D03*
X0163011Y0043315D03*
X0163011Y0084685D03*
X0163011Y0126055D03*
X0163011Y0167425D03*
X0163011Y0208795D03*
X0163011Y0250165D03*
X0163011Y0291535D03*
X0163011Y0332905D03*
X0163011Y0374275D03*
X0224067Y0374275D03*
X0224067Y0332905D03*
X0224067Y0291535D03*
X0224067Y0250165D03*
X0224067Y0208795D03*
X0224067Y0167425D03*
X0224067Y0126055D03*
X0224067Y0084685D03*
X0224067Y0043315D03*
X0285122Y0043315D03*
X0285122Y0084685D03*
X0285122Y0126055D03*
X0285122Y0167425D03*
X0285122Y0208795D03*
X0285122Y0250165D03*
X0285122Y0291535D03*
X0285122Y0332905D03*
X0285122Y0374275D03*
X0346177Y0374275D03*
X0346177Y0332905D03*
X0346177Y0291535D03*
X0346177Y0250165D03*
X0346177Y0208795D03*
X0346177Y0167425D03*
X0346177Y0126055D03*
X0346177Y0084685D03*
X0346177Y0043315D03*
D12*
X0326120Y0058435D03*
X0326120Y0099805D03*
X0326120Y0141175D03*
X0326120Y0182545D03*
X0326120Y0223915D03*
X0326120Y0265285D03*
X0326120Y0306656D03*
X0326120Y0348026D03*
X0326120Y0389396D03*
X0265065Y0389396D03*
X0265065Y0348026D03*
X0265065Y0306656D03*
X0265065Y0265285D03*
X0265065Y0223915D03*
X0265065Y0182545D03*
X0265065Y0141175D03*
X0265065Y0099805D03*
X0265065Y0058435D03*
X0204010Y0058435D03*
X0204010Y0099805D03*
X0204010Y0141175D03*
X0204010Y0182545D03*
X0204010Y0223915D03*
X0204010Y0265285D03*
X0204010Y0306656D03*
X0204010Y0348026D03*
X0204010Y0389396D03*
X0142955Y0389396D03*
X0142955Y0348026D03*
X0142955Y0306656D03*
X0142955Y0265285D03*
X0142955Y0223915D03*
X0142955Y0182545D03*
X0142955Y0141175D03*
X0142955Y0099805D03*
X0142955Y0058435D03*
X0081900Y0058435D03*
X0081900Y0099805D03*
X0081900Y0141175D03*
X0081900Y0182545D03*
X0081900Y0223915D03*
X0081900Y0265285D03*
X0081900Y0306656D03*
X0081900Y0348026D03*
X0081900Y0389396D03*
X0387175Y0389396D03*
X0387175Y0348026D03*
X0387175Y0306656D03*
X0387175Y0265285D03*
X0387175Y0223915D03*
X0387175Y0182545D03*
X0387175Y0141175D03*
X0387175Y0099805D03*
X0387175Y0058435D03*
M02*
