G75*
%MOIN*%
%OFA0B0*%
%FSLAX25Y25*%
%IPPOS*%
%LPD*%
%AMOC8*
5,1,8,0,0,1.08239X$1,22.5*
%
%ADD10C,0.01969*%
%ADD11C,0.01800*%
%ADD12R,0.03753X0.03556*%
%ADD13R,0.03162X0.03162*%
%ADD14R,0.07887X0.03950*%
%ADD15R,0.03950X0.07887*%
%ADD16R,0.07099X0.03950*%
%ADD17C,0.04737*%
%ADD18C,0.05000*%
%ADD19C,0.06706*%
D10*
X0030325Y0030325D02*
X0040955Y0030325D01*
X0030325Y0030325D02*
X0030325Y0032687D01*
X0030325Y0062608D02*
X0030325Y0066545D01*
X0034262Y0066545D01*
X0030325Y0071695D02*
X0040955Y0071695D01*
X0030325Y0071695D02*
X0030325Y0074057D01*
X0030325Y0103978D02*
X0030325Y0107915D01*
X0034262Y0107915D01*
X0030325Y0113065D02*
X0040955Y0113065D01*
X0030325Y0113065D02*
X0030325Y0115427D01*
X0030325Y0145348D02*
X0030325Y0149285D01*
X0034262Y0149285D01*
X0030325Y0154435D02*
X0040955Y0154435D01*
X0030325Y0154435D02*
X0030325Y0156797D01*
X0030325Y0186718D02*
X0030325Y0190655D01*
X0034262Y0190655D01*
X0030325Y0195805D02*
X0040955Y0195805D01*
X0030325Y0195805D02*
X0030325Y0198167D01*
X0030325Y0228089D02*
X0030325Y0232026D01*
X0034262Y0232026D01*
X0030325Y0237175D02*
X0040955Y0237175D01*
X0030325Y0237175D02*
X0030325Y0239537D01*
X0030325Y0269459D02*
X0030325Y0273396D01*
X0034262Y0273396D01*
X0030325Y0278545D02*
X0040955Y0278545D01*
X0030325Y0278545D02*
X0030325Y0280908D01*
X0030325Y0310829D02*
X0030325Y0314766D01*
X0034262Y0314766D01*
X0030325Y0319915D02*
X0040955Y0319915D01*
X0030325Y0319915D02*
X0030325Y0322278D01*
X0030325Y0352199D02*
X0030325Y0356136D01*
X0034262Y0356136D01*
X0030325Y0361285D02*
X0040955Y0361285D01*
X0030325Y0361285D02*
X0030325Y0363648D01*
X0030325Y0393569D02*
X0030325Y0397506D01*
X0034262Y0397506D01*
X0072451Y0397506D02*
X0075207Y0397506D01*
X0075207Y0394356D01*
X0091380Y0393569D02*
X0091380Y0397506D01*
X0095317Y0397506D01*
X0091380Y0363648D02*
X0091380Y0361285D01*
X0102010Y0361285D01*
X0095317Y0356136D02*
X0091380Y0356136D01*
X0091380Y0352199D01*
X0075207Y0352986D02*
X0075207Y0356136D01*
X0072451Y0356136D01*
X0071270Y0361285D02*
X0075207Y0361285D01*
X0075207Y0319915D02*
X0071270Y0319915D01*
X0072451Y0314766D02*
X0075207Y0314766D01*
X0075207Y0311616D01*
X0091380Y0310829D02*
X0091380Y0314766D01*
X0095317Y0314766D01*
X0091380Y0319915D02*
X0102010Y0319915D01*
X0091380Y0319915D02*
X0091380Y0322278D01*
X0132325Y0319915D02*
X0136262Y0319915D01*
X0136262Y0314766D02*
X0133506Y0314766D01*
X0136262Y0314766D02*
X0136262Y0311616D01*
X0152435Y0310829D02*
X0152435Y0314766D01*
X0156372Y0314766D01*
X0152435Y0319915D02*
X0163065Y0319915D01*
X0152435Y0319915D02*
X0152435Y0322278D01*
X0152435Y0352199D02*
X0152435Y0356136D01*
X0156372Y0356136D01*
X0152435Y0361285D02*
X0163065Y0361285D01*
X0152435Y0361285D02*
X0152435Y0363648D01*
X0136262Y0361285D02*
X0132325Y0361285D01*
X0133506Y0356136D02*
X0136262Y0356136D01*
X0136262Y0352986D01*
X0136262Y0394356D02*
X0136262Y0397506D01*
X0133506Y0397506D01*
X0152435Y0397506D02*
X0156372Y0397506D01*
X0152435Y0397506D02*
X0152435Y0393569D01*
X0193380Y0361285D02*
X0197317Y0361285D01*
X0197317Y0356136D02*
X0197317Y0352986D01*
X0197317Y0356136D02*
X0194561Y0356136D01*
X0213490Y0356136D02*
X0213490Y0352199D01*
X0213490Y0356136D02*
X0217427Y0356136D01*
X0213490Y0361285D02*
X0224120Y0361285D01*
X0213490Y0361285D02*
X0213490Y0363648D01*
X0213490Y0393569D02*
X0213490Y0397506D01*
X0217427Y0397506D01*
X0197317Y0397506D02*
X0197317Y0394356D01*
X0197317Y0397506D02*
X0194561Y0397506D01*
X0255616Y0397506D02*
X0258372Y0397506D01*
X0258372Y0394356D01*
X0274545Y0393569D02*
X0274545Y0397506D01*
X0278482Y0397506D01*
X0274545Y0363648D02*
X0274545Y0361285D01*
X0285175Y0361285D01*
X0278482Y0356136D02*
X0274545Y0356136D01*
X0274545Y0352199D01*
X0258372Y0352986D02*
X0258372Y0356136D01*
X0255616Y0356136D01*
X0254435Y0361285D02*
X0258372Y0361285D01*
X0258372Y0319915D02*
X0254435Y0319915D01*
X0255616Y0314766D02*
X0258372Y0314766D01*
X0258372Y0311616D01*
X0274545Y0310829D02*
X0274545Y0314766D01*
X0278482Y0314766D01*
X0274545Y0319915D02*
X0285175Y0319915D01*
X0274545Y0319915D02*
X0274545Y0322278D01*
X0315490Y0319915D02*
X0319427Y0319915D01*
X0319427Y0314766D02*
X0316671Y0314766D01*
X0319427Y0314766D02*
X0319427Y0311616D01*
X0335600Y0310829D02*
X0335600Y0314766D01*
X0339537Y0314766D01*
X0335600Y0319915D02*
X0346230Y0319915D01*
X0335600Y0319915D02*
X0335600Y0322278D01*
X0335600Y0352199D02*
X0335600Y0356136D01*
X0339537Y0356136D01*
X0335600Y0361285D02*
X0346230Y0361285D01*
X0335600Y0361285D02*
X0335600Y0363648D01*
X0319427Y0361285D02*
X0315490Y0361285D01*
X0316671Y0356136D02*
X0319427Y0356136D01*
X0319427Y0352986D01*
X0319427Y0394356D02*
X0319427Y0397506D01*
X0316671Y0397506D01*
X0335600Y0397506D02*
X0339537Y0397506D01*
X0335600Y0397506D02*
X0335600Y0393569D01*
X0376545Y0361285D02*
X0380482Y0361285D01*
X0380482Y0356136D02*
X0380482Y0352986D01*
X0380482Y0356136D02*
X0377726Y0356136D01*
X0376545Y0319915D02*
X0380482Y0319915D01*
X0380482Y0314766D02*
X0380482Y0311616D01*
X0380482Y0314766D02*
X0377726Y0314766D01*
X0376545Y0278545D02*
X0380482Y0278545D01*
X0380482Y0273396D02*
X0380482Y0270246D01*
X0380482Y0273396D02*
X0377726Y0273396D01*
X0346230Y0278545D02*
X0335600Y0278545D01*
X0335600Y0280908D01*
X0335600Y0273396D02*
X0339537Y0273396D01*
X0335600Y0273396D02*
X0335600Y0269459D01*
X0319427Y0270246D02*
X0319427Y0273396D01*
X0316671Y0273396D01*
X0315490Y0278545D02*
X0319427Y0278545D01*
X0285175Y0278545D02*
X0274545Y0278545D01*
X0274545Y0280908D01*
X0274545Y0273396D02*
X0278482Y0273396D01*
X0274545Y0273396D02*
X0274545Y0269459D01*
X0258372Y0270246D02*
X0258372Y0273396D01*
X0255616Y0273396D01*
X0254435Y0278545D02*
X0258372Y0278545D01*
X0224120Y0278545D02*
X0213490Y0278545D01*
X0213490Y0280908D01*
X0213490Y0273396D02*
X0217427Y0273396D01*
X0213490Y0273396D02*
X0213490Y0269459D01*
X0197317Y0270246D02*
X0197317Y0273396D01*
X0194561Y0273396D01*
X0193380Y0278545D02*
X0197317Y0278545D01*
X0197317Y0311616D02*
X0197317Y0314766D01*
X0194561Y0314766D01*
X0193380Y0319915D02*
X0197317Y0319915D01*
X0213490Y0319915D02*
X0224120Y0319915D01*
X0217427Y0314766D02*
X0213490Y0314766D01*
X0213490Y0310829D01*
X0213490Y0319915D02*
X0213490Y0322278D01*
X0163065Y0278545D02*
X0152435Y0278545D01*
X0152435Y0280908D01*
X0152435Y0273396D02*
X0156372Y0273396D01*
X0152435Y0273396D02*
X0152435Y0269459D01*
X0136262Y0270246D02*
X0136262Y0273396D01*
X0133506Y0273396D01*
X0132325Y0278545D02*
X0136262Y0278545D01*
X0102010Y0278545D02*
X0091380Y0278545D01*
X0091380Y0280908D01*
X0091380Y0273396D02*
X0095317Y0273396D01*
X0091380Y0273396D02*
X0091380Y0269459D01*
X0075207Y0270246D02*
X0075207Y0273396D01*
X0072451Y0273396D01*
X0071270Y0278545D02*
X0075207Y0278545D01*
X0091380Y0239537D02*
X0091380Y0237175D01*
X0102010Y0237175D01*
X0095317Y0232026D02*
X0091380Y0232026D01*
X0091380Y0228089D01*
X0075207Y0228876D02*
X0075207Y0232026D01*
X0072451Y0232026D01*
X0071270Y0237175D02*
X0075207Y0237175D01*
X0091380Y0198167D02*
X0091380Y0195805D01*
X0102010Y0195805D01*
X0095317Y0190655D02*
X0091380Y0190655D01*
X0091380Y0186718D01*
X0075207Y0187506D02*
X0075207Y0190655D01*
X0072451Y0190655D01*
X0071270Y0195805D02*
X0075207Y0195805D01*
X0075207Y0154435D02*
X0071270Y0154435D01*
X0072451Y0149285D02*
X0075207Y0149285D01*
X0075207Y0146136D01*
X0091380Y0145348D02*
X0091380Y0149285D01*
X0095317Y0149285D01*
X0091380Y0154435D02*
X0102010Y0154435D01*
X0091380Y0154435D02*
X0091380Y0156797D01*
X0132325Y0154435D02*
X0136262Y0154435D01*
X0136262Y0149285D02*
X0133506Y0149285D01*
X0136262Y0149285D02*
X0136262Y0146136D01*
X0152435Y0145348D02*
X0152435Y0149285D01*
X0156372Y0149285D01*
X0152435Y0154435D02*
X0163065Y0154435D01*
X0152435Y0154435D02*
X0152435Y0156797D01*
X0152435Y0186718D02*
X0152435Y0190655D01*
X0156372Y0190655D01*
X0152435Y0195805D02*
X0163065Y0195805D01*
X0152435Y0195805D02*
X0152435Y0198167D01*
X0136262Y0195805D02*
X0132325Y0195805D01*
X0133506Y0190655D02*
X0136262Y0190655D01*
X0136262Y0187506D01*
X0136262Y0228876D02*
X0136262Y0232026D01*
X0133506Y0232026D01*
X0132325Y0237175D02*
X0136262Y0237175D01*
X0152435Y0237175D02*
X0163065Y0237175D01*
X0156372Y0232026D02*
X0152435Y0232026D01*
X0152435Y0228089D01*
X0152435Y0237175D02*
X0152435Y0239537D01*
X0193380Y0237175D02*
X0197317Y0237175D01*
X0197317Y0232026D02*
X0197317Y0228876D01*
X0197317Y0232026D02*
X0194561Y0232026D01*
X0213490Y0232026D02*
X0213490Y0228089D01*
X0213490Y0232026D02*
X0217427Y0232026D01*
X0213490Y0237175D02*
X0224120Y0237175D01*
X0213490Y0237175D02*
X0213490Y0239537D01*
X0254435Y0237175D02*
X0258372Y0237175D01*
X0258372Y0232026D02*
X0255616Y0232026D01*
X0258372Y0232026D02*
X0258372Y0228876D01*
X0274545Y0228089D02*
X0274545Y0232026D01*
X0278482Y0232026D01*
X0274545Y0237175D02*
X0285175Y0237175D01*
X0274545Y0237175D02*
X0274545Y0239537D01*
X0315490Y0237175D02*
X0319427Y0237175D01*
X0319427Y0232026D02*
X0316671Y0232026D01*
X0319427Y0232026D02*
X0319427Y0228876D01*
X0335600Y0228089D02*
X0335600Y0232026D01*
X0339537Y0232026D01*
X0335600Y0237175D02*
X0346230Y0237175D01*
X0335600Y0237175D02*
X0335600Y0239537D01*
X0376545Y0237175D02*
X0380482Y0237175D01*
X0380482Y0232026D02*
X0380482Y0228876D01*
X0380482Y0232026D02*
X0377726Y0232026D01*
X0376545Y0195805D02*
X0380482Y0195805D01*
X0380482Y0190655D02*
X0380482Y0187506D01*
X0380482Y0190655D02*
X0377726Y0190655D01*
X0346230Y0195805D02*
X0335600Y0195805D01*
X0335600Y0198167D01*
X0335600Y0190655D02*
X0339537Y0190655D01*
X0335600Y0190655D02*
X0335600Y0186718D01*
X0319427Y0187506D02*
X0319427Y0190655D01*
X0316671Y0190655D01*
X0315490Y0195805D02*
X0319427Y0195805D01*
X0285175Y0195805D02*
X0274545Y0195805D01*
X0274545Y0198167D01*
X0274545Y0190655D02*
X0278482Y0190655D01*
X0274545Y0190655D02*
X0274545Y0186718D01*
X0258372Y0187506D02*
X0258372Y0190655D01*
X0255616Y0190655D01*
X0254435Y0195805D02*
X0258372Y0195805D01*
X0224120Y0195805D02*
X0213490Y0195805D01*
X0213490Y0198167D01*
X0213490Y0190655D02*
X0217427Y0190655D01*
X0213490Y0190655D02*
X0213490Y0186718D01*
X0197317Y0187506D02*
X0197317Y0190655D01*
X0194561Y0190655D01*
X0193380Y0195805D02*
X0197317Y0195805D01*
X0197317Y0154435D02*
X0193380Y0154435D01*
X0194561Y0149285D02*
X0197317Y0149285D01*
X0197317Y0146136D01*
X0213490Y0145348D02*
X0213490Y0149285D01*
X0217427Y0149285D01*
X0213490Y0154435D02*
X0224120Y0154435D01*
X0213490Y0154435D02*
X0213490Y0156797D01*
X0254435Y0154435D02*
X0258372Y0154435D01*
X0258372Y0149285D02*
X0255616Y0149285D01*
X0258372Y0149285D02*
X0258372Y0146136D01*
X0274545Y0145348D02*
X0274545Y0149285D01*
X0278482Y0149285D01*
X0274545Y0154435D02*
X0285175Y0154435D01*
X0274545Y0154435D02*
X0274545Y0156797D01*
X0315490Y0154435D02*
X0319427Y0154435D01*
X0319427Y0149285D02*
X0316671Y0149285D01*
X0319427Y0149285D02*
X0319427Y0146136D01*
X0335600Y0145348D02*
X0335600Y0149285D01*
X0339537Y0149285D01*
X0335600Y0154435D02*
X0346230Y0154435D01*
X0335600Y0154435D02*
X0335600Y0156797D01*
X0376545Y0154435D02*
X0380482Y0154435D01*
X0380482Y0149285D02*
X0380482Y0146136D01*
X0380482Y0149285D02*
X0377726Y0149285D01*
X0376545Y0113065D02*
X0380482Y0113065D01*
X0380482Y0107915D02*
X0380482Y0104766D01*
X0380482Y0107915D02*
X0377726Y0107915D01*
X0346230Y0113065D02*
X0335600Y0113065D01*
X0335600Y0115427D01*
X0335600Y0107915D02*
X0339537Y0107915D01*
X0335600Y0107915D02*
X0335600Y0103978D01*
X0319427Y0104766D02*
X0319427Y0107915D01*
X0316671Y0107915D01*
X0315490Y0113065D02*
X0319427Y0113065D01*
X0285175Y0113065D02*
X0274545Y0113065D01*
X0274545Y0115427D01*
X0274545Y0107915D02*
X0278482Y0107915D01*
X0274545Y0107915D02*
X0274545Y0103978D01*
X0258372Y0104766D02*
X0258372Y0107915D01*
X0255616Y0107915D01*
X0254435Y0113065D02*
X0258372Y0113065D01*
X0224120Y0113065D02*
X0213490Y0113065D01*
X0213490Y0115427D01*
X0213490Y0107915D02*
X0217427Y0107915D01*
X0213490Y0107915D02*
X0213490Y0103978D01*
X0197317Y0104766D02*
X0197317Y0107915D01*
X0194561Y0107915D01*
X0193380Y0113065D02*
X0197317Y0113065D01*
X0163065Y0113065D02*
X0152435Y0113065D01*
X0152435Y0115427D01*
X0152435Y0107915D02*
X0156372Y0107915D01*
X0152435Y0107915D02*
X0152435Y0103978D01*
X0136262Y0104766D02*
X0136262Y0107915D01*
X0133506Y0107915D01*
X0132325Y0113065D02*
X0136262Y0113065D01*
X0102010Y0113065D02*
X0091380Y0113065D01*
X0091380Y0115427D01*
X0091380Y0107915D02*
X0095317Y0107915D01*
X0091380Y0107915D02*
X0091380Y0103978D01*
X0075207Y0104766D02*
X0075207Y0107915D01*
X0072451Y0107915D01*
X0071270Y0113065D02*
X0075207Y0113065D01*
X0075207Y0071695D02*
X0071270Y0071695D01*
X0072451Y0066545D02*
X0075207Y0066545D01*
X0075207Y0063396D01*
X0091380Y0062608D02*
X0091380Y0066545D01*
X0095317Y0066545D01*
X0091380Y0071695D02*
X0102010Y0071695D01*
X0091380Y0071695D02*
X0091380Y0074057D01*
X0132325Y0071695D02*
X0136262Y0071695D01*
X0136262Y0066545D02*
X0133506Y0066545D01*
X0136262Y0066545D02*
X0136262Y0063396D01*
X0152435Y0062608D02*
X0152435Y0066545D01*
X0156372Y0066545D01*
X0152435Y0071695D02*
X0163065Y0071695D01*
X0152435Y0071695D02*
X0152435Y0074057D01*
X0193380Y0071695D02*
X0197317Y0071695D01*
X0197317Y0066545D02*
X0197317Y0063396D01*
X0197317Y0066545D02*
X0194561Y0066545D01*
X0213490Y0066545D02*
X0213490Y0062608D01*
X0213490Y0066545D02*
X0217427Y0066545D01*
X0213490Y0071695D02*
X0224120Y0071695D01*
X0213490Y0071695D02*
X0213490Y0074057D01*
X0254435Y0071695D02*
X0258372Y0071695D01*
X0258372Y0066545D02*
X0255616Y0066545D01*
X0258372Y0066545D02*
X0258372Y0063396D01*
X0274545Y0062608D02*
X0274545Y0066545D01*
X0278482Y0066545D01*
X0274545Y0071695D02*
X0285175Y0071695D01*
X0274545Y0071695D02*
X0274545Y0074057D01*
X0315490Y0071695D02*
X0319427Y0071695D01*
X0319427Y0066545D02*
X0316671Y0066545D01*
X0319427Y0066545D02*
X0319427Y0063396D01*
X0335600Y0062608D02*
X0335600Y0066545D01*
X0339537Y0066545D01*
X0335600Y0071695D02*
X0346230Y0071695D01*
X0335600Y0071695D02*
X0335600Y0074057D01*
X0376545Y0071695D02*
X0380482Y0071695D01*
X0380482Y0066545D02*
X0380482Y0063396D01*
X0380482Y0066545D02*
X0377726Y0066545D01*
X0376545Y0030325D02*
X0380482Y0030325D01*
X0346230Y0030325D02*
X0335600Y0030325D01*
X0335600Y0032687D01*
X0319427Y0030325D02*
X0315490Y0030325D01*
X0285175Y0030325D02*
X0274545Y0030325D01*
X0274545Y0032687D01*
X0258372Y0030325D02*
X0254435Y0030325D01*
X0224120Y0030325D02*
X0213490Y0030325D01*
X0213490Y0032687D01*
X0197317Y0030325D02*
X0193380Y0030325D01*
X0163065Y0030325D02*
X0152435Y0030325D01*
X0152435Y0032687D01*
X0136262Y0030325D02*
X0132325Y0030325D01*
X0102010Y0030325D02*
X0091380Y0030325D01*
X0091380Y0032687D01*
X0075207Y0030325D02*
X0071270Y0030325D01*
X0380482Y0394356D02*
X0380482Y0397506D01*
X0377726Y0397506D01*
D11*
X0365081Y0393179D03*
X0365081Y0391211D03*
X0363112Y0391211D03*
X0363112Y0393179D03*
X0361144Y0393179D03*
X0361144Y0391211D03*
X0359175Y0391211D03*
X0359175Y0393179D03*
X0357207Y0393179D03*
X0357207Y0391211D03*
X0355238Y0391211D03*
X0355238Y0393179D03*
X0353270Y0393179D03*
X0353270Y0391211D03*
X0351301Y0391211D03*
X0351301Y0393179D03*
X0349333Y0393179D03*
X0349333Y0391211D03*
X0349333Y0389242D03*
X0351301Y0389242D03*
X0351301Y0387274D03*
X0349333Y0387274D03*
X0349333Y0385305D03*
X0351301Y0385305D03*
X0351301Y0383337D03*
X0349333Y0383337D03*
X0349333Y0381368D03*
X0351301Y0381368D03*
X0351301Y0379400D03*
X0349333Y0379400D03*
X0349333Y0377431D03*
X0351301Y0377431D03*
X0353270Y0377431D03*
X0355238Y0377431D03*
X0355238Y0379400D03*
X0355238Y0381368D03*
X0353270Y0381368D03*
X0353270Y0379400D03*
X0353270Y0383337D03*
X0353270Y0385305D03*
X0355238Y0385305D03*
X0355238Y0383337D03*
X0357207Y0383337D03*
X0357207Y0385305D03*
X0359175Y0385305D03*
X0359175Y0383337D03*
X0361144Y0383337D03*
X0361144Y0385305D03*
X0363112Y0385305D03*
X0363112Y0383337D03*
X0365081Y0383337D03*
X0365081Y0385305D03*
X0365081Y0387274D03*
X0365081Y0389242D03*
X0363112Y0389242D03*
X0361144Y0389242D03*
X0361144Y0387274D03*
X0363112Y0387274D03*
X0359175Y0387274D03*
X0359175Y0389242D03*
X0357207Y0389242D03*
X0357207Y0387274D03*
X0355238Y0387274D03*
X0355238Y0389242D03*
X0353270Y0389242D03*
X0353270Y0387274D03*
X0357207Y0381368D03*
X0359175Y0381368D03*
X0359175Y0379400D03*
X0357207Y0379400D03*
X0357207Y0377431D03*
X0359175Y0377431D03*
X0361144Y0377431D03*
X0363112Y0377431D03*
X0363112Y0379400D03*
X0363112Y0381368D03*
X0361144Y0381368D03*
X0361144Y0379400D03*
X0365081Y0379400D03*
X0365081Y0381368D03*
X0365081Y0377431D03*
X0365081Y0351809D03*
X0365081Y0349841D03*
X0363112Y0349841D03*
X0363112Y0351809D03*
X0361144Y0351809D03*
X0361144Y0349841D03*
X0359175Y0349841D03*
X0359175Y0351809D03*
X0357207Y0351809D03*
X0357207Y0349841D03*
X0355238Y0349841D03*
X0355238Y0351809D03*
X0353270Y0351809D03*
X0353270Y0349841D03*
X0351301Y0349841D03*
X0351301Y0351809D03*
X0349333Y0351809D03*
X0349333Y0349841D03*
X0349333Y0347872D03*
X0351301Y0347872D03*
X0351301Y0345904D03*
X0349333Y0345904D03*
X0349333Y0343935D03*
X0351301Y0343935D03*
X0351301Y0341967D03*
X0349333Y0341967D03*
X0349333Y0339998D03*
X0351301Y0339998D03*
X0351301Y0338030D03*
X0349333Y0338030D03*
X0349333Y0336061D03*
X0351301Y0336061D03*
X0353270Y0336061D03*
X0355238Y0336061D03*
X0355238Y0338030D03*
X0355238Y0339998D03*
X0353270Y0339998D03*
X0353270Y0338030D03*
X0353270Y0341967D03*
X0353270Y0343935D03*
X0355238Y0343935D03*
X0355238Y0341967D03*
X0357207Y0341967D03*
X0357207Y0343935D03*
X0359175Y0343935D03*
X0359175Y0341967D03*
X0361144Y0341967D03*
X0361144Y0343935D03*
X0363112Y0343935D03*
X0363112Y0341967D03*
X0365081Y0341967D03*
X0365081Y0343935D03*
X0365081Y0345904D03*
X0365081Y0347872D03*
X0363112Y0347872D03*
X0361144Y0347872D03*
X0361144Y0345904D03*
X0363112Y0345904D03*
X0359175Y0345904D03*
X0359175Y0347872D03*
X0357207Y0347872D03*
X0357207Y0345904D03*
X0355238Y0345904D03*
X0355238Y0347872D03*
X0353270Y0347872D03*
X0353270Y0345904D03*
X0357207Y0339998D03*
X0359175Y0339998D03*
X0359175Y0338030D03*
X0357207Y0338030D03*
X0357207Y0336061D03*
X0359175Y0336061D03*
X0361144Y0336061D03*
X0363112Y0336061D03*
X0363112Y0338030D03*
X0363112Y0339998D03*
X0361144Y0339998D03*
X0361144Y0338030D03*
X0365081Y0338030D03*
X0365081Y0339998D03*
X0365081Y0336061D03*
X0365081Y0310439D03*
X0365081Y0308470D03*
X0365081Y0306502D03*
X0365081Y0304533D03*
X0365081Y0302565D03*
X0365081Y0300596D03*
X0365081Y0298628D03*
X0365081Y0296659D03*
X0365081Y0294691D03*
X0363112Y0294691D03*
X0361144Y0294691D03*
X0361144Y0296659D03*
X0363112Y0296659D03*
X0363112Y0298628D03*
X0361144Y0298628D03*
X0361144Y0300596D03*
X0363112Y0300596D03*
X0363112Y0302565D03*
X0361144Y0302565D03*
X0361144Y0304533D03*
X0363112Y0304533D03*
X0363112Y0306502D03*
X0361144Y0306502D03*
X0361144Y0308470D03*
X0363112Y0308470D03*
X0363112Y0310439D03*
X0361144Y0310439D03*
X0359175Y0310439D03*
X0357207Y0310439D03*
X0357207Y0308470D03*
X0357207Y0306502D03*
X0359175Y0306502D03*
X0359175Y0308470D03*
X0359175Y0304533D03*
X0359175Y0302565D03*
X0357207Y0302565D03*
X0357207Y0304533D03*
X0355238Y0304533D03*
X0355238Y0302565D03*
X0353270Y0302565D03*
X0353270Y0304533D03*
X0351301Y0304533D03*
X0351301Y0302565D03*
X0349333Y0302565D03*
X0349333Y0304533D03*
X0349333Y0306502D03*
X0351301Y0306502D03*
X0351301Y0308470D03*
X0349333Y0308470D03*
X0349333Y0310439D03*
X0351301Y0310439D03*
X0353270Y0310439D03*
X0355238Y0310439D03*
X0355238Y0308470D03*
X0355238Y0306502D03*
X0353270Y0306502D03*
X0353270Y0308470D03*
X0353270Y0300596D03*
X0353270Y0298628D03*
X0355238Y0298628D03*
X0355238Y0300596D03*
X0357207Y0300596D03*
X0357207Y0298628D03*
X0359175Y0298628D03*
X0359175Y0300596D03*
X0359175Y0296659D03*
X0359175Y0294691D03*
X0357207Y0294691D03*
X0357207Y0296659D03*
X0355238Y0296659D03*
X0355238Y0294691D03*
X0353270Y0294691D03*
X0353270Y0296659D03*
X0351301Y0296659D03*
X0351301Y0294691D03*
X0349333Y0294691D03*
X0349333Y0296659D03*
X0349333Y0298628D03*
X0351301Y0298628D03*
X0351301Y0300596D03*
X0349333Y0300596D03*
X0349333Y0269069D03*
X0351301Y0269069D03*
X0351301Y0267100D03*
X0351301Y0265132D03*
X0349333Y0265132D03*
X0349333Y0267100D03*
X0349333Y0263163D03*
X0349333Y0261195D03*
X0351301Y0261195D03*
X0351301Y0263163D03*
X0353270Y0263163D03*
X0353270Y0261195D03*
X0355238Y0261195D03*
X0355238Y0263163D03*
X0357207Y0263163D03*
X0357207Y0261195D03*
X0359175Y0261195D03*
X0359175Y0263163D03*
X0361144Y0263163D03*
X0361144Y0261195D03*
X0363112Y0261195D03*
X0363112Y0263163D03*
X0365081Y0263163D03*
X0365081Y0261195D03*
X0365081Y0259226D03*
X0365081Y0257258D03*
X0365081Y0255289D03*
X0365081Y0253321D03*
X0363112Y0253321D03*
X0361144Y0253321D03*
X0361144Y0255289D03*
X0363112Y0255289D03*
X0363112Y0257258D03*
X0361144Y0257258D03*
X0361144Y0259226D03*
X0363112Y0259226D03*
X0359175Y0259226D03*
X0359175Y0257258D03*
X0357207Y0257258D03*
X0357207Y0259226D03*
X0355238Y0259226D03*
X0355238Y0257258D03*
X0353270Y0257258D03*
X0353270Y0259226D03*
X0351301Y0259226D03*
X0351301Y0257258D03*
X0349333Y0257258D03*
X0349333Y0259226D03*
X0349333Y0255289D03*
X0349333Y0253321D03*
X0351301Y0253321D03*
X0351301Y0255289D03*
X0353270Y0255289D03*
X0353270Y0253321D03*
X0355238Y0253321D03*
X0355238Y0255289D03*
X0357207Y0255289D03*
X0357207Y0253321D03*
X0359175Y0253321D03*
X0359175Y0255289D03*
X0359175Y0265132D03*
X0357207Y0265132D03*
X0357207Y0267100D03*
X0359175Y0267100D03*
X0361144Y0267100D03*
X0361144Y0265132D03*
X0363112Y0265132D03*
X0363112Y0267100D03*
X0365081Y0267100D03*
X0365081Y0265132D03*
X0365081Y0269069D03*
X0363112Y0269069D03*
X0361144Y0269069D03*
X0359175Y0269069D03*
X0357207Y0269069D03*
X0355238Y0269069D03*
X0353270Y0269069D03*
X0353270Y0267100D03*
X0353270Y0265132D03*
X0355238Y0265132D03*
X0355238Y0267100D03*
X0355238Y0227699D03*
X0353270Y0227699D03*
X0353270Y0225730D03*
X0355238Y0225730D03*
X0355238Y0223762D03*
X0353270Y0223762D03*
X0353270Y0221793D03*
X0355238Y0221793D03*
X0355238Y0219825D03*
X0353270Y0219825D03*
X0353270Y0217856D03*
X0355238Y0217856D03*
X0355238Y0215888D03*
X0353270Y0215888D03*
X0353270Y0213919D03*
X0355238Y0213919D03*
X0355238Y0211951D03*
X0353270Y0211951D03*
X0351301Y0211951D03*
X0351301Y0213919D03*
X0349333Y0213919D03*
X0349333Y0211951D03*
X0349333Y0215888D03*
X0351301Y0215888D03*
X0351301Y0217856D03*
X0349333Y0217856D03*
X0349333Y0219825D03*
X0351301Y0219825D03*
X0351301Y0221793D03*
X0349333Y0221793D03*
X0349333Y0223762D03*
X0351301Y0223762D03*
X0351301Y0225730D03*
X0349333Y0225730D03*
X0349333Y0227699D03*
X0351301Y0227699D03*
X0357207Y0227699D03*
X0359175Y0227699D03*
X0359175Y0225730D03*
X0359175Y0223762D03*
X0357207Y0223762D03*
X0357207Y0225730D03*
X0357207Y0221793D03*
X0357207Y0219825D03*
X0359175Y0219825D03*
X0359175Y0221793D03*
X0361144Y0221793D03*
X0361144Y0219825D03*
X0363112Y0219825D03*
X0363112Y0221793D03*
X0365081Y0221793D03*
X0365081Y0219825D03*
X0365081Y0217856D03*
X0365081Y0215888D03*
X0365081Y0213919D03*
X0365081Y0211951D03*
X0363112Y0211951D03*
X0363112Y0213919D03*
X0361144Y0213919D03*
X0361144Y0211951D03*
X0359175Y0211951D03*
X0359175Y0213919D03*
X0357207Y0213919D03*
X0357207Y0211951D03*
X0357207Y0215888D03*
X0359175Y0215888D03*
X0359175Y0217856D03*
X0357207Y0217856D03*
X0361144Y0217856D03*
X0361144Y0215888D03*
X0363112Y0215888D03*
X0363112Y0217856D03*
X0363112Y0223762D03*
X0361144Y0223762D03*
X0361144Y0225730D03*
X0363112Y0225730D03*
X0365081Y0225730D03*
X0365081Y0223762D03*
X0365081Y0227699D03*
X0363112Y0227699D03*
X0361144Y0227699D03*
X0361144Y0186329D03*
X0363112Y0186329D03*
X0365081Y0186329D03*
X0365081Y0184360D03*
X0365081Y0182392D03*
X0363112Y0182392D03*
X0363112Y0184360D03*
X0361144Y0184360D03*
X0361144Y0182392D03*
X0359175Y0182392D03*
X0359175Y0184360D03*
X0357207Y0184360D03*
X0357207Y0182392D03*
X0355238Y0182392D03*
X0355238Y0184360D03*
X0353270Y0184360D03*
X0353270Y0182392D03*
X0353270Y0180423D03*
X0355238Y0180423D03*
X0355238Y0178455D03*
X0353270Y0178455D03*
X0353270Y0176486D03*
X0355238Y0176486D03*
X0355238Y0174518D03*
X0353270Y0174518D03*
X0351301Y0174518D03*
X0351301Y0176486D03*
X0349333Y0176486D03*
X0349333Y0174518D03*
X0349333Y0172549D03*
X0351301Y0172549D03*
X0351301Y0170581D03*
X0349333Y0170581D03*
X0353270Y0170581D03*
X0353270Y0172549D03*
X0355238Y0172549D03*
X0355238Y0170581D03*
X0357207Y0170581D03*
X0357207Y0172549D03*
X0359175Y0172549D03*
X0359175Y0170581D03*
X0361144Y0170581D03*
X0361144Y0172549D03*
X0363112Y0172549D03*
X0363112Y0170581D03*
X0365081Y0170581D03*
X0365081Y0172549D03*
X0365081Y0174518D03*
X0365081Y0176486D03*
X0365081Y0178455D03*
X0365081Y0180423D03*
X0363112Y0180423D03*
X0361144Y0180423D03*
X0361144Y0178455D03*
X0363112Y0178455D03*
X0363112Y0176486D03*
X0361144Y0176486D03*
X0361144Y0174518D03*
X0363112Y0174518D03*
X0359175Y0174518D03*
X0359175Y0176486D03*
X0357207Y0176486D03*
X0357207Y0174518D03*
X0357207Y0178455D03*
X0357207Y0180423D03*
X0359175Y0180423D03*
X0359175Y0178455D03*
X0359175Y0186329D03*
X0357207Y0186329D03*
X0355238Y0186329D03*
X0353270Y0186329D03*
X0351301Y0186329D03*
X0349333Y0186329D03*
X0349333Y0184360D03*
X0351301Y0184360D03*
X0351301Y0182392D03*
X0349333Y0182392D03*
X0349333Y0180423D03*
X0351301Y0180423D03*
X0351301Y0178455D03*
X0349333Y0178455D03*
X0349333Y0144959D03*
X0351301Y0144959D03*
X0353270Y0144959D03*
X0355238Y0144959D03*
X0357207Y0144959D03*
X0359175Y0144959D03*
X0361144Y0144959D03*
X0363112Y0144959D03*
X0365081Y0144959D03*
X0365081Y0142990D03*
X0365081Y0141022D03*
X0363112Y0141022D03*
X0363112Y0142990D03*
X0361144Y0142990D03*
X0361144Y0141022D03*
X0359175Y0141022D03*
X0359175Y0142990D03*
X0357207Y0142990D03*
X0357207Y0141022D03*
X0355238Y0141022D03*
X0355238Y0142990D03*
X0353270Y0142990D03*
X0353270Y0141022D03*
X0353270Y0139053D03*
X0355238Y0139053D03*
X0355238Y0137085D03*
X0353270Y0137085D03*
X0351301Y0137085D03*
X0351301Y0139053D03*
X0349333Y0139053D03*
X0349333Y0137085D03*
X0349333Y0135116D03*
X0351301Y0135116D03*
X0351301Y0133148D03*
X0349333Y0133148D03*
X0349333Y0131179D03*
X0351301Y0131179D03*
X0351301Y0129211D03*
X0349333Y0129211D03*
X0353270Y0129211D03*
X0353270Y0131179D03*
X0355238Y0131179D03*
X0355238Y0129211D03*
X0357207Y0129211D03*
X0357207Y0131179D03*
X0359175Y0131179D03*
X0359175Y0129211D03*
X0361144Y0129211D03*
X0361144Y0131179D03*
X0363112Y0131179D03*
X0363112Y0129211D03*
X0365081Y0129211D03*
X0365081Y0131179D03*
X0365081Y0133148D03*
X0365081Y0135116D03*
X0365081Y0137085D03*
X0365081Y0139053D03*
X0363112Y0139053D03*
X0361144Y0139053D03*
X0361144Y0137085D03*
X0363112Y0137085D03*
X0363112Y0135116D03*
X0361144Y0135116D03*
X0361144Y0133148D03*
X0363112Y0133148D03*
X0359175Y0133148D03*
X0359175Y0135116D03*
X0357207Y0135116D03*
X0357207Y0133148D03*
X0355238Y0133148D03*
X0355238Y0135116D03*
X0353270Y0135116D03*
X0353270Y0133148D03*
X0357207Y0137085D03*
X0357207Y0139053D03*
X0359175Y0139053D03*
X0359175Y0137085D03*
X0351301Y0141022D03*
X0351301Y0142990D03*
X0349333Y0142990D03*
X0349333Y0141022D03*
X0349333Y0103589D03*
X0351301Y0103589D03*
X0353270Y0103589D03*
X0355238Y0103589D03*
X0357207Y0103589D03*
X0359175Y0103589D03*
X0361144Y0103589D03*
X0363112Y0103589D03*
X0365081Y0103589D03*
X0365081Y0101620D03*
X0365081Y0099652D03*
X0363112Y0099652D03*
X0363112Y0101620D03*
X0361144Y0101620D03*
X0361144Y0099652D03*
X0359175Y0099652D03*
X0359175Y0101620D03*
X0357207Y0101620D03*
X0357207Y0099652D03*
X0355238Y0099652D03*
X0355238Y0101620D03*
X0353270Y0101620D03*
X0353270Y0099652D03*
X0351301Y0099652D03*
X0351301Y0101620D03*
X0349333Y0101620D03*
X0349333Y0099652D03*
X0349333Y0097683D03*
X0351301Y0097683D03*
X0351301Y0095715D03*
X0349333Y0095715D03*
X0349333Y0093746D03*
X0351301Y0093746D03*
X0351301Y0091778D03*
X0349333Y0091778D03*
X0349333Y0089809D03*
X0351301Y0089809D03*
X0351301Y0087841D03*
X0349333Y0087841D03*
X0353270Y0087841D03*
X0353270Y0089809D03*
X0355238Y0089809D03*
X0355238Y0087841D03*
X0357207Y0087841D03*
X0357207Y0089809D03*
X0359175Y0089809D03*
X0359175Y0087841D03*
X0361144Y0087841D03*
X0361144Y0089809D03*
X0363112Y0089809D03*
X0363112Y0087841D03*
X0365081Y0087841D03*
X0365081Y0089809D03*
X0365081Y0091778D03*
X0365081Y0093746D03*
X0365081Y0095715D03*
X0365081Y0097683D03*
X0363112Y0097683D03*
X0361144Y0097683D03*
X0361144Y0095715D03*
X0363112Y0095715D03*
X0363112Y0093746D03*
X0361144Y0093746D03*
X0361144Y0091778D03*
X0363112Y0091778D03*
X0359175Y0091778D03*
X0359175Y0093746D03*
X0357207Y0093746D03*
X0357207Y0091778D03*
X0355238Y0091778D03*
X0355238Y0093746D03*
X0353270Y0093746D03*
X0353270Y0091778D03*
X0353270Y0095715D03*
X0353270Y0097683D03*
X0355238Y0097683D03*
X0355238Y0095715D03*
X0357207Y0095715D03*
X0357207Y0097683D03*
X0359175Y0097683D03*
X0359175Y0095715D03*
X0359175Y0062219D03*
X0357207Y0062219D03*
X0355238Y0062219D03*
X0353270Y0062219D03*
X0351301Y0062219D03*
X0349333Y0062219D03*
X0349333Y0060250D03*
X0351301Y0060250D03*
X0351301Y0058281D03*
X0351301Y0056313D03*
X0349333Y0056313D03*
X0349333Y0058281D03*
X0349333Y0054344D03*
X0349333Y0052376D03*
X0351301Y0052376D03*
X0351301Y0054344D03*
X0353270Y0054344D03*
X0353270Y0052376D03*
X0355238Y0052376D03*
X0355238Y0054344D03*
X0357207Y0054344D03*
X0357207Y0052376D03*
X0359175Y0052376D03*
X0359175Y0054344D03*
X0361144Y0054344D03*
X0361144Y0052376D03*
X0363112Y0052376D03*
X0363112Y0054344D03*
X0365081Y0054344D03*
X0365081Y0052376D03*
X0365081Y0050407D03*
X0365081Y0048439D03*
X0365081Y0046470D03*
X0363112Y0046470D03*
X0361144Y0046470D03*
X0359175Y0046470D03*
X0357207Y0046470D03*
X0355238Y0046470D03*
X0353270Y0046470D03*
X0351301Y0046470D03*
X0349333Y0046470D03*
X0349333Y0048439D03*
X0351301Y0048439D03*
X0351301Y0050407D03*
X0349333Y0050407D03*
X0353270Y0050407D03*
X0353270Y0048439D03*
X0355238Y0048439D03*
X0355238Y0050407D03*
X0357207Y0050407D03*
X0357207Y0048439D03*
X0359175Y0048439D03*
X0359175Y0050407D03*
X0361144Y0050407D03*
X0361144Y0048439D03*
X0363112Y0048439D03*
X0363112Y0050407D03*
X0363112Y0056313D03*
X0361144Y0056313D03*
X0361144Y0058281D03*
X0363112Y0058281D03*
X0365081Y0058281D03*
X0365081Y0056313D03*
X0365081Y0060250D03*
X0365081Y0062219D03*
X0363112Y0062219D03*
X0361144Y0062219D03*
X0361144Y0060250D03*
X0363112Y0060250D03*
X0359175Y0060250D03*
X0357207Y0060250D03*
X0357207Y0058281D03*
X0357207Y0056313D03*
X0359175Y0056313D03*
X0359175Y0058281D03*
X0355238Y0058281D03*
X0355238Y0056313D03*
X0353270Y0056313D03*
X0353270Y0058281D03*
X0353270Y0060250D03*
X0355238Y0060250D03*
X0304026Y0060250D03*
X0304026Y0058281D03*
X0304026Y0056313D03*
X0304026Y0054344D03*
X0304026Y0052376D03*
X0304026Y0050407D03*
X0304026Y0048439D03*
X0304026Y0046470D03*
X0302057Y0046470D03*
X0300089Y0046470D03*
X0298120Y0046470D03*
X0296152Y0046470D03*
X0294183Y0046470D03*
X0292215Y0046470D03*
X0290246Y0046470D03*
X0288278Y0046470D03*
X0288278Y0048439D03*
X0290246Y0048439D03*
X0290246Y0050407D03*
X0288278Y0050407D03*
X0288278Y0052376D03*
X0290246Y0052376D03*
X0290246Y0054344D03*
X0288278Y0054344D03*
X0288278Y0056313D03*
X0290246Y0056313D03*
X0290246Y0058281D03*
X0288278Y0058281D03*
X0288278Y0060250D03*
X0290246Y0060250D03*
X0290246Y0062219D03*
X0288278Y0062219D03*
X0292215Y0062219D03*
X0294183Y0062219D03*
X0296152Y0062219D03*
X0298120Y0062219D03*
X0300089Y0062219D03*
X0302057Y0062219D03*
X0304026Y0062219D03*
X0302057Y0060250D03*
X0300089Y0060250D03*
X0300089Y0058281D03*
X0300089Y0056313D03*
X0302057Y0056313D03*
X0302057Y0058281D03*
X0302057Y0054344D03*
X0302057Y0052376D03*
X0300089Y0052376D03*
X0300089Y0054344D03*
X0298120Y0054344D03*
X0298120Y0052376D03*
X0296152Y0052376D03*
X0296152Y0054344D03*
X0294183Y0054344D03*
X0294183Y0052376D03*
X0292215Y0052376D03*
X0292215Y0054344D03*
X0292215Y0056313D03*
X0294183Y0056313D03*
X0294183Y0058281D03*
X0292215Y0058281D03*
X0292215Y0060250D03*
X0294183Y0060250D03*
X0296152Y0060250D03*
X0298120Y0060250D03*
X0298120Y0058281D03*
X0298120Y0056313D03*
X0296152Y0056313D03*
X0296152Y0058281D03*
X0296152Y0050407D03*
X0296152Y0048439D03*
X0298120Y0048439D03*
X0298120Y0050407D03*
X0300089Y0050407D03*
X0300089Y0048439D03*
X0302057Y0048439D03*
X0302057Y0050407D03*
X0294183Y0050407D03*
X0294183Y0048439D03*
X0292215Y0048439D03*
X0292215Y0050407D03*
X0292215Y0087841D03*
X0292215Y0089809D03*
X0294183Y0089809D03*
X0294183Y0087841D03*
X0296152Y0087841D03*
X0296152Y0089809D03*
X0298120Y0089809D03*
X0298120Y0087841D03*
X0300089Y0087841D03*
X0300089Y0089809D03*
X0302057Y0089809D03*
X0302057Y0087841D03*
X0304026Y0087841D03*
X0304026Y0089809D03*
X0304026Y0091778D03*
X0304026Y0093746D03*
X0304026Y0095715D03*
X0304026Y0097683D03*
X0304026Y0099652D03*
X0304026Y0101620D03*
X0304026Y0103589D03*
X0302057Y0103589D03*
X0300089Y0103589D03*
X0298120Y0103589D03*
X0296152Y0103589D03*
X0296152Y0101620D03*
X0298120Y0101620D03*
X0298120Y0099652D03*
X0296152Y0099652D03*
X0294183Y0099652D03*
X0294183Y0101620D03*
X0292215Y0101620D03*
X0292215Y0099652D03*
X0290246Y0099652D03*
X0290246Y0101620D03*
X0288278Y0101620D03*
X0288278Y0099652D03*
X0288278Y0097683D03*
X0290246Y0097683D03*
X0290246Y0095715D03*
X0288278Y0095715D03*
X0288278Y0093746D03*
X0290246Y0093746D03*
X0290246Y0091778D03*
X0288278Y0091778D03*
X0288278Y0089809D03*
X0290246Y0089809D03*
X0290246Y0087841D03*
X0288278Y0087841D03*
X0292215Y0091778D03*
X0292215Y0093746D03*
X0294183Y0093746D03*
X0294183Y0091778D03*
X0296152Y0091778D03*
X0296152Y0093746D03*
X0298120Y0093746D03*
X0298120Y0091778D03*
X0300089Y0091778D03*
X0300089Y0093746D03*
X0302057Y0093746D03*
X0302057Y0091778D03*
X0302057Y0095715D03*
X0302057Y0097683D03*
X0300089Y0097683D03*
X0300089Y0095715D03*
X0298120Y0095715D03*
X0298120Y0097683D03*
X0296152Y0097683D03*
X0296152Y0095715D03*
X0294183Y0095715D03*
X0294183Y0097683D03*
X0292215Y0097683D03*
X0292215Y0095715D03*
X0292215Y0103589D03*
X0294183Y0103589D03*
X0290246Y0103589D03*
X0288278Y0103589D03*
X0300089Y0101620D03*
X0302057Y0101620D03*
X0302057Y0099652D03*
X0300089Y0099652D03*
X0300089Y0129211D03*
X0302057Y0129211D03*
X0302057Y0131179D03*
X0300089Y0131179D03*
X0300089Y0133148D03*
X0302057Y0133148D03*
X0302057Y0135116D03*
X0300089Y0135116D03*
X0300089Y0137085D03*
X0302057Y0137085D03*
X0302057Y0139053D03*
X0300089Y0139053D03*
X0300089Y0141022D03*
X0302057Y0141022D03*
X0302057Y0142990D03*
X0300089Y0142990D03*
X0300089Y0144959D03*
X0302057Y0144959D03*
X0304026Y0144959D03*
X0304026Y0142990D03*
X0304026Y0141022D03*
X0304026Y0139053D03*
X0304026Y0137085D03*
X0304026Y0135116D03*
X0304026Y0133148D03*
X0304026Y0131179D03*
X0304026Y0129211D03*
X0298120Y0129211D03*
X0298120Y0131179D03*
X0296152Y0131179D03*
X0296152Y0129211D03*
X0294183Y0129211D03*
X0294183Y0131179D03*
X0292215Y0131179D03*
X0292215Y0129211D03*
X0290246Y0129211D03*
X0290246Y0131179D03*
X0288278Y0131179D03*
X0288278Y0129211D03*
X0288278Y0133148D03*
X0290246Y0133148D03*
X0290246Y0135116D03*
X0288278Y0135116D03*
X0288278Y0137085D03*
X0290246Y0137085D03*
X0290246Y0139053D03*
X0288278Y0139053D03*
X0288278Y0141022D03*
X0290246Y0141022D03*
X0290246Y0142990D03*
X0288278Y0142990D03*
X0288278Y0144959D03*
X0290246Y0144959D03*
X0292215Y0144959D03*
X0294183Y0144959D03*
X0296152Y0144959D03*
X0298120Y0144959D03*
X0298120Y0142990D03*
X0298120Y0141022D03*
X0296152Y0141022D03*
X0296152Y0142990D03*
X0294183Y0142990D03*
X0294183Y0141022D03*
X0292215Y0141022D03*
X0292215Y0142990D03*
X0292215Y0139053D03*
X0294183Y0139053D03*
X0294183Y0137085D03*
X0292215Y0137085D03*
X0292215Y0135116D03*
X0294183Y0135116D03*
X0294183Y0133148D03*
X0292215Y0133148D03*
X0296152Y0133148D03*
X0298120Y0133148D03*
X0298120Y0135116D03*
X0296152Y0135116D03*
X0296152Y0137085D03*
X0298120Y0137085D03*
X0298120Y0139053D03*
X0296152Y0139053D03*
X0296152Y0170581D03*
X0298120Y0170581D03*
X0298120Y0172549D03*
X0296152Y0172549D03*
X0296152Y0174518D03*
X0298120Y0174518D03*
X0298120Y0176486D03*
X0296152Y0176486D03*
X0296152Y0178455D03*
X0298120Y0178455D03*
X0298120Y0180423D03*
X0296152Y0180423D03*
X0296152Y0182392D03*
X0298120Y0182392D03*
X0298120Y0184360D03*
X0296152Y0184360D03*
X0296152Y0186329D03*
X0298120Y0186329D03*
X0300089Y0186329D03*
X0302057Y0186329D03*
X0304026Y0186329D03*
X0304026Y0184360D03*
X0304026Y0182392D03*
X0304026Y0180423D03*
X0304026Y0178455D03*
X0304026Y0176486D03*
X0304026Y0174518D03*
X0304026Y0172549D03*
X0304026Y0170581D03*
X0302057Y0170581D03*
X0302057Y0172549D03*
X0300089Y0172549D03*
X0300089Y0170581D03*
X0300089Y0174518D03*
X0302057Y0174518D03*
X0302057Y0176486D03*
X0300089Y0176486D03*
X0300089Y0178455D03*
X0302057Y0178455D03*
X0302057Y0180423D03*
X0300089Y0180423D03*
X0300089Y0182392D03*
X0302057Y0182392D03*
X0302057Y0184360D03*
X0300089Y0184360D03*
X0294183Y0184360D03*
X0294183Y0182392D03*
X0292215Y0182392D03*
X0292215Y0184360D03*
X0292215Y0186329D03*
X0294183Y0186329D03*
X0290246Y0186329D03*
X0288278Y0186329D03*
X0288278Y0184360D03*
X0290246Y0184360D03*
X0290246Y0182392D03*
X0288278Y0182392D03*
X0288278Y0180423D03*
X0290246Y0180423D03*
X0290246Y0178455D03*
X0288278Y0178455D03*
X0288278Y0176486D03*
X0290246Y0176486D03*
X0290246Y0174518D03*
X0288278Y0174518D03*
X0288278Y0172549D03*
X0290246Y0172549D03*
X0290246Y0170581D03*
X0288278Y0170581D03*
X0292215Y0170581D03*
X0294183Y0170581D03*
X0294183Y0172549D03*
X0292215Y0172549D03*
X0292215Y0174518D03*
X0294183Y0174518D03*
X0294183Y0176486D03*
X0292215Y0176486D03*
X0292215Y0178455D03*
X0294183Y0178455D03*
X0294183Y0180423D03*
X0292215Y0180423D03*
X0292215Y0211951D03*
X0294183Y0211951D03*
X0294183Y0213919D03*
X0292215Y0213919D03*
X0292215Y0215888D03*
X0294183Y0215888D03*
X0294183Y0217856D03*
X0292215Y0217856D03*
X0292215Y0219825D03*
X0294183Y0219825D03*
X0294183Y0221793D03*
X0292215Y0221793D03*
X0292215Y0223762D03*
X0294183Y0223762D03*
X0294183Y0225730D03*
X0292215Y0225730D03*
X0292215Y0227699D03*
X0294183Y0227699D03*
X0296152Y0227699D03*
X0298120Y0227699D03*
X0300089Y0227699D03*
X0302057Y0227699D03*
X0304026Y0227699D03*
X0304026Y0225730D03*
X0304026Y0223762D03*
X0304026Y0221793D03*
X0304026Y0219825D03*
X0304026Y0217856D03*
X0304026Y0215888D03*
X0304026Y0213919D03*
X0304026Y0211951D03*
X0302057Y0211951D03*
X0302057Y0213919D03*
X0300089Y0213919D03*
X0300089Y0211951D03*
X0298120Y0211951D03*
X0298120Y0213919D03*
X0296152Y0213919D03*
X0296152Y0211951D03*
X0296152Y0215888D03*
X0298120Y0215888D03*
X0298120Y0217856D03*
X0296152Y0217856D03*
X0296152Y0219825D03*
X0298120Y0219825D03*
X0298120Y0221793D03*
X0296152Y0221793D03*
X0296152Y0223762D03*
X0298120Y0223762D03*
X0298120Y0225730D03*
X0296152Y0225730D03*
X0300089Y0225730D03*
X0302057Y0225730D03*
X0302057Y0223762D03*
X0300089Y0223762D03*
X0300089Y0221793D03*
X0302057Y0221793D03*
X0302057Y0219825D03*
X0300089Y0219825D03*
X0300089Y0217856D03*
X0302057Y0217856D03*
X0302057Y0215888D03*
X0300089Y0215888D03*
X0290246Y0215888D03*
X0290246Y0217856D03*
X0288278Y0217856D03*
X0288278Y0215888D03*
X0288278Y0213919D03*
X0290246Y0213919D03*
X0290246Y0211951D03*
X0288278Y0211951D03*
X0288278Y0219825D03*
X0290246Y0219825D03*
X0290246Y0221793D03*
X0288278Y0221793D03*
X0288278Y0223762D03*
X0290246Y0223762D03*
X0290246Y0225730D03*
X0288278Y0225730D03*
X0288278Y0227699D03*
X0290246Y0227699D03*
X0290246Y0253321D03*
X0290246Y0255289D03*
X0288278Y0255289D03*
X0288278Y0253321D03*
X0292215Y0253321D03*
X0294183Y0253321D03*
X0294183Y0255289D03*
X0292215Y0255289D03*
X0292215Y0257258D03*
X0294183Y0257258D03*
X0294183Y0259226D03*
X0292215Y0259226D03*
X0292215Y0261195D03*
X0294183Y0261195D03*
X0294183Y0263163D03*
X0292215Y0263163D03*
X0292215Y0265132D03*
X0294183Y0265132D03*
X0294183Y0267100D03*
X0292215Y0267100D03*
X0292215Y0269069D03*
X0294183Y0269069D03*
X0296152Y0269069D03*
X0298120Y0269069D03*
X0298120Y0267100D03*
X0298120Y0265132D03*
X0296152Y0265132D03*
X0296152Y0267100D03*
X0296152Y0263163D03*
X0298120Y0263163D03*
X0298120Y0261195D03*
X0296152Y0261195D03*
X0296152Y0259226D03*
X0298120Y0259226D03*
X0298120Y0257258D03*
X0296152Y0257258D03*
X0296152Y0255289D03*
X0298120Y0255289D03*
X0298120Y0253321D03*
X0296152Y0253321D03*
X0300089Y0253321D03*
X0302057Y0253321D03*
X0302057Y0255289D03*
X0300089Y0255289D03*
X0300089Y0257258D03*
X0302057Y0257258D03*
X0302057Y0259226D03*
X0300089Y0259226D03*
X0300089Y0261195D03*
X0302057Y0261195D03*
X0302057Y0263163D03*
X0300089Y0263163D03*
X0300089Y0265132D03*
X0302057Y0265132D03*
X0302057Y0267100D03*
X0300089Y0267100D03*
X0300089Y0269069D03*
X0302057Y0269069D03*
X0304026Y0269069D03*
X0304026Y0267100D03*
X0304026Y0265132D03*
X0304026Y0263163D03*
X0304026Y0261195D03*
X0304026Y0259226D03*
X0304026Y0257258D03*
X0304026Y0255289D03*
X0304026Y0253321D03*
X0290246Y0257258D03*
X0290246Y0259226D03*
X0288278Y0259226D03*
X0288278Y0257258D03*
X0288278Y0261195D03*
X0290246Y0261195D03*
X0290246Y0263163D03*
X0288278Y0263163D03*
X0288278Y0265132D03*
X0290246Y0265132D03*
X0290246Y0267100D03*
X0288278Y0267100D03*
X0288278Y0269069D03*
X0290246Y0269069D03*
X0290246Y0294691D03*
X0288278Y0294691D03*
X0288278Y0296659D03*
X0290246Y0296659D03*
X0292215Y0296659D03*
X0292215Y0294691D03*
X0294183Y0294691D03*
X0294183Y0296659D03*
X0296152Y0296659D03*
X0296152Y0294691D03*
X0298120Y0294691D03*
X0298120Y0296659D03*
X0300089Y0296659D03*
X0300089Y0294691D03*
X0302057Y0294691D03*
X0302057Y0296659D03*
X0304026Y0296659D03*
X0304026Y0294691D03*
X0304026Y0298628D03*
X0304026Y0300596D03*
X0302057Y0300596D03*
X0302057Y0298628D03*
X0300089Y0298628D03*
X0300089Y0300596D03*
X0298120Y0300596D03*
X0298120Y0298628D03*
X0296152Y0298628D03*
X0296152Y0300596D03*
X0294183Y0300596D03*
X0294183Y0298628D03*
X0292215Y0298628D03*
X0292215Y0300596D03*
X0290246Y0300596D03*
X0290246Y0298628D03*
X0288278Y0298628D03*
X0288278Y0300596D03*
X0288278Y0302565D03*
X0290246Y0302565D03*
X0290246Y0304533D03*
X0288278Y0304533D03*
X0288278Y0306502D03*
X0290246Y0306502D03*
X0290246Y0308470D03*
X0288278Y0308470D03*
X0288278Y0310439D03*
X0290246Y0310439D03*
X0292215Y0310439D03*
X0294183Y0310439D03*
X0294183Y0308470D03*
X0294183Y0306502D03*
X0292215Y0306502D03*
X0292215Y0308470D03*
X0292215Y0304533D03*
X0292215Y0302565D03*
X0294183Y0302565D03*
X0294183Y0304533D03*
X0296152Y0304533D03*
X0296152Y0302565D03*
X0298120Y0302565D03*
X0298120Y0304533D03*
X0300089Y0304533D03*
X0300089Y0302565D03*
X0302057Y0302565D03*
X0302057Y0304533D03*
X0304026Y0304533D03*
X0304026Y0302565D03*
X0304026Y0306502D03*
X0304026Y0308470D03*
X0302057Y0308470D03*
X0302057Y0306502D03*
X0300089Y0306502D03*
X0300089Y0308470D03*
X0298120Y0308470D03*
X0298120Y0306502D03*
X0296152Y0306502D03*
X0296152Y0308470D03*
X0296152Y0310439D03*
X0298120Y0310439D03*
X0300089Y0310439D03*
X0302057Y0310439D03*
X0304026Y0310439D03*
X0304026Y0336061D03*
X0304026Y0338030D03*
X0304026Y0339998D03*
X0304026Y0341967D03*
X0304026Y0343935D03*
X0304026Y0345904D03*
X0304026Y0347872D03*
X0304026Y0349841D03*
X0304026Y0351809D03*
X0302057Y0351809D03*
X0300089Y0351809D03*
X0300089Y0349841D03*
X0302057Y0349841D03*
X0302057Y0347872D03*
X0300089Y0347872D03*
X0300089Y0345904D03*
X0302057Y0345904D03*
X0302057Y0343935D03*
X0300089Y0343935D03*
X0300089Y0341967D03*
X0302057Y0341967D03*
X0302057Y0339998D03*
X0300089Y0339998D03*
X0300089Y0338030D03*
X0302057Y0338030D03*
X0302057Y0336061D03*
X0300089Y0336061D03*
X0298120Y0336061D03*
X0296152Y0336061D03*
X0296152Y0338030D03*
X0296152Y0339998D03*
X0298120Y0339998D03*
X0298120Y0338030D03*
X0298120Y0341967D03*
X0298120Y0343935D03*
X0296152Y0343935D03*
X0296152Y0341967D03*
X0294183Y0341967D03*
X0294183Y0343935D03*
X0292215Y0343935D03*
X0292215Y0341967D03*
X0290246Y0341967D03*
X0290246Y0343935D03*
X0288278Y0343935D03*
X0288278Y0341967D03*
X0288278Y0339998D03*
X0290246Y0339998D03*
X0290246Y0338030D03*
X0288278Y0338030D03*
X0288278Y0336061D03*
X0290246Y0336061D03*
X0292215Y0336061D03*
X0294183Y0336061D03*
X0294183Y0338030D03*
X0294183Y0339998D03*
X0292215Y0339998D03*
X0292215Y0338030D03*
X0292215Y0345904D03*
X0292215Y0347872D03*
X0294183Y0347872D03*
X0294183Y0345904D03*
X0296152Y0345904D03*
X0296152Y0347872D03*
X0298120Y0347872D03*
X0298120Y0345904D03*
X0298120Y0349841D03*
X0298120Y0351809D03*
X0296152Y0351809D03*
X0296152Y0349841D03*
X0294183Y0349841D03*
X0294183Y0351809D03*
X0292215Y0351809D03*
X0292215Y0349841D03*
X0290246Y0349841D03*
X0290246Y0351809D03*
X0288278Y0351809D03*
X0288278Y0349841D03*
X0288278Y0347872D03*
X0290246Y0347872D03*
X0290246Y0345904D03*
X0288278Y0345904D03*
X0288278Y0377431D03*
X0290246Y0377431D03*
X0290246Y0379400D03*
X0290246Y0381368D03*
X0288278Y0381368D03*
X0288278Y0379400D03*
X0292215Y0379400D03*
X0292215Y0381368D03*
X0294183Y0381368D03*
X0294183Y0379400D03*
X0296152Y0379400D03*
X0296152Y0381368D03*
X0298120Y0381368D03*
X0298120Y0379400D03*
X0300089Y0379400D03*
X0300089Y0381368D03*
X0302057Y0381368D03*
X0302057Y0379400D03*
X0304026Y0379400D03*
X0304026Y0381368D03*
X0304026Y0383337D03*
X0304026Y0385305D03*
X0304026Y0387274D03*
X0304026Y0389242D03*
X0304026Y0391211D03*
X0304026Y0393179D03*
X0302057Y0393179D03*
X0300089Y0393179D03*
X0300089Y0391211D03*
X0302057Y0391211D03*
X0302057Y0389242D03*
X0300089Y0389242D03*
X0300089Y0387274D03*
X0302057Y0387274D03*
X0302057Y0385305D03*
X0300089Y0385305D03*
X0300089Y0383337D03*
X0302057Y0383337D03*
X0298120Y0383337D03*
X0298120Y0385305D03*
X0296152Y0385305D03*
X0296152Y0383337D03*
X0294183Y0383337D03*
X0294183Y0385305D03*
X0292215Y0385305D03*
X0292215Y0383337D03*
X0290246Y0383337D03*
X0290246Y0385305D03*
X0288278Y0385305D03*
X0288278Y0383337D03*
X0288278Y0387274D03*
X0290246Y0387274D03*
X0290246Y0389242D03*
X0288278Y0389242D03*
X0288278Y0391211D03*
X0290246Y0391211D03*
X0290246Y0393179D03*
X0288278Y0393179D03*
X0292215Y0393179D03*
X0294183Y0393179D03*
X0294183Y0391211D03*
X0292215Y0391211D03*
X0292215Y0389242D03*
X0294183Y0389242D03*
X0294183Y0387274D03*
X0292215Y0387274D03*
X0296152Y0387274D03*
X0296152Y0389242D03*
X0298120Y0389242D03*
X0298120Y0387274D03*
X0298120Y0391211D03*
X0298120Y0393179D03*
X0296152Y0393179D03*
X0296152Y0391211D03*
X0296152Y0377431D03*
X0298120Y0377431D03*
X0300089Y0377431D03*
X0302057Y0377431D03*
X0304026Y0377431D03*
X0294183Y0377431D03*
X0292215Y0377431D03*
X0242971Y0377431D03*
X0242971Y0379400D03*
X0242971Y0381368D03*
X0242971Y0383337D03*
X0242971Y0385305D03*
X0242971Y0387274D03*
X0242971Y0389242D03*
X0242971Y0391211D03*
X0242971Y0393179D03*
X0241002Y0393179D03*
X0241002Y0391211D03*
X0239034Y0391211D03*
X0239034Y0393179D03*
X0237065Y0393179D03*
X0237065Y0391211D03*
X0235097Y0391211D03*
X0235097Y0393179D03*
X0233128Y0393179D03*
X0233128Y0391211D03*
X0231159Y0391211D03*
X0229191Y0391211D03*
X0229191Y0393179D03*
X0231159Y0393179D03*
X0227222Y0393179D03*
X0227222Y0391211D03*
X0227222Y0389242D03*
X0227222Y0387274D03*
X0227222Y0385305D03*
X0227222Y0383337D03*
X0227222Y0381368D03*
X0227222Y0379400D03*
X0227222Y0377431D03*
X0229191Y0377431D03*
X0231159Y0377431D03*
X0231159Y0379400D03*
X0229191Y0379400D03*
X0229191Y0381368D03*
X0231159Y0381368D03*
X0231159Y0383337D03*
X0229191Y0383337D03*
X0229191Y0385305D03*
X0231159Y0385305D03*
X0231159Y0387274D03*
X0229191Y0387274D03*
X0229191Y0389242D03*
X0231159Y0389242D03*
X0233128Y0389242D03*
X0233128Y0387274D03*
X0235097Y0387274D03*
X0237065Y0387274D03*
X0237065Y0389242D03*
X0235097Y0389242D03*
X0239034Y0389242D03*
X0241002Y0389242D03*
X0241002Y0387274D03*
X0239034Y0387274D03*
X0239034Y0385305D03*
X0241002Y0385305D03*
X0241002Y0383337D03*
X0239034Y0383337D03*
X0239034Y0381368D03*
X0241002Y0381368D03*
X0241002Y0379400D03*
X0239034Y0379400D03*
X0239034Y0377431D03*
X0241002Y0377431D03*
X0237065Y0377431D03*
X0235097Y0377431D03*
X0235097Y0379400D03*
X0237065Y0379400D03*
X0237065Y0381368D03*
X0235097Y0381368D03*
X0235097Y0383337D03*
X0237065Y0383337D03*
X0237065Y0385305D03*
X0235097Y0385305D03*
X0233128Y0385305D03*
X0233128Y0383337D03*
X0233128Y0381368D03*
X0233128Y0379400D03*
X0233128Y0377431D03*
X0233128Y0351809D03*
X0233128Y0349841D03*
X0231159Y0349841D03*
X0229191Y0349841D03*
X0229191Y0351809D03*
X0231159Y0351809D03*
X0227222Y0351809D03*
X0227222Y0349841D03*
X0227222Y0347872D03*
X0227222Y0345904D03*
X0227222Y0343935D03*
X0227222Y0341967D03*
X0227222Y0339998D03*
X0227222Y0338030D03*
X0227222Y0336061D03*
X0229191Y0336061D03*
X0231159Y0336061D03*
X0231159Y0338030D03*
X0229191Y0338030D03*
X0229191Y0339998D03*
X0231159Y0339998D03*
X0231159Y0341967D03*
X0229191Y0341967D03*
X0229191Y0343935D03*
X0231159Y0343935D03*
X0231159Y0345904D03*
X0229191Y0345904D03*
X0229191Y0347872D03*
X0231159Y0347872D03*
X0233128Y0347872D03*
X0233128Y0345904D03*
X0235097Y0345904D03*
X0237065Y0345904D03*
X0237065Y0347872D03*
X0235097Y0347872D03*
X0235097Y0349841D03*
X0237065Y0349841D03*
X0237065Y0351809D03*
X0235097Y0351809D03*
X0239034Y0351809D03*
X0241002Y0351809D03*
X0241002Y0349841D03*
X0239034Y0349841D03*
X0239034Y0347872D03*
X0241002Y0347872D03*
X0241002Y0345904D03*
X0239034Y0345904D03*
X0239034Y0343935D03*
X0241002Y0343935D03*
X0241002Y0341967D03*
X0239034Y0341967D03*
X0239034Y0339998D03*
X0241002Y0339998D03*
X0241002Y0338030D03*
X0239034Y0338030D03*
X0239034Y0336061D03*
X0241002Y0336061D03*
X0242971Y0336061D03*
X0242971Y0338030D03*
X0242971Y0339998D03*
X0242971Y0341967D03*
X0242971Y0343935D03*
X0242971Y0345904D03*
X0242971Y0347872D03*
X0242971Y0349841D03*
X0242971Y0351809D03*
X0237065Y0343935D03*
X0237065Y0341967D03*
X0235097Y0341967D03*
X0235097Y0343935D03*
X0233128Y0343935D03*
X0233128Y0341967D03*
X0233128Y0339998D03*
X0233128Y0338030D03*
X0235097Y0338030D03*
X0237065Y0338030D03*
X0237065Y0339998D03*
X0235097Y0339998D03*
X0235097Y0336061D03*
X0237065Y0336061D03*
X0233128Y0336061D03*
X0233128Y0310439D03*
X0231159Y0310439D03*
X0229191Y0310439D03*
X0229191Y0308470D03*
X0229191Y0306502D03*
X0231159Y0306502D03*
X0231159Y0308470D03*
X0233128Y0308470D03*
X0233128Y0306502D03*
X0235097Y0306502D03*
X0237065Y0306502D03*
X0237065Y0308470D03*
X0235097Y0308470D03*
X0235097Y0310439D03*
X0237065Y0310439D03*
X0239034Y0310439D03*
X0241002Y0310439D03*
X0241002Y0308470D03*
X0241002Y0306502D03*
X0239034Y0306502D03*
X0239034Y0308470D03*
X0242971Y0308470D03*
X0242971Y0306502D03*
X0242971Y0304533D03*
X0242971Y0302565D03*
X0242971Y0300596D03*
X0242971Y0298628D03*
X0242971Y0296659D03*
X0242971Y0294691D03*
X0241002Y0294691D03*
X0241002Y0296659D03*
X0239034Y0296659D03*
X0239034Y0294691D03*
X0237065Y0294691D03*
X0237065Y0296659D03*
X0235097Y0296659D03*
X0235097Y0294691D03*
X0233128Y0294691D03*
X0233128Y0296659D03*
X0231159Y0296659D03*
X0229191Y0296659D03*
X0229191Y0294691D03*
X0231159Y0294691D03*
X0227222Y0294691D03*
X0227222Y0296659D03*
X0227222Y0298628D03*
X0227222Y0300596D03*
X0227222Y0302565D03*
X0227222Y0304533D03*
X0227222Y0306502D03*
X0227222Y0308470D03*
X0227222Y0310439D03*
X0229191Y0304533D03*
X0229191Y0302565D03*
X0231159Y0302565D03*
X0231159Y0304533D03*
X0233128Y0304533D03*
X0233128Y0302565D03*
X0235097Y0302565D03*
X0237065Y0302565D03*
X0237065Y0304533D03*
X0235097Y0304533D03*
X0235097Y0300596D03*
X0237065Y0300596D03*
X0237065Y0298628D03*
X0235097Y0298628D03*
X0233128Y0298628D03*
X0233128Y0300596D03*
X0231159Y0300596D03*
X0229191Y0300596D03*
X0229191Y0298628D03*
X0231159Y0298628D03*
X0239034Y0298628D03*
X0241002Y0298628D03*
X0241002Y0300596D03*
X0239034Y0300596D03*
X0239034Y0302565D03*
X0241002Y0302565D03*
X0241002Y0304533D03*
X0239034Y0304533D03*
X0242971Y0310439D03*
X0242971Y0269069D03*
X0242971Y0267100D03*
X0242971Y0265132D03*
X0242971Y0263163D03*
X0242971Y0261195D03*
X0242971Y0259226D03*
X0242971Y0257258D03*
X0242971Y0255289D03*
X0242971Y0253321D03*
X0241002Y0253321D03*
X0241002Y0255289D03*
X0239034Y0255289D03*
X0239034Y0253321D03*
X0237065Y0253321D03*
X0237065Y0255289D03*
X0235097Y0255289D03*
X0235097Y0253321D03*
X0233128Y0253321D03*
X0233128Y0255289D03*
X0231159Y0255289D03*
X0229191Y0255289D03*
X0229191Y0253321D03*
X0231159Y0253321D03*
X0227222Y0253321D03*
X0227222Y0255289D03*
X0227222Y0257258D03*
X0227222Y0259226D03*
X0227222Y0261195D03*
X0227222Y0263163D03*
X0227222Y0265132D03*
X0227222Y0267100D03*
X0227222Y0269069D03*
X0229191Y0269069D03*
X0231159Y0269069D03*
X0231159Y0267100D03*
X0229191Y0267100D03*
X0229191Y0265132D03*
X0231159Y0265132D03*
X0231159Y0263163D03*
X0229191Y0263163D03*
X0229191Y0261195D03*
X0231159Y0261195D03*
X0231159Y0259226D03*
X0229191Y0259226D03*
X0229191Y0257258D03*
X0231159Y0257258D03*
X0233128Y0257258D03*
X0233128Y0259226D03*
X0235097Y0259226D03*
X0237065Y0259226D03*
X0237065Y0257258D03*
X0235097Y0257258D03*
X0239034Y0257258D03*
X0241002Y0257258D03*
X0241002Y0259226D03*
X0239034Y0259226D03*
X0239034Y0261195D03*
X0241002Y0261195D03*
X0241002Y0263163D03*
X0239034Y0263163D03*
X0239034Y0265132D03*
X0241002Y0265132D03*
X0241002Y0267100D03*
X0239034Y0267100D03*
X0239034Y0269069D03*
X0241002Y0269069D03*
X0237065Y0269069D03*
X0235097Y0269069D03*
X0235097Y0267100D03*
X0237065Y0267100D03*
X0237065Y0265132D03*
X0235097Y0265132D03*
X0235097Y0263163D03*
X0237065Y0263163D03*
X0237065Y0261195D03*
X0235097Y0261195D03*
X0233128Y0261195D03*
X0233128Y0263163D03*
X0233128Y0265132D03*
X0233128Y0267100D03*
X0233128Y0269069D03*
X0233128Y0227699D03*
X0231159Y0227699D03*
X0229191Y0227699D03*
X0227222Y0227699D03*
X0227222Y0225730D03*
X0227222Y0223762D03*
X0227222Y0221793D03*
X0227222Y0219825D03*
X0227222Y0217856D03*
X0227222Y0215888D03*
X0227222Y0213919D03*
X0227222Y0211951D03*
X0229191Y0211951D03*
X0229191Y0213919D03*
X0231159Y0213919D03*
X0231159Y0211951D03*
X0233128Y0211951D03*
X0233128Y0213919D03*
X0235097Y0213919D03*
X0237065Y0213919D03*
X0237065Y0211951D03*
X0235097Y0211951D03*
X0239034Y0211951D03*
X0241002Y0211951D03*
X0241002Y0213919D03*
X0239034Y0213919D03*
X0239034Y0215888D03*
X0241002Y0215888D03*
X0241002Y0217856D03*
X0239034Y0217856D03*
X0239034Y0219825D03*
X0241002Y0219825D03*
X0241002Y0221793D03*
X0239034Y0221793D03*
X0239034Y0223762D03*
X0241002Y0223762D03*
X0241002Y0225730D03*
X0239034Y0225730D03*
X0239034Y0227699D03*
X0241002Y0227699D03*
X0242971Y0227699D03*
X0242971Y0225730D03*
X0242971Y0223762D03*
X0242971Y0221793D03*
X0242971Y0219825D03*
X0242971Y0217856D03*
X0242971Y0215888D03*
X0242971Y0213919D03*
X0242971Y0211951D03*
X0237065Y0215888D03*
X0237065Y0217856D03*
X0235097Y0217856D03*
X0235097Y0215888D03*
X0233128Y0215888D03*
X0233128Y0217856D03*
X0231159Y0217856D03*
X0229191Y0217856D03*
X0229191Y0215888D03*
X0231159Y0215888D03*
X0231159Y0219825D03*
X0229191Y0219825D03*
X0229191Y0221793D03*
X0231159Y0221793D03*
X0231159Y0223762D03*
X0229191Y0223762D03*
X0229191Y0225730D03*
X0231159Y0225730D03*
X0233128Y0225730D03*
X0233128Y0223762D03*
X0235097Y0223762D03*
X0237065Y0223762D03*
X0237065Y0225730D03*
X0235097Y0225730D03*
X0235097Y0227699D03*
X0237065Y0227699D03*
X0237065Y0221793D03*
X0237065Y0219825D03*
X0235097Y0219825D03*
X0235097Y0221793D03*
X0233128Y0221793D03*
X0233128Y0219825D03*
X0233128Y0186329D03*
X0231159Y0186329D03*
X0229191Y0186329D03*
X0227222Y0186329D03*
X0227222Y0184360D03*
X0227222Y0182392D03*
X0227222Y0180423D03*
X0227222Y0178455D03*
X0227222Y0176486D03*
X0227222Y0174518D03*
X0227222Y0172549D03*
X0227222Y0170581D03*
X0229191Y0170581D03*
X0229191Y0172549D03*
X0231159Y0172549D03*
X0231159Y0170581D03*
X0233128Y0170581D03*
X0233128Y0172549D03*
X0235097Y0172549D03*
X0237065Y0172549D03*
X0237065Y0170581D03*
X0235097Y0170581D03*
X0239034Y0170581D03*
X0241002Y0170581D03*
X0241002Y0172549D03*
X0239034Y0172549D03*
X0239034Y0174518D03*
X0241002Y0174518D03*
X0241002Y0176486D03*
X0239034Y0176486D03*
X0239034Y0178455D03*
X0241002Y0178455D03*
X0241002Y0180423D03*
X0239034Y0180423D03*
X0239034Y0182392D03*
X0241002Y0182392D03*
X0241002Y0184360D03*
X0239034Y0184360D03*
X0239034Y0186329D03*
X0241002Y0186329D03*
X0242971Y0186329D03*
X0242971Y0184360D03*
X0242971Y0182392D03*
X0242971Y0180423D03*
X0242971Y0178455D03*
X0242971Y0176486D03*
X0242971Y0174518D03*
X0242971Y0172549D03*
X0242971Y0170581D03*
X0237065Y0174518D03*
X0237065Y0176486D03*
X0235097Y0176486D03*
X0235097Y0174518D03*
X0233128Y0174518D03*
X0233128Y0176486D03*
X0231159Y0176486D03*
X0229191Y0176486D03*
X0229191Y0174518D03*
X0231159Y0174518D03*
X0231159Y0178455D03*
X0229191Y0178455D03*
X0229191Y0180423D03*
X0231159Y0180423D03*
X0231159Y0182392D03*
X0229191Y0182392D03*
X0229191Y0184360D03*
X0231159Y0184360D03*
X0233128Y0184360D03*
X0233128Y0182392D03*
X0235097Y0182392D03*
X0237065Y0182392D03*
X0237065Y0184360D03*
X0235097Y0184360D03*
X0235097Y0186329D03*
X0237065Y0186329D03*
X0237065Y0180423D03*
X0237065Y0178455D03*
X0235097Y0178455D03*
X0235097Y0180423D03*
X0233128Y0180423D03*
X0233128Y0178455D03*
X0233128Y0144959D03*
X0231159Y0144959D03*
X0229191Y0144959D03*
X0227222Y0144959D03*
X0227222Y0142990D03*
X0227222Y0141022D03*
X0227222Y0139053D03*
X0227222Y0137085D03*
X0227222Y0135116D03*
X0227222Y0133148D03*
X0227222Y0131179D03*
X0227222Y0129211D03*
X0229191Y0129211D03*
X0229191Y0131179D03*
X0231159Y0131179D03*
X0231159Y0129211D03*
X0233128Y0129211D03*
X0233128Y0131179D03*
X0235097Y0131179D03*
X0237065Y0131179D03*
X0237065Y0129211D03*
X0235097Y0129211D03*
X0239034Y0129211D03*
X0241002Y0129211D03*
X0241002Y0131179D03*
X0239034Y0131179D03*
X0239034Y0133148D03*
X0241002Y0133148D03*
X0241002Y0135116D03*
X0239034Y0135116D03*
X0239034Y0137085D03*
X0241002Y0137085D03*
X0241002Y0139053D03*
X0239034Y0139053D03*
X0239034Y0141022D03*
X0241002Y0141022D03*
X0241002Y0142990D03*
X0239034Y0142990D03*
X0239034Y0144959D03*
X0241002Y0144959D03*
X0242971Y0144959D03*
X0242971Y0142990D03*
X0242971Y0141022D03*
X0242971Y0139053D03*
X0242971Y0137085D03*
X0242971Y0135116D03*
X0242971Y0133148D03*
X0242971Y0131179D03*
X0242971Y0129211D03*
X0237065Y0133148D03*
X0237065Y0135116D03*
X0235097Y0135116D03*
X0235097Y0133148D03*
X0233128Y0133148D03*
X0233128Y0135116D03*
X0231159Y0135116D03*
X0229191Y0135116D03*
X0229191Y0133148D03*
X0231159Y0133148D03*
X0231159Y0137085D03*
X0229191Y0137085D03*
X0229191Y0139053D03*
X0231159Y0139053D03*
X0231159Y0141022D03*
X0229191Y0141022D03*
X0229191Y0142990D03*
X0231159Y0142990D03*
X0233128Y0142990D03*
X0233128Y0141022D03*
X0235097Y0141022D03*
X0237065Y0141022D03*
X0237065Y0142990D03*
X0235097Y0142990D03*
X0235097Y0144959D03*
X0237065Y0144959D03*
X0237065Y0139053D03*
X0237065Y0137085D03*
X0235097Y0137085D03*
X0235097Y0139053D03*
X0233128Y0139053D03*
X0233128Y0137085D03*
X0233128Y0103589D03*
X0231159Y0103589D03*
X0229191Y0103589D03*
X0227222Y0103589D03*
X0227222Y0101620D03*
X0227222Y0099652D03*
X0227222Y0097683D03*
X0227222Y0095715D03*
X0227222Y0093746D03*
X0227222Y0091778D03*
X0227222Y0089809D03*
X0227222Y0087841D03*
X0229191Y0087841D03*
X0229191Y0089809D03*
X0231159Y0089809D03*
X0231159Y0087841D03*
X0233128Y0087841D03*
X0233128Y0089809D03*
X0235097Y0089809D03*
X0237065Y0089809D03*
X0237065Y0087841D03*
X0235097Y0087841D03*
X0239034Y0087841D03*
X0241002Y0087841D03*
X0241002Y0089809D03*
X0239034Y0089809D03*
X0239034Y0091778D03*
X0241002Y0091778D03*
X0241002Y0093746D03*
X0239034Y0093746D03*
X0239034Y0095715D03*
X0241002Y0095715D03*
X0241002Y0097683D03*
X0239034Y0097683D03*
X0239034Y0099652D03*
X0241002Y0099652D03*
X0241002Y0101620D03*
X0239034Y0101620D03*
X0239034Y0103589D03*
X0241002Y0103589D03*
X0242971Y0103589D03*
X0242971Y0101620D03*
X0242971Y0099652D03*
X0242971Y0097683D03*
X0242971Y0095715D03*
X0242971Y0093746D03*
X0242971Y0091778D03*
X0242971Y0089809D03*
X0242971Y0087841D03*
X0237065Y0091778D03*
X0237065Y0093746D03*
X0235097Y0093746D03*
X0235097Y0091778D03*
X0233128Y0091778D03*
X0233128Y0093746D03*
X0231159Y0093746D03*
X0229191Y0093746D03*
X0229191Y0091778D03*
X0231159Y0091778D03*
X0231159Y0095715D03*
X0229191Y0095715D03*
X0229191Y0097683D03*
X0231159Y0097683D03*
X0231159Y0099652D03*
X0229191Y0099652D03*
X0229191Y0101620D03*
X0231159Y0101620D03*
X0233128Y0101620D03*
X0233128Y0099652D03*
X0235097Y0099652D03*
X0237065Y0099652D03*
X0237065Y0101620D03*
X0235097Y0101620D03*
X0235097Y0103589D03*
X0237065Y0103589D03*
X0237065Y0097683D03*
X0237065Y0095715D03*
X0235097Y0095715D03*
X0235097Y0097683D03*
X0233128Y0097683D03*
X0233128Y0095715D03*
X0233128Y0062219D03*
X0231159Y0062219D03*
X0229191Y0062219D03*
X0227222Y0062219D03*
X0227222Y0060250D03*
X0227222Y0058281D03*
X0227222Y0056313D03*
X0227222Y0054344D03*
X0227222Y0052376D03*
X0227222Y0050407D03*
X0227222Y0048439D03*
X0227222Y0046470D03*
X0229191Y0046470D03*
X0231159Y0046470D03*
X0231159Y0048439D03*
X0229191Y0048439D03*
X0229191Y0050407D03*
X0231159Y0050407D03*
X0231159Y0052376D03*
X0229191Y0052376D03*
X0229191Y0054344D03*
X0231159Y0054344D03*
X0233128Y0054344D03*
X0233128Y0052376D03*
X0235097Y0052376D03*
X0237065Y0052376D03*
X0237065Y0054344D03*
X0235097Y0054344D03*
X0235097Y0056313D03*
X0237065Y0056313D03*
X0237065Y0058281D03*
X0235097Y0058281D03*
X0235097Y0060250D03*
X0237065Y0060250D03*
X0237065Y0062219D03*
X0235097Y0062219D03*
X0233128Y0060250D03*
X0233128Y0058281D03*
X0233128Y0056313D03*
X0231159Y0056313D03*
X0229191Y0056313D03*
X0229191Y0058281D03*
X0231159Y0058281D03*
X0231159Y0060250D03*
X0229191Y0060250D03*
X0239034Y0060250D03*
X0241002Y0060250D03*
X0241002Y0058281D03*
X0241002Y0056313D03*
X0239034Y0056313D03*
X0239034Y0058281D03*
X0242971Y0058281D03*
X0242971Y0056313D03*
X0242971Y0054344D03*
X0242971Y0052376D03*
X0242971Y0050407D03*
X0242971Y0048439D03*
X0242971Y0046470D03*
X0241002Y0046470D03*
X0239034Y0046470D03*
X0239034Y0048439D03*
X0241002Y0048439D03*
X0241002Y0050407D03*
X0239034Y0050407D03*
X0239034Y0052376D03*
X0241002Y0052376D03*
X0241002Y0054344D03*
X0239034Y0054344D03*
X0237065Y0050407D03*
X0237065Y0048439D03*
X0235097Y0048439D03*
X0235097Y0050407D03*
X0233128Y0050407D03*
X0233128Y0048439D03*
X0233128Y0046470D03*
X0235097Y0046470D03*
X0237065Y0046470D03*
X0242971Y0060250D03*
X0242971Y0062219D03*
X0241002Y0062219D03*
X0239034Y0062219D03*
X0181915Y0062219D03*
X0179947Y0062219D03*
X0177978Y0062219D03*
X0176010Y0062219D03*
X0174041Y0062219D03*
X0172073Y0062219D03*
X0170104Y0062219D03*
X0168136Y0062219D03*
X0166167Y0062219D03*
X0166167Y0060250D03*
X0166167Y0058281D03*
X0166167Y0056313D03*
X0166167Y0054344D03*
X0166167Y0052376D03*
X0166167Y0050407D03*
X0166167Y0048439D03*
X0166167Y0046470D03*
X0168136Y0046470D03*
X0170104Y0046470D03*
X0172073Y0046470D03*
X0174041Y0046470D03*
X0176010Y0046470D03*
X0177978Y0046470D03*
X0179947Y0046470D03*
X0181915Y0046470D03*
X0181915Y0048439D03*
X0179947Y0048439D03*
X0179947Y0050407D03*
X0181915Y0050407D03*
X0181915Y0052376D03*
X0179947Y0052376D03*
X0179947Y0054344D03*
X0181915Y0054344D03*
X0181915Y0056313D03*
X0179947Y0056313D03*
X0179947Y0058281D03*
X0181915Y0058281D03*
X0181915Y0060250D03*
X0179947Y0060250D03*
X0177978Y0060250D03*
X0176010Y0060250D03*
X0176010Y0058281D03*
X0176010Y0056313D03*
X0177978Y0056313D03*
X0177978Y0058281D03*
X0177978Y0054344D03*
X0177978Y0052376D03*
X0176010Y0052376D03*
X0176010Y0054344D03*
X0174041Y0054344D03*
X0174041Y0052376D03*
X0172073Y0052376D03*
X0172073Y0054344D03*
X0170104Y0054344D03*
X0170104Y0052376D03*
X0168136Y0052376D03*
X0168136Y0054344D03*
X0168136Y0056313D03*
X0170104Y0056313D03*
X0170104Y0058281D03*
X0168136Y0058281D03*
X0168136Y0060250D03*
X0170104Y0060250D03*
X0172073Y0060250D03*
X0174041Y0060250D03*
X0174041Y0058281D03*
X0174041Y0056313D03*
X0172073Y0056313D03*
X0172073Y0058281D03*
X0172073Y0050407D03*
X0172073Y0048439D03*
X0174041Y0048439D03*
X0174041Y0050407D03*
X0176010Y0050407D03*
X0176010Y0048439D03*
X0177978Y0048439D03*
X0177978Y0050407D03*
X0170104Y0050407D03*
X0170104Y0048439D03*
X0168136Y0048439D03*
X0168136Y0050407D03*
X0168136Y0087841D03*
X0168136Y0089809D03*
X0170104Y0089809D03*
X0170104Y0087841D03*
X0172073Y0087841D03*
X0172073Y0089809D03*
X0174041Y0089809D03*
X0174041Y0087841D03*
X0176010Y0087841D03*
X0176010Y0089809D03*
X0177978Y0089809D03*
X0177978Y0087841D03*
X0179947Y0087841D03*
X0179947Y0089809D03*
X0181915Y0089809D03*
X0181915Y0087841D03*
X0181915Y0091778D03*
X0181915Y0093746D03*
X0179947Y0093746D03*
X0179947Y0091778D03*
X0177978Y0091778D03*
X0177978Y0093746D03*
X0176010Y0093746D03*
X0176010Y0091778D03*
X0174041Y0091778D03*
X0174041Y0093746D03*
X0172073Y0093746D03*
X0172073Y0091778D03*
X0170104Y0091778D03*
X0170104Y0093746D03*
X0168136Y0093746D03*
X0168136Y0091778D03*
X0166167Y0091778D03*
X0166167Y0093746D03*
X0166167Y0095715D03*
X0166167Y0097683D03*
X0166167Y0099652D03*
X0166167Y0101620D03*
X0166167Y0103589D03*
X0168136Y0103589D03*
X0170104Y0103589D03*
X0172073Y0103589D03*
X0174041Y0103589D03*
X0176010Y0103589D03*
X0177978Y0103589D03*
X0179947Y0103589D03*
X0181915Y0103589D03*
X0181915Y0101620D03*
X0179947Y0101620D03*
X0179947Y0099652D03*
X0181915Y0099652D03*
X0181915Y0097683D03*
X0179947Y0097683D03*
X0179947Y0095715D03*
X0181915Y0095715D03*
X0177978Y0095715D03*
X0177978Y0097683D03*
X0176010Y0097683D03*
X0176010Y0095715D03*
X0174041Y0095715D03*
X0174041Y0097683D03*
X0172073Y0097683D03*
X0172073Y0095715D03*
X0170104Y0095715D03*
X0170104Y0097683D03*
X0168136Y0097683D03*
X0168136Y0095715D03*
X0168136Y0099652D03*
X0168136Y0101620D03*
X0170104Y0101620D03*
X0170104Y0099652D03*
X0172073Y0099652D03*
X0172073Y0101620D03*
X0174041Y0101620D03*
X0174041Y0099652D03*
X0176010Y0099652D03*
X0176010Y0101620D03*
X0177978Y0101620D03*
X0177978Y0099652D03*
X0166167Y0089809D03*
X0166167Y0087841D03*
X0166167Y0129211D03*
X0166167Y0131179D03*
X0166167Y0133148D03*
X0166167Y0135116D03*
X0166167Y0137085D03*
X0166167Y0139053D03*
X0166167Y0141022D03*
X0166167Y0142990D03*
X0166167Y0144959D03*
X0168136Y0144959D03*
X0170104Y0144959D03*
X0172073Y0144959D03*
X0174041Y0144959D03*
X0176010Y0144959D03*
X0177978Y0144959D03*
X0177978Y0142990D03*
X0176010Y0142990D03*
X0176010Y0141022D03*
X0177978Y0141022D03*
X0177978Y0139053D03*
X0176010Y0139053D03*
X0176010Y0137085D03*
X0177978Y0137085D03*
X0179947Y0137085D03*
X0179947Y0139053D03*
X0181915Y0139053D03*
X0181915Y0137085D03*
X0181915Y0135116D03*
X0179947Y0135116D03*
X0179947Y0133148D03*
X0181915Y0133148D03*
X0181915Y0131179D03*
X0179947Y0131179D03*
X0179947Y0129211D03*
X0181915Y0129211D03*
X0177978Y0129211D03*
X0177978Y0131179D03*
X0176010Y0131179D03*
X0176010Y0129211D03*
X0174041Y0129211D03*
X0174041Y0131179D03*
X0172073Y0131179D03*
X0172073Y0129211D03*
X0170104Y0129211D03*
X0170104Y0131179D03*
X0168136Y0131179D03*
X0168136Y0129211D03*
X0168136Y0133148D03*
X0168136Y0135116D03*
X0170104Y0135116D03*
X0170104Y0133148D03*
X0172073Y0133148D03*
X0172073Y0135116D03*
X0174041Y0135116D03*
X0174041Y0133148D03*
X0176010Y0133148D03*
X0176010Y0135116D03*
X0177978Y0135116D03*
X0177978Y0133148D03*
X0174041Y0137085D03*
X0174041Y0139053D03*
X0172073Y0139053D03*
X0172073Y0137085D03*
X0170104Y0137085D03*
X0170104Y0139053D03*
X0168136Y0139053D03*
X0168136Y0137085D03*
X0168136Y0141022D03*
X0168136Y0142990D03*
X0170104Y0142990D03*
X0170104Y0141022D03*
X0172073Y0141022D03*
X0172073Y0142990D03*
X0174041Y0142990D03*
X0174041Y0141022D03*
X0179947Y0141022D03*
X0179947Y0142990D03*
X0181915Y0142990D03*
X0181915Y0141022D03*
X0181915Y0144959D03*
X0179947Y0144959D03*
X0179947Y0170581D03*
X0179947Y0172549D03*
X0181915Y0172549D03*
X0181915Y0170581D03*
X0181915Y0174518D03*
X0181915Y0176486D03*
X0179947Y0176486D03*
X0179947Y0174518D03*
X0177978Y0174518D03*
X0177978Y0176486D03*
X0176010Y0176486D03*
X0176010Y0174518D03*
X0174041Y0174518D03*
X0174041Y0176486D03*
X0172073Y0176486D03*
X0172073Y0174518D03*
X0170104Y0174518D03*
X0170104Y0176486D03*
X0168136Y0176486D03*
X0168136Y0174518D03*
X0166167Y0174518D03*
X0166167Y0176486D03*
X0166167Y0178455D03*
X0166167Y0180423D03*
X0166167Y0182392D03*
X0166167Y0184360D03*
X0166167Y0186329D03*
X0168136Y0186329D03*
X0170104Y0186329D03*
X0172073Y0186329D03*
X0174041Y0186329D03*
X0174041Y0184360D03*
X0172073Y0184360D03*
X0172073Y0182392D03*
X0174041Y0182392D03*
X0176010Y0182392D03*
X0176010Y0184360D03*
X0177978Y0184360D03*
X0177978Y0182392D03*
X0177978Y0180423D03*
X0176010Y0180423D03*
X0176010Y0178455D03*
X0177978Y0178455D03*
X0179947Y0178455D03*
X0179947Y0180423D03*
X0181915Y0180423D03*
X0181915Y0178455D03*
X0181915Y0182392D03*
X0179947Y0182392D03*
X0179947Y0184360D03*
X0181915Y0184360D03*
X0181915Y0186329D03*
X0179947Y0186329D03*
X0177978Y0186329D03*
X0176010Y0186329D03*
X0170104Y0184360D03*
X0168136Y0184360D03*
X0168136Y0182392D03*
X0170104Y0182392D03*
X0170104Y0180423D03*
X0168136Y0180423D03*
X0168136Y0178455D03*
X0170104Y0178455D03*
X0172073Y0178455D03*
X0172073Y0180423D03*
X0174041Y0180423D03*
X0174041Y0178455D03*
X0174041Y0172549D03*
X0172073Y0172549D03*
X0172073Y0170581D03*
X0174041Y0170581D03*
X0176010Y0170581D03*
X0176010Y0172549D03*
X0177978Y0172549D03*
X0177978Y0170581D03*
X0170104Y0170581D03*
X0170104Y0172549D03*
X0168136Y0172549D03*
X0168136Y0170581D03*
X0166167Y0170581D03*
X0166167Y0172549D03*
X0166167Y0211951D03*
X0166167Y0213919D03*
X0168136Y0213919D03*
X0168136Y0211951D03*
X0170104Y0211951D03*
X0170104Y0213919D03*
X0170104Y0215888D03*
X0168136Y0215888D03*
X0168136Y0217856D03*
X0170104Y0217856D03*
X0170104Y0219825D03*
X0168136Y0219825D03*
X0168136Y0221793D03*
X0170104Y0221793D03*
X0172073Y0221793D03*
X0172073Y0219825D03*
X0174041Y0219825D03*
X0174041Y0221793D03*
X0174041Y0223762D03*
X0172073Y0223762D03*
X0172073Y0225730D03*
X0174041Y0225730D03*
X0174041Y0227699D03*
X0172073Y0227699D03*
X0170104Y0227699D03*
X0168136Y0227699D03*
X0168136Y0225730D03*
X0168136Y0223762D03*
X0170104Y0223762D03*
X0170104Y0225730D03*
X0166167Y0225730D03*
X0166167Y0223762D03*
X0166167Y0221793D03*
X0166167Y0219825D03*
X0166167Y0217856D03*
X0166167Y0215888D03*
X0172073Y0215888D03*
X0172073Y0217856D03*
X0174041Y0217856D03*
X0174041Y0215888D03*
X0174041Y0213919D03*
X0172073Y0213919D03*
X0172073Y0211951D03*
X0174041Y0211951D03*
X0176010Y0211951D03*
X0176010Y0213919D03*
X0177978Y0213919D03*
X0177978Y0211951D03*
X0179947Y0211951D03*
X0179947Y0213919D03*
X0181915Y0213919D03*
X0181915Y0211951D03*
X0181915Y0215888D03*
X0179947Y0215888D03*
X0179947Y0217856D03*
X0181915Y0217856D03*
X0181915Y0219825D03*
X0179947Y0219825D03*
X0179947Y0221793D03*
X0181915Y0221793D03*
X0181915Y0223762D03*
X0179947Y0223762D03*
X0179947Y0225730D03*
X0181915Y0225730D03*
X0181915Y0227699D03*
X0179947Y0227699D03*
X0177978Y0227699D03*
X0176010Y0227699D03*
X0176010Y0225730D03*
X0176010Y0223762D03*
X0177978Y0223762D03*
X0177978Y0225730D03*
X0177978Y0221793D03*
X0176010Y0221793D03*
X0176010Y0219825D03*
X0177978Y0219825D03*
X0177978Y0217856D03*
X0176010Y0217856D03*
X0176010Y0215888D03*
X0177978Y0215888D03*
X0166167Y0227699D03*
X0166167Y0253321D03*
X0166167Y0255289D03*
X0168136Y0255289D03*
X0168136Y0253321D03*
X0170104Y0253321D03*
X0170104Y0255289D03*
X0172073Y0255289D03*
X0172073Y0253321D03*
X0174041Y0253321D03*
X0174041Y0255289D03*
X0176010Y0255289D03*
X0176010Y0253321D03*
X0177978Y0253321D03*
X0177978Y0255289D03*
X0179947Y0255289D03*
X0179947Y0253321D03*
X0181915Y0253321D03*
X0181915Y0255289D03*
X0181915Y0257258D03*
X0179947Y0257258D03*
X0179947Y0259226D03*
X0181915Y0259226D03*
X0181915Y0261195D03*
X0179947Y0261195D03*
X0179947Y0263163D03*
X0181915Y0263163D03*
X0181915Y0265132D03*
X0179947Y0265132D03*
X0179947Y0267100D03*
X0181915Y0267100D03*
X0181915Y0269069D03*
X0179947Y0269069D03*
X0177978Y0269069D03*
X0176010Y0269069D03*
X0176010Y0267100D03*
X0176010Y0265132D03*
X0177978Y0265132D03*
X0177978Y0267100D03*
X0177978Y0263163D03*
X0177978Y0261195D03*
X0176010Y0261195D03*
X0176010Y0263163D03*
X0174041Y0263163D03*
X0174041Y0261195D03*
X0172073Y0261195D03*
X0172073Y0263163D03*
X0170104Y0263163D03*
X0170104Y0261195D03*
X0168136Y0261195D03*
X0168136Y0263163D03*
X0166167Y0263163D03*
X0166167Y0261195D03*
X0166167Y0259226D03*
X0166167Y0257258D03*
X0168136Y0257258D03*
X0170104Y0257258D03*
X0170104Y0259226D03*
X0168136Y0259226D03*
X0172073Y0259226D03*
X0172073Y0257258D03*
X0174041Y0257258D03*
X0174041Y0259226D03*
X0176010Y0259226D03*
X0176010Y0257258D03*
X0177978Y0257258D03*
X0177978Y0259226D03*
X0174041Y0265132D03*
X0172073Y0265132D03*
X0172073Y0267100D03*
X0174041Y0267100D03*
X0174041Y0269069D03*
X0172073Y0269069D03*
X0170104Y0269069D03*
X0168136Y0269069D03*
X0168136Y0267100D03*
X0168136Y0265132D03*
X0170104Y0265132D03*
X0170104Y0267100D03*
X0166167Y0267100D03*
X0166167Y0265132D03*
X0166167Y0269069D03*
X0166167Y0294691D03*
X0166167Y0296659D03*
X0168136Y0296659D03*
X0168136Y0294691D03*
X0170104Y0294691D03*
X0170104Y0296659D03*
X0172073Y0296659D03*
X0172073Y0294691D03*
X0174041Y0294691D03*
X0174041Y0296659D03*
X0176010Y0296659D03*
X0176010Y0294691D03*
X0177978Y0294691D03*
X0177978Y0296659D03*
X0179947Y0296659D03*
X0179947Y0294691D03*
X0181915Y0294691D03*
X0181915Y0296659D03*
X0181915Y0298628D03*
X0179947Y0298628D03*
X0179947Y0300596D03*
X0181915Y0300596D03*
X0181915Y0302565D03*
X0179947Y0302565D03*
X0179947Y0304533D03*
X0181915Y0304533D03*
X0181915Y0306502D03*
X0179947Y0306502D03*
X0179947Y0308470D03*
X0181915Y0308470D03*
X0181915Y0310439D03*
X0179947Y0310439D03*
X0177978Y0310439D03*
X0176010Y0310439D03*
X0176010Y0308470D03*
X0176010Y0306502D03*
X0177978Y0306502D03*
X0177978Y0308470D03*
X0177978Y0304533D03*
X0177978Y0302565D03*
X0176010Y0302565D03*
X0176010Y0304533D03*
X0174041Y0304533D03*
X0174041Y0302565D03*
X0172073Y0302565D03*
X0172073Y0304533D03*
X0170104Y0304533D03*
X0170104Y0302565D03*
X0168136Y0302565D03*
X0168136Y0304533D03*
X0166167Y0304533D03*
X0166167Y0302565D03*
X0166167Y0300596D03*
X0166167Y0298628D03*
X0168136Y0298628D03*
X0170104Y0298628D03*
X0170104Y0300596D03*
X0168136Y0300596D03*
X0172073Y0300596D03*
X0172073Y0298628D03*
X0174041Y0298628D03*
X0174041Y0300596D03*
X0176010Y0300596D03*
X0176010Y0298628D03*
X0177978Y0298628D03*
X0177978Y0300596D03*
X0174041Y0306502D03*
X0172073Y0306502D03*
X0172073Y0308470D03*
X0174041Y0308470D03*
X0174041Y0310439D03*
X0172073Y0310439D03*
X0170104Y0310439D03*
X0168136Y0310439D03*
X0168136Y0308470D03*
X0168136Y0306502D03*
X0170104Y0306502D03*
X0170104Y0308470D03*
X0166167Y0308470D03*
X0166167Y0306502D03*
X0166167Y0310439D03*
X0166167Y0336061D03*
X0166167Y0338030D03*
X0166167Y0339998D03*
X0166167Y0341967D03*
X0166167Y0343935D03*
X0166167Y0345904D03*
X0166167Y0347872D03*
X0166167Y0349841D03*
X0166167Y0351809D03*
X0168136Y0351809D03*
X0170104Y0351809D03*
X0170104Y0349841D03*
X0168136Y0349841D03*
X0168136Y0347872D03*
X0170104Y0347872D03*
X0170104Y0345904D03*
X0168136Y0345904D03*
X0168136Y0343935D03*
X0170104Y0343935D03*
X0170104Y0341967D03*
X0168136Y0341967D03*
X0168136Y0339998D03*
X0170104Y0339998D03*
X0170104Y0338030D03*
X0168136Y0338030D03*
X0168136Y0336061D03*
X0170104Y0336061D03*
X0172073Y0336061D03*
X0174041Y0336061D03*
X0174041Y0338030D03*
X0174041Y0339998D03*
X0172073Y0339998D03*
X0172073Y0338030D03*
X0172073Y0341967D03*
X0172073Y0343935D03*
X0174041Y0343935D03*
X0174041Y0341967D03*
X0176010Y0341967D03*
X0176010Y0343935D03*
X0177978Y0343935D03*
X0177978Y0341967D03*
X0179947Y0341967D03*
X0179947Y0343935D03*
X0181915Y0343935D03*
X0181915Y0341967D03*
X0181915Y0339998D03*
X0179947Y0339998D03*
X0179947Y0338030D03*
X0181915Y0338030D03*
X0181915Y0336061D03*
X0179947Y0336061D03*
X0177978Y0336061D03*
X0176010Y0336061D03*
X0176010Y0338030D03*
X0176010Y0339998D03*
X0177978Y0339998D03*
X0177978Y0338030D03*
X0177978Y0345904D03*
X0177978Y0347872D03*
X0176010Y0347872D03*
X0176010Y0345904D03*
X0174041Y0345904D03*
X0174041Y0347872D03*
X0172073Y0347872D03*
X0172073Y0345904D03*
X0172073Y0349841D03*
X0172073Y0351809D03*
X0174041Y0351809D03*
X0174041Y0349841D03*
X0176010Y0349841D03*
X0176010Y0351809D03*
X0177978Y0351809D03*
X0177978Y0349841D03*
X0179947Y0349841D03*
X0179947Y0351809D03*
X0181915Y0351809D03*
X0181915Y0349841D03*
X0181915Y0347872D03*
X0179947Y0347872D03*
X0179947Y0345904D03*
X0181915Y0345904D03*
X0181915Y0377431D03*
X0179947Y0377431D03*
X0179947Y0379400D03*
X0179947Y0381368D03*
X0181915Y0381368D03*
X0181915Y0379400D03*
X0181915Y0383337D03*
X0181915Y0385305D03*
X0179947Y0385305D03*
X0179947Y0383337D03*
X0177978Y0383337D03*
X0177978Y0385305D03*
X0176010Y0385305D03*
X0176010Y0383337D03*
X0174041Y0383337D03*
X0174041Y0385305D03*
X0172073Y0385305D03*
X0172073Y0383337D03*
X0170104Y0383337D03*
X0170104Y0385305D03*
X0168136Y0385305D03*
X0168136Y0383337D03*
X0166167Y0383337D03*
X0166167Y0385305D03*
X0166167Y0387274D03*
X0166167Y0389242D03*
X0166167Y0391211D03*
X0166167Y0393179D03*
X0168136Y0393179D03*
X0170104Y0393179D03*
X0170104Y0391211D03*
X0168136Y0391211D03*
X0168136Y0389242D03*
X0170104Y0389242D03*
X0170104Y0387274D03*
X0168136Y0387274D03*
X0172073Y0387274D03*
X0172073Y0389242D03*
X0174041Y0389242D03*
X0174041Y0387274D03*
X0176010Y0387274D03*
X0176010Y0389242D03*
X0177978Y0389242D03*
X0177978Y0387274D03*
X0179947Y0387274D03*
X0179947Y0389242D03*
X0181915Y0389242D03*
X0181915Y0387274D03*
X0181915Y0391211D03*
X0181915Y0393179D03*
X0179947Y0393179D03*
X0179947Y0391211D03*
X0177978Y0391211D03*
X0177978Y0393179D03*
X0176010Y0393179D03*
X0176010Y0391211D03*
X0174041Y0391211D03*
X0174041Y0393179D03*
X0172073Y0393179D03*
X0172073Y0391211D03*
X0172073Y0381368D03*
X0174041Y0381368D03*
X0174041Y0379400D03*
X0172073Y0379400D03*
X0170104Y0379400D03*
X0170104Y0381368D03*
X0168136Y0381368D03*
X0168136Y0379400D03*
X0166167Y0379400D03*
X0166167Y0381368D03*
X0166167Y0377431D03*
X0168136Y0377431D03*
X0170104Y0377431D03*
X0172073Y0377431D03*
X0174041Y0377431D03*
X0176010Y0377431D03*
X0177978Y0377431D03*
X0177978Y0379400D03*
X0177978Y0381368D03*
X0176010Y0381368D03*
X0176010Y0379400D03*
X0120860Y0379400D03*
X0120860Y0381368D03*
X0118892Y0381368D03*
X0118892Y0379400D03*
X0116923Y0379400D03*
X0116923Y0381368D03*
X0114955Y0381368D03*
X0114955Y0379400D03*
X0112986Y0379400D03*
X0112986Y0381368D03*
X0111018Y0381368D03*
X0111018Y0379400D03*
X0109049Y0379400D03*
X0109049Y0381368D03*
X0107081Y0381368D03*
X0107081Y0379400D03*
X0105112Y0379400D03*
X0105112Y0381368D03*
X0105112Y0383337D03*
X0105112Y0385305D03*
X0105112Y0387274D03*
X0105112Y0389242D03*
X0105112Y0391211D03*
X0105112Y0393179D03*
X0107081Y0393179D03*
X0109049Y0393179D03*
X0109049Y0391211D03*
X0107081Y0391211D03*
X0107081Y0389242D03*
X0109049Y0389242D03*
X0109049Y0387274D03*
X0107081Y0387274D03*
X0107081Y0385305D03*
X0109049Y0385305D03*
X0109049Y0383337D03*
X0107081Y0383337D03*
X0111018Y0383337D03*
X0111018Y0385305D03*
X0112986Y0385305D03*
X0112986Y0383337D03*
X0114955Y0383337D03*
X0114955Y0385305D03*
X0116923Y0385305D03*
X0116923Y0383337D03*
X0118892Y0383337D03*
X0118892Y0385305D03*
X0120860Y0385305D03*
X0120860Y0383337D03*
X0120860Y0387274D03*
X0120860Y0389242D03*
X0118892Y0389242D03*
X0118892Y0387274D03*
X0116923Y0387274D03*
X0116923Y0389242D03*
X0114955Y0389242D03*
X0114955Y0387274D03*
X0112986Y0387274D03*
X0112986Y0389242D03*
X0111018Y0389242D03*
X0111018Y0387274D03*
X0111018Y0391211D03*
X0111018Y0393179D03*
X0112986Y0393179D03*
X0112986Y0391211D03*
X0114955Y0391211D03*
X0114955Y0393179D03*
X0116923Y0393179D03*
X0116923Y0391211D03*
X0118892Y0391211D03*
X0118892Y0393179D03*
X0120860Y0393179D03*
X0120860Y0391211D03*
X0120860Y0377431D03*
X0118892Y0377431D03*
X0116923Y0377431D03*
X0114955Y0377431D03*
X0112986Y0377431D03*
X0111018Y0377431D03*
X0109049Y0377431D03*
X0107081Y0377431D03*
X0105112Y0377431D03*
X0105112Y0351809D03*
X0105112Y0349841D03*
X0107081Y0349841D03*
X0107081Y0351809D03*
X0109049Y0351809D03*
X0109049Y0349841D03*
X0111018Y0349841D03*
X0111018Y0351809D03*
X0112986Y0351809D03*
X0112986Y0349841D03*
X0114955Y0349841D03*
X0114955Y0351809D03*
X0116923Y0351809D03*
X0116923Y0349841D03*
X0118892Y0349841D03*
X0118892Y0351809D03*
X0120860Y0351809D03*
X0120860Y0349841D03*
X0120860Y0347872D03*
X0118892Y0347872D03*
X0118892Y0345904D03*
X0120860Y0345904D03*
X0120860Y0343935D03*
X0118892Y0343935D03*
X0118892Y0341967D03*
X0120860Y0341967D03*
X0120860Y0339998D03*
X0118892Y0339998D03*
X0118892Y0338030D03*
X0120860Y0338030D03*
X0120860Y0336061D03*
X0118892Y0336061D03*
X0116923Y0336061D03*
X0114955Y0336061D03*
X0114955Y0338030D03*
X0114955Y0339998D03*
X0116923Y0339998D03*
X0116923Y0338030D03*
X0116923Y0341967D03*
X0116923Y0343935D03*
X0114955Y0343935D03*
X0114955Y0341967D03*
X0112986Y0341967D03*
X0112986Y0343935D03*
X0111018Y0343935D03*
X0111018Y0341967D03*
X0109049Y0341967D03*
X0109049Y0343935D03*
X0107081Y0343935D03*
X0107081Y0341967D03*
X0105112Y0341967D03*
X0105112Y0343935D03*
X0105112Y0345904D03*
X0105112Y0347872D03*
X0107081Y0347872D03*
X0109049Y0347872D03*
X0109049Y0345904D03*
X0107081Y0345904D03*
X0111018Y0345904D03*
X0111018Y0347872D03*
X0112986Y0347872D03*
X0112986Y0345904D03*
X0114955Y0345904D03*
X0114955Y0347872D03*
X0116923Y0347872D03*
X0116923Y0345904D03*
X0112986Y0339998D03*
X0111018Y0339998D03*
X0111018Y0338030D03*
X0112986Y0338030D03*
X0112986Y0336061D03*
X0111018Y0336061D03*
X0109049Y0336061D03*
X0107081Y0336061D03*
X0107081Y0338030D03*
X0107081Y0339998D03*
X0109049Y0339998D03*
X0109049Y0338030D03*
X0105112Y0338030D03*
X0105112Y0339998D03*
X0105112Y0336061D03*
X0105112Y0310439D03*
X0105112Y0308470D03*
X0105112Y0306502D03*
X0105112Y0304533D03*
X0105112Y0302565D03*
X0105112Y0300596D03*
X0105112Y0298628D03*
X0105112Y0296659D03*
X0105112Y0294691D03*
X0107081Y0294691D03*
X0109049Y0294691D03*
X0109049Y0296659D03*
X0107081Y0296659D03*
X0107081Y0298628D03*
X0109049Y0298628D03*
X0109049Y0300596D03*
X0107081Y0300596D03*
X0107081Y0302565D03*
X0109049Y0302565D03*
X0109049Y0304533D03*
X0107081Y0304533D03*
X0107081Y0306502D03*
X0109049Y0306502D03*
X0109049Y0308470D03*
X0107081Y0308470D03*
X0107081Y0310439D03*
X0109049Y0310439D03*
X0111018Y0310439D03*
X0112986Y0310439D03*
X0112986Y0308470D03*
X0112986Y0306502D03*
X0111018Y0306502D03*
X0111018Y0308470D03*
X0111018Y0304533D03*
X0111018Y0302565D03*
X0112986Y0302565D03*
X0112986Y0304533D03*
X0114955Y0304533D03*
X0114955Y0302565D03*
X0116923Y0302565D03*
X0116923Y0304533D03*
X0118892Y0304533D03*
X0118892Y0302565D03*
X0120860Y0302565D03*
X0120860Y0304533D03*
X0120860Y0306502D03*
X0118892Y0306502D03*
X0118892Y0308470D03*
X0120860Y0308470D03*
X0120860Y0310439D03*
X0118892Y0310439D03*
X0116923Y0310439D03*
X0114955Y0310439D03*
X0114955Y0308470D03*
X0114955Y0306502D03*
X0116923Y0306502D03*
X0116923Y0308470D03*
X0116923Y0300596D03*
X0116923Y0298628D03*
X0114955Y0298628D03*
X0114955Y0300596D03*
X0112986Y0300596D03*
X0112986Y0298628D03*
X0111018Y0298628D03*
X0111018Y0300596D03*
X0111018Y0296659D03*
X0111018Y0294691D03*
X0112986Y0294691D03*
X0112986Y0296659D03*
X0114955Y0296659D03*
X0114955Y0294691D03*
X0116923Y0294691D03*
X0116923Y0296659D03*
X0118892Y0296659D03*
X0118892Y0294691D03*
X0120860Y0294691D03*
X0120860Y0296659D03*
X0120860Y0298628D03*
X0118892Y0298628D03*
X0118892Y0300596D03*
X0120860Y0300596D03*
X0120860Y0269069D03*
X0118892Y0269069D03*
X0118892Y0267100D03*
X0118892Y0265132D03*
X0120860Y0265132D03*
X0120860Y0267100D03*
X0120860Y0263163D03*
X0120860Y0261195D03*
X0118892Y0261195D03*
X0118892Y0263163D03*
X0116923Y0263163D03*
X0116923Y0261195D03*
X0114955Y0261195D03*
X0114955Y0263163D03*
X0112986Y0263163D03*
X0112986Y0261195D03*
X0111018Y0261195D03*
X0111018Y0263163D03*
X0109049Y0263163D03*
X0109049Y0261195D03*
X0107081Y0261195D03*
X0107081Y0263163D03*
X0105112Y0263163D03*
X0105112Y0261195D03*
X0105112Y0259226D03*
X0105112Y0257258D03*
X0105112Y0255289D03*
X0105112Y0253321D03*
X0107081Y0253321D03*
X0109049Y0253321D03*
X0109049Y0255289D03*
X0107081Y0255289D03*
X0107081Y0257258D03*
X0109049Y0257258D03*
X0109049Y0259226D03*
X0107081Y0259226D03*
X0111018Y0259226D03*
X0111018Y0257258D03*
X0112986Y0257258D03*
X0112986Y0259226D03*
X0114955Y0259226D03*
X0114955Y0257258D03*
X0116923Y0257258D03*
X0116923Y0259226D03*
X0118892Y0259226D03*
X0118892Y0257258D03*
X0120860Y0257258D03*
X0120860Y0259226D03*
X0120860Y0255289D03*
X0120860Y0253321D03*
X0118892Y0253321D03*
X0118892Y0255289D03*
X0116923Y0255289D03*
X0116923Y0253321D03*
X0114955Y0253321D03*
X0114955Y0255289D03*
X0112986Y0255289D03*
X0112986Y0253321D03*
X0111018Y0253321D03*
X0111018Y0255289D03*
X0111018Y0265132D03*
X0112986Y0265132D03*
X0112986Y0267100D03*
X0111018Y0267100D03*
X0109049Y0267100D03*
X0109049Y0265132D03*
X0107081Y0265132D03*
X0107081Y0267100D03*
X0105112Y0267100D03*
X0105112Y0265132D03*
X0105112Y0269069D03*
X0107081Y0269069D03*
X0109049Y0269069D03*
X0111018Y0269069D03*
X0112986Y0269069D03*
X0114955Y0269069D03*
X0116923Y0269069D03*
X0116923Y0267100D03*
X0116923Y0265132D03*
X0114955Y0265132D03*
X0114955Y0267100D03*
X0114955Y0227699D03*
X0116923Y0227699D03*
X0116923Y0225730D03*
X0116923Y0223762D03*
X0114955Y0223762D03*
X0114955Y0225730D03*
X0112986Y0225730D03*
X0112986Y0223762D03*
X0111018Y0223762D03*
X0111018Y0225730D03*
X0109049Y0225730D03*
X0109049Y0223762D03*
X0107081Y0223762D03*
X0107081Y0225730D03*
X0107081Y0227699D03*
X0109049Y0227699D03*
X0111018Y0227699D03*
X0112986Y0227699D03*
X0112986Y0221793D03*
X0112986Y0219825D03*
X0111018Y0219825D03*
X0111018Y0221793D03*
X0109049Y0221793D03*
X0109049Y0219825D03*
X0107081Y0219825D03*
X0107081Y0221793D03*
X0105112Y0221793D03*
X0105112Y0219825D03*
X0105112Y0217856D03*
X0105112Y0215888D03*
X0107081Y0215888D03*
X0109049Y0215888D03*
X0109049Y0217856D03*
X0107081Y0217856D03*
X0111018Y0217856D03*
X0112986Y0217856D03*
X0112986Y0215888D03*
X0111018Y0215888D03*
X0111018Y0213919D03*
X0112986Y0213919D03*
X0112986Y0211951D03*
X0111018Y0211951D03*
X0109049Y0211951D03*
X0109049Y0213919D03*
X0107081Y0213919D03*
X0107081Y0211951D03*
X0105112Y0211951D03*
X0105112Y0213919D03*
X0114955Y0213919D03*
X0116923Y0213919D03*
X0116923Y0211951D03*
X0114955Y0211951D03*
X0118892Y0211951D03*
X0120860Y0211951D03*
X0120860Y0213919D03*
X0118892Y0213919D03*
X0118892Y0215888D03*
X0120860Y0215888D03*
X0120860Y0217856D03*
X0118892Y0217856D03*
X0116923Y0217856D03*
X0116923Y0215888D03*
X0114955Y0215888D03*
X0114955Y0217856D03*
X0114955Y0219825D03*
X0116923Y0219825D03*
X0116923Y0221793D03*
X0114955Y0221793D03*
X0118892Y0221793D03*
X0118892Y0219825D03*
X0120860Y0219825D03*
X0120860Y0221793D03*
X0120860Y0223762D03*
X0118892Y0223762D03*
X0118892Y0225730D03*
X0120860Y0225730D03*
X0120860Y0227699D03*
X0118892Y0227699D03*
X0105112Y0227699D03*
X0105112Y0225730D03*
X0105112Y0223762D03*
X0105112Y0186329D03*
X0107081Y0186329D03*
X0109049Y0186329D03*
X0111018Y0186329D03*
X0112986Y0186329D03*
X0114955Y0186329D03*
X0116923Y0186329D03*
X0118892Y0186329D03*
X0120860Y0186329D03*
X0120860Y0184360D03*
X0118892Y0184360D03*
X0118892Y0182392D03*
X0120860Y0182392D03*
X0120860Y0180423D03*
X0118892Y0180423D03*
X0118892Y0178455D03*
X0120860Y0178455D03*
X0120860Y0176486D03*
X0118892Y0176486D03*
X0118892Y0174518D03*
X0120860Y0174518D03*
X0120860Y0172549D03*
X0118892Y0172549D03*
X0118892Y0170581D03*
X0120860Y0170581D03*
X0116923Y0170581D03*
X0116923Y0172549D03*
X0114955Y0172549D03*
X0114955Y0170581D03*
X0112986Y0170581D03*
X0112986Y0172549D03*
X0111018Y0172549D03*
X0111018Y0170581D03*
X0109049Y0170581D03*
X0109049Y0172549D03*
X0107081Y0172549D03*
X0107081Y0170581D03*
X0105112Y0170581D03*
X0105112Y0172549D03*
X0105112Y0174518D03*
X0105112Y0176486D03*
X0105112Y0178455D03*
X0105112Y0180423D03*
X0107081Y0180423D03*
X0109049Y0180423D03*
X0109049Y0178455D03*
X0107081Y0178455D03*
X0107081Y0176486D03*
X0109049Y0176486D03*
X0109049Y0174518D03*
X0107081Y0174518D03*
X0111018Y0174518D03*
X0111018Y0176486D03*
X0112986Y0176486D03*
X0112986Y0174518D03*
X0114955Y0174518D03*
X0114955Y0176486D03*
X0116923Y0176486D03*
X0116923Y0174518D03*
X0116923Y0178455D03*
X0116923Y0180423D03*
X0114955Y0180423D03*
X0114955Y0178455D03*
X0112986Y0178455D03*
X0112986Y0180423D03*
X0111018Y0180423D03*
X0111018Y0178455D03*
X0111018Y0182392D03*
X0111018Y0184360D03*
X0112986Y0184360D03*
X0112986Y0182392D03*
X0114955Y0182392D03*
X0114955Y0184360D03*
X0116923Y0184360D03*
X0116923Y0182392D03*
X0109049Y0182392D03*
X0109049Y0184360D03*
X0107081Y0184360D03*
X0107081Y0182392D03*
X0105112Y0182392D03*
X0105112Y0184360D03*
X0105112Y0144959D03*
X0107081Y0144959D03*
X0109049Y0144959D03*
X0111018Y0144959D03*
X0112986Y0144959D03*
X0114955Y0144959D03*
X0116923Y0144959D03*
X0118892Y0144959D03*
X0120860Y0144959D03*
X0120860Y0142990D03*
X0118892Y0142990D03*
X0118892Y0141022D03*
X0120860Y0141022D03*
X0120860Y0139053D03*
X0118892Y0139053D03*
X0118892Y0137085D03*
X0120860Y0137085D03*
X0120860Y0135116D03*
X0118892Y0135116D03*
X0118892Y0133148D03*
X0120860Y0133148D03*
X0120860Y0131179D03*
X0118892Y0131179D03*
X0118892Y0129211D03*
X0120860Y0129211D03*
X0116923Y0129211D03*
X0116923Y0131179D03*
X0114955Y0131179D03*
X0114955Y0129211D03*
X0112986Y0129211D03*
X0112986Y0131179D03*
X0111018Y0131179D03*
X0111018Y0129211D03*
X0109049Y0129211D03*
X0109049Y0131179D03*
X0107081Y0131179D03*
X0107081Y0129211D03*
X0105112Y0129211D03*
X0105112Y0131179D03*
X0105112Y0133148D03*
X0105112Y0135116D03*
X0105112Y0137085D03*
X0105112Y0139053D03*
X0105112Y0141022D03*
X0105112Y0142990D03*
X0107081Y0142990D03*
X0109049Y0142990D03*
X0109049Y0141022D03*
X0107081Y0141022D03*
X0107081Y0139053D03*
X0109049Y0139053D03*
X0109049Y0137085D03*
X0107081Y0137085D03*
X0107081Y0135116D03*
X0109049Y0135116D03*
X0109049Y0133148D03*
X0107081Y0133148D03*
X0111018Y0133148D03*
X0111018Y0135116D03*
X0112986Y0135116D03*
X0112986Y0133148D03*
X0114955Y0133148D03*
X0114955Y0135116D03*
X0116923Y0135116D03*
X0116923Y0133148D03*
X0116923Y0137085D03*
X0116923Y0139053D03*
X0114955Y0139053D03*
X0114955Y0137085D03*
X0112986Y0137085D03*
X0112986Y0139053D03*
X0111018Y0139053D03*
X0111018Y0137085D03*
X0111018Y0141022D03*
X0111018Y0142990D03*
X0112986Y0142990D03*
X0112986Y0141022D03*
X0114955Y0141022D03*
X0114955Y0142990D03*
X0116923Y0142990D03*
X0116923Y0141022D03*
X0116923Y0103589D03*
X0114955Y0103589D03*
X0112986Y0103589D03*
X0111018Y0103589D03*
X0109049Y0103589D03*
X0107081Y0103589D03*
X0105112Y0103589D03*
X0105112Y0101620D03*
X0105112Y0099652D03*
X0107081Y0099652D03*
X0107081Y0101620D03*
X0109049Y0101620D03*
X0109049Y0099652D03*
X0111018Y0099652D03*
X0111018Y0101620D03*
X0112986Y0101620D03*
X0112986Y0099652D03*
X0114955Y0099652D03*
X0114955Y0101620D03*
X0116923Y0101620D03*
X0116923Y0099652D03*
X0118892Y0099652D03*
X0118892Y0101620D03*
X0120860Y0101620D03*
X0120860Y0099652D03*
X0120860Y0097683D03*
X0118892Y0097683D03*
X0118892Y0095715D03*
X0120860Y0095715D03*
X0120860Y0093746D03*
X0118892Y0093746D03*
X0118892Y0091778D03*
X0120860Y0091778D03*
X0120860Y0089809D03*
X0118892Y0089809D03*
X0118892Y0087841D03*
X0120860Y0087841D03*
X0116923Y0087841D03*
X0116923Y0089809D03*
X0114955Y0089809D03*
X0114955Y0087841D03*
X0112986Y0087841D03*
X0112986Y0089809D03*
X0111018Y0089809D03*
X0111018Y0087841D03*
X0109049Y0087841D03*
X0109049Y0089809D03*
X0107081Y0089809D03*
X0107081Y0087841D03*
X0105112Y0087841D03*
X0105112Y0089809D03*
X0105112Y0091778D03*
X0105112Y0093746D03*
X0105112Y0095715D03*
X0105112Y0097683D03*
X0107081Y0097683D03*
X0109049Y0097683D03*
X0109049Y0095715D03*
X0107081Y0095715D03*
X0107081Y0093746D03*
X0109049Y0093746D03*
X0109049Y0091778D03*
X0107081Y0091778D03*
X0111018Y0091778D03*
X0111018Y0093746D03*
X0112986Y0093746D03*
X0112986Y0091778D03*
X0114955Y0091778D03*
X0114955Y0093746D03*
X0116923Y0093746D03*
X0116923Y0091778D03*
X0116923Y0095715D03*
X0116923Y0097683D03*
X0114955Y0097683D03*
X0114955Y0095715D03*
X0112986Y0095715D03*
X0112986Y0097683D03*
X0111018Y0097683D03*
X0111018Y0095715D03*
X0118892Y0103589D03*
X0120860Y0103589D03*
X0120860Y0062219D03*
X0118892Y0062219D03*
X0116923Y0062219D03*
X0114955Y0062219D03*
X0112986Y0062219D03*
X0111018Y0062219D03*
X0109049Y0062219D03*
X0107081Y0062219D03*
X0105112Y0062219D03*
X0105112Y0060250D03*
X0105112Y0058281D03*
X0105112Y0056313D03*
X0105112Y0054344D03*
X0105112Y0052376D03*
X0105112Y0050407D03*
X0105112Y0048439D03*
X0105112Y0046470D03*
X0107081Y0046470D03*
X0109049Y0046470D03*
X0111018Y0046470D03*
X0112986Y0046470D03*
X0114955Y0046470D03*
X0116923Y0046470D03*
X0118892Y0046470D03*
X0120860Y0046470D03*
X0120860Y0048439D03*
X0118892Y0048439D03*
X0118892Y0050407D03*
X0120860Y0050407D03*
X0120860Y0052376D03*
X0118892Y0052376D03*
X0118892Y0054344D03*
X0120860Y0054344D03*
X0120860Y0056313D03*
X0118892Y0056313D03*
X0118892Y0058281D03*
X0120860Y0058281D03*
X0120860Y0060250D03*
X0118892Y0060250D03*
X0116923Y0060250D03*
X0114955Y0060250D03*
X0114955Y0058281D03*
X0114955Y0056313D03*
X0116923Y0056313D03*
X0116923Y0058281D03*
X0116923Y0054344D03*
X0116923Y0052376D03*
X0114955Y0052376D03*
X0114955Y0054344D03*
X0112986Y0054344D03*
X0112986Y0052376D03*
X0111018Y0052376D03*
X0111018Y0054344D03*
X0109049Y0054344D03*
X0109049Y0052376D03*
X0107081Y0052376D03*
X0107081Y0054344D03*
X0107081Y0056313D03*
X0109049Y0056313D03*
X0109049Y0058281D03*
X0107081Y0058281D03*
X0107081Y0060250D03*
X0109049Y0060250D03*
X0111018Y0060250D03*
X0112986Y0060250D03*
X0112986Y0058281D03*
X0112986Y0056313D03*
X0111018Y0056313D03*
X0111018Y0058281D03*
X0111018Y0050407D03*
X0111018Y0048439D03*
X0112986Y0048439D03*
X0112986Y0050407D03*
X0114955Y0050407D03*
X0114955Y0048439D03*
X0116923Y0048439D03*
X0116923Y0050407D03*
X0109049Y0050407D03*
X0109049Y0048439D03*
X0107081Y0048439D03*
X0107081Y0050407D03*
X0059805Y0050407D03*
X0059805Y0048439D03*
X0057837Y0048439D03*
X0057837Y0050407D03*
X0055868Y0050407D03*
X0055868Y0048439D03*
X0053900Y0048439D03*
X0053900Y0050407D03*
X0051931Y0050407D03*
X0051931Y0048439D03*
X0049963Y0048439D03*
X0049963Y0050407D03*
X0047994Y0050407D03*
X0047994Y0048439D03*
X0046026Y0048439D03*
X0046026Y0050407D03*
X0044057Y0050407D03*
X0044057Y0048439D03*
X0044057Y0046470D03*
X0046026Y0046470D03*
X0047994Y0046470D03*
X0049963Y0046470D03*
X0051931Y0046470D03*
X0053900Y0046470D03*
X0055868Y0046470D03*
X0057837Y0046470D03*
X0059805Y0046470D03*
X0059805Y0052376D03*
X0057837Y0052376D03*
X0057837Y0054344D03*
X0059805Y0054344D03*
X0059805Y0056313D03*
X0057837Y0056313D03*
X0057837Y0058281D03*
X0059805Y0058281D03*
X0059805Y0060250D03*
X0057837Y0060250D03*
X0057837Y0062219D03*
X0059805Y0062219D03*
X0055868Y0062219D03*
X0053900Y0062219D03*
X0051931Y0062219D03*
X0049963Y0062219D03*
X0047994Y0062219D03*
X0046026Y0062219D03*
X0044057Y0062219D03*
X0044057Y0060250D03*
X0044057Y0058281D03*
X0044057Y0056313D03*
X0044057Y0054344D03*
X0044057Y0052376D03*
X0046026Y0052376D03*
X0047994Y0052376D03*
X0047994Y0054344D03*
X0046026Y0054344D03*
X0046026Y0056313D03*
X0047994Y0056313D03*
X0047994Y0058281D03*
X0046026Y0058281D03*
X0046026Y0060250D03*
X0047994Y0060250D03*
X0049963Y0060250D03*
X0051931Y0060250D03*
X0051931Y0058281D03*
X0051931Y0056313D03*
X0049963Y0056313D03*
X0049963Y0058281D03*
X0049963Y0054344D03*
X0049963Y0052376D03*
X0051931Y0052376D03*
X0051931Y0054344D03*
X0053900Y0054344D03*
X0053900Y0052376D03*
X0055868Y0052376D03*
X0055868Y0054344D03*
X0055868Y0056313D03*
X0053900Y0056313D03*
X0053900Y0058281D03*
X0055868Y0058281D03*
X0055868Y0060250D03*
X0053900Y0060250D03*
X0053900Y0087841D03*
X0053900Y0089809D03*
X0055868Y0089809D03*
X0055868Y0087841D03*
X0057837Y0087841D03*
X0057837Y0089809D03*
X0059805Y0089809D03*
X0059805Y0087841D03*
X0059805Y0091778D03*
X0059805Y0093746D03*
X0057837Y0093746D03*
X0057837Y0091778D03*
X0055868Y0091778D03*
X0055868Y0093746D03*
X0053900Y0093746D03*
X0053900Y0091778D03*
X0051931Y0091778D03*
X0051931Y0093746D03*
X0049963Y0093746D03*
X0049963Y0091778D03*
X0047994Y0091778D03*
X0047994Y0093746D03*
X0046026Y0093746D03*
X0046026Y0091778D03*
X0044057Y0091778D03*
X0044057Y0093746D03*
X0044057Y0095715D03*
X0044057Y0097683D03*
X0046026Y0097683D03*
X0047994Y0097683D03*
X0047994Y0095715D03*
X0046026Y0095715D03*
X0046026Y0099652D03*
X0047994Y0099652D03*
X0047994Y0101620D03*
X0046026Y0101620D03*
X0046026Y0103589D03*
X0047994Y0103589D03*
X0049963Y0103589D03*
X0051931Y0103589D03*
X0053900Y0103589D03*
X0055868Y0103589D03*
X0057837Y0103589D03*
X0059805Y0103589D03*
X0059805Y0101620D03*
X0057837Y0101620D03*
X0057837Y0099652D03*
X0059805Y0099652D03*
X0059805Y0097683D03*
X0057837Y0097683D03*
X0057837Y0095715D03*
X0059805Y0095715D03*
X0055868Y0095715D03*
X0055868Y0097683D03*
X0053900Y0097683D03*
X0053900Y0095715D03*
X0051931Y0095715D03*
X0051931Y0097683D03*
X0049963Y0097683D03*
X0049963Y0095715D03*
X0049963Y0099652D03*
X0051931Y0099652D03*
X0051931Y0101620D03*
X0049963Y0101620D03*
X0053900Y0101620D03*
X0055868Y0101620D03*
X0055868Y0099652D03*
X0053900Y0099652D03*
X0044057Y0099652D03*
X0044057Y0101620D03*
X0044057Y0103589D03*
X0044057Y0089809D03*
X0044057Y0087841D03*
X0046026Y0087841D03*
X0046026Y0089809D03*
X0047994Y0089809D03*
X0047994Y0087841D03*
X0049963Y0087841D03*
X0049963Y0089809D03*
X0051931Y0089809D03*
X0051931Y0087841D03*
X0051931Y0129211D03*
X0051931Y0131179D03*
X0049963Y0131179D03*
X0049963Y0129211D03*
X0047994Y0129211D03*
X0047994Y0131179D03*
X0046026Y0131179D03*
X0046026Y0129211D03*
X0044057Y0129211D03*
X0044057Y0131179D03*
X0044057Y0133148D03*
X0044057Y0135116D03*
X0046026Y0135116D03*
X0047994Y0135116D03*
X0047994Y0133148D03*
X0046026Y0133148D03*
X0049963Y0133148D03*
X0051931Y0133148D03*
X0051931Y0135116D03*
X0049963Y0135116D03*
X0049963Y0137085D03*
X0051931Y0137085D03*
X0051931Y0139053D03*
X0049963Y0139053D03*
X0049963Y0141022D03*
X0051931Y0141022D03*
X0051931Y0142990D03*
X0049963Y0142990D03*
X0049963Y0144959D03*
X0051931Y0144959D03*
X0053900Y0144959D03*
X0055868Y0144959D03*
X0057837Y0144959D03*
X0059805Y0144959D03*
X0059805Y0142990D03*
X0059805Y0141022D03*
X0057837Y0141022D03*
X0057837Y0142990D03*
X0055868Y0142990D03*
X0055868Y0141022D03*
X0053900Y0141022D03*
X0053900Y0142990D03*
X0053900Y0139053D03*
X0055868Y0139053D03*
X0055868Y0137085D03*
X0053900Y0137085D03*
X0053900Y0135116D03*
X0055868Y0135116D03*
X0055868Y0133148D03*
X0053900Y0133148D03*
X0053900Y0131179D03*
X0055868Y0131179D03*
X0055868Y0129211D03*
X0053900Y0129211D03*
X0057837Y0129211D03*
X0059805Y0129211D03*
X0059805Y0131179D03*
X0057837Y0131179D03*
X0057837Y0133148D03*
X0059805Y0133148D03*
X0059805Y0135116D03*
X0057837Y0135116D03*
X0057837Y0137085D03*
X0059805Y0137085D03*
X0059805Y0139053D03*
X0057837Y0139053D03*
X0047994Y0139053D03*
X0047994Y0137085D03*
X0046026Y0137085D03*
X0046026Y0139053D03*
X0046026Y0141022D03*
X0047994Y0141022D03*
X0047994Y0142990D03*
X0046026Y0142990D03*
X0046026Y0144959D03*
X0047994Y0144959D03*
X0044057Y0144959D03*
X0044057Y0142990D03*
X0044057Y0141022D03*
X0044057Y0139053D03*
X0044057Y0137085D03*
X0044057Y0170581D03*
X0044057Y0172549D03*
X0046026Y0172549D03*
X0047994Y0172549D03*
X0047994Y0170581D03*
X0046026Y0170581D03*
X0049963Y0170581D03*
X0051931Y0170581D03*
X0051931Y0172549D03*
X0049963Y0172549D03*
X0049963Y0174518D03*
X0051931Y0174518D03*
X0051931Y0176486D03*
X0049963Y0176486D03*
X0049963Y0178455D03*
X0051931Y0178455D03*
X0051931Y0180423D03*
X0049963Y0180423D03*
X0049963Y0182392D03*
X0051931Y0182392D03*
X0051931Y0184360D03*
X0049963Y0184360D03*
X0049963Y0186329D03*
X0051931Y0186329D03*
X0053900Y0186329D03*
X0055868Y0186329D03*
X0057837Y0186329D03*
X0059805Y0186329D03*
X0059805Y0184360D03*
X0059805Y0182392D03*
X0057837Y0182392D03*
X0057837Y0184360D03*
X0055868Y0184360D03*
X0055868Y0182392D03*
X0053900Y0182392D03*
X0053900Y0184360D03*
X0053900Y0180423D03*
X0055868Y0180423D03*
X0055868Y0178455D03*
X0053900Y0178455D03*
X0053900Y0176486D03*
X0055868Y0176486D03*
X0055868Y0174518D03*
X0053900Y0174518D03*
X0053900Y0172549D03*
X0055868Y0172549D03*
X0055868Y0170581D03*
X0053900Y0170581D03*
X0057837Y0170581D03*
X0059805Y0170581D03*
X0059805Y0172549D03*
X0057837Y0172549D03*
X0057837Y0174518D03*
X0059805Y0174518D03*
X0059805Y0176486D03*
X0057837Y0176486D03*
X0057837Y0178455D03*
X0059805Y0178455D03*
X0059805Y0180423D03*
X0057837Y0180423D03*
X0047994Y0180423D03*
X0047994Y0178455D03*
X0046026Y0178455D03*
X0046026Y0180423D03*
X0046026Y0182392D03*
X0047994Y0182392D03*
X0047994Y0184360D03*
X0046026Y0184360D03*
X0046026Y0186329D03*
X0047994Y0186329D03*
X0044057Y0186329D03*
X0044057Y0184360D03*
X0044057Y0182392D03*
X0044057Y0180423D03*
X0044057Y0178455D03*
X0044057Y0176486D03*
X0044057Y0174518D03*
X0046026Y0174518D03*
X0047994Y0174518D03*
X0047994Y0176486D03*
X0046026Y0176486D03*
X0046026Y0211951D03*
X0047994Y0211951D03*
X0047994Y0213919D03*
X0046026Y0213919D03*
X0046026Y0215888D03*
X0047994Y0215888D03*
X0047994Y0217856D03*
X0046026Y0217856D03*
X0046026Y0219825D03*
X0047994Y0219825D03*
X0047994Y0221793D03*
X0046026Y0221793D03*
X0046026Y0223762D03*
X0047994Y0223762D03*
X0047994Y0225730D03*
X0046026Y0225730D03*
X0046026Y0227699D03*
X0047994Y0227699D03*
X0049963Y0227699D03*
X0051931Y0227699D03*
X0053900Y0227699D03*
X0055868Y0227699D03*
X0057837Y0227699D03*
X0059805Y0227699D03*
X0059805Y0225730D03*
X0059805Y0223762D03*
X0057837Y0223762D03*
X0057837Y0225730D03*
X0055868Y0225730D03*
X0055868Y0223762D03*
X0053900Y0223762D03*
X0053900Y0225730D03*
X0051931Y0225730D03*
X0051931Y0223762D03*
X0049963Y0223762D03*
X0049963Y0225730D03*
X0049963Y0221793D03*
X0051931Y0221793D03*
X0051931Y0219825D03*
X0049963Y0219825D03*
X0049963Y0217856D03*
X0051931Y0217856D03*
X0051931Y0215888D03*
X0049963Y0215888D03*
X0049963Y0213919D03*
X0051931Y0213919D03*
X0051931Y0211951D03*
X0049963Y0211951D03*
X0053900Y0211951D03*
X0055868Y0211951D03*
X0055868Y0213919D03*
X0053900Y0213919D03*
X0053900Y0215888D03*
X0055868Y0215888D03*
X0055868Y0217856D03*
X0053900Y0217856D03*
X0053900Y0219825D03*
X0055868Y0219825D03*
X0055868Y0221793D03*
X0053900Y0221793D03*
X0057837Y0221793D03*
X0059805Y0221793D03*
X0059805Y0219825D03*
X0057837Y0219825D03*
X0057837Y0217856D03*
X0059805Y0217856D03*
X0059805Y0215888D03*
X0057837Y0215888D03*
X0057837Y0213919D03*
X0059805Y0213919D03*
X0059805Y0211951D03*
X0057837Y0211951D03*
X0044057Y0211951D03*
X0044057Y0213919D03*
X0044057Y0215888D03*
X0044057Y0217856D03*
X0044057Y0219825D03*
X0044057Y0221793D03*
X0044057Y0223762D03*
X0044057Y0225730D03*
X0044057Y0227699D03*
X0044057Y0253321D03*
X0044057Y0255289D03*
X0046026Y0255289D03*
X0047994Y0255289D03*
X0047994Y0253321D03*
X0046026Y0253321D03*
X0049963Y0253321D03*
X0051931Y0253321D03*
X0051931Y0255289D03*
X0049963Y0255289D03*
X0049963Y0257258D03*
X0051931Y0257258D03*
X0051931Y0259226D03*
X0049963Y0259226D03*
X0049963Y0261195D03*
X0051931Y0261195D03*
X0051931Y0263163D03*
X0049963Y0263163D03*
X0049963Y0265132D03*
X0051931Y0265132D03*
X0051931Y0267100D03*
X0049963Y0267100D03*
X0049963Y0269069D03*
X0051931Y0269069D03*
X0053900Y0269069D03*
X0055868Y0269069D03*
X0055868Y0267100D03*
X0055868Y0265132D03*
X0053900Y0265132D03*
X0053900Y0267100D03*
X0053900Y0263163D03*
X0053900Y0261195D03*
X0055868Y0261195D03*
X0055868Y0263163D03*
X0057837Y0263163D03*
X0057837Y0261195D03*
X0059805Y0261195D03*
X0059805Y0263163D03*
X0059805Y0265132D03*
X0057837Y0265132D03*
X0057837Y0267100D03*
X0059805Y0267100D03*
X0059805Y0269069D03*
X0057837Y0269069D03*
X0057837Y0259226D03*
X0057837Y0257258D03*
X0059805Y0257258D03*
X0059805Y0259226D03*
X0059805Y0255289D03*
X0059805Y0253321D03*
X0057837Y0253321D03*
X0057837Y0255289D03*
X0055868Y0255289D03*
X0055868Y0253321D03*
X0053900Y0253321D03*
X0053900Y0255289D03*
X0053900Y0257258D03*
X0055868Y0257258D03*
X0055868Y0259226D03*
X0053900Y0259226D03*
X0047994Y0259226D03*
X0047994Y0257258D03*
X0046026Y0257258D03*
X0046026Y0259226D03*
X0046026Y0261195D03*
X0047994Y0261195D03*
X0047994Y0263163D03*
X0046026Y0263163D03*
X0046026Y0265132D03*
X0047994Y0265132D03*
X0047994Y0267100D03*
X0046026Y0267100D03*
X0046026Y0269069D03*
X0047994Y0269069D03*
X0044057Y0269069D03*
X0044057Y0267100D03*
X0044057Y0265132D03*
X0044057Y0263163D03*
X0044057Y0261195D03*
X0044057Y0259226D03*
X0044057Y0257258D03*
X0044057Y0294691D03*
X0044057Y0296659D03*
X0046026Y0296659D03*
X0046026Y0294691D03*
X0047994Y0294691D03*
X0047994Y0296659D03*
X0049963Y0296659D03*
X0049963Y0294691D03*
X0051931Y0294691D03*
X0051931Y0296659D03*
X0053900Y0296659D03*
X0053900Y0294691D03*
X0055868Y0294691D03*
X0055868Y0296659D03*
X0057837Y0296659D03*
X0057837Y0294691D03*
X0059805Y0294691D03*
X0059805Y0296659D03*
X0059805Y0298628D03*
X0057837Y0298628D03*
X0057837Y0300596D03*
X0059805Y0300596D03*
X0059805Y0302565D03*
X0057837Y0302565D03*
X0057837Y0304533D03*
X0059805Y0304533D03*
X0059805Y0306502D03*
X0057837Y0306502D03*
X0057837Y0308470D03*
X0059805Y0308470D03*
X0059805Y0310439D03*
X0057837Y0310439D03*
X0055868Y0310439D03*
X0053900Y0310439D03*
X0053900Y0308470D03*
X0053900Y0306502D03*
X0055868Y0306502D03*
X0055868Y0308470D03*
X0055868Y0304533D03*
X0055868Y0302565D03*
X0053900Y0302565D03*
X0053900Y0304533D03*
X0051931Y0304533D03*
X0051931Y0302565D03*
X0049963Y0302565D03*
X0049963Y0304533D03*
X0047994Y0304533D03*
X0047994Y0302565D03*
X0046026Y0302565D03*
X0046026Y0304533D03*
X0044057Y0304533D03*
X0044057Y0302565D03*
X0044057Y0300596D03*
X0044057Y0298628D03*
X0046026Y0298628D03*
X0047994Y0298628D03*
X0047994Y0300596D03*
X0046026Y0300596D03*
X0049963Y0300596D03*
X0049963Y0298628D03*
X0051931Y0298628D03*
X0051931Y0300596D03*
X0053900Y0300596D03*
X0053900Y0298628D03*
X0055868Y0298628D03*
X0055868Y0300596D03*
X0051931Y0306502D03*
X0049963Y0306502D03*
X0049963Y0308470D03*
X0051931Y0308470D03*
X0051931Y0310439D03*
X0049963Y0310439D03*
X0047994Y0310439D03*
X0046026Y0310439D03*
X0046026Y0308470D03*
X0046026Y0306502D03*
X0047994Y0306502D03*
X0047994Y0308470D03*
X0044057Y0308470D03*
X0044057Y0306502D03*
X0044057Y0310439D03*
X0044057Y0336061D03*
X0044057Y0338030D03*
X0044057Y0339998D03*
X0044057Y0341967D03*
X0044057Y0343935D03*
X0044057Y0345904D03*
X0044057Y0347872D03*
X0046026Y0347872D03*
X0047994Y0347872D03*
X0047994Y0345904D03*
X0046026Y0345904D03*
X0046026Y0343935D03*
X0047994Y0343935D03*
X0047994Y0341967D03*
X0046026Y0341967D03*
X0046026Y0339998D03*
X0047994Y0339998D03*
X0047994Y0338030D03*
X0046026Y0338030D03*
X0046026Y0336061D03*
X0047994Y0336061D03*
X0049963Y0336061D03*
X0051931Y0336061D03*
X0051931Y0338030D03*
X0051931Y0339998D03*
X0049963Y0339998D03*
X0049963Y0338030D03*
X0049963Y0341967D03*
X0049963Y0343935D03*
X0051931Y0343935D03*
X0051931Y0341967D03*
X0053900Y0341967D03*
X0053900Y0343935D03*
X0055868Y0343935D03*
X0055868Y0341967D03*
X0057837Y0341967D03*
X0057837Y0343935D03*
X0059805Y0343935D03*
X0059805Y0341967D03*
X0059805Y0339998D03*
X0057837Y0339998D03*
X0057837Y0338030D03*
X0059805Y0338030D03*
X0059805Y0336061D03*
X0057837Y0336061D03*
X0055868Y0336061D03*
X0053900Y0336061D03*
X0053900Y0338030D03*
X0053900Y0339998D03*
X0055868Y0339998D03*
X0055868Y0338030D03*
X0055868Y0345904D03*
X0055868Y0347872D03*
X0053900Y0347872D03*
X0053900Y0345904D03*
X0051931Y0345904D03*
X0051931Y0347872D03*
X0049963Y0347872D03*
X0049963Y0345904D03*
X0049963Y0349841D03*
X0051931Y0349841D03*
X0051931Y0351809D03*
X0049963Y0351809D03*
X0047994Y0351809D03*
X0046026Y0351809D03*
X0046026Y0349841D03*
X0047994Y0349841D03*
X0044057Y0349841D03*
X0044057Y0351809D03*
X0053900Y0351809D03*
X0055868Y0351809D03*
X0055868Y0349841D03*
X0053900Y0349841D03*
X0057837Y0349841D03*
X0057837Y0351809D03*
X0059805Y0351809D03*
X0059805Y0349841D03*
X0059805Y0347872D03*
X0057837Y0347872D03*
X0057837Y0345904D03*
X0059805Y0345904D03*
X0059805Y0377431D03*
X0057837Y0377431D03*
X0057837Y0379400D03*
X0057837Y0381368D03*
X0059805Y0381368D03*
X0059805Y0379400D03*
X0059805Y0383337D03*
X0059805Y0385305D03*
X0057837Y0385305D03*
X0057837Y0383337D03*
X0055868Y0383337D03*
X0055868Y0385305D03*
X0053900Y0385305D03*
X0053900Y0383337D03*
X0051931Y0383337D03*
X0051931Y0385305D03*
X0049963Y0385305D03*
X0049963Y0383337D03*
X0049963Y0381368D03*
X0051931Y0381368D03*
X0051931Y0379400D03*
X0049963Y0379400D03*
X0047994Y0379400D03*
X0047994Y0381368D03*
X0046026Y0381368D03*
X0046026Y0379400D03*
X0044057Y0379400D03*
X0044057Y0381368D03*
X0044057Y0383337D03*
X0044057Y0385305D03*
X0046026Y0385305D03*
X0047994Y0385305D03*
X0047994Y0383337D03*
X0046026Y0383337D03*
X0046026Y0387274D03*
X0047994Y0387274D03*
X0047994Y0389242D03*
X0046026Y0389242D03*
X0046026Y0391211D03*
X0047994Y0391211D03*
X0047994Y0393179D03*
X0046026Y0393179D03*
X0044057Y0393179D03*
X0044057Y0391211D03*
X0044057Y0389242D03*
X0044057Y0387274D03*
X0049963Y0387274D03*
X0051931Y0387274D03*
X0051931Y0389242D03*
X0049963Y0389242D03*
X0049963Y0391211D03*
X0051931Y0391211D03*
X0051931Y0393179D03*
X0049963Y0393179D03*
X0053900Y0393179D03*
X0055868Y0393179D03*
X0055868Y0391211D03*
X0053900Y0391211D03*
X0053900Y0389242D03*
X0055868Y0389242D03*
X0055868Y0387274D03*
X0053900Y0387274D03*
X0057837Y0387274D03*
X0057837Y0389242D03*
X0059805Y0389242D03*
X0059805Y0387274D03*
X0059805Y0391211D03*
X0059805Y0393179D03*
X0057837Y0393179D03*
X0057837Y0391211D03*
X0055868Y0381368D03*
X0053900Y0381368D03*
X0053900Y0379400D03*
X0055868Y0379400D03*
X0055868Y0377431D03*
X0053900Y0377431D03*
X0051931Y0377431D03*
X0049963Y0377431D03*
X0047994Y0377431D03*
X0046026Y0377431D03*
X0044057Y0377431D03*
D12*
X0063100Y0371128D03*
X0063100Y0367191D03*
X0068415Y0367191D03*
X0068415Y0371128D03*
X0068415Y0329758D03*
X0068415Y0325821D03*
X0063100Y0325821D03*
X0063100Y0329758D03*
X0063100Y0288388D03*
X0063100Y0284451D03*
X0068415Y0284451D03*
X0068415Y0288388D03*
X0068415Y0247018D03*
X0068415Y0243081D03*
X0063100Y0243081D03*
X0063100Y0247018D03*
X0063100Y0205648D03*
X0063100Y0201711D03*
X0068415Y0201711D03*
X0068415Y0205648D03*
X0068415Y0164278D03*
X0068415Y0160341D03*
X0063100Y0160341D03*
X0063100Y0164278D03*
X0063100Y0122908D03*
X0063100Y0118971D03*
X0068415Y0118971D03*
X0068415Y0122908D03*
X0068415Y0081537D03*
X0068415Y0077600D03*
X0063100Y0077600D03*
X0063100Y0081537D03*
X0063100Y0040167D03*
X0063100Y0036230D03*
X0068415Y0036230D03*
X0068415Y0040167D03*
X0124155Y0040167D03*
X0124155Y0036230D03*
X0129470Y0036230D03*
X0129470Y0040167D03*
X0129470Y0077600D03*
X0129470Y0081537D03*
X0124155Y0081537D03*
X0124155Y0077600D03*
X0124155Y0118971D03*
X0124155Y0122908D03*
X0129470Y0122908D03*
X0129470Y0118971D03*
X0129470Y0160341D03*
X0129470Y0164278D03*
X0124155Y0164278D03*
X0124155Y0160341D03*
X0124155Y0201711D03*
X0124155Y0205648D03*
X0129470Y0205648D03*
X0129470Y0201711D03*
X0129470Y0243081D03*
X0129470Y0247018D03*
X0124155Y0247018D03*
X0124155Y0243081D03*
X0124155Y0284451D03*
X0124155Y0288388D03*
X0129470Y0288388D03*
X0129470Y0284451D03*
X0129470Y0325821D03*
X0129470Y0329758D03*
X0124155Y0329758D03*
X0124155Y0325821D03*
X0124155Y0367191D03*
X0124155Y0371128D03*
X0129470Y0371128D03*
X0129470Y0367191D03*
X0185211Y0367191D03*
X0185211Y0371128D03*
X0190526Y0371128D03*
X0190526Y0367191D03*
X0190526Y0329758D03*
X0190526Y0325821D03*
X0185211Y0325821D03*
X0185211Y0329758D03*
X0185211Y0288388D03*
X0185211Y0284451D03*
X0190526Y0284451D03*
X0190526Y0288388D03*
X0190526Y0247018D03*
X0190526Y0243081D03*
X0185211Y0243081D03*
X0185211Y0247018D03*
X0185211Y0205648D03*
X0185211Y0201711D03*
X0190526Y0201711D03*
X0190526Y0205648D03*
X0190526Y0164278D03*
X0190526Y0160341D03*
X0185211Y0160341D03*
X0185211Y0164278D03*
X0185211Y0122908D03*
X0185211Y0118971D03*
X0190526Y0118971D03*
X0190526Y0122908D03*
X0190526Y0081537D03*
X0190526Y0077600D03*
X0185211Y0077600D03*
X0185211Y0081537D03*
X0185211Y0040167D03*
X0185211Y0036230D03*
X0190526Y0036230D03*
X0190526Y0040167D03*
X0246266Y0040167D03*
X0246266Y0036230D03*
X0251581Y0036230D03*
X0251581Y0040167D03*
X0251581Y0077600D03*
X0251581Y0081537D03*
X0246266Y0081537D03*
X0246266Y0077600D03*
X0246266Y0118971D03*
X0246266Y0122908D03*
X0251581Y0122908D03*
X0251581Y0118971D03*
X0251581Y0160341D03*
X0251581Y0164278D03*
X0246266Y0164278D03*
X0246266Y0160341D03*
X0246266Y0201711D03*
X0246266Y0205648D03*
X0251581Y0205648D03*
X0251581Y0201711D03*
X0251581Y0243081D03*
X0251581Y0247018D03*
X0246266Y0247018D03*
X0246266Y0243081D03*
X0246266Y0284451D03*
X0246266Y0288388D03*
X0251581Y0288388D03*
X0251581Y0284451D03*
X0251581Y0325821D03*
X0251581Y0329758D03*
X0246266Y0329758D03*
X0246266Y0325821D03*
X0246266Y0367191D03*
X0246266Y0371128D03*
X0251581Y0371128D03*
X0251581Y0367191D03*
X0307321Y0367191D03*
X0307321Y0371128D03*
X0312636Y0371128D03*
X0312636Y0367191D03*
X0312636Y0329758D03*
X0312636Y0325821D03*
X0307321Y0325821D03*
X0307321Y0329758D03*
X0307321Y0288388D03*
X0307321Y0284451D03*
X0312636Y0284451D03*
X0312636Y0288388D03*
X0312636Y0247018D03*
X0312636Y0243081D03*
X0307321Y0243081D03*
X0307321Y0247018D03*
X0307321Y0205648D03*
X0307321Y0201711D03*
X0312636Y0201711D03*
X0312636Y0205648D03*
X0312636Y0164278D03*
X0312636Y0160341D03*
X0307321Y0160341D03*
X0307321Y0164278D03*
X0307321Y0122908D03*
X0307321Y0118971D03*
X0312636Y0118971D03*
X0312636Y0122908D03*
X0312636Y0081537D03*
X0312636Y0077600D03*
X0307321Y0077600D03*
X0307321Y0081537D03*
X0307321Y0040167D03*
X0307321Y0036230D03*
X0312636Y0036230D03*
X0312636Y0040167D03*
X0368376Y0040167D03*
X0368376Y0036230D03*
X0373691Y0036230D03*
X0373691Y0040167D03*
X0373691Y0077600D03*
X0373691Y0081537D03*
X0368376Y0081537D03*
X0368376Y0077600D03*
X0368376Y0118971D03*
X0368376Y0122908D03*
X0373691Y0122908D03*
X0373691Y0118971D03*
X0373691Y0160341D03*
X0373691Y0164278D03*
X0368376Y0164278D03*
X0368376Y0160341D03*
X0368376Y0201711D03*
X0368376Y0205648D03*
X0373691Y0205648D03*
X0373691Y0201711D03*
X0373691Y0243081D03*
X0373691Y0247018D03*
X0368376Y0247018D03*
X0368376Y0243081D03*
X0368376Y0284451D03*
X0368376Y0288388D03*
X0373691Y0288388D03*
X0373691Y0284451D03*
X0373691Y0325821D03*
X0373691Y0329758D03*
X0368376Y0329758D03*
X0368376Y0325821D03*
X0368376Y0367191D03*
X0368376Y0371128D03*
X0373691Y0371128D03*
X0373691Y0367191D03*
D13*
X0376939Y0367191D03*
X0376939Y0371128D03*
X0376939Y0375459D03*
X0376939Y0379396D03*
X0373002Y0379396D03*
X0369935Y0379486D03*
X0369805Y0382541D03*
X0369852Y0386089D03*
X0369852Y0389632D03*
X0373789Y0389632D03*
X0373789Y0386089D03*
X0376939Y0386089D03*
X0380876Y0386089D03*
X0373742Y0382541D03*
X0373002Y0375459D03*
X0369935Y0375549D03*
X0364341Y0371128D03*
X0361191Y0371128D03*
X0361191Y0367191D03*
X0364341Y0367191D03*
X0364734Y0363648D03*
X0360797Y0363648D03*
X0369065Y0363648D03*
X0373002Y0363648D03*
X0373789Y0348262D03*
X0373789Y0344719D03*
X0376939Y0344719D03*
X0380876Y0344719D03*
X0376939Y0338026D03*
X0373002Y0338026D03*
X0369935Y0338116D03*
X0369805Y0341171D03*
X0369852Y0344719D03*
X0369852Y0348262D03*
X0373742Y0341171D03*
X0373002Y0334089D03*
X0369935Y0334179D03*
X0376939Y0334089D03*
X0376939Y0329758D03*
X0376939Y0325821D03*
X0373002Y0322278D03*
X0369065Y0322278D03*
X0364734Y0322278D03*
X0364341Y0325821D03*
X0361191Y0325821D03*
X0360797Y0322278D03*
X0361191Y0329758D03*
X0364341Y0329758D03*
X0347805Y0328971D03*
X0344656Y0328971D03*
X0341506Y0328971D03*
X0338356Y0328971D03*
X0338356Y0325034D03*
X0341506Y0325034D03*
X0344656Y0325034D03*
X0347805Y0325034D03*
X0344262Y0342356D03*
X0344262Y0345506D03*
X0344262Y0348656D03*
X0340325Y0348656D03*
X0340325Y0345506D03*
X0340325Y0342356D03*
X0319821Y0344719D03*
X0315884Y0344719D03*
X0312734Y0344719D03*
X0312734Y0348262D03*
X0308797Y0348262D03*
X0308797Y0344719D03*
X0308750Y0341171D03*
X0308880Y0338116D03*
X0311947Y0338026D03*
X0312687Y0341171D03*
X0315884Y0338026D03*
X0315884Y0334089D03*
X0311947Y0334089D03*
X0308880Y0334179D03*
X0303285Y0329758D03*
X0300136Y0329758D03*
X0300136Y0325821D03*
X0303285Y0325821D03*
X0303679Y0322278D03*
X0299742Y0322278D03*
X0308010Y0322278D03*
X0311947Y0322278D03*
X0315884Y0325821D03*
X0315884Y0329758D03*
X0312734Y0306892D03*
X0312734Y0303348D03*
X0315884Y0303348D03*
X0319821Y0303348D03*
X0315884Y0296656D03*
X0311947Y0296656D03*
X0308880Y0296746D03*
X0308750Y0299801D03*
X0308797Y0303348D03*
X0308797Y0306892D03*
X0312687Y0299801D03*
X0311947Y0292719D03*
X0308880Y0292809D03*
X0315884Y0292719D03*
X0315884Y0288388D03*
X0315884Y0284451D03*
X0311947Y0280908D03*
X0308010Y0280908D03*
X0303679Y0280908D03*
X0303285Y0284451D03*
X0300136Y0284451D03*
X0299742Y0280908D03*
X0300136Y0288388D03*
X0303285Y0288388D03*
X0286750Y0287600D03*
X0283600Y0287600D03*
X0280451Y0287600D03*
X0277301Y0287600D03*
X0277301Y0283663D03*
X0280451Y0283663D03*
X0283600Y0283663D03*
X0286750Y0283663D03*
X0283207Y0300986D03*
X0283207Y0304136D03*
X0283207Y0307285D03*
X0279270Y0307285D03*
X0279270Y0304136D03*
X0279270Y0300986D03*
X0258766Y0303348D03*
X0254829Y0303348D03*
X0251679Y0303348D03*
X0251679Y0306892D03*
X0247742Y0306892D03*
X0247742Y0303348D03*
X0247695Y0299801D03*
X0247825Y0296746D03*
X0250892Y0296656D03*
X0251632Y0299801D03*
X0254829Y0296656D03*
X0254829Y0292719D03*
X0250892Y0292719D03*
X0247825Y0292809D03*
X0242230Y0288388D03*
X0239081Y0288388D03*
X0239081Y0284451D03*
X0242230Y0284451D03*
X0242624Y0280908D03*
X0238687Y0280908D03*
X0246955Y0280908D03*
X0250892Y0280908D03*
X0254829Y0284451D03*
X0254829Y0288388D03*
X0251679Y0265522D03*
X0251679Y0261978D03*
X0254829Y0261978D03*
X0258766Y0261978D03*
X0254829Y0255285D03*
X0254829Y0251348D03*
X0250892Y0251348D03*
X0247825Y0251439D03*
X0247825Y0255376D03*
X0247695Y0258431D03*
X0247742Y0261978D03*
X0247742Y0265522D03*
X0251632Y0258431D03*
X0250892Y0255285D03*
X0254829Y0247018D03*
X0254829Y0243081D03*
X0250892Y0239537D03*
X0246955Y0239537D03*
X0242624Y0239537D03*
X0242230Y0243081D03*
X0239081Y0243081D03*
X0238687Y0239537D03*
X0239081Y0247018D03*
X0242230Y0247018D03*
X0225695Y0246230D03*
X0222545Y0246230D03*
X0219396Y0246230D03*
X0216246Y0246230D03*
X0216246Y0242293D03*
X0219396Y0242293D03*
X0222545Y0242293D03*
X0225695Y0242293D03*
X0222152Y0224545D03*
X0222152Y0221396D03*
X0222152Y0218246D03*
X0218215Y0218246D03*
X0218215Y0221396D03*
X0218215Y0224545D03*
X0197711Y0220608D03*
X0193774Y0220608D03*
X0190624Y0220608D03*
X0190624Y0224152D03*
X0186687Y0224152D03*
X0186687Y0220608D03*
X0186640Y0217061D03*
X0186770Y0214006D03*
X0189837Y0213915D03*
X0190577Y0217061D03*
X0193774Y0213915D03*
X0193774Y0209978D03*
X0189837Y0209978D03*
X0186770Y0210069D03*
X0181175Y0205648D03*
X0178026Y0205648D03*
X0178026Y0201711D03*
X0181175Y0201711D03*
X0181569Y0198167D03*
X0177632Y0198167D03*
X0185900Y0198167D03*
X0189837Y0198167D03*
X0193774Y0201711D03*
X0193774Y0205648D03*
X0216246Y0204860D03*
X0219396Y0204860D03*
X0222545Y0204860D03*
X0225695Y0204860D03*
X0225695Y0200923D03*
X0222545Y0200923D03*
X0219396Y0200923D03*
X0216246Y0200923D03*
X0218215Y0183175D03*
X0218215Y0180026D03*
X0218215Y0176876D03*
X0222152Y0176876D03*
X0222152Y0180026D03*
X0222152Y0183175D03*
X0238687Y0198167D03*
X0239081Y0201711D03*
X0242230Y0201711D03*
X0242624Y0198167D03*
X0246955Y0198167D03*
X0250892Y0198167D03*
X0254829Y0201711D03*
X0254829Y0205648D03*
X0254829Y0209978D03*
X0250892Y0209978D03*
X0247825Y0210069D03*
X0247825Y0214006D03*
X0247695Y0217061D03*
X0247742Y0220608D03*
X0247742Y0224152D03*
X0251679Y0224152D03*
X0251679Y0220608D03*
X0254829Y0220608D03*
X0258766Y0220608D03*
X0254829Y0213915D03*
X0250892Y0213915D03*
X0251632Y0217061D03*
X0242230Y0205648D03*
X0239081Y0205648D03*
X0247742Y0182781D03*
X0247742Y0179238D03*
X0247695Y0175691D03*
X0247825Y0172636D03*
X0250892Y0172545D03*
X0251632Y0175691D03*
X0251679Y0179238D03*
X0254829Y0179238D03*
X0258766Y0179238D03*
X0254829Y0172545D03*
X0254829Y0168608D03*
X0250892Y0168608D03*
X0247825Y0168699D03*
X0242230Y0164278D03*
X0239081Y0164278D03*
X0239081Y0160341D03*
X0242230Y0160341D03*
X0242624Y0156797D03*
X0238687Y0156797D03*
X0246955Y0156797D03*
X0250892Y0156797D03*
X0254829Y0160341D03*
X0254829Y0164278D03*
X0251679Y0182781D03*
X0277301Y0200923D03*
X0280451Y0200923D03*
X0283600Y0200923D03*
X0286750Y0200923D03*
X0286750Y0204860D03*
X0283600Y0204860D03*
X0280451Y0204860D03*
X0277301Y0204860D03*
X0279270Y0218246D03*
X0279270Y0221396D03*
X0279270Y0224545D03*
X0283207Y0224545D03*
X0283207Y0221396D03*
X0283207Y0218246D03*
X0300136Y0205648D03*
X0303285Y0205648D03*
X0303285Y0201711D03*
X0300136Y0201711D03*
X0299742Y0198167D03*
X0303679Y0198167D03*
X0308010Y0198167D03*
X0311947Y0198167D03*
X0315884Y0201711D03*
X0315884Y0205648D03*
X0315884Y0209978D03*
X0311947Y0209978D03*
X0308880Y0210069D03*
X0308880Y0214006D03*
X0308750Y0217061D03*
X0308797Y0220608D03*
X0308797Y0224152D03*
X0312734Y0224152D03*
X0312734Y0220608D03*
X0315884Y0220608D03*
X0319821Y0220608D03*
X0312687Y0217061D03*
X0311947Y0213915D03*
X0315884Y0213915D03*
X0338356Y0204860D03*
X0341506Y0204860D03*
X0344656Y0204860D03*
X0347805Y0204860D03*
X0347805Y0200923D03*
X0344656Y0200923D03*
X0341506Y0200923D03*
X0338356Y0200923D03*
X0340325Y0183175D03*
X0340325Y0180026D03*
X0340325Y0176876D03*
X0344262Y0176876D03*
X0344262Y0180026D03*
X0344262Y0183175D03*
X0360797Y0198167D03*
X0361191Y0201711D03*
X0364341Y0201711D03*
X0364734Y0198167D03*
X0369065Y0198167D03*
X0373002Y0198167D03*
X0376939Y0201711D03*
X0376939Y0205648D03*
X0376939Y0209978D03*
X0373002Y0209978D03*
X0369935Y0210069D03*
X0369935Y0214006D03*
X0369805Y0217061D03*
X0369852Y0220608D03*
X0369852Y0224152D03*
X0373789Y0224152D03*
X0373789Y0220608D03*
X0376939Y0220608D03*
X0380876Y0220608D03*
X0373742Y0217061D03*
X0373002Y0213915D03*
X0376939Y0213915D03*
X0364341Y0205648D03*
X0361191Y0205648D03*
X0344262Y0218246D03*
X0344262Y0221396D03*
X0344262Y0224545D03*
X0340325Y0224545D03*
X0340325Y0221396D03*
X0340325Y0218246D03*
X0341506Y0242293D03*
X0344656Y0242293D03*
X0347805Y0242293D03*
X0347805Y0246230D03*
X0344656Y0246230D03*
X0341506Y0246230D03*
X0338356Y0246230D03*
X0338356Y0242293D03*
X0340325Y0259616D03*
X0340325Y0262766D03*
X0340325Y0265915D03*
X0344262Y0265915D03*
X0344262Y0262766D03*
X0344262Y0259616D03*
X0361191Y0247018D03*
X0364341Y0247018D03*
X0364341Y0243081D03*
X0361191Y0243081D03*
X0360797Y0239537D03*
X0364734Y0239537D03*
X0369065Y0239537D03*
X0373002Y0239537D03*
X0376939Y0243081D03*
X0376939Y0247018D03*
X0376939Y0251348D03*
X0373002Y0251348D03*
X0369935Y0251439D03*
X0369935Y0255376D03*
X0369805Y0258431D03*
X0369852Y0261978D03*
X0369852Y0265522D03*
X0373789Y0265522D03*
X0373789Y0261978D03*
X0376939Y0261978D03*
X0380876Y0261978D03*
X0373742Y0258431D03*
X0373002Y0255285D03*
X0376939Y0255285D03*
X0373002Y0280908D03*
X0369065Y0280908D03*
X0364734Y0280908D03*
X0364341Y0284451D03*
X0361191Y0284451D03*
X0360797Y0280908D03*
X0361191Y0288388D03*
X0364341Y0288388D03*
X0369935Y0292809D03*
X0373002Y0292719D03*
X0373002Y0296656D03*
X0369935Y0296746D03*
X0369805Y0299801D03*
X0369852Y0303348D03*
X0369852Y0306892D03*
X0373789Y0306892D03*
X0373789Y0303348D03*
X0376939Y0303348D03*
X0380876Y0303348D03*
X0376939Y0296656D03*
X0376939Y0292719D03*
X0376939Y0288388D03*
X0376939Y0284451D03*
X0373742Y0299801D03*
X0347805Y0287600D03*
X0344656Y0287600D03*
X0341506Y0287600D03*
X0338356Y0287600D03*
X0338356Y0283663D03*
X0341506Y0283663D03*
X0344656Y0283663D03*
X0347805Y0283663D03*
X0344262Y0300986D03*
X0344262Y0304136D03*
X0344262Y0307285D03*
X0340325Y0307285D03*
X0340325Y0304136D03*
X0340325Y0300986D03*
X0319821Y0261978D03*
X0315884Y0261978D03*
X0312734Y0261978D03*
X0312734Y0265522D03*
X0308797Y0265522D03*
X0308797Y0261978D03*
X0308750Y0258431D03*
X0308880Y0255376D03*
X0311947Y0255285D03*
X0312687Y0258431D03*
X0315884Y0255285D03*
X0315884Y0251348D03*
X0311947Y0251348D03*
X0308880Y0251439D03*
X0303285Y0247018D03*
X0300136Y0247018D03*
X0300136Y0243081D03*
X0303285Y0243081D03*
X0303679Y0239537D03*
X0299742Y0239537D03*
X0308010Y0239537D03*
X0311947Y0239537D03*
X0315884Y0243081D03*
X0315884Y0247018D03*
X0286750Y0246230D03*
X0283600Y0246230D03*
X0280451Y0246230D03*
X0277301Y0246230D03*
X0277301Y0242293D03*
X0280451Y0242293D03*
X0283600Y0242293D03*
X0286750Y0242293D03*
X0283207Y0259616D03*
X0283207Y0262766D03*
X0283207Y0265915D03*
X0279270Y0265915D03*
X0279270Y0262766D03*
X0279270Y0259616D03*
X0225695Y0283663D03*
X0222545Y0283663D03*
X0219396Y0283663D03*
X0216246Y0283663D03*
X0216246Y0287600D03*
X0219396Y0287600D03*
X0222545Y0287600D03*
X0225695Y0287600D03*
X0222152Y0300986D03*
X0222152Y0304136D03*
X0222152Y0307285D03*
X0218215Y0307285D03*
X0218215Y0304136D03*
X0218215Y0300986D03*
X0197711Y0303348D03*
X0193774Y0303348D03*
X0190624Y0303348D03*
X0190624Y0306892D03*
X0186687Y0306892D03*
X0186687Y0303348D03*
X0186640Y0299801D03*
X0186770Y0296746D03*
X0189837Y0296656D03*
X0190577Y0299801D03*
X0193774Y0296656D03*
X0193774Y0292719D03*
X0189837Y0292719D03*
X0186770Y0292809D03*
X0181175Y0288388D03*
X0178026Y0288388D03*
X0178026Y0284451D03*
X0181175Y0284451D03*
X0181569Y0280908D03*
X0177632Y0280908D03*
X0185900Y0280908D03*
X0189837Y0280908D03*
X0193774Y0284451D03*
X0193774Y0288388D03*
X0190624Y0265522D03*
X0190624Y0261978D03*
X0193774Y0261978D03*
X0197711Y0261978D03*
X0190577Y0258431D03*
X0189837Y0255285D03*
X0186770Y0255376D03*
X0186640Y0258431D03*
X0186687Y0261978D03*
X0186687Y0265522D03*
X0193774Y0255285D03*
X0193774Y0251348D03*
X0189837Y0251348D03*
X0186770Y0251439D03*
X0181175Y0247018D03*
X0178026Y0247018D03*
X0178026Y0243081D03*
X0181175Y0243081D03*
X0181569Y0239537D03*
X0177632Y0239537D03*
X0185900Y0239537D03*
X0189837Y0239537D03*
X0193774Y0243081D03*
X0193774Y0247018D03*
X0218215Y0259616D03*
X0218215Y0262766D03*
X0218215Y0265915D03*
X0222152Y0265915D03*
X0222152Y0262766D03*
X0222152Y0259616D03*
X0164640Y0246230D03*
X0161490Y0246230D03*
X0158341Y0246230D03*
X0155191Y0246230D03*
X0155191Y0242293D03*
X0158341Y0242293D03*
X0161490Y0242293D03*
X0164640Y0242293D03*
X0161096Y0224545D03*
X0161096Y0221396D03*
X0161096Y0218246D03*
X0157159Y0218246D03*
X0157159Y0221396D03*
X0157159Y0224545D03*
X0136655Y0220608D03*
X0132718Y0220608D03*
X0129569Y0220608D03*
X0129569Y0224152D03*
X0125632Y0224152D03*
X0125632Y0220608D03*
X0125585Y0217061D03*
X0125715Y0214006D03*
X0128781Y0213915D03*
X0129522Y0217061D03*
X0132718Y0213915D03*
X0132718Y0209978D03*
X0128781Y0209978D03*
X0125715Y0210069D03*
X0120120Y0205648D03*
X0116970Y0205648D03*
X0116970Y0201711D03*
X0120120Y0201711D03*
X0120514Y0198167D03*
X0116577Y0198167D03*
X0124844Y0198167D03*
X0128781Y0198167D03*
X0132718Y0201711D03*
X0132718Y0205648D03*
X0129569Y0182781D03*
X0129569Y0179238D03*
X0132718Y0179238D03*
X0136655Y0179238D03*
X0129522Y0175691D03*
X0128781Y0172545D03*
X0125715Y0172636D03*
X0125585Y0175691D03*
X0125632Y0179238D03*
X0125632Y0182781D03*
X0132718Y0172545D03*
X0132718Y0168608D03*
X0128781Y0168608D03*
X0125715Y0168699D03*
X0120120Y0164278D03*
X0116970Y0164278D03*
X0116970Y0160341D03*
X0120120Y0160341D03*
X0120514Y0156797D03*
X0116577Y0156797D03*
X0124844Y0156797D03*
X0128781Y0156797D03*
X0132718Y0160341D03*
X0132718Y0164278D03*
X0155191Y0163490D03*
X0158341Y0163490D03*
X0161490Y0163490D03*
X0164640Y0163490D03*
X0164640Y0159553D03*
X0161490Y0159553D03*
X0158341Y0159553D03*
X0155191Y0159553D03*
X0157159Y0176876D03*
X0157159Y0180026D03*
X0157159Y0183175D03*
X0161096Y0183175D03*
X0161096Y0180026D03*
X0161096Y0176876D03*
X0178026Y0164278D03*
X0181175Y0164278D03*
X0181175Y0160341D03*
X0178026Y0160341D03*
X0177632Y0156797D03*
X0181569Y0156797D03*
X0185900Y0156797D03*
X0189837Y0156797D03*
X0193774Y0160341D03*
X0193774Y0164278D03*
X0193774Y0168608D03*
X0193774Y0172545D03*
X0189837Y0172545D03*
X0186770Y0172636D03*
X0186640Y0175691D03*
X0186687Y0179238D03*
X0186687Y0182781D03*
X0190624Y0182781D03*
X0190624Y0179238D03*
X0193774Y0179238D03*
X0197711Y0179238D03*
X0190577Y0175691D03*
X0189837Y0168608D03*
X0186770Y0168699D03*
X0186687Y0141411D03*
X0186687Y0137868D03*
X0186640Y0134321D03*
X0186770Y0131266D03*
X0189837Y0131175D03*
X0190577Y0134321D03*
X0190624Y0137868D03*
X0193774Y0137868D03*
X0197711Y0137868D03*
X0193774Y0131175D03*
X0193774Y0127238D03*
X0189837Y0127238D03*
X0186770Y0127329D03*
X0181175Y0122908D03*
X0178026Y0122908D03*
X0178026Y0118971D03*
X0181175Y0118971D03*
X0181569Y0115427D03*
X0177632Y0115427D03*
X0185900Y0115427D03*
X0189837Y0115427D03*
X0193774Y0118971D03*
X0193774Y0122908D03*
X0190624Y0141411D03*
X0218215Y0141805D03*
X0218215Y0138656D03*
X0218215Y0135506D03*
X0222152Y0135506D03*
X0222152Y0138656D03*
X0222152Y0141805D03*
X0222545Y0159553D03*
X0219396Y0159553D03*
X0216246Y0159553D03*
X0216246Y0163490D03*
X0219396Y0163490D03*
X0222545Y0163490D03*
X0225695Y0163490D03*
X0225695Y0159553D03*
X0247742Y0141411D03*
X0247742Y0137868D03*
X0247695Y0134321D03*
X0247825Y0131266D03*
X0250892Y0131175D03*
X0251632Y0134321D03*
X0251679Y0137868D03*
X0254829Y0137868D03*
X0258766Y0137868D03*
X0254829Y0131175D03*
X0254829Y0127238D03*
X0250892Y0127238D03*
X0247825Y0127329D03*
X0242230Y0122908D03*
X0239081Y0122908D03*
X0239081Y0118971D03*
X0242230Y0118971D03*
X0242624Y0115427D03*
X0238687Y0115427D03*
X0246955Y0115427D03*
X0250892Y0115427D03*
X0254829Y0118971D03*
X0254829Y0122908D03*
X0251679Y0141411D03*
X0277301Y0159553D03*
X0280451Y0159553D03*
X0283600Y0159553D03*
X0286750Y0159553D03*
X0286750Y0163490D03*
X0283600Y0163490D03*
X0280451Y0163490D03*
X0277301Y0163490D03*
X0279270Y0176876D03*
X0279270Y0180026D03*
X0279270Y0183175D03*
X0283207Y0183175D03*
X0283207Y0180026D03*
X0283207Y0176876D03*
X0300136Y0164278D03*
X0303285Y0164278D03*
X0303285Y0160341D03*
X0300136Y0160341D03*
X0299742Y0156797D03*
X0303679Y0156797D03*
X0308010Y0156797D03*
X0311947Y0156797D03*
X0315884Y0160341D03*
X0315884Y0164278D03*
X0315884Y0168608D03*
X0311947Y0168608D03*
X0308880Y0168699D03*
X0308880Y0172636D03*
X0308750Y0175691D03*
X0308797Y0179238D03*
X0308797Y0182781D03*
X0312734Y0182781D03*
X0312734Y0179238D03*
X0315884Y0179238D03*
X0319821Y0179238D03*
X0312687Y0175691D03*
X0311947Y0172545D03*
X0315884Y0172545D03*
X0338356Y0163490D03*
X0341506Y0163490D03*
X0344656Y0163490D03*
X0347805Y0163490D03*
X0347805Y0159553D03*
X0344656Y0159553D03*
X0341506Y0159553D03*
X0338356Y0159553D03*
X0340325Y0141805D03*
X0340325Y0138656D03*
X0340325Y0135506D03*
X0344262Y0135506D03*
X0344262Y0138656D03*
X0344262Y0141805D03*
X0360797Y0156797D03*
X0361191Y0160341D03*
X0364341Y0160341D03*
X0364734Y0156797D03*
X0369065Y0156797D03*
X0373002Y0156797D03*
X0376939Y0160341D03*
X0376939Y0164278D03*
X0376939Y0168608D03*
X0373002Y0168608D03*
X0369935Y0168699D03*
X0369935Y0172636D03*
X0369805Y0175691D03*
X0369852Y0179238D03*
X0369852Y0182781D03*
X0373789Y0182781D03*
X0373789Y0179238D03*
X0376939Y0179238D03*
X0380876Y0179238D03*
X0373742Y0175691D03*
X0373002Y0172545D03*
X0376939Y0172545D03*
X0364341Y0164278D03*
X0361191Y0164278D03*
X0369852Y0141411D03*
X0369852Y0137868D03*
X0369805Y0134321D03*
X0369935Y0131266D03*
X0373002Y0131175D03*
X0373742Y0134321D03*
X0373789Y0137868D03*
X0376939Y0137868D03*
X0380876Y0137868D03*
X0376939Y0131175D03*
X0376939Y0127238D03*
X0373002Y0127238D03*
X0369935Y0127329D03*
X0364341Y0122908D03*
X0361191Y0122908D03*
X0361191Y0118971D03*
X0364341Y0118971D03*
X0364734Y0115427D03*
X0360797Y0115427D03*
X0369065Y0115427D03*
X0373002Y0115427D03*
X0376939Y0118971D03*
X0376939Y0122908D03*
X0373789Y0141411D03*
X0347805Y0122120D03*
X0344656Y0122120D03*
X0341506Y0122120D03*
X0338356Y0122120D03*
X0338356Y0118183D03*
X0341506Y0118183D03*
X0344656Y0118183D03*
X0347805Y0118183D03*
X0344262Y0100435D03*
X0344262Y0097285D03*
X0344262Y0094136D03*
X0340325Y0094136D03*
X0340325Y0097285D03*
X0340325Y0100435D03*
X0341506Y0080750D03*
X0344656Y0080750D03*
X0347805Y0080750D03*
X0347805Y0076813D03*
X0344656Y0076813D03*
X0341506Y0076813D03*
X0338356Y0076813D03*
X0338356Y0080750D03*
X0361191Y0081537D03*
X0364341Y0081537D03*
X0364341Y0077600D03*
X0361191Y0077600D03*
X0360797Y0074057D03*
X0364734Y0074057D03*
X0369065Y0074057D03*
X0373002Y0074057D03*
X0376939Y0077600D03*
X0376939Y0081537D03*
X0376939Y0085868D03*
X0373002Y0085868D03*
X0369935Y0085959D03*
X0369935Y0089896D03*
X0369805Y0092951D03*
X0369852Y0096498D03*
X0369852Y0100041D03*
X0373789Y0100041D03*
X0373789Y0096498D03*
X0376939Y0096498D03*
X0380876Y0096498D03*
X0376939Y0089805D03*
X0373002Y0089805D03*
X0373742Y0092951D03*
X0373789Y0058671D03*
X0373789Y0055128D03*
X0376939Y0055128D03*
X0380876Y0055128D03*
X0376939Y0048435D03*
X0376939Y0044498D03*
X0373002Y0044498D03*
X0369935Y0044589D03*
X0369935Y0048526D03*
X0369805Y0051581D03*
X0369852Y0055128D03*
X0369852Y0058671D03*
X0373742Y0051581D03*
X0373002Y0048435D03*
X0376939Y0040167D03*
X0376939Y0036230D03*
X0373002Y0032687D03*
X0369065Y0032687D03*
X0364734Y0032687D03*
X0364341Y0036230D03*
X0361191Y0036230D03*
X0360797Y0032687D03*
X0361191Y0040167D03*
X0364341Y0040167D03*
X0347805Y0039380D03*
X0344656Y0039380D03*
X0341506Y0039380D03*
X0338356Y0039380D03*
X0338356Y0035443D03*
X0341506Y0035443D03*
X0344656Y0035443D03*
X0347805Y0035443D03*
X0344262Y0052766D03*
X0344262Y0055915D03*
X0344262Y0059065D03*
X0340325Y0059065D03*
X0340325Y0055915D03*
X0340325Y0052766D03*
X0319821Y0055128D03*
X0315884Y0055128D03*
X0312734Y0055128D03*
X0312734Y0058671D03*
X0308797Y0058671D03*
X0308797Y0055128D03*
X0308750Y0051581D03*
X0308880Y0048526D03*
X0311947Y0048435D03*
X0312687Y0051581D03*
X0315884Y0048435D03*
X0315884Y0044498D03*
X0311947Y0044498D03*
X0308880Y0044589D03*
X0303285Y0040167D03*
X0300136Y0040167D03*
X0300136Y0036230D03*
X0303285Y0036230D03*
X0303679Y0032687D03*
X0299742Y0032687D03*
X0308010Y0032687D03*
X0311947Y0032687D03*
X0315884Y0036230D03*
X0315884Y0040167D03*
X0286750Y0039380D03*
X0283600Y0039380D03*
X0280451Y0039380D03*
X0277301Y0039380D03*
X0277301Y0035443D03*
X0280451Y0035443D03*
X0283600Y0035443D03*
X0286750Y0035443D03*
X0283207Y0052766D03*
X0283207Y0055915D03*
X0283207Y0059065D03*
X0279270Y0059065D03*
X0279270Y0055915D03*
X0279270Y0052766D03*
X0258766Y0055128D03*
X0254829Y0055128D03*
X0251679Y0055128D03*
X0251679Y0058671D03*
X0247742Y0058671D03*
X0247742Y0055128D03*
X0247695Y0051581D03*
X0247825Y0048526D03*
X0250892Y0048435D03*
X0251632Y0051581D03*
X0254829Y0048435D03*
X0254829Y0044498D03*
X0250892Y0044498D03*
X0247825Y0044589D03*
X0242230Y0040167D03*
X0239081Y0040167D03*
X0239081Y0036230D03*
X0242230Y0036230D03*
X0242624Y0032687D03*
X0238687Y0032687D03*
X0246955Y0032687D03*
X0250892Y0032687D03*
X0254829Y0036230D03*
X0254829Y0040167D03*
X0225695Y0039380D03*
X0222545Y0039380D03*
X0219396Y0039380D03*
X0216246Y0039380D03*
X0216246Y0035443D03*
X0219396Y0035443D03*
X0222545Y0035443D03*
X0225695Y0035443D03*
X0222152Y0052766D03*
X0222152Y0055915D03*
X0222152Y0059065D03*
X0218215Y0059065D03*
X0218215Y0055915D03*
X0218215Y0052766D03*
X0197711Y0055128D03*
X0193774Y0055128D03*
X0190624Y0055128D03*
X0190624Y0058671D03*
X0186687Y0058671D03*
X0186687Y0055128D03*
X0186640Y0051581D03*
X0186770Y0048526D03*
X0189837Y0048435D03*
X0190577Y0051581D03*
X0193774Y0048435D03*
X0193774Y0044498D03*
X0189837Y0044498D03*
X0186770Y0044589D03*
X0181175Y0040167D03*
X0178026Y0040167D03*
X0178026Y0036230D03*
X0181175Y0036230D03*
X0181569Y0032687D03*
X0177632Y0032687D03*
X0185900Y0032687D03*
X0189837Y0032687D03*
X0193774Y0036230D03*
X0193774Y0040167D03*
X0164640Y0039380D03*
X0161490Y0039380D03*
X0158341Y0039380D03*
X0155191Y0039380D03*
X0155191Y0035443D03*
X0158341Y0035443D03*
X0161490Y0035443D03*
X0164640Y0035443D03*
X0161096Y0052766D03*
X0161096Y0055915D03*
X0161096Y0059065D03*
X0157159Y0059065D03*
X0157159Y0055915D03*
X0157159Y0052766D03*
X0136655Y0055128D03*
X0132718Y0055128D03*
X0129569Y0055128D03*
X0129569Y0058671D03*
X0125632Y0058671D03*
X0125632Y0055128D03*
X0125585Y0051581D03*
X0125715Y0048526D03*
X0128781Y0048435D03*
X0129522Y0051581D03*
X0132718Y0048435D03*
X0132718Y0044498D03*
X0128781Y0044498D03*
X0125715Y0044589D03*
X0120120Y0040167D03*
X0116970Y0040167D03*
X0116970Y0036230D03*
X0120120Y0036230D03*
X0120514Y0032687D03*
X0116577Y0032687D03*
X0124844Y0032687D03*
X0128781Y0032687D03*
X0132718Y0036230D03*
X0132718Y0040167D03*
X0103585Y0039380D03*
X0100435Y0039380D03*
X0097285Y0039380D03*
X0094136Y0039380D03*
X0094136Y0035443D03*
X0097285Y0035443D03*
X0100435Y0035443D03*
X0103585Y0035443D03*
X0100041Y0052766D03*
X0100041Y0055915D03*
X0100041Y0059065D03*
X0096104Y0059065D03*
X0096104Y0055915D03*
X0096104Y0052766D03*
X0075600Y0055128D03*
X0071663Y0055128D03*
X0068514Y0055128D03*
X0068514Y0058671D03*
X0064577Y0058671D03*
X0064577Y0055128D03*
X0064530Y0051581D03*
X0064659Y0048526D03*
X0067726Y0048435D03*
X0068467Y0051581D03*
X0071663Y0048435D03*
X0071663Y0044498D03*
X0067726Y0044498D03*
X0064659Y0044589D03*
X0071663Y0040167D03*
X0071663Y0036230D03*
X0067726Y0032687D03*
X0063789Y0032687D03*
X0059459Y0032687D03*
X0059065Y0036230D03*
X0055915Y0036230D03*
X0055522Y0032687D03*
X0055915Y0040167D03*
X0059065Y0040167D03*
X0042530Y0039380D03*
X0039380Y0039380D03*
X0036230Y0039380D03*
X0033081Y0039380D03*
X0033081Y0035443D03*
X0036230Y0035443D03*
X0039380Y0035443D03*
X0042530Y0035443D03*
X0038986Y0052766D03*
X0038986Y0055915D03*
X0038986Y0059065D03*
X0035049Y0059065D03*
X0035049Y0055915D03*
X0035049Y0052766D03*
X0055522Y0074057D03*
X0055915Y0077600D03*
X0059065Y0077600D03*
X0059459Y0074057D03*
X0063789Y0074057D03*
X0067726Y0074057D03*
X0071663Y0077600D03*
X0071663Y0081537D03*
X0071663Y0085868D03*
X0067726Y0085868D03*
X0064659Y0085959D03*
X0064659Y0089896D03*
X0064530Y0092951D03*
X0064577Y0096498D03*
X0064577Y0100041D03*
X0068514Y0100041D03*
X0068514Y0096498D03*
X0071663Y0096498D03*
X0075600Y0096498D03*
X0071663Y0089805D03*
X0067726Y0089805D03*
X0068467Y0092951D03*
X0059065Y0081537D03*
X0055915Y0081537D03*
X0042530Y0080750D03*
X0039380Y0080750D03*
X0036230Y0080750D03*
X0033081Y0080750D03*
X0033081Y0076813D03*
X0036230Y0076813D03*
X0039380Y0076813D03*
X0042530Y0076813D03*
X0038986Y0094136D03*
X0038986Y0097285D03*
X0038986Y0100435D03*
X0035049Y0100435D03*
X0035049Y0097285D03*
X0035049Y0094136D03*
X0055522Y0115427D03*
X0055915Y0118971D03*
X0059065Y0118971D03*
X0059459Y0115427D03*
X0063789Y0115427D03*
X0067726Y0115427D03*
X0071663Y0118971D03*
X0071663Y0122908D03*
X0071663Y0127238D03*
X0067726Y0127238D03*
X0064659Y0127329D03*
X0064659Y0131266D03*
X0064530Y0134321D03*
X0064577Y0137868D03*
X0064577Y0141411D03*
X0068514Y0141411D03*
X0068514Y0137868D03*
X0071663Y0137868D03*
X0075600Y0137868D03*
X0071663Y0131175D03*
X0067726Y0131175D03*
X0068467Y0134321D03*
X0059065Y0122908D03*
X0055915Y0122908D03*
X0042530Y0122120D03*
X0039380Y0122120D03*
X0036230Y0122120D03*
X0033081Y0122120D03*
X0033081Y0118183D03*
X0036230Y0118183D03*
X0039380Y0118183D03*
X0042530Y0118183D03*
X0038986Y0135506D03*
X0038986Y0138656D03*
X0038986Y0141805D03*
X0035049Y0141805D03*
X0035049Y0138656D03*
X0035049Y0135506D03*
X0055522Y0156797D03*
X0055915Y0160341D03*
X0059065Y0160341D03*
X0059459Y0156797D03*
X0063789Y0156797D03*
X0067726Y0156797D03*
X0071663Y0160341D03*
X0071663Y0164278D03*
X0071663Y0168608D03*
X0067726Y0168608D03*
X0064659Y0168699D03*
X0064659Y0172636D03*
X0064530Y0175691D03*
X0064577Y0179238D03*
X0064577Y0182781D03*
X0068514Y0182781D03*
X0068514Y0179238D03*
X0071663Y0179238D03*
X0075600Y0179238D03*
X0071663Y0172545D03*
X0067726Y0172545D03*
X0068467Y0175691D03*
X0059065Y0164278D03*
X0055915Y0164278D03*
X0042530Y0163490D03*
X0039380Y0163490D03*
X0036230Y0163490D03*
X0033081Y0163490D03*
X0033081Y0159553D03*
X0036230Y0159553D03*
X0039380Y0159553D03*
X0042530Y0159553D03*
X0038986Y0176876D03*
X0038986Y0180026D03*
X0038986Y0183175D03*
X0035049Y0183175D03*
X0035049Y0180026D03*
X0035049Y0176876D03*
X0036230Y0200923D03*
X0033081Y0200923D03*
X0033081Y0204860D03*
X0036230Y0204860D03*
X0039380Y0204860D03*
X0042530Y0204860D03*
X0042530Y0200923D03*
X0039380Y0200923D03*
X0055522Y0198167D03*
X0055915Y0201711D03*
X0059065Y0201711D03*
X0059459Y0198167D03*
X0063789Y0198167D03*
X0067726Y0198167D03*
X0071663Y0201711D03*
X0071663Y0205648D03*
X0071663Y0209978D03*
X0067726Y0209978D03*
X0064659Y0210069D03*
X0064659Y0214006D03*
X0064530Y0217061D03*
X0064577Y0220608D03*
X0064577Y0224152D03*
X0068514Y0224152D03*
X0068514Y0220608D03*
X0071663Y0220608D03*
X0075600Y0220608D03*
X0071663Y0213915D03*
X0067726Y0213915D03*
X0068467Y0217061D03*
X0059065Y0205648D03*
X0055915Y0205648D03*
X0038986Y0218246D03*
X0038986Y0221396D03*
X0038986Y0224545D03*
X0035049Y0224545D03*
X0035049Y0221396D03*
X0035049Y0218246D03*
X0036230Y0242293D03*
X0033081Y0242293D03*
X0033081Y0246230D03*
X0036230Y0246230D03*
X0039380Y0246230D03*
X0042530Y0246230D03*
X0042530Y0242293D03*
X0039380Y0242293D03*
X0055522Y0239537D03*
X0055915Y0243081D03*
X0059065Y0243081D03*
X0059459Y0239537D03*
X0063789Y0239537D03*
X0067726Y0239537D03*
X0071663Y0243081D03*
X0071663Y0247018D03*
X0071663Y0251348D03*
X0067726Y0251348D03*
X0064659Y0251439D03*
X0064659Y0255376D03*
X0064530Y0258431D03*
X0064577Y0261978D03*
X0064577Y0265522D03*
X0068514Y0265522D03*
X0068514Y0261978D03*
X0071663Y0261978D03*
X0075600Y0261978D03*
X0071663Y0255285D03*
X0067726Y0255285D03*
X0068467Y0258431D03*
X0059065Y0247018D03*
X0055915Y0247018D03*
X0038986Y0259616D03*
X0038986Y0262766D03*
X0038986Y0265915D03*
X0035049Y0265915D03*
X0035049Y0262766D03*
X0035049Y0259616D03*
X0036230Y0283663D03*
X0033081Y0283663D03*
X0033081Y0287600D03*
X0036230Y0287600D03*
X0039380Y0287600D03*
X0042530Y0287600D03*
X0042530Y0283663D03*
X0039380Y0283663D03*
X0055522Y0280908D03*
X0055915Y0284451D03*
X0059065Y0284451D03*
X0059459Y0280908D03*
X0063789Y0280908D03*
X0067726Y0280908D03*
X0071663Y0284451D03*
X0071663Y0288388D03*
X0071663Y0292719D03*
X0071663Y0296656D03*
X0067726Y0296656D03*
X0064659Y0296746D03*
X0064530Y0299801D03*
X0064577Y0303348D03*
X0064577Y0306892D03*
X0068514Y0306892D03*
X0068514Y0303348D03*
X0071663Y0303348D03*
X0075600Y0303348D03*
X0068467Y0299801D03*
X0067726Y0292719D03*
X0064659Y0292809D03*
X0059065Y0288388D03*
X0055915Y0288388D03*
X0038986Y0300986D03*
X0038986Y0304136D03*
X0038986Y0307285D03*
X0035049Y0307285D03*
X0035049Y0304136D03*
X0035049Y0300986D03*
X0055522Y0322278D03*
X0055915Y0325821D03*
X0059065Y0325821D03*
X0059459Y0322278D03*
X0063789Y0322278D03*
X0067726Y0322278D03*
X0071663Y0325821D03*
X0071663Y0329758D03*
X0071663Y0334089D03*
X0067726Y0334089D03*
X0064659Y0334179D03*
X0064659Y0338116D03*
X0064530Y0341171D03*
X0064577Y0344719D03*
X0064577Y0348262D03*
X0068514Y0348262D03*
X0068514Y0344719D03*
X0071663Y0344719D03*
X0075600Y0344719D03*
X0071663Y0338026D03*
X0067726Y0338026D03*
X0068467Y0341171D03*
X0059065Y0329758D03*
X0055915Y0329758D03*
X0042530Y0328971D03*
X0039380Y0328971D03*
X0036230Y0328971D03*
X0033081Y0328971D03*
X0033081Y0325034D03*
X0036230Y0325034D03*
X0039380Y0325034D03*
X0042530Y0325034D03*
X0038986Y0342356D03*
X0038986Y0345506D03*
X0038986Y0348656D03*
X0035049Y0348656D03*
X0035049Y0345506D03*
X0035049Y0342356D03*
X0055522Y0363648D03*
X0055915Y0367191D03*
X0059065Y0367191D03*
X0059459Y0363648D03*
X0063789Y0363648D03*
X0067726Y0363648D03*
X0071663Y0367191D03*
X0071663Y0371128D03*
X0071663Y0375459D03*
X0067726Y0375459D03*
X0064659Y0375549D03*
X0064659Y0379486D03*
X0064530Y0382541D03*
X0064577Y0386089D03*
X0064577Y0389632D03*
X0068514Y0389632D03*
X0068514Y0386089D03*
X0071663Y0386089D03*
X0075600Y0386089D03*
X0071663Y0379396D03*
X0067726Y0379396D03*
X0068467Y0382541D03*
X0059065Y0371128D03*
X0055915Y0371128D03*
X0042530Y0370341D03*
X0039380Y0370341D03*
X0036230Y0370341D03*
X0033081Y0370341D03*
X0033081Y0366404D03*
X0036230Y0366404D03*
X0039380Y0366404D03*
X0042530Y0366404D03*
X0038986Y0383726D03*
X0038986Y0386876D03*
X0038986Y0390026D03*
X0035049Y0390026D03*
X0035049Y0386876D03*
X0035049Y0383726D03*
X0094136Y0370341D03*
X0097285Y0370341D03*
X0100435Y0370341D03*
X0103585Y0370341D03*
X0103585Y0366404D03*
X0100435Y0366404D03*
X0097285Y0366404D03*
X0094136Y0366404D03*
X0096104Y0383726D03*
X0096104Y0386876D03*
X0096104Y0390026D03*
X0100041Y0390026D03*
X0100041Y0386876D03*
X0100041Y0383726D03*
X0116970Y0371128D03*
X0120120Y0371128D03*
X0120120Y0367191D03*
X0116970Y0367191D03*
X0116577Y0363648D03*
X0120514Y0363648D03*
X0124844Y0363648D03*
X0128781Y0363648D03*
X0132718Y0367191D03*
X0132718Y0371128D03*
X0132718Y0375459D03*
X0128781Y0375459D03*
X0125715Y0375549D03*
X0125715Y0379486D03*
X0125585Y0382541D03*
X0125632Y0386089D03*
X0125632Y0389632D03*
X0129569Y0389632D03*
X0129569Y0386089D03*
X0132718Y0386089D03*
X0136655Y0386089D03*
X0132718Y0379396D03*
X0128781Y0379396D03*
X0129522Y0382541D03*
X0157159Y0383726D03*
X0157159Y0386876D03*
X0157159Y0390026D03*
X0161096Y0390026D03*
X0161096Y0386876D03*
X0161096Y0383726D03*
X0161490Y0370341D03*
X0158341Y0370341D03*
X0155191Y0370341D03*
X0155191Y0366404D03*
X0158341Y0366404D03*
X0161490Y0366404D03*
X0164640Y0366404D03*
X0164640Y0370341D03*
X0178026Y0371128D03*
X0181175Y0371128D03*
X0181175Y0367191D03*
X0178026Y0367191D03*
X0177632Y0363648D03*
X0181569Y0363648D03*
X0185900Y0363648D03*
X0189837Y0363648D03*
X0193774Y0367191D03*
X0193774Y0371128D03*
X0193774Y0375459D03*
X0193774Y0379396D03*
X0189837Y0379396D03*
X0186770Y0379486D03*
X0186640Y0382541D03*
X0186687Y0386089D03*
X0186687Y0389632D03*
X0190624Y0389632D03*
X0190624Y0386089D03*
X0193774Y0386089D03*
X0197711Y0386089D03*
X0190577Y0382541D03*
X0189837Y0375459D03*
X0186770Y0375549D03*
X0186687Y0348262D03*
X0186687Y0344719D03*
X0186640Y0341171D03*
X0186770Y0338116D03*
X0189837Y0338026D03*
X0190577Y0341171D03*
X0190624Y0344719D03*
X0193774Y0344719D03*
X0197711Y0344719D03*
X0193774Y0338026D03*
X0193774Y0334089D03*
X0189837Y0334089D03*
X0186770Y0334179D03*
X0181175Y0329758D03*
X0178026Y0329758D03*
X0178026Y0325821D03*
X0181175Y0325821D03*
X0181569Y0322278D03*
X0177632Y0322278D03*
X0185900Y0322278D03*
X0189837Y0322278D03*
X0193774Y0325821D03*
X0193774Y0329758D03*
X0190624Y0348262D03*
X0218215Y0348656D03*
X0218215Y0345506D03*
X0218215Y0342356D03*
X0222152Y0342356D03*
X0222152Y0345506D03*
X0222152Y0348656D03*
X0222545Y0366404D03*
X0219396Y0366404D03*
X0216246Y0366404D03*
X0216246Y0370341D03*
X0219396Y0370341D03*
X0222545Y0370341D03*
X0225695Y0370341D03*
X0225695Y0366404D03*
X0238687Y0363648D03*
X0239081Y0367191D03*
X0242230Y0367191D03*
X0242624Y0363648D03*
X0246955Y0363648D03*
X0250892Y0363648D03*
X0254829Y0367191D03*
X0254829Y0371128D03*
X0254829Y0375459D03*
X0254829Y0379396D03*
X0250892Y0379396D03*
X0247825Y0379486D03*
X0247695Y0382541D03*
X0247742Y0386089D03*
X0247742Y0389632D03*
X0251679Y0389632D03*
X0251679Y0386089D03*
X0254829Y0386089D03*
X0258766Y0386089D03*
X0251632Y0382541D03*
X0250892Y0375459D03*
X0247825Y0375549D03*
X0242230Y0371128D03*
X0239081Y0371128D03*
X0222152Y0383726D03*
X0222152Y0386876D03*
X0222152Y0390026D03*
X0218215Y0390026D03*
X0218215Y0386876D03*
X0218215Y0383726D03*
X0247742Y0348262D03*
X0247742Y0344719D03*
X0247695Y0341171D03*
X0247825Y0338116D03*
X0250892Y0338026D03*
X0251632Y0341171D03*
X0251679Y0344719D03*
X0254829Y0344719D03*
X0258766Y0344719D03*
X0254829Y0338026D03*
X0254829Y0334089D03*
X0250892Y0334089D03*
X0247825Y0334179D03*
X0242230Y0329758D03*
X0239081Y0329758D03*
X0239081Y0325821D03*
X0242230Y0325821D03*
X0242624Y0322278D03*
X0238687Y0322278D03*
X0246955Y0322278D03*
X0250892Y0322278D03*
X0254829Y0325821D03*
X0254829Y0329758D03*
X0251679Y0348262D03*
X0277301Y0366404D03*
X0280451Y0366404D03*
X0283600Y0366404D03*
X0286750Y0366404D03*
X0286750Y0370341D03*
X0283600Y0370341D03*
X0280451Y0370341D03*
X0277301Y0370341D03*
X0279270Y0383726D03*
X0279270Y0386876D03*
X0279270Y0390026D03*
X0283207Y0390026D03*
X0283207Y0386876D03*
X0283207Y0383726D03*
X0300136Y0371128D03*
X0303285Y0371128D03*
X0303285Y0367191D03*
X0300136Y0367191D03*
X0299742Y0363648D03*
X0303679Y0363648D03*
X0308010Y0363648D03*
X0311947Y0363648D03*
X0315884Y0367191D03*
X0315884Y0371128D03*
X0315884Y0375459D03*
X0315884Y0379396D03*
X0311947Y0379396D03*
X0308880Y0379486D03*
X0308750Y0382541D03*
X0308797Y0386089D03*
X0308797Y0389632D03*
X0312734Y0389632D03*
X0312734Y0386089D03*
X0315884Y0386089D03*
X0319821Y0386089D03*
X0312687Y0382541D03*
X0311947Y0375459D03*
X0308880Y0375549D03*
X0338356Y0370341D03*
X0341506Y0370341D03*
X0344656Y0370341D03*
X0347805Y0370341D03*
X0347805Y0366404D03*
X0344656Y0366404D03*
X0341506Y0366404D03*
X0338356Y0366404D03*
X0340325Y0383726D03*
X0340325Y0386876D03*
X0340325Y0390026D03*
X0344262Y0390026D03*
X0344262Y0386876D03*
X0344262Y0383726D03*
X0283207Y0348656D03*
X0283207Y0345506D03*
X0283207Y0342356D03*
X0279270Y0342356D03*
X0279270Y0345506D03*
X0279270Y0348656D03*
X0280451Y0328971D03*
X0283600Y0328971D03*
X0286750Y0328971D03*
X0286750Y0325034D03*
X0283600Y0325034D03*
X0280451Y0325034D03*
X0277301Y0325034D03*
X0277301Y0328971D03*
X0225695Y0328971D03*
X0222545Y0328971D03*
X0219396Y0328971D03*
X0216246Y0328971D03*
X0216246Y0325034D03*
X0219396Y0325034D03*
X0222545Y0325034D03*
X0225695Y0325034D03*
X0164640Y0325034D03*
X0161490Y0325034D03*
X0158341Y0325034D03*
X0155191Y0325034D03*
X0155191Y0328971D03*
X0158341Y0328971D03*
X0161490Y0328971D03*
X0164640Y0328971D03*
X0161096Y0342356D03*
X0161096Y0345506D03*
X0161096Y0348656D03*
X0157159Y0348656D03*
X0157159Y0345506D03*
X0157159Y0342356D03*
X0136655Y0344719D03*
X0132718Y0344719D03*
X0129569Y0344719D03*
X0129569Y0348262D03*
X0125632Y0348262D03*
X0125632Y0344719D03*
X0125585Y0341171D03*
X0125715Y0338116D03*
X0128781Y0338026D03*
X0129522Y0341171D03*
X0132718Y0338026D03*
X0132718Y0334089D03*
X0128781Y0334089D03*
X0125715Y0334179D03*
X0120120Y0329758D03*
X0116970Y0329758D03*
X0116970Y0325821D03*
X0120120Y0325821D03*
X0120514Y0322278D03*
X0116577Y0322278D03*
X0124844Y0322278D03*
X0128781Y0322278D03*
X0132718Y0325821D03*
X0132718Y0329758D03*
X0129569Y0306892D03*
X0129569Y0303348D03*
X0132718Y0303348D03*
X0136655Y0303348D03*
X0132718Y0296656D03*
X0128781Y0296656D03*
X0125715Y0296746D03*
X0125585Y0299801D03*
X0125632Y0303348D03*
X0125632Y0306892D03*
X0129522Y0299801D03*
X0128781Y0292719D03*
X0125715Y0292809D03*
X0132718Y0292719D03*
X0132718Y0288388D03*
X0132718Y0284451D03*
X0128781Y0280908D03*
X0124844Y0280908D03*
X0120514Y0280908D03*
X0120120Y0284451D03*
X0116970Y0284451D03*
X0116577Y0280908D03*
X0116970Y0288388D03*
X0120120Y0288388D03*
X0103585Y0287600D03*
X0100435Y0287600D03*
X0097285Y0287600D03*
X0094136Y0287600D03*
X0094136Y0283663D03*
X0097285Y0283663D03*
X0100435Y0283663D03*
X0103585Y0283663D03*
X0100041Y0300986D03*
X0100041Y0304136D03*
X0100041Y0307285D03*
X0096104Y0307285D03*
X0096104Y0304136D03*
X0096104Y0300986D03*
X0097285Y0325034D03*
X0094136Y0325034D03*
X0094136Y0328971D03*
X0097285Y0328971D03*
X0100435Y0328971D03*
X0103585Y0328971D03*
X0103585Y0325034D03*
X0100435Y0325034D03*
X0100041Y0342356D03*
X0100041Y0345506D03*
X0100041Y0348656D03*
X0096104Y0348656D03*
X0096104Y0345506D03*
X0096104Y0342356D03*
X0157159Y0307285D03*
X0157159Y0304136D03*
X0157159Y0300986D03*
X0161096Y0300986D03*
X0161096Y0304136D03*
X0161096Y0307285D03*
X0161490Y0287600D03*
X0158341Y0287600D03*
X0155191Y0287600D03*
X0155191Y0283663D03*
X0158341Y0283663D03*
X0161490Y0283663D03*
X0164640Y0283663D03*
X0164640Y0287600D03*
X0161096Y0265915D03*
X0161096Y0262766D03*
X0161096Y0259616D03*
X0157159Y0259616D03*
X0157159Y0262766D03*
X0157159Y0265915D03*
X0136655Y0261978D03*
X0132718Y0261978D03*
X0129569Y0261978D03*
X0129569Y0265522D03*
X0125632Y0265522D03*
X0125632Y0261978D03*
X0125585Y0258431D03*
X0125715Y0255376D03*
X0128781Y0255285D03*
X0129522Y0258431D03*
X0132718Y0255285D03*
X0132718Y0251348D03*
X0128781Y0251348D03*
X0125715Y0251439D03*
X0120120Y0247018D03*
X0116970Y0247018D03*
X0116970Y0243081D03*
X0120120Y0243081D03*
X0120514Y0239537D03*
X0116577Y0239537D03*
X0124844Y0239537D03*
X0128781Y0239537D03*
X0132718Y0243081D03*
X0132718Y0247018D03*
X0103585Y0246230D03*
X0100435Y0246230D03*
X0097285Y0246230D03*
X0094136Y0246230D03*
X0094136Y0242293D03*
X0097285Y0242293D03*
X0100435Y0242293D03*
X0103585Y0242293D03*
X0100041Y0224545D03*
X0100041Y0221396D03*
X0100041Y0218246D03*
X0096104Y0218246D03*
X0096104Y0221396D03*
X0096104Y0224545D03*
X0097285Y0204860D03*
X0094136Y0204860D03*
X0094136Y0200923D03*
X0097285Y0200923D03*
X0100435Y0200923D03*
X0103585Y0200923D03*
X0103585Y0204860D03*
X0100435Y0204860D03*
X0100041Y0183175D03*
X0100041Y0180026D03*
X0100041Y0176876D03*
X0096104Y0176876D03*
X0096104Y0180026D03*
X0096104Y0183175D03*
X0097285Y0163490D03*
X0094136Y0163490D03*
X0094136Y0159553D03*
X0097285Y0159553D03*
X0100435Y0159553D03*
X0103585Y0159553D03*
X0103585Y0163490D03*
X0100435Y0163490D03*
X0100041Y0141805D03*
X0100041Y0138656D03*
X0100041Y0135506D03*
X0096104Y0135506D03*
X0096104Y0138656D03*
X0096104Y0141805D03*
X0097285Y0122120D03*
X0094136Y0122120D03*
X0094136Y0118183D03*
X0097285Y0118183D03*
X0100435Y0118183D03*
X0103585Y0118183D03*
X0103585Y0122120D03*
X0100435Y0122120D03*
X0116970Y0122908D03*
X0120120Y0122908D03*
X0120120Y0118971D03*
X0116970Y0118971D03*
X0116577Y0115427D03*
X0120514Y0115427D03*
X0124844Y0115427D03*
X0128781Y0115427D03*
X0132718Y0118971D03*
X0132718Y0122908D03*
X0132718Y0127238D03*
X0128781Y0127238D03*
X0125715Y0127329D03*
X0125715Y0131266D03*
X0125585Y0134321D03*
X0125632Y0137868D03*
X0125632Y0141411D03*
X0129569Y0141411D03*
X0129569Y0137868D03*
X0132718Y0137868D03*
X0136655Y0137868D03*
X0132718Y0131175D03*
X0128781Y0131175D03*
X0129522Y0134321D03*
X0157159Y0135506D03*
X0157159Y0138656D03*
X0157159Y0141805D03*
X0161096Y0141805D03*
X0161096Y0138656D03*
X0161096Y0135506D03*
X0161490Y0122120D03*
X0158341Y0122120D03*
X0155191Y0122120D03*
X0155191Y0118183D03*
X0158341Y0118183D03*
X0161490Y0118183D03*
X0164640Y0118183D03*
X0164640Y0122120D03*
X0161096Y0100435D03*
X0161096Y0097285D03*
X0161096Y0094136D03*
X0157159Y0094136D03*
X0157159Y0097285D03*
X0157159Y0100435D03*
X0158341Y0080750D03*
X0161490Y0080750D03*
X0164640Y0080750D03*
X0164640Y0076813D03*
X0161490Y0076813D03*
X0158341Y0076813D03*
X0155191Y0076813D03*
X0155191Y0080750D03*
X0178026Y0081537D03*
X0181175Y0081537D03*
X0181175Y0077600D03*
X0178026Y0077600D03*
X0177632Y0074057D03*
X0181569Y0074057D03*
X0185900Y0074057D03*
X0189837Y0074057D03*
X0193774Y0077600D03*
X0193774Y0081537D03*
X0193774Y0085868D03*
X0193774Y0089805D03*
X0189837Y0089805D03*
X0186770Y0089896D03*
X0186640Y0092951D03*
X0186687Y0096498D03*
X0186687Y0100041D03*
X0190624Y0100041D03*
X0190624Y0096498D03*
X0193774Y0096498D03*
X0197711Y0096498D03*
X0190577Y0092951D03*
X0189837Y0085868D03*
X0186770Y0085959D03*
X0216246Y0080750D03*
X0219396Y0080750D03*
X0222545Y0080750D03*
X0225695Y0080750D03*
X0225695Y0076813D03*
X0222545Y0076813D03*
X0219396Y0076813D03*
X0216246Y0076813D03*
X0218215Y0094136D03*
X0218215Y0097285D03*
X0218215Y0100435D03*
X0222152Y0100435D03*
X0222152Y0097285D03*
X0222152Y0094136D03*
X0239081Y0081537D03*
X0242230Y0081537D03*
X0242230Y0077600D03*
X0239081Y0077600D03*
X0238687Y0074057D03*
X0242624Y0074057D03*
X0246955Y0074057D03*
X0250892Y0074057D03*
X0254829Y0077600D03*
X0254829Y0081537D03*
X0254829Y0085868D03*
X0254829Y0089805D03*
X0250892Y0089805D03*
X0247825Y0089896D03*
X0247695Y0092951D03*
X0247742Y0096498D03*
X0247742Y0100041D03*
X0251679Y0100041D03*
X0251679Y0096498D03*
X0254829Y0096498D03*
X0258766Y0096498D03*
X0251632Y0092951D03*
X0250892Y0085868D03*
X0247825Y0085959D03*
X0277301Y0080750D03*
X0280451Y0080750D03*
X0283600Y0080750D03*
X0286750Y0080750D03*
X0286750Y0076813D03*
X0283600Y0076813D03*
X0280451Y0076813D03*
X0277301Y0076813D03*
X0279270Y0094136D03*
X0279270Y0097285D03*
X0279270Y0100435D03*
X0283207Y0100435D03*
X0283207Y0097285D03*
X0283207Y0094136D03*
X0300136Y0081537D03*
X0303285Y0081537D03*
X0303285Y0077600D03*
X0300136Y0077600D03*
X0299742Y0074057D03*
X0303679Y0074057D03*
X0308010Y0074057D03*
X0311947Y0074057D03*
X0315884Y0077600D03*
X0315884Y0081537D03*
X0315884Y0085868D03*
X0311947Y0085868D03*
X0308880Y0085959D03*
X0308880Y0089896D03*
X0308750Y0092951D03*
X0308797Y0096498D03*
X0308797Y0100041D03*
X0312734Y0100041D03*
X0312734Y0096498D03*
X0315884Y0096498D03*
X0319821Y0096498D03*
X0315884Y0089805D03*
X0311947Y0089805D03*
X0312687Y0092951D03*
X0311947Y0115427D03*
X0308010Y0115427D03*
X0303679Y0115427D03*
X0303285Y0118971D03*
X0300136Y0118971D03*
X0299742Y0115427D03*
X0300136Y0122908D03*
X0303285Y0122908D03*
X0308880Y0127329D03*
X0311947Y0127238D03*
X0315884Y0127238D03*
X0315884Y0131175D03*
X0311947Y0131175D03*
X0308880Y0131266D03*
X0308750Y0134321D03*
X0308797Y0137868D03*
X0308797Y0141411D03*
X0312734Y0141411D03*
X0312734Y0137868D03*
X0315884Y0137868D03*
X0319821Y0137868D03*
X0312687Y0134321D03*
X0315884Y0122908D03*
X0315884Y0118971D03*
X0286750Y0118183D03*
X0283600Y0118183D03*
X0280451Y0118183D03*
X0277301Y0118183D03*
X0277301Y0122120D03*
X0280451Y0122120D03*
X0283600Y0122120D03*
X0286750Y0122120D03*
X0283207Y0135506D03*
X0283207Y0138656D03*
X0283207Y0141805D03*
X0279270Y0141805D03*
X0279270Y0138656D03*
X0279270Y0135506D03*
X0225695Y0122120D03*
X0222545Y0122120D03*
X0219396Y0122120D03*
X0216246Y0122120D03*
X0216246Y0118183D03*
X0219396Y0118183D03*
X0222545Y0118183D03*
X0225695Y0118183D03*
X0164640Y0200923D03*
X0161490Y0200923D03*
X0158341Y0200923D03*
X0155191Y0200923D03*
X0155191Y0204860D03*
X0158341Y0204860D03*
X0161490Y0204860D03*
X0164640Y0204860D03*
X0100041Y0259616D03*
X0100041Y0262766D03*
X0100041Y0265915D03*
X0096104Y0265915D03*
X0096104Y0262766D03*
X0096104Y0259616D03*
X0096104Y0100435D03*
X0096104Y0097285D03*
X0096104Y0094136D03*
X0100041Y0094136D03*
X0100041Y0097285D03*
X0100041Y0100435D03*
X0100435Y0080750D03*
X0097285Y0080750D03*
X0094136Y0080750D03*
X0094136Y0076813D03*
X0097285Y0076813D03*
X0100435Y0076813D03*
X0103585Y0076813D03*
X0103585Y0080750D03*
X0116970Y0081537D03*
X0120120Y0081537D03*
X0120120Y0077600D03*
X0116970Y0077600D03*
X0116577Y0074057D03*
X0120514Y0074057D03*
X0124844Y0074057D03*
X0128781Y0074057D03*
X0132718Y0077600D03*
X0132718Y0081537D03*
X0132718Y0085868D03*
X0128781Y0085868D03*
X0125715Y0085959D03*
X0125715Y0089896D03*
X0125585Y0092951D03*
X0125632Y0096498D03*
X0125632Y0100041D03*
X0129569Y0100041D03*
X0129569Y0096498D03*
X0132718Y0096498D03*
X0136655Y0096498D03*
X0132718Y0089805D03*
X0128781Y0089805D03*
X0129522Y0092951D03*
D14*
X0158734Y0090593D03*
X0158734Y0084293D03*
X0158734Y0049222D03*
X0158734Y0042923D03*
X0097679Y0042923D03*
X0097679Y0049222D03*
X0097679Y0084293D03*
X0097679Y0090593D03*
X0097679Y0125663D03*
X0097679Y0131963D03*
X0097679Y0167033D03*
X0097679Y0173333D03*
X0097679Y0208404D03*
X0097679Y0214703D03*
X0097679Y0249774D03*
X0097679Y0256073D03*
X0097679Y0291144D03*
X0097679Y0297443D03*
X0097679Y0332514D03*
X0097679Y0338813D03*
X0097679Y0373884D03*
X0097679Y0380183D03*
X0036624Y0380183D03*
X0036624Y0373884D03*
X0036624Y0338813D03*
X0036624Y0332514D03*
X0036624Y0297443D03*
X0036624Y0291144D03*
X0036624Y0256073D03*
X0036624Y0249774D03*
X0036624Y0214703D03*
X0036624Y0208404D03*
X0036624Y0173333D03*
X0036624Y0167033D03*
X0036624Y0131963D03*
X0036624Y0125663D03*
X0036624Y0090593D03*
X0036624Y0084293D03*
X0036624Y0049222D03*
X0036624Y0042923D03*
X0158734Y0125663D03*
X0158734Y0131963D03*
X0158734Y0167033D03*
X0158734Y0173333D03*
X0158734Y0208404D03*
X0158734Y0214703D03*
X0158734Y0249774D03*
X0158734Y0256073D03*
X0158734Y0291144D03*
X0158734Y0297443D03*
X0158734Y0332514D03*
X0158734Y0338813D03*
X0158734Y0373884D03*
X0158734Y0380183D03*
X0219789Y0380183D03*
X0219789Y0373884D03*
X0219789Y0338813D03*
X0219789Y0332514D03*
X0219789Y0297443D03*
X0219789Y0291144D03*
X0219789Y0256073D03*
X0219789Y0249774D03*
X0219789Y0214703D03*
X0219789Y0208404D03*
X0219789Y0173333D03*
X0219789Y0167033D03*
X0219789Y0131963D03*
X0219789Y0125663D03*
X0219789Y0090593D03*
X0219789Y0084293D03*
X0219789Y0049222D03*
X0219789Y0042923D03*
X0280845Y0042923D03*
X0280845Y0049222D03*
X0280845Y0084293D03*
X0280845Y0090593D03*
X0280845Y0125663D03*
X0280845Y0131963D03*
X0280845Y0167033D03*
X0280845Y0173333D03*
X0280845Y0208404D03*
X0280845Y0214703D03*
X0280845Y0249774D03*
X0280845Y0256073D03*
X0280845Y0291144D03*
X0280845Y0297443D03*
X0280845Y0332514D03*
X0280845Y0338813D03*
X0280845Y0373884D03*
X0280845Y0380183D03*
X0341900Y0380183D03*
X0341900Y0373884D03*
X0341900Y0338813D03*
X0341900Y0332514D03*
X0341900Y0297443D03*
X0341900Y0291144D03*
X0341900Y0256073D03*
X0341900Y0249774D03*
X0341900Y0214703D03*
X0341900Y0208404D03*
X0341900Y0173333D03*
X0341900Y0167033D03*
X0341900Y0131963D03*
X0341900Y0125663D03*
X0341900Y0090593D03*
X0341900Y0084293D03*
X0341900Y0049222D03*
X0341900Y0042923D03*
D15*
X0351348Y0037805D03*
X0357648Y0037805D03*
X0357648Y0079175D03*
X0351348Y0079175D03*
X0351348Y0120545D03*
X0357648Y0120545D03*
X0357648Y0161915D03*
X0351348Y0161915D03*
X0351348Y0203285D03*
X0357648Y0203285D03*
X0357648Y0244656D03*
X0351348Y0244656D03*
X0351348Y0286026D03*
X0357648Y0286026D03*
X0357648Y0327396D03*
X0351348Y0327396D03*
X0351348Y0368766D03*
X0357648Y0368766D03*
X0296593Y0368766D03*
X0290293Y0368766D03*
X0290293Y0327396D03*
X0296593Y0327396D03*
X0296593Y0286026D03*
X0290293Y0286026D03*
X0290293Y0244656D03*
X0296593Y0244656D03*
X0296593Y0203285D03*
X0290293Y0203285D03*
X0290293Y0161915D03*
X0296593Y0161915D03*
X0296593Y0120545D03*
X0290293Y0120545D03*
X0290293Y0079175D03*
X0296593Y0079175D03*
X0296593Y0037805D03*
X0290293Y0037805D03*
X0235537Y0037805D03*
X0229238Y0037805D03*
X0229238Y0079175D03*
X0235537Y0079175D03*
X0235537Y0120545D03*
X0229238Y0120545D03*
X0229238Y0161915D03*
X0235537Y0161915D03*
X0235537Y0203285D03*
X0229238Y0203285D03*
X0229238Y0244656D03*
X0235537Y0244656D03*
X0235537Y0286026D03*
X0229238Y0286026D03*
X0229238Y0327396D03*
X0235537Y0327396D03*
X0235537Y0368766D03*
X0229238Y0368766D03*
X0174482Y0368766D03*
X0168183Y0368766D03*
X0168183Y0327396D03*
X0174482Y0327396D03*
X0174482Y0286026D03*
X0168183Y0286026D03*
X0168183Y0244656D03*
X0174482Y0244656D03*
X0174482Y0203285D03*
X0168183Y0203285D03*
X0168183Y0161915D03*
X0174482Y0161915D03*
X0174482Y0120545D03*
X0168183Y0120545D03*
X0168183Y0079175D03*
X0174482Y0079175D03*
X0174482Y0037805D03*
X0168183Y0037805D03*
X0113427Y0037805D03*
X0107128Y0037805D03*
X0107128Y0079175D03*
X0113427Y0079175D03*
X0113427Y0120545D03*
X0107128Y0120545D03*
X0107128Y0161915D03*
X0113427Y0161915D03*
X0113427Y0203285D03*
X0107128Y0203285D03*
X0107128Y0244656D03*
X0113427Y0244656D03*
X0113427Y0286026D03*
X0107128Y0286026D03*
X0107128Y0327396D03*
X0113427Y0327396D03*
X0113427Y0368766D03*
X0107128Y0368766D03*
X0052372Y0368766D03*
X0046073Y0368766D03*
X0046073Y0327396D03*
X0052372Y0327396D03*
X0052372Y0286026D03*
X0046073Y0286026D03*
X0046073Y0244656D03*
X0052372Y0244656D03*
X0052372Y0203285D03*
X0046073Y0203285D03*
X0046073Y0161915D03*
X0052372Y0161915D03*
X0052372Y0120545D03*
X0046073Y0120545D03*
X0046073Y0079175D03*
X0052372Y0079175D03*
X0052372Y0037805D03*
X0046073Y0037805D03*
D16*
X0081900Y0041742D03*
X0081900Y0055128D03*
X0081900Y0083112D03*
X0081900Y0096498D03*
X0081900Y0124482D03*
X0081900Y0137868D03*
X0081900Y0165852D03*
X0081900Y0179238D03*
X0081900Y0207222D03*
X0081900Y0220608D03*
X0081900Y0248593D03*
X0081900Y0261978D03*
X0081900Y0289963D03*
X0081900Y0303348D03*
X0081900Y0331333D03*
X0081900Y0344719D03*
X0081900Y0372703D03*
X0081900Y0386089D03*
X0142955Y0386089D03*
X0142955Y0372703D03*
X0142955Y0344719D03*
X0142955Y0331333D03*
X0142955Y0303348D03*
X0142955Y0289963D03*
X0142955Y0261978D03*
X0142955Y0248593D03*
X0142955Y0220608D03*
X0142955Y0207222D03*
X0142955Y0179238D03*
X0142955Y0165852D03*
X0142955Y0137868D03*
X0142955Y0124482D03*
X0142955Y0096498D03*
X0142955Y0083112D03*
X0142955Y0055128D03*
X0142955Y0041742D03*
X0204010Y0041742D03*
X0204010Y0055128D03*
X0204010Y0083112D03*
X0204010Y0096498D03*
X0204010Y0124482D03*
X0204010Y0137868D03*
X0204010Y0165852D03*
X0204010Y0179238D03*
X0204010Y0207222D03*
X0204010Y0220608D03*
X0204010Y0248593D03*
X0204010Y0261978D03*
X0204010Y0289963D03*
X0204010Y0303348D03*
X0204010Y0331333D03*
X0204010Y0344719D03*
X0204010Y0372703D03*
X0204010Y0386089D03*
X0265065Y0386089D03*
X0265065Y0372703D03*
X0265065Y0344719D03*
X0265065Y0331333D03*
X0265065Y0303348D03*
X0265065Y0289963D03*
X0265065Y0261978D03*
X0265065Y0248593D03*
X0265065Y0220608D03*
X0265065Y0207222D03*
X0265065Y0179238D03*
X0265065Y0165852D03*
X0265065Y0137868D03*
X0265065Y0124482D03*
X0265065Y0096498D03*
X0265065Y0083112D03*
X0265065Y0055128D03*
X0265065Y0041742D03*
X0326120Y0041742D03*
X0326120Y0055128D03*
X0326120Y0083112D03*
X0326120Y0096498D03*
X0326120Y0124482D03*
X0326120Y0137868D03*
X0326120Y0165852D03*
X0326120Y0179238D03*
X0326120Y0207222D03*
X0326120Y0220608D03*
X0326120Y0248593D03*
X0326120Y0261978D03*
X0326120Y0289963D03*
X0326120Y0303348D03*
X0326120Y0331333D03*
X0326120Y0344719D03*
X0326120Y0372703D03*
X0326120Y0386089D03*
X0387175Y0386089D03*
X0387175Y0372703D03*
X0387175Y0344719D03*
X0387175Y0331333D03*
X0387175Y0303348D03*
X0387175Y0289963D03*
X0387175Y0261978D03*
X0387175Y0248593D03*
X0387175Y0220608D03*
X0387175Y0207222D03*
X0387175Y0179238D03*
X0387175Y0165852D03*
X0387175Y0137868D03*
X0387175Y0124482D03*
X0387175Y0096498D03*
X0387175Y0083112D03*
X0387175Y0055128D03*
X0387175Y0041742D03*
D17*
X0366081Y0407331D03*
X0055750Y0407331D03*
D18*
X0052185Y0020500D02*
X0052187Y0020619D01*
X0052193Y0020738D01*
X0052203Y0020857D01*
X0052217Y0020975D01*
X0052235Y0021093D01*
X0052256Y0021210D01*
X0052282Y0021326D01*
X0052312Y0021442D01*
X0052345Y0021556D01*
X0052382Y0021669D01*
X0052423Y0021781D01*
X0052468Y0021892D01*
X0052516Y0022001D01*
X0052568Y0022108D01*
X0052624Y0022213D01*
X0052683Y0022317D01*
X0052745Y0022418D01*
X0052811Y0022518D01*
X0052880Y0022615D01*
X0052952Y0022709D01*
X0053028Y0022802D01*
X0053106Y0022891D01*
X0053187Y0022978D01*
X0053272Y0023063D01*
X0053359Y0023144D01*
X0053448Y0023222D01*
X0053541Y0023298D01*
X0053635Y0023370D01*
X0053732Y0023439D01*
X0053832Y0023505D01*
X0053933Y0023567D01*
X0054037Y0023626D01*
X0054142Y0023682D01*
X0054249Y0023734D01*
X0054358Y0023782D01*
X0054469Y0023827D01*
X0054581Y0023868D01*
X0054694Y0023905D01*
X0054808Y0023938D01*
X0054924Y0023968D01*
X0055040Y0023994D01*
X0055157Y0024015D01*
X0055275Y0024033D01*
X0055393Y0024047D01*
X0055512Y0024057D01*
X0055631Y0024063D01*
X0055750Y0024065D01*
X0055869Y0024063D01*
X0055988Y0024057D01*
X0056107Y0024047D01*
X0056225Y0024033D01*
X0056343Y0024015D01*
X0056460Y0023994D01*
X0056576Y0023968D01*
X0056692Y0023938D01*
X0056806Y0023905D01*
X0056919Y0023868D01*
X0057031Y0023827D01*
X0057142Y0023782D01*
X0057251Y0023734D01*
X0057358Y0023682D01*
X0057463Y0023626D01*
X0057567Y0023567D01*
X0057668Y0023505D01*
X0057768Y0023439D01*
X0057865Y0023370D01*
X0057959Y0023298D01*
X0058052Y0023222D01*
X0058141Y0023144D01*
X0058228Y0023063D01*
X0058313Y0022978D01*
X0058394Y0022891D01*
X0058472Y0022802D01*
X0058548Y0022709D01*
X0058620Y0022615D01*
X0058689Y0022518D01*
X0058755Y0022418D01*
X0058817Y0022317D01*
X0058876Y0022213D01*
X0058932Y0022108D01*
X0058984Y0022001D01*
X0059032Y0021892D01*
X0059077Y0021781D01*
X0059118Y0021669D01*
X0059155Y0021556D01*
X0059188Y0021442D01*
X0059218Y0021326D01*
X0059244Y0021210D01*
X0059265Y0021093D01*
X0059283Y0020975D01*
X0059297Y0020857D01*
X0059307Y0020738D01*
X0059313Y0020619D01*
X0059315Y0020500D01*
X0059313Y0020381D01*
X0059307Y0020262D01*
X0059297Y0020143D01*
X0059283Y0020025D01*
X0059265Y0019907D01*
X0059244Y0019790D01*
X0059218Y0019674D01*
X0059188Y0019558D01*
X0059155Y0019444D01*
X0059118Y0019331D01*
X0059077Y0019219D01*
X0059032Y0019108D01*
X0058984Y0018999D01*
X0058932Y0018892D01*
X0058876Y0018787D01*
X0058817Y0018683D01*
X0058755Y0018582D01*
X0058689Y0018482D01*
X0058620Y0018385D01*
X0058548Y0018291D01*
X0058472Y0018198D01*
X0058394Y0018109D01*
X0058313Y0018022D01*
X0058228Y0017937D01*
X0058141Y0017856D01*
X0058052Y0017778D01*
X0057959Y0017702D01*
X0057865Y0017630D01*
X0057768Y0017561D01*
X0057668Y0017495D01*
X0057567Y0017433D01*
X0057463Y0017374D01*
X0057358Y0017318D01*
X0057251Y0017266D01*
X0057142Y0017218D01*
X0057031Y0017173D01*
X0056919Y0017132D01*
X0056806Y0017095D01*
X0056692Y0017062D01*
X0056576Y0017032D01*
X0056460Y0017006D01*
X0056343Y0016985D01*
X0056225Y0016967D01*
X0056107Y0016953D01*
X0055988Y0016943D01*
X0055869Y0016937D01*
X0055750Y0016935D01*
X0055631Y0016937D01*
X0055512Y0016943D01*
X0055393Y0016953D01*
X0055275Y0016967D01*
X0055157Y0016985D01*
X0055040Y0017006D01*
X0054924Y0017032D01*
X0054808Y0017062D01*
X0054694Y0017095D01*
X0054581Y0017132D01*
X0054469Y0017173D01*
X0054358Y0017218D01*
X0054249Y0017266D01*
X0054142Y0017318D01*
X0054037Y0017374D01*
X0053933Y0017433D01*
X0053832Y0017495D01*
X0053732Y0017561D01*
X0053635Y0017630D01*
X0053541Y0017702D01*
X0053448Y0017778D01*
X0053359Y0017856D01*
X0053272Y0017937D01*
X0053187Y0018022D01*
X0053106Y0018109D01*
X0053028Y0018198D01*
X0052952Y0018291D01*
X0052880Y0018385D01*
X0052811Y0018482D01*
X0052745Y0018582D01*
X0052683Y0018683D01*
X0052624Y0018787D01*
X0052568Y0018892D01*
X0052516Y0018999D01*
X0052468Y0019108D01*
X0052423Y0019219D01*
X0052382Y0019331D01*
X0052345Y0019444D01*
X0052312Y0019558D01*
X0052282Y0019674D01*
X0052256Y0019790D01*
X0052235Y0019907D01*
X0052217Y0020025D01*
X0052203Y0020143D01*
X0052193Y0020262D01*
X0052187Y0020381D01*
X0052185Y0020500D01*
D19*
X0055750Y0020500D03*
M02*
