%
M48
M72
T01C0.0079
%
T01
X3072Y3072
X3308Y3347
X3032Y3466
X3623Y3347
X3781Y3072
X4253Y3347
X4568Y3269
X4922Y3269
X5355Y3269
X5749Y3505
X5946Y3269
X6171Y3032
X6310Y3623
X5592Y4017
X5784Y4647
X5784Y4844
X5981Y4844
X5784Y5041
X5587Y5041
X5390Y5041
X5193Y5041
X5193Y4844
X4996Y4844
X4799Y4844
X4603Y4647
X4883Y4253
X5390Y4645
X5390Y4844
X5587Y4844
X5981Y5238
X6168Y5427
X5784Y5434
X5784Y5631
X5784Y5828
X5592Y5828
X5587Y5631
X5390Y5828
X5390Y6026
X5587Y6026
X5784Y6025
X5981Y6025
X6812Y6300
X6615Y6615
X6221Y6615
X5828Y6615
X6171Y7169
X5946Y7406
X5749Y7642
X5355Y7406
X4922Y7406
X4568Y7406
X4253Y7484
X3781Y7209
X3623Y7484
X3308Y7484
X3032Y7603
X3072Y7209
X3859Y6650
X4253Y6650
X4647Y6650
X5040Y6615
X5193Y6222
X5193Y6026
X4799Y6025
X4603Y6025
X4603Y5828
X4603Y5631
X4603Y5434
X4603Y5238
X4799Y5238
X4996Y5434
X4996Y5630
X5193Y5630
X4603Y6222
X4236Y5985
X4056Y6261
X3662Y6261
X3347Y6374
X3072Y5828
X3072Y5434
X3072Y5040
X3623Y5355
X3899Y5592
X4209Y5277
X4406Y5238
X3662Y3820
X6453Y5158
X6773Y4844
X7363Y5158
X7088Y5867
X7138Y6082
X7324Y5985
X7324Y6379
X7245Y6655
X7009Y6615
X7245Y7209
X7313Y7760
X6310Y7760
X5592Y8154
X5784Y8784
X5784Y8981
X5981Y8981
X5784Y9178
X5587Y9178
X5390Y9178
X5193Y9178
X5193Y8981
X4996Y8981
X4799Y8981
X4603Y8784
X4883Y8390
X5390Y8782
X5390Y8981
X5587Y8981
X5981Y9375
X6168Y9564
X5784Y9571
X5784Y9768
X5784Y9965
X5592Y9965
X5587Y9768
X5390Y9965
X5390Y10163
X5587Y10163
X5784Y10162
X5981Y10162
X5828Y10752
X6221Y10752
X6615Y10752
X6812Y10437
X7009Y10752
X7245Y10792
X7324Y10516
X7138Y10219
X7324Y10122
X7088Y10004
X7363Y9295
X6773Y8981
X6453Y9295
X5193Y9767
X4996Y9767
X4996Y9571
X4799Y9375
X4603Y9375
X4603Y9571
X4603Y9768
X4603Y9965
X4603Y10162
X4799Y10162
X4603Y10359
X4647Y10787
X4253Y10787
X3859Y10787
X3662Y10398
X3347Y10511
X3072Y9965
X3072Y9571
X3072Y9177
X3623Y9492
X3899Y9729
X4209Y9414
X4406Y9375
X4236Y10122
X4056Y10398
X3781Y11346
X3623Y11621
X3308Y11621
X3032Y11740
X3072Y11346
X3662Y12094
X4253Y11621
X4568Y11543
X4922Y11543
X5355Y11543
X5749Y11779
X5946Y11543
X6171Y11306
X6310Y11897
X5592Y12291
X5784Y12921
X5784Y13118
X5981Y13118
X5784Y13315
X5587Y13315
X5390Y13315
X5193Y13315
X5193Y13118
X4996Y13118
X4799Y13118
X4603Y12921
X4883Y12527
X5390Y12919
X5390Y13118
X5587Y13118
X5981Y13512
X6168Y13701
X5784Y13708
X5784Y13905
X5784Y14102
X5592Y14102
X5587Y13905
X5390Y14102
X5390Y14300
X5587Y14300
X5784Y14299
X5981Y14299
X5828Y14889
X6221Y14889
X6615Y14889
X6812Y14574
X7009Y14889
X7245Y14929
X7324Y14653
X7138Y14356
X7324Y14259
X7088Y14141
X7363Y13432
X6773Y13118
X6453Y13432
X5193Y13904
X4996Y13904
X4996Y13708
X4799Y13512
X4603Y13512
X4603Y13708
X4603Y13905
X4603Y14102
X4603Y14299
X4799Y14299
X4603Y14496
X4647Y14924
X4253Y14924
X3859Y14924
X3662Y14535
X3347Y14648
X3072Y14102
X3072Y13708
X3072Y13314
X3623Y13629
X3899Y13866
X4209Y13551
X4406Y13512
X4236Y14259
X4056Y14535
X3781Y15483
X3623Y15758
X3308Y15758
X3032Y15877
X3072Y15483
X3662Y16231
X4253Y15758
X4568Y15680
X4922Y15680
X5355Y15680
X5749Y15916
X5946Y15680
X6171Y15444
X6310Y16034
X5592Y16428
X5784Y17058
X5784Y17255
X5981Y17255
X5784Y17452
X5587Y17452
X5390Y17452
X5193Y17452
X5193Y17255
X4996Y17255
X4799Y17255
X4603Y17058
X4883Y16664
X5390Y17056
X5390Y17255
X5587Y17255
X5981Y17649
X6168Y17838
X5784Y17845
X5784Y18042
X5784Y18239
X5592Y18239
X5587Y18042
X5390Y18239
X5390Y18437
X5587Y18437
X5784Y18436
X5981Y18436
X5828Y19026
X6221Y19026
X6615Y19026
X6812Y18711
X7009Y19026
X7245Y19066
X7324Y18790
X7138Y18493
X7324Y18396
X7088Y18278
X7363Y17569
X6773Y17255
X6453Y17569
X5193Y18041
X4996Y18041
X4996Y17845
X4799Y17649
X4603Y17649
X4603Y17845
X4603Y18042
X4603Y18239
X4603Y18436
X4799Y18436
X4603Y18633
X4647Y19061
X4253Y19061
X3859Y19061
X3662Y18672
X3347Y18785
X3072Y18239
X3072Y17845
X3072Y17451
X3623Y17766
X3899Y18003
X4209Y17688
X4406Y17649
X4236Y18396
X4056Y18672
X3781Y19620
X3623Y19895
X3308Y19895
X3032Y20014
X3072Y19620
X3662Y20368
X4253Y19895
X4568Y19817
X4922Y19817
X5355Y19817
X5749Y20053
X5946Y19817
X6171Y19581
X6310Y20171
X5592Y20565
X5784Y21195
X5784Y21392
X5981Y21392
X5784Y21589
X5587Y21589
X5390Y21589
X5193Y21589
X5193Y21392
X4996Y21392
X4799Y21392
X4603Y21195
X4883Y20801
X5390Y21193
X5390Y21392
X5587Y21392
X5981Y21786
X6168Y21975
X5784Y21982
X5784Y22179
X5784Y22376
X5592Y22376
X5587Y22179
X5390Y22376
X5390Y22574
X5587Y22574
X5784Y22573
X5981Y22573
X5828Y23163
X6221Y23163
X6615Y23163
X6812Y22848
X7009Y23163
X7245Y23203
X7324Y22927
X7138Y22630
X7324Y22533
X7088Y22415
X7363Y21706
X6773Y21392
X6453Y21706
X5193Y22178
X4996Y22178
X4996Y21982
X4799Y21786
X4603Y21786
X4603Y21982
X4603Y22179
X4603Y22376
X4603Y22573
X4799Y22573
X4603Y22770
X4647Y23198
X4253Y23198
X3859Y23198
X3662Y22809
X3347Y22922
X3072Y23757
X3308Y24032
X3032Y24151
X3623Y24032
X3781Y23757
X4253Y24032
X4568Y23954
X4922Y23954
X5355Y23954
X5749Y24190
X5946Y23954
X6171Y23718
X6310Y24308
X5592Y24702
X5784Y25332
X5784Y25529
X5981Y25529
X5784Y25726
X5587Y25726
X5390Y25726
X5193Y25726
X5193Y25529
X4996Y25529
X4799Y25529
X4603Y25332
X4883Y24938
X5390Y25330
X5390Y25529
X5587Y25529
X5981Y25923
X6168Y26112
X5784Y26119
X5784Y26316
X5587Y26316
X5592Y26513
X5784Y26513
X5784Y26710
X5981Y26710
X5587Y26711
X5390Y26711
X5193Y26711
X5193Y26907
X5040Y27300
X4647Y27335
X4253Y27335
X3859Y27335
X3662Y26946
X3347Y27059
X3072Y26513
X3072Y26119
X3072Y25725
X3623Y26040
X3899Y26277
X4209Y25962
X4406Y25923
X4603Y25923
X4799Y25923
X4603Y26119
X4603Y26316
X4603Y26513
X4603Y26710
X4799Y26710
X4603Y26907
X4236Y26670
X4056Y26946
X3781Y27894
X3623Y28169
X3308Y28169
X3032Y28288
X3072Y27894
X3662Y28642
X4253Y28169
X4568Y28091
X4922Y28091
X5355Y28091
X5749Y28327
X5946Y28091
X6171Y27855
X6221Y27300
X5828Y27300
X6615Y27300
X6812Y26985
X7009Y27300
X7245Y27340
X7324Y27064
X7138Y26767
X7324Y26670
X7088Y26552
X7363Y25844
X6773Y25529
X6453Y25843
X5390Y26513
X5193Y26315
X4996Y26315
X4996Y26119
X3662Y24505
X5040Y23163
X5193Y22770
X5193Y22574
X4236Y22533
X4056Y22809
X3899Y22140
X3623Y21903
X3072Y21982
X3072Y21588
X3072Y22376
X4209Y21825
X4406Y21786
X5040Y19026
X5193Y18633
X5193Y18437
X7245Y19620
X7313Y20171
X9138Y20014
X9414Y19895
X9729Y19895
X9886Y19620
X10358Y19895
X10673Y19817
X11028Y19817
X11461Y19817
X11855Y20053
X12051Y19817
X12277Y19581
X12327Y19026
X12721Y19026
X12918Y18711
X13114Y19026
X13351Y19066
X13429Y18790
X13243Y18493
X13429Y18396
X13193Y18278
X13469Y17569
X12878Y17255
X12558Y17569
X12273Y17838
X12086Y17649
X11889Y17845
X11889Y18042
X11692Y18042
X11697Y18239
X11889Y18239
X11889Y18436
X11692Y18437
X11495Y18437
X11299Y18437
X11299Y18633
X11146Y19026
X10752Y19061
X10358Y19061
X9965Y19061
X10162Y18672
X10342Y18396
X10708Y18436
X10708Y18239
X10708Y18042
X10708Y17845
X10708Y17649
X10511Y17649
X10314Y17688
X10004Y18003
X9729Y17766
X9177Y17845
X9177Y17451
X9177Y18239
X9453Y18785
X9768Y18672
X10708Y18633
X10905Y18436
X11102Y18041
X11102Y17845
X11299Y18041
X11495Y18239
X12086Y18436
X11933Y19026
X13351Y19620
X13419Y20171
X12416Y20171
X11697Y20565
X10988Y20801
X10708Y21195
X10905Y21392
X11102Y21392
X11299Y21392
X11495Y21392
X11495Y21589
X11299Y21589
X11692Y21589
X11692Y21392
X11889Y21392
X11889Y21589
X12086Y21786
X12273Y21975
X11889Y21982
X11889Y22179
X11692Y22179
X11697Y22376
X11889Y22376
X11889Y22573
X11692Y22574
X11495Y22574
X11299Y22574
X11299Y22770
X11146Y23163
X10752Y23198
X10358Y23198
X9965Y23198
X10162Y22809
X10342Y22533
X10708Y22573
X10708Y22376
X10708Y22179
X10708Y21982
X10708Y21786
X10511Y21786
X10314Y21825
X10004Y22140
X9729Y21903
X9177Y21982
X9177Y21588
X9177Y22376
X9768Y22809
X9453Y22922
X9177Y23757
X9414Y24032
X9138Y24151
X9729Y24032
X9886Y23757
X10358Y24032
X10673Y23954
X11028Y23954
X11461Y23954
X11855Y24190
X12051Y23954
X12277Y23718
X12327Y23163
X12721Y23163
X12918Y22848
X13114Y23163
X13351Y23203
X13429Y22927
X13243Y22630
X13429Y22533
X13193Y22415
X13469Y21706
X12878Y21392
X12558Y21706
X12086Y21392
X11889Y21195
X11495Y21193
X10905Y21786
X11102Y21982
X11102Y22178
X11299Y22178
X11495Y22376
X12086Y22573
X11933Y23163
X12416Y24308
X13351Y23757
X13419Y24308
X12878Y25529
X12558Y25843
X12273Y26112
X12086Y25923
X11889Y26119
X11889Y26316
X11692Y26316
X11697Y26513
X11889Y26513
X11889Y26710
X11692Y26711
X11495Y26711
X11299Y26711
X11299Y26907
X11146Y27300
X10752Y27335
X10358Y27335
X9965Y27335
X10162Y26946
X10342Y26670
X10708Y26710
X10708Y26513
X10708Y26316
X10708Y26119
X10708Y25923
X10511Y25923
X10314Y25962
X10004Y26277
X9729Y26040
X9177Y26119
X9177Y25725
X9177Y26513
X9453Y27059
X9768Y26946
X10708Y26907
X10905Y26710
X11102Y26315
X11102Y26119
X11299Y26315
X11495Y26513
X12086Y26710
X11933Y27300
X12327Y27300
X12721Y27300
X12918Y26985
X13114Y27300
X13351Y27340
X13429Y27064
X13243Y26767
X13429Y26670
X13193Y26552
X13469Y25844
X12086Y25529
X11889Y25529
X11692Y25529
X11495Y25529
X11299Y25529
X11299Y25726
X11495Y25726
X11692Y25726
X11889Y25726
X11889Y25332
X11495Y25330
X11102Y25529
X10905Y25529
X10708Y25332
X10988Y24938
X11697Y24702
X10905Y25923
X9768Y24505
X10708Y22770
X10905Y22573
X9768Y20368
X9177Y19620
X10905Y17649
X10905Y17255
X11102Y17255
X11299Y17255
X11495Y17255
X11495Y17452
X11299Y17452
X11692Y17452
X11692Y17255
X11889Y17255
X11889Y17452
X12086Y17255
X11889Y17058
X11495Y17056
X10988Y16664
X10708Y17058
X11697Y16428
X11855Y15916
X12051Y15680
X12277Y15444
X12416Y16034
X13351Y15483
X13419Y16034
X13351Y14929
X13114Y14889
X12918Y14574
X12721Y14889
X12327Y14889
X11933Y14889
X11889Y14299
X11692Y14300
X11495Y14300
X11299Y14300
X11299Y14496
X11146Y14889
X10752Y14924
X10358Y14924
X9965Y14924
X10162Y14535
X10342Y14259
X10708Y14299
X10708Y14102
X10708Y13905
X10708Y13708
X10708Y13512
X10511Y13512
X10314Y13551
X10004Y13866
X9729Y13629
X9177Y13708
X9177Y13314
X9177Y14102
X9453Y14648
X9768Y14535
X10708Y14496
X10905Y14299
X11102Y13904
X11102Y13708
X11299Y13904
X11495Y14102
X11697Y14102
X11889Y14102
X11889Y13905
X11889Y13708
X12086Y13512
X12273Y13701
X12558Y13432
X12878Y13118
X12086Y13118
X11889Y13118
X11692Y13118
X11495Y13118
X11299Y13118
X11299Y13315
X11495Y13315
X11692Y13315
X11889Y13315
X11889Y12921
X11495Y12919
X11102Y13118
X10905Y13118
X10708Y12921
X10988Y12527
X11697Y12291
X11855Y11779
X12051Y11543
X12277Y11306
X12416Y11897
X13351Y11346
X13351Y10792
X13114Y10752
X12918Y10437
X12721Y10752
X12327Y10752
X11933Y10752
X11889Y10162
X11692Y10163
X11495Y10163
X11299Y10163
X11299Y10359
X11146Y10752
X10752Y10787
X10358Y10787
X9965Y10787
X10162Y10398
X10342Y10122
X10708Y10162
X10708Y9965
X10708Y9768
X10708Y9571
X10708Y9375
X10511Y9375
X10314Y9414
X10004Y9729
X9729Y9492
X9177Y9571
X9177Y9177
X9177Y9965
X9453Y10511
X9768Y10398
X10708Y10359
X10905Y10162
X11102Y9767
X11102Y9571
X11299Y9767
X11495Y9965
X11697Y9965
X11889Y9965
X11889Y9768
X11889Y9571
X12086Y9375
X12273Y9564
X12558Y9295
X12878Y8981
X12086Y8981
X11889Y8981
X11692Y8981
X11495Y8981
X11299Y8981
X11299Y9178
X11495Y9178
X11692Y9178
X11889Y9178
X11889Y8784
X11495Y8782
X11102Y8981
X10905Y8981
X10708Y8784
X10988Y8390
X11697Y8154
X11855Y7642
X12051Y7406
X12277Y7169
X12327Y6615
X12721Y6615
X12918Y6300
X13114Y6615
X13351Y6655
X13429Y6379
X13243Y6082
X13429Y5985
X13193Y5867
X13469Y5158
X12878Y4844
X12558Y5158
X12273Y5427
X12086Y5238
X11889Y5434
X11889Y5631
X11692Y5631
X11697Y5828
X11889Y5828
X11889Y6025
X11692Y6026
X11495Y6026
X11299Y6026
X11299Y6222
X11146Y6615
X10752Y6650
X10358Y6650
X9965Y6650
X10162Y6261
X10342Y5985
X10708Y6025
X10708Y5828
X10708Y5631
X10708Y5434
X10708Y5238
X10511Y5238
X10314Y5277
X10004Y5592
X9729Y5355
X9177Y5434
X9177Y5040
X9177Y5828
X9453Y6374
X9768Y6261
X10708Y6222
X10905Y6025
X11102Y5630
X11102Y5434
X11299Y5630
X11495Y5828
X12086Y6025
X11933Y6615
X11461Y7406
X11028Y7406
X10673Y7406
X10358Y7484
X9886Y7209
X9729Y7484
X9414Y7484
X9138Y7603
X9177Y7209
X9768Y7957
X10905Y9375
X11692Y9768
X12086Y10162
X13193Y10004
X13243Y10219
X13429Y10122
X13429Y10516
X13469Y9295
X13419Y7760
X13351Y7209
X12416Y7760
X15244Y7603
X15519Y7484
X15834Y7484
X15992Y7209
X16464Y7484
X16779Y7406
X17133Y7406
X17566Y7406
X17960Y7642
X18157Y7406
X18382Y7169
X18432Y6615
X18039Y6615
X17404Y6222
X17404Y6026
X17601Y6026
X17798Y6026
X17995Y6025
X18192Y6025
X17995Y5828
X17803Y5828
X17798Y5631
X17995Y5631
X17995Y5434
X18192Y5238
X18379Y5427
X18664Y5158
X18984Y4844
X19574Y5158
X19299Y5867
X19349Y6082
X19535Y5985
X19535Y6379
X19456Y6655
X19220Y6615
X19023Y6300
X18826Y6615
X19456Y7209
X19524Y7760
X18521Y7760
X17803Y8154
X17995Y8784
X17995Y8981
X18192Y8981
X17995Y9178
X17798Y9178
X17601Y9178
X17404Y9178
X17404Y8981
X17207Y8981
X17010Y8981
X16814Y8784
X17094Y8390
X17601Y8782
X17601Y8981
X17798Y8981
X18192Y9375
X18379Y9564
X17995Y9571
X17995Y9768
X17995Y9965
X17803Y9965
X17798Y9768
X17601Y9965
X17601Y10163
X17798Y10163
X17995Y10162
X18192Y10162
X18039Y10752
X18432Y10752
X18826Y10752
X19023Y10437
X19220Y10752
X19456Y10792
X19535Y10516
X19349Y10219
X19535Y10122
X19299Y10004
X19574Y9295
X18984Y8981
X18664Y9295
X17404Y9767
X17207Y9767
X17207Y9571
X17010Y9375
X16814Y9375
X16814Y9571
X16814Y9768
X16814Y9965
X16814Y10162
X17010Y10162
X16814Y10359
X16858Y10787
X16464Y10787
X16070Y10787
X15873Y10398
X15558Y10511
X15283Y9965
X15283Y9571
X15283Y9177
X15834Y9492
X16110Y9729
X16420Y9414
X16617Y9375
X16447Y10122
X16267Y10398
X15992Y11346
X15834Y11621
X15519Y11621
X15244Y11740
X15283Y11346
X15873Y12094
X16464Y11621
X16779Y11543
X17133Y11543
X17566Y11543
X17960Y11779
X18157Y11543
X18382Y11306
X18521Y11897
X17803Y12291
X17995Y12921
X17995Y13118
X18192Y13118
X17995Y13315
X17798Y13315
X17601Y13315
X17404Y13315
X17404Y13118
X17207Y13118
X17010Y13118
X16814Y12921
X17094Y12527
X17601Y12919
X17601Y13118
X17798Y13118
X18192Y13512
X18379Y13701
X17995Y13708
X17995Y13905
X17995Y14102
X17803Y14102
X17798Y13905
X17601Y14102
X17601Y14300
X17798Y14300
X17995Y14299
X18192Y14299
X18039Y14889
X18432Y14889
X18826Y14889
X19023Y14574
X19220Y14889
X19456Y14929
X19535Y14653
X19349Y14356
X19535Y14259
X19299Y14141
X19574Y13432
X18984Y13118
X18664Y13432
X17404Y13904
X17207Y13904
X17207Y13708
X17010Y13512
X16814Y13512
X16814Y13708
X16814Y13905
X16814Y14102
X16814Y14299
X17010Y14299
X16814Y14496
X16858Y14924
X16464Y14924
X16070Y14924
X15873Y14535
X15558Y14648
X15283Y14102
X15283Y13708
X15283Y13314
X15834Y13629
X16110Y13866
X16420Y13551
X16617Y13512
X16447Y14259
X16267Y14535
X15992Y15483
X15834Y15758
X15519Y15758
X15244Y15877
X15283Y15483
X15873Y16231
X16464Y15758
X16779Y15680
X17133Y15680
X17566Y15680
X17960Y15916
X18157Y15680
X18382Y15444
X18521Y16034
X17803Y16428
X17995Y17058
X17995Y17255
X18192Y17255
X17995Y17452
X17798Y17452
X17601Y17452
X17404Y17452
X17404Y17255
X17207Y17255
X17010Y17255
X16814Y17058
X17094Y16664
X17601Y17056
X17601Y17255
X17798Y17255
X18192Y17649
X18379Y17838
X17995Y17845
X17995Y18042
X17995Y18239
X17803Y18239
X17798Y18042
X17601Y18239
X17601Y18437
X17798Y18437
X17995Y18436
X18192Y18436
X18039Y19026
X18432Y19026
X18826Y19026
X19023Y18711
X19220Y19026
X19456Y19066
X19535Y18790
X19349Y18493
X19535Y18396
X19299Y18278
X19574Y17569
X18984Y17255
X18664Y17569
X17404Y18041
X17207Y18041
X17207Y17845
X17010Y17649
X16814Y17649
X16814Y17845
X16814Y18042
X16814Y18239
X16814Y18436
X17010Y18436
X16814Y18633
X16858Y19061
X16464Y19061
X16070Y19061
X15873Y18672
X15558Y18785
X15283Y18239
X15283Y17845
X15283Y17451
X15834Y17766
X16110Y18003
X16420Y17688
X16617Y17649
X16447Y18396
X16267Y18672
X15992Y19620
X15834Y19895
X15519Y19895
X15244Y20014
X15283Y19620
X15873Y20368
X16464Y19895
X16779Y19817
X17133Y19817
X17566Y19817
X17960Y20053
X18157Y19817
X18382Y19581
X18521Y20171
X17803Y20565
X17094Y20801
X16814Y21195
X17010Y21392
X17207Y21392
X17404Y21392
X17404Y21589
X17601Y21589
X17798Y21589
X17995Y21589
X17995Y21392
X18192Y21392
X17995Y21195
X17798Y21392
X17601Y21392
X17601Y21193
X18192Y21786
X18379Y21975
X17995Y21982
X17995Y22179
X17798Y22179
X17803Y22376
X17995Y22376
X17995Y22573
X18192Y22573
X17798Y22574
X17601Y22574
X17404Y22574
X17404Y22770
X17251Y23163
X16858Y23198
X16464Y23198
X16070Y23198
X15873Y22809
X15558Y22922
X16267Y22809
X16447Y22533
X16814Y22573
X17010Y22573
X16814Y22376
X16814Y22179
X16814Y21982
X16814Y21786
X17010Y21786
X17207Y21982
X17207Y22178
X17404Y22178
X17601Y22376
X16814Y22770
X16110Y22140
X15834Y21903
X15283Y21982
X15283Y21588
X15283Y22376
X16420Y21825
X16617Y21786
X18039Y23163
X18432Y23163
X18826Y23163
X19023Y22848
X19220Y23163
X19456Y23203
X19535Y22927
X19349Y22630
X19535Y22533
X19299Y22415
X19574Y21706
X18984Y21392
X18664Y21706
X19524Y20171
X19456Y19620
X21388Y19620
X21625Y19895
X21349Y20014
X21940Y19895
X22097Y19620
X22569Y19895
X22884Y19817
X23239Y19817
X23672Y19817
X24066Y20053
X24262Y19817
X24488Y19581
X24538Y19026
X24932Y19026
X25129Y18711
X25325Y19026
X25562Y19066
X25640Y18790
X25454Y18493
X25640Y18396
X25404Y18278
X25680Y17569
X25089Y17255
X24769Y17569
X24484Y17838
X24297Y17649
X24100Y17845
X24100Y18042
X23903Y18042
X23908Y18239
X24100Y18239
X24100Y18436
X23903Y18437
X23707Y18437
X23510Y18437
X23510Y18633
X23357Y19026
X22963Y19061
X22569Y19061
X22176Y19061
X22373Y18672
X22553Y18396
X22919Y18436
X22919Y18239
X22919Y18042
X22919Y17845
X22919Y17649
X22722Y17649
X22525Y17688
X22215Y18003
X21940Y17766
X21388Y17845
X21388Y17451
X21388Y18239
X21664Y18785
X21979Y18672
X22919Y18633
X23116Y18436
X23313Y18041
X23313Y17845
X23510Y18041
X23707Y18239
X24297Y18436
X24144Y19026
X24627Y20171
X23908Y20565
X24100Y21195
X24100Y21392
X23903Y21392
X23707Y21392
X23707Y21589
X23903Y21589
X24100Y21589
X24297Y21786
X24484Y21975
X24100Y21982
X24100Y22179
X23903Y22179
X23908Y22376
X24100Y22376
X24100Y22573
X23903Y22574
X23707Y22574
X23510Y22574
X23510Y22770
X23357Y23163
X22963Y23198
X22569Y23198
X22176Y23198
X22373Y22809
X22553Y22533
X22919Y22573
X22919Y22376
X22919Y22179
X22919Y21982
X22919Y21786
X22722Y21786
X22525Y21825
X22215Y22140
X21940Y21903
X21388Y21982
X21388Y21588
X21388Y22376
X21979Y22809
X21664Y22922
X21388Y23757
X21625Y24032
X21349Y24151
X21940Y24032
X22097Y23757
X22569Y24032
X22884Y23954
X23239Y23954
X23672Y23954
X24066Y24190
X24262Y23954
X24488Y23718
X24538Y23163
X24932Y23163
X25129Y22848
X25325Y23163
X25562Y23203
X25640Y22927
X25454Y22630
X25640Y22533
X25404Y22415
X25680Y21706
X25089Y21392
X24769Y21706
X24297Y21392
X23707Y21193
X23510Y21392
X23510Y21589
X23313Y21392
X23116Y21392
X22919Y21195
X23199Y20801
X23116Y21786
X23313Y21982
X23313Y22178
X23510Y22178
X23707Y22376
X24297Y22573
X24144Y23163
X23116Y22573
X22919Y22770
X24627Y24308
X23908Y24702
X24100Y25332
X24100Y25529
X23903Y25529
X23707Y25529
X23707Y25726
X23903Y25726
X24100Y25726
X24297Y25923
X24484Y26112
X24100Y26119
X24100Y26316
X23903Y26316
X23908Y26513
X24100Y26513
X24100Y26710
X23903Y26711
X23707Y26711
X23510Y26711
X23510Y26907
X23357Y27300
X22963Y27335
X22569Y27335
X22176Y27335
X22373Y26946
X22553Y26670
X22919Y26710
X22919Y26513
X22919Y26316
X22919Y26119
X22919Y25923
X22722Y25923
X22525Y25962
X22215Y26277
X21940Y26040
X21388Y26119
X21388Y25725
X21388Y26513
X21664Y27059
X21979Y26946
X22919Y26907
X23116Y26710
X23313Y26315
X23313Y26119
X23510Y26315
X23707Y26513
X24297Y26710
X24144Y27300
X24538Y27300
X24932Y27300
X25129Y26985
X25325Y27300
X25562Y27340
X25640Y27064
X25454Y26767
X25640Y26670
X25404Y26552
X25680Y25844
X25089Y25529
X24769Y25843
X24297Y25529
X23707Y25330
X23510Y25529
X23510Y25726
X23313Y25529
X23116Y25529
X22919Y25332
X23199Y24938
X23116Y25923
X21979Y24505
X19524Y24308
X19456Y23757
X18382Y23718
X18157Y23954
X17960Y24190
X17566Y23954
X17133Y23954
X16779Y23954
X16464Y24032
X15992Y23757
X15834Y24032
X15519Y24032
X15244Y24151
X15283Y23757
X15873Y24505
X16814Y25332
X17010Y25529
X17207Y25529
X17404Y25529
X17404Y25726
X17601Y25726
X17798Y25726
X17995Y25726
X17995Y25529
X18192Y25529
X17995Y25332
X17798Y25529
X17601Y25529
X17601Y25330
X17094Y24938
X17803Y24702
X18521Y24308
X18984Y25529
X18664Y25843
X18379Y26112
X18192Y25923
X17995Y26119
X17995Y26316
X17798Y26316
X17803Y26513
X17995Y26513
X17995Y26710
X18192Y26710
X17798Y26711
X17601Y26711
X17404Y26711
X17404Y26907
X17251Y27300
X16858Y27335
X16464Y27335
X16070Y27335
X15873Y26946
X15558Y27059
X15283Y26513
X15283Y26119
X15283Y25725
X15834Y26040
X16110Y26277
X16420Y25962
X16617Y25923
X16814Y25923
X17010Y25923
X16814Y26119
X16814Y26316
X16814Y26513
X16814Y26710
X17010Y26710
X16814Y26907
X16447Y26670
X16267Y26946
X15992Y27894
X15834Y28169
X15519Y28169
X15244Y28288
X15283Y27894
X15873Y28642
X16464Y28169
X16779Y28091
X17133Y28091
X17566Y28091
X17960Y28327
X18157Y28091
X18382Y27855
X18432Y27300
X18039Y27300
X18826Y27300
X19023Y26985
X19220Y27300
X19456Y27340
X19535Y27064
X19349Y26767
X19535Y26670
X19299Y26552
X19574Y25844
X19456Y27894
X19524Y28445
X18521Y28445
X17803Y28839
X17094Y29075
X16814Y29469
X17010Y29666
X17207Y29666
X17404Y29666
X17404Y29863
X17601Y29863
X17798Y29863
X17995Y29863
X17995Y29666
X18192Y29666
X17995Y29469
X17798Y29666
X17601Y29666
X17601Y29467
X18192Y30060
X18379Y30249
X17995Y30256
X17995Y30453
X17798Y30453
X17803Y30650
X17995Y30650
X17995Y30847
X18192Y30847
X17798Y30848
X17601Y30848
X17404Y30848
X17404Y31044
X17251Y31437
X16858Y31472
X16464Y31472
X16070Y31472
X15873Y31083
X15558Y31196
X15283Y30650
X15283Y30256
X15283Y29862
X15834Y30177
X16110Y30414
X16420Y30099
X16617Y30060
X16814Y30060
X17010Y30060
X16814Y30256
X16814Y30453
X16814Y30650
X16814Y30847
X17010Y30847
X16814Y31044
X16447Y30807
X16267Y31083
X15992Y32031
X15834Y32307
X15519Y32307
X15244Y32425
X15283Y32031
X15873Y32779
X16464Y32307
X16779Y32228
X17133Y32228
X17566Y32228
X17960Y32464
X18157Y32228
X18382Y31992
X18432Y31437
X18039Y31437
X18826Y31437
X19023Y31122
X19220Y31437
X19456Y31477
X19535Y31201
X19349Y30904
X19535Y30807
X19299Y30689
X19574Y29981
X18984Y29666
X18664Y29980
X17601Y30650
X17404Y30452
X17207Y30452
X17207Y30256
X18521Y32582
X17803Y32976
X17995Y33606
X17995Y33803
X18192Y33803
X17995Y34000
X17798Y34000
X17601Y34000
X17404Y34000
X17404Y33803
X17207Y33803
X17010Y33803
X16814Y33606
X17094Y33212
X17601Y33604
X17601Y33803
X17798Y33803
X18192Y34197
X18379Y34386
X17995Y34394
X17995Y34590
X17798Y34590
X17803Y34787
X17995Y34787
X17995Y34984
X18192Y34984
X17798Y34985
X17601Y34985
X17404Y34985
X17404Y35181
X17251Y35574
X16858Y35609
X16464Y35609
X16070Y35609
X15873Y35220
X15558Y35333
X15283Y34787
X15283Y34393
X15283Y33999
X15834Y34314
X16110Y34551
X16420Y34236
X16617Y34197
X16814Y34197
X17010Y34197
X16814Y34394
X16814Y34590
X16814Y34787
X16814Y34984
X17010Y34984
X16814Y35181
X16447Y34944
X16267Y35220
X15992Y36168
X15834Y36444
X15519Y36444
X15244Y36562
X15283Y36168
X15873Y36916
X16464Y36444
X16779Y36365
X17133Y36365
X17566Y36365
X17960Y36601
X18157Y36365
X18382Y36129
X18432Y35574
X18039Y35574
X18826Y35574
X19023Y35259
X19220Y35574
X19456Y35614
X19535Y35338
X19349Y35041
X19535Y34944
X19299Y34826
X19574Y34118
X18984Y33803
X18664Y34117
X17601Y34787
X17404Y34589
X17207Y34589
X17207Y34394
X18521Y36719
X17803Y37113
X17995Y37743
X17995Y37940
X18192Y37940
X17995Y38137
X17798Y38137
X17601Y38137
X17404Y38137
X17404Y37940
X17207Y37940
X17010Y37940
X16814Y37743
X17094Y37349
X17601Y37741
X17601Y37940
X17798Y37940
X18192Y38334
X18379Y38523
X17995Y38531
X17995Y38727
X17798Y38727
X17803Y38924
X17995Y38924
X17995Y39121
X18192Y39121
X17798Y39122
X17601Y39122
X17404Y39122
X17404Y39318
X17251Y39711
X16858Y39746
X16464Y39746
X16070Y39746
X15873Y39357
X15558Y39470
X15283Y38924
X15283Y38530
X15283Y38136
X15834Y38451
X16110Y38688
X16420Y38373
X16617Y38334
X16814Y38334
X17010Y38334
X16814Y38531
X16814Y38727
X16814Y38924
X16814Y39121
X17010Y39121
X16814Y39318
X16447Y39081
X16267Y39357
X17207Y38726
X17207Y38531
X17404Y38726
X17601Y38924
X18039Y39711
X18432Y39711
X18826Y39711
X19023Y39396
X19220Y39711
X19456Y39751
X19535Y39475
X19349Y39178
X19535Y39081
X19299Y38963
X19574Y38255
X18984Y37940
X18664Y38254
X19524Y36719
X19456Y36168
X21388Y36168
X21625Y36444
X21349Y36562
X21940Y36444
X22097Y36168
X22569Y36444
X22884Y36365
X23239Y36365
X23672Y36365
X24066Y36601
X24262Y36365
X24488Y36129
X24538Y35574
X24932Y35574
X25129Y35259
X25325Y35574
X25562Y35614
X25640Y35338
X25454Y35041
X25640Y34944
X25404Y34826
X25680Y34118
X25089Y33803
X24769Y34117
X24484Y34386
X24297Y34197
X24100Y34394
X24100Y34590
X23903Y34590
X23908Y34787
X24100Y34787
X24100Y34984
X23903Y34985
X23707Y34985
X23510Y34985
X23510Y35181
X23357Y35574
X22963Y35609
X22569Y35609
X22176Y35609
X22373Y35220
X22553Y34944
X22919Y34984
X22919Y34787
X22919Y34590
X22919Y34394
X22919Y34197
X22722Y34197
X22525Y34236
X22215Y34551
X21940Y34314
X21388Y34393
X21388Y33999
X21388Y34787
X21664Y35333
X21979Y35220
X22919Y35181
X23116Y34984
X23313Y34589
X23313Y34394
X23510Y34589
X23707Y34787
X24297Y34984
X24144Y35574
X24627Y36719
X23908Y37113
X24100Y37743
X24100Y37940
X23903Y37940
X23707Y37940
X23707Y38137
X23903Y38137
X24100Y38137
X24297Y38334
X24484Y38523
X24100Y38531
X24100Y38727
X23903Y38727
X23908Y38924
X24100Y38924
X24100Y39121
X23903Y39122
X23707Y39122
X23510Y39122
X23510Y39318
X23357Y39711
X22963Y39746
X22569Y39746
X22176Y39746
X22373Y39357
X22553Y39081
X22919Y39121
X22919Y38924
X22919Y38727
X22919Y38531
X22919Y38334
X22722Y38334
X22525Y38373
X22215Y38688
X21940Y38451
X21388Y38530
X21388Y38136
X21388Y38924
X21664Y39470
X21979Y39357
X22919Y39318
X23116Y39121
X23313Y38726
X23313Y38531
X23510Y38726
X23707Y38924
X24297Y39121
X24144Y39711
X24538Y39711
X24932Y39711
X25129Y39396
X25325Y39711
X25562Y39751
X25640Y39475
X25454Y39178
X25640Y39081
X25404Y38963
X25680Y38255
X25089Y37940
X24769Y38254
X24297Y37940
X23707Y37741
X23510Y37940
X23510Y38137
X23313Y37940
X23116Y37940
X22919Y37743
X23199Y37349
X23116Y38334
X21979Y36916
X23116Y34197
X23116Y33803
X23313Y33803
X23510Y33803
X23707Y33803
X23903Y33803
X23903Y34000
X23707Y34000
X23510Y34000
X23707Y33604
X24100Y33606
X24100Y33803
X24100Y34000
X24297Y33803
X23908Y32976
X24066Y32464
X24262Y32228
X24488Y31992
X24538Y31437
X24932Y31437
X25129Y31122
X25325Y31437
X25562Y31477
X25640Y31201
X25454Y30904
X25640Y30807
X25404Y30689
X25680Y29981
X25089Y29666
X24769Y29980
X24484Y30249
X24297Y30060
X24100Y30256
X24100Y30453
X23903Y30453
X23908Y30650
X24100Y30650
X24100Y30847
X23903Y30848
X23707Y30848
X23510Y30848
X23510Y31044
X23357Y31437
X22963Y31472
X22569Y31472
X22176Y31472
X22373Y31083
X22553Y30807
X22919Y30847
X22919Y30650
X22919Y30453
X22919Y30256
X22919Y30060
X22722Y30060
X22525Y30099
X22215Y30414
X21940Y30177
X21388Y30256
X21388Y29862
X21388Y30650
X21664Y31196
X21979Y31083
X22919Y31044
X23116Y30847
X23313Y30452
X23313Y30256
X23510Y30452
X23707Y30650
X24297Y30847
X24144Y31437
X23672Y32228
X23239Y32228
X22884Y32228
X22569Y32307
X22097Y32031
X21940Y32307
X21625Y32307
X21349Y32425
X21388Y32031
X21979Y32779
X22919Y33606
X23199Y33212
X24627Y32582
X25630Y32582
X25562Y32031
X27494Y32031
X27730Y32307
X27455Y32425
X28045Y32307
X28203Y32031
X28675Y32307
X28990Y32228
X29344Y32228
X29777Y32228
X30171Y32464
X30368Y32228
X30594Y31992
X30644Y31437
X31037Y31437
X31234Y31122
X31431Y31437
X31667Y31477
X31746Y31201
X31560Y30904
X31746Y30807
X31510Y30689
X31785Y29981
X31195Y29666
X30875Y29980
X30590Y30249
X30403Y30060
X30206Y30256
X30206Y30453
X30009Y30453
X30014Y30650
X30206Y30650
X30206Y30847
X30403Y30847
X30009Y30848
X29812Y30848
X29615Y30848
X29615Y31044
X29462Y31437
X29069Y31472
X28675Y31472
X28281Y31472
X28084Y31083
X27769Y31196
X27494Y30650
X27494Y30256
X27494Y29862
X28045Y30177
X28321Y30414
X28631Y30099
X28828Y30060
X29025Y30060
X29221Y30060
X29025Y30256
X29025Y30453
X29025Y30650
X29025Y30847
X29221Y30847
X29025Y31044
X28658Y30807
X28478Y31083
X29418Y30452
X29418Y30256
X29615Y30452
X29812Y30650
X29812Y29863
X29615Y29863
X29615Y29666
X29418Y29666
X29221Y29666
X29025Y29469
X29305Y29075
X29812Y29467
X29812Y29666
X30009Y29666
X30206Y29666
X30403Y29666
X30206Y29863
X30009Y29863
X30206Y29469
X30014Y28839
X30171Y28327
X30368Y28091
X30594Y27855
X30644Y27300
X31037Y27300
X31234Y26985
X31431Y27300
X31667Y27340
X31746Y27064
X31560Y26767
X31746Y26670
X31510Y26552
X31785Y25844
X31195Y25529
X30875Y25843
X30590Y26112
X30403Y25923
X30206Y26119
X30206Y26316
X30009Y26316
X30014Y26513
X30206Y26513
X30206Y26710
X30403Y26710
X30009Y26711
X29812Y26711
X29615Y26711
X29615Y26907
X29462Y27300
X29069Y27335
X28675Y27335
X28281Y27335
X28084Y26946
X27769Y27059
X27494Y26513
X27494Y26119
X27494Y25725
X28045Y26040
X28321Y26277
X28631Y25962
X28828Y25923
X29025Y25923
X29221Y25923
X29025Y26119
X29025Y26316
X29025Y26513
X29025Y26710
X29221Y26710
X29025Y26907
X28658Y26670
X28478Y26946
X28203Y27894
X28045Y28169
X27730Y28169
X27455Y28288
X27494Y27894
X28084Y28642
X28675Y28169
X28990Y28091
X29344Y28091
X29777Y28091
X30732Y28445
X31735Y28445
X31667Y27894
X30250Y27300
X29812Y26513
X29615Y26315
X29418Y26315
X29418Y26119
X29615Y25726
X29812Y25726
X30009Y25726
X30206Y25726
X30206Y25529
X30403Y25529
X30206Y25332
X30009Y25529
X29812Y25529
X29615Y25529
X29418Y25529
X29221Y25529
X29025Y25332
X29305Y24938
X29812Y25330
X30014Y24702
X30171Y24190
X30368Y23954
X30594Y23718
X30644Y23163
X31037Y23163
X31234Y22848
X31431Y23163
X31667Y23203
X31746Y22927
X31560Y22630
X31746Y22533
X31510Y22415
X31785Y21706
X31195Y21392
X30875Y21706
X30590Y21975
X30403Y21786
X30206Y21982
X30206Y22179
X30009Y22179
X30014Y22376
X30206Y22376
X30206Y22573
X30403Y22573
X30009Y22574
X29812Y22574
X29615Y22574
X29615Y22770
X29462Y23163
X29069Y23198
X28675Y23198
X28281Y23198
X28084Y22809
X27769Y22922
X27494Y23757
X27730Y24032
X27455Y24151
X28045Y24032
X28203Y23757
X28675Y24032
X28990Y23954
X29344Y23954
X29777Y23954
X30732Y24308
X31735Y24308
X31667Y23757
X30250Y23163
X29812Y22376
X29615Y22178
X29418Y22178
X29418Y21982
X29221Y21786
X29025Y21786
X29025Y21982
X29025Y22179
X29025Y22376
X29025Y22573
X29221Y22573
X29025Y22770
X28658Y22533
X28478Y22809
X28321Y22140
X28045Y21903
X27494Y21982
X27494Y21588
X27494Y22376
X28631Y21825
X28828Y21786
X29221Y21392
X29418Y21392
X29615Y21392
X29615Y21589
X29812Y21589
X30009Y21589
X30206Y21589
X30206Y21392
X30403Y21392
X30206Y21195
X30009Y21392
X29812Y21392
X29812Y21193
X29305Y20801
X29025Y21195
X30014Y20565
X30171Y20053
X30368Y19817
X30594Y19581
X30644Y19026
X31037Y19026
X31234Y18711
X31431Y19026
X31667Y19066
X31746Y18790
X31560Y18493
X31746Y18396
X31510Y18278
X31785Y17569
X31195Y17255
X30875Y17569
X30590Y17838
X30403Y17649
X30206Y17845
X30206Y18042
X30009Y18042
X30014Y18239
X30206Y18239
X30206Y18436
X30403Y18436
X30009Y18437
X29812Y18437
X29615Y18437
X29615Y18633
X29462Y19026
X29069Y19061
X28675Y19061
X28281Y19061
X28084Y18672
X27769Y18785
X27494Y18239
X27494Y17845
X27494Y17451
X28045Y17766
X28321Y18003
X28631Y17688
X28828Y17649
X29025Y17649
X29221Y17649
X29025Y17845
X29025Y18042
X29025Y18239
X29025Y18436
X29221Y18436
X29025Y18633
X28658Y18396
X28478Y18672
X28203Y19620
X28045Y19895
X27730Y19895
X27455Y20014
X27494Y19620
X28084Y20368
X28675Y19895
X28990Y19817
X29344Y19817
X29777Y19817
X30732Y20171
X31735Y20171
X31667Y19620
X30250Y19026
X29812Y18239
X29615Y18041
X29418Y18041
X29418Y17845
X29615Y17452
X29812Y17452
X30009Y17452
X30206Y17452
X30206Y17255
X30403Y17255
X30206Y17058
X30009Y17255
X29812Y17255
X29615Y17255
X29418Y17255
X29221Y17255
X29025Y17058
X29305Y16664
X29812Y17056
X30014Y16428
X30171Y15916
X30368Y15680
X30594Y15444
X30732Y16034
X29777Y15680
X29344Y15680
X28990Y15680
X28675Y15758
X28203Y15483
X28045Y15758
X27730Y15758
X27455Y15877
X27494Y15483
X28084Y16231
X28281Y14924
X28675Y14924
X29069Y14924
X29462Y14889
X29615Y14496
X29615Y14300
X29812Y14300
X30009Y14300
X30206Y14299
X30403Y14299
X30206Y14102
X30014Y14102
X30009Y13905
X30206Y13905
X30206Y13708
X30403Y13512
X30590Y13701
X30875Y13432
X31195Y13118
X30403Y13118
X30206Y13118
X30206Y13315
X30009Y13315
X29812Y13315
X29615Y13315
X29615Y13118
X29418Y13118
X29221Y13118
X29025Y12921
X29305Y12527
X29812Y12919
X29812Y13118
X30009Y13118
X30206Y12921
X30014Y12291
X30171Y11779
X30368Y11543
X30594Y11306
X30732Y11897
X29777Y11543
X29344Y11543
X28990Y11543
X28675Y11621
X28203Y11346
X28045Y11621
X27730Y11621
X27455Y11740
X27494Y11346
X28084Y12094
X28281Y10787
X28675Y10787
X29069Y10787
X29462Y10752
X29615Y10359
X29615Y10163
X29812Y10163
X30009Y10163
X30206Y10162
X30403Y10162
X30206Y9965
X30014Y9965
X30009Y9768
X30206Y9768
X30206Y9571
X30403Y9375
X30590Y9564
X30875Y9295
X31195Y8981
X30403Y8981
X30206Y8981
X30206Y9178
X30009Y9178
X29812Y9178
X29615Y9178
X29615Y8981
X29418Y8981
X29221Y8981
X29025Y8784
X29305Y8390
X29812Y8782
X29812Y8981
X30009Y8981
X30206Y8784
X30014Y8154
X30171Y7642
X30368Y7406
X30594Y7169
X30644Y6615
X31037Y6615
X31234Y6300
X31431Y6615
X31667Y6655
X31746Y6379
X31560Y6082
X31746Y5985
X31510Y5867
X31785Y5158
X31195Y4844
X30875Y5158
X30590Y5427
X30403Y5238
X30206Y5434
X30206Y5631
X30009Y5631
X30014Y5828
X30206Y5828
X30206Y6025
X30403Y6025
X30009Y6026
X29812Y6026
X29615Y6026
X29615Y6222
X29462Y6615
X29069Y6650
X28675Y6650
X28281Y6650
X28084Y6261
X27769Y6374
X27494Y5828
X27494Y5434
X27494Y5040
X28045Y5355
X28321Y5592
X28631Y5277
X28828Y5238
X29025Y5238
X29025Y5434
X29025Y5631
X29025Y5828
X29025Y6025
X29221Y6025
X29025Y6222
X28658Y5985
X28478Y6261
X28203Y7209
X28045Y7484
X27730Y7484
X27455Y7603
X27494Y7209
X28084Y7957
X28675Y7484
X28990Y7406
X29344Y7406
X29777Y7406
X30250Y6615
X29812Y5828
X29615Y5630
X29418Y5630
X29418Y5434
X29221Y5238
X29221Y4844
X29418Y4844
X29615Y4844
X29615Y5041
X29812Y5041
X30009Y5041
X30206Y5041
X30206Y4844
X30403Y4844
X30206Y4647
X30009Y4844
X29812Y4844
X29812Y4645
X29305Y4253
X29025Y4647
X30014Y4017
X30171Y3505
X30368Y3269
X30594Y3032
X30732Y3623
X29777Y3269
X29344Y3269
X28990Y3269
X28675Y3347
X28203Y3072
X28045Y3347
X27730Y3347
X27455Y3466
X27494Y3072
X28084Y3820
X25630Y3623
X25562Y3072
X24488Y3032
X24262Y3269
X24066Y3505
X23672Y3269
X23239Y3269
X22884Y3269
X22569Y3347
X22097Y3072
X21940Y3347
X21625Y3347
X21349Y3466
X21388Y3072
X21979Y3820
X22919Y4647
X23116Y4844
X23313Y4844
X23510Y4844
X23707Y4844
X23903Y4844
X23903Y5041
X23707Y5041
X23510Y5041
X23313Y5434
X23313Y5630
X23510Y5630
X23707Y5828
X23707Y6026
X23903Y6026
X24100Y6025
X24100Y5828
X23908Y5828
X23903Y5631
X24100Y5631
X24100Y5434
X24297Y5238
X24484Y5427
X24769Y5158
X25089Y4844
X25680Y5158
X25404Y5867
X25454Y6082
X25640Y5985
X25640Y6379
X25562Y6655
X25325Y6615
X25129Y6300
X24932Y6615
X24538Y6615
X24144Y6615
X24488Y7169
X24262Y7406
X24066Y7642
X23672Y7406
X23239Y7406
X22884Y7406
X22569Y7484
X22097Y7209
X21940Y7484
X21625Y7484
X21349Y7603
X21388Y7209
X22176Y6650
X22569Y6650
X22963Y6650
X23357Y6615
X23510Y6222
X23510Y6026
X23116Y6025
X22919Y6025
X22919Y5828
X22919Y5631
X22919Y5434
X22919Y5238
X22722Y5238
X22525Y5277
X22215Y5592
X21940Y5355
X21388Y5434
X21388Y5040
X21388Y5828
X21664Y6374
X21979Y6261
X22373Y6261
X22553Y5985
X22919Y6222
X23116Y5238
X23707Y4645
X24100Y4647
X24100Y4844
X24100Y5041
X24297Y4844
X23908Y4017
X24627Y3623
X23199Y4253
X24297Y6025
X25562Y7209
X25630Y7760
X24627Y7760
X23908Y8154
X24100Y8784
X24100Y8981
X23903Y8981
X23707Y8981
X23707Y9178
X23903Y9178
X24100Y9178
X24297Y9375
X24484Y9564
X24100Y9571
X24100Y9768
X23903Y9768
X23908Y9965
X24100Y9965
X24100Y10162
X23903Y10163
X23707Y10163
X23510Y10163
X23510Y10359
X23357Y10752
X22963Y10787
X22569Y10787
X22176Y10787
X22373Y10398
X22553Y10122
X22919Y10162
X22919Y9965
X22919Y9768
X22919Y9571
X22919Y9375
X22722Y9375
X22525Y9414
X22215Y9729
X21940Y9492
X21388Y9571
X21388Y9177
X21388Y9965
X21664Y10511
X21979Y10398
X22919Y10359
X23116Y10162
X23313Y9767
X23313Y9571
X23510Y9767
X23707Y9965
X24297Y10162
X24144Y10752
X24538Y10752
X24932Y10752
X25129Y10437
X25325Y10752
X25562Y10792
X25640Y10516
X25454Y10219
X25640Y10122
X25404Y10004
X25680Y9295
X25089Y8981
X24769Y9295
X24297Y8981
X23707Y8782
X23510Y8981
X23510Y9178
X23313Y8981
X23116Y8981
X22919Y8784
X23199Y8390
X21979Y7957
X23116Y9375
X23239Y11543
X22884Y11543
X22569Y11621
X22097Y11346
X21940Y11621
X21625Y11621
X21349Y11740
X21388Y11346
X21979Y12094
X22919Y12921
X23116Y13118
X23313Y13118
X23510Y13118
X23707Y13118
X23903Y13118
X23903Y13315
X23707Y13315
X23510Y13315
X23313Y13708
X23313Y13904
X23510Y13904
X23707Y14102
X23707Y14300
X23903Y14300
X24100Y14299
X24100Y14102
X23908Y14102
X23903Y13905
X24100Y13905
X24100Y13708
X24297Y13512
X24484Y13701
X24769Y13432
X25089Y13118
X25680Y13432
X25404Y14141
X25454Y14356
X25640Y14259
X25640Y14653
X25562Y14929
X25325Y14889
X25129Y14574
X24932Y14889
X24538Y14889
X24144Y14889
X24297Y14299
X23510Y14300
X23510Y14496
X23357Y14889
X22963Y14924
X22569Y14924
X22176Y14924
X22373Y14535
X22553Y14259
X22919Y14299
X22919Y14102
X22919Y13905
X22919Y13708
X22919Y13512
X22722Y13512
X22525Y13551
X22215Y13866
X21940Y13629
X21388Y13708
X21388Y13314
X21388Y14102
X21664Y14648
X21979Y14535
X22919Y14496
X23116Y14299
X23116Y13512
X23707Y12919
X24100Y12921
X24100Y13118
X24100Y13315
X24297Y13118
X23908Y12291
X24066Y11779
X24262Y11543
X24488Y11306
X24627Y11897
X25630Y11897
X25562Y11346
X23672Y11543
X23199Y12527
X23239Y15680
X22884Y15680
X22569Y15758
X22097Y15483
X21940Y15758
X21625Y15758
X21349Y15877
X21388Y15483
X21979Y16231
X22919Y17058
X23116Y17255
X23313Y17255
X23510Y17255
X23707Y17255
X23903Y17255
X23903Y17452
X23707Y17452
X23510Y17452
X23116Y17649
X23707Y17056
X24100Y17058
X24100Y17255
X24100Y17452
X24297Y17255
X23908Y16428
X24066Y15916
X24262Y15680
X24488Y15444
X24627Y16034
X25630Y16034
X25562Y15483
X23672Y15680
X23199Y16664
X25562Y19620
X25630Y20171
X25562Y23757
X25630Y24308
X28084Y24505
X25562Y27894
X25630Y28445
X24627Y28445
X24262Y28091
X24066Y28327
X23672Y28091
X23239Y28091
X22884Y28091
X22569Y28169
X22097Y27894
X21940Y28169
X21625Y28169
X21349Y28288
X21388Y27894
X21979Y28642
X22919Y29469
X23116Y29666
X23313Y29666
X23510Y29666
X23707Y29666
X23903Y29666
X23903Y29863
X23707Y29863
X23510Y29863
X23116Y30060
X23707Y29467
X24100Y29469
X24100Y29666
X24100Y29863
X24297Y29666
X23908Y28839
X23199Y29075
X24488Y27855
X19456Y32031
X19524Y32582
X13419Y32582
X13351Y32031
X13351Y31477
X13114Y31437
X12918Y31122
X12721Y31437
X12327Y31437
X11933Y31437
X12277Y31992
X12051Y32228
X11855Y32464
X11461Y32228
X11028Y32228
X10673Y32228
X10358Y32307
X9886Y32031
X9729Y32307
X9414Y32307
X9138Y32425
X9177Y32031
X9453Y31196
X9768Y31083
X10162Y31083
X10342Y30807
X10708Y30847
X10708Y30650
X10708Y30453
X10708Y30256
X10708Y30060
X10511Y30060
X10314Y30099
X10004Y30414
X9729Y30177
X9177Y30256
X9177Y29862
X9177Y30650
X9965Y31472
X10358Y31472
X10752Y31472
X11146Y31437
X11299Y31044
X11299Y30848
X11495Y30848
X11692Y30848
X11889Y30847
X11889Y30650
X11697Y30650
X11692Y30453
X11889Y30453
X11889Y30256
X12086Y30060
X12273Y30249
X12558Y29980
X12878Y29666
X12086Y29666
X11889Y29666
X11692Y29666
X11495Y29666
X11299Y29666
X11299Y29863
X11495Y29863
X11692Y29863
X11889Y29863
X11889Y29469
X11495Y29467
X11102Y29666
X10905Y29666
X10708Y29469
X10988Y29075
X11697Y28839
X11855Y28327
X12051Y28091
X12277Y27855
X12416Y28445
X13351Y27894
X13419Y28445
X13469Y29981
X13193Y30689
X13243Y30904
X13429Y30807
X13429Y31201
X12086Y30847
X11495Y30650
X11299Y30452
X11102Y30452
X11102Y30256
X10905Y30060
X10905Y30847
X10708Y31044
X9768Y32779
X10708Y33606
X10905Y33803
X11102Y33803
X11299Y33803
X11495Y33803
X11495Y34000
X11299Y34000
X11692Y34000
X11692Y33803
X11889Y33803
X11889Y34000
X12086Y34197
X12273Y34386
X11889Y34394
X11889Y34590
X11692Y34590
X11697Y34787
X11889Y34787
X11889Y34984
X11692Y34985
X11495Y34985
X11299Y34985
X11299Y35181
X11146Y35574
X10752Y35609
X10358Y35609
X9965Y35609
X10162Y35220
X10342Y34944
X10708Y34984
X10708Y34787
X10708Y34590
X10708Y34394
X10708Y34197
X10511Y34197
X10314Y34236
X10004Y34551
X9729Y34314
X9177Y34393
X9177Y33999
X9177Y34787
X9453Y35333
X9768Y35220
X10708Y35181
X10905Y34984
X11102Y34589
X11102Y34394
X11299Y34589
X11495Y34787
X12086Y34984
X11933Y35574
X12327Y35574
X12721Y35574
X12918Y35259
X13114Y35574
X13351Y35614
X13429Y35338
X13243Y35041
X13429Y34944
X13193Y34826
X13469Y34118
X12878Y33803
X12558Y34117
X12086Y33803
X11889Y33606
X11495Y33604
X10988Y33212
X11697Y32976
X12416Y32582
X10905Y34197
X11028Y36365
X10673Y36365
X10358Y36444
X9886Y36168
X9729Y36444
X9414Y36444
X9138Y36562
X9177Y36168
X9768Y36916
X10708Y37743
X10905Y37940
X11102Y37940
X11299Y37940
X11495Y37940
X11495Y38137
X11299Y38137
X11692Y38137
X11692Y37940
X11889Y37940
X11889Y38137
X12086Y38334
X12273Y38523
X11889Y38531
X11889Y38727
X11692Y38727
X11697Y38924
X11889Y38924
X11889Y39121
X11692Y39122
X11495Y39122
X11299Y39122
X11299Y39318
X11146Y39711
X10752Y39746
X10358Y39746
X9965Y39746
X10162Y39357
X10342Y39081
X10708Y39121
X10708Y38924
X10708Y38727
X10708Y38531
X10708Y38334
X10511Y38334
X10314Y38373
X10004Y38688
X9729Y38451
X9177Y38530
X9177Y38136
X9177Y38924
X9453Y39470
X9768Y39357
X10708Y39318
X10905Y39121
X11102Y38726
X11102Y38531
X11299Y38726
X11495Y38924
X12086Y39121
X11933Y39711
X12327Y39711
X12721Y39711
X12918Y39396
X13114Y39711
X13351Y39751
X13429Y39475
X13243Y39178
X13429Y39081
X13193Y38963
X13469Y38255
X12878Y37940
X12558Y38254
X12086Y37940
X11889Y37743
X11495Y37741
X10988Y37349
X11697Y37113
X11855Y36601
X12051Y36365
X12277Y36129
X12416Y36719
X13351Y36168
X13419Y36719
X11461Y36365
X10905Y38334
X7363Y38255
X6773Y37940
X6453Y38254
X6168Y38523
X5981Y38334
X5784Y38531
X5784Y38727
X5587Y38727
X5592Y38924
X5784Y38924
X5784Y39121
X5981Y39121
X5587Y39122
X5390Y39122
X5193Y39122
X5193Y39318
X5040Y39711
X4647Y39746
X4253Y39746
X3859Y39746
X3662Y39357
X3347Y39470
X3072Y38924
X3072Y38530
X3072Y38136
X3623Y38451
X3899Y38688
X4209Y38373
X4406Y38334
X4603Y38334
X4799Y38334
X4603Y38531
X4603Y38727
X4603Y38924
X4603Y39121
X4799Y39121
X4603Y39318
X4236Y39081
X4056Y39357
X4996Y38726
X4996Y38531
X5193Y38726
X5390Y38924
X5828Y39711
X6221Y39711
X6615Y39711
X6812Y39396
X7009Y39711
X7245Y39751
X7324Y39475
X7138Y39178
X7324Y39081
X7088Y38963
X5981Y37940
X5784Y37940
X5784Y38137
X5587Y38137
X5390Y38137
X5193Y38137
X5193Y37940
X4996Y37940
X4799Y37940
X4603Y37743
X4883Y37349
X5390Y37741
X5390Y37940
X5587Y37940
X5784Y37743
X5592Y37113
X5749Y36601
X5946Y36365
X6171Y36129
X6221Y35574
X5828Y35574
X5193Y35181
X5193Y34985
X5390Y34985
X5587Y34985
X5784Y34984
X5981Y34984
X5784Y34787
X5592Y34787
X5587Y34590
X5784Y34590
X5784Y34394
X5981Y34197
X6168Y34386
X6453Y34117
X6773Y33803
X7363Y34118
X7088Y34826
X7138Y35041
X7324Y34944
X7324Y35338
X7245Y35614
X7009Y35574
X6812Y35259
X6615Y35574
X7245Y36168
X7313Y36719
X6310Y36719
X5355Y36365
X4922Y36365
X4568Y36365
X4253Y36444
X3781Y36168
X3623Y36444
X3308Y36444
X3032Y36562
X3072Y36168
X3662Y36916
X3859Y35609
X4253Y35609
X4647Y35609
X5040Y35574
X4603Y35181
X4603Y34984
X4799Y34984
X4603Y34787
X4603Y34590
X4603Y34394
X4603Y34197
X4799Y34197
X4996Y34394
X4996Y34589
X5193Y34589
X5390Y34787
X5390Y34000
X5587Y34000
X5784Y34000
X5784Y33803
X5981Y33803
X5784Y33606
X5587Y33803
X5390Y33803
X5193Y33803
X4996Y33803
X4799Y33803
X4603Y33606
X4883Y33212
X5390Y33604
X5193Y34000
X4406Y34197
X4209Y34236
X3899Y34551
X3623Y34314
X3072Y34393
X3072Y33999
X3072Y34787
X3347Y35333
X3662Y35220
X4056Y35220
X4236Y34944
X3662Y32779
X3623Y32307
X3308Y32307
X3032Y32425
X3072Y32031
X3781Y32031
X4253Y32307
X4568Y32228
X4922Y32228
X5355Y32228
X5749Y32464
X5946Y32228
X6171Y31992
X6221Y31437
X5828Y31437
X5193Y31044
X5193Y30848
X5390Y30848
X5587Y30848
X5784Y30847
X5981Y30847
X5784Y30650
X5592Y30650
X5587Y30453
X5784Y30453
X5784Y30256
X5981Y30060
X6168Y30249
X6453Y29980
X6773Y29666
X7363Y29981
X7088Y30689
X7138Y30904
X7324Y30807
X7324Y31201
X7245Y31477
X7009Y31437
X6812Y31122
X6615Y31437
X7245Y32031
X7313Y32582
X6310Y32582
X5592Y32976
X5040Y31437
X4647Y31472
X4253Y31472
X3859Y31472
X3662Y31083
X3347Y31196
X3072Y30650
X3072Y30256
X3072Y29862
X3623Y30177
X3899Y30414
X4209Y30099
X4406Y30060
X4603Y30060
X4799Y30060
X4603Y30256
X4603Y30453
X4603Y30650
X4603Y30847
X4799Y30847
X4603Y31044
X4236Y30807
X4056Y31083
X4996Y30452
X4996Y30256
X5193Y30452
X5390Y30650
X5390Y29863
X5587Y29863
X5784Y29863
X5784Y29666
X5981Y29666
X5784Y29469
X5587Y29666
X5390Y29666
X5193Y29666
X4996Y29666
X4799Y29666
X4603Y29469
X4883Y29075
X5390Y29467
X5193Y29863
X5592Y28839
X6310Y28445
X7313Y28445
X7245Y27894
X9177Y27894
X9414Y28169
X9138Y28288
X9729Y28169
X9886Y27894
X10358Y28169
X10673Y28091
X11028Y28091
X11461Y28091
X9768Y28642
X7313Y24308
X7245Y23757
X7313Y16034
X7245Y15483
X9177Y15483
X9414Y15758
X9138Y15877
X9729Y15758
X9886Y15483
X10358Y15758
X10673Y15680
X11028Y15680
X11461Y15680
X12086Y14299
X11692Y13905
X10905Y13512
X9768Y12094
X9729Y11621
X9414Y11621
X9138Y11740
X9177Y11346
X9886Y11346
X10358Y11621
X10673Y11543
X11028Y11543
X11461Y11543
X13419Y11897
X13469Y13432
X13193Y14141
X13243Y14356
X13429Y14259
X13429Y14653
X17251Y14889
X17404Y14496
X17404Y14300
X19456Y15483
X19524Y16034
X17404Y18437
X17404Y18633
X17251Y19026
X21979Y20368
X17207Y26119
X17207Y26315
X17404Y26315
X17601Y26513
X27494Y33999
X27494Y34393
X27494Y34787
X27769Y35333
X28084Y35220
X28478Y35220
X28658Y34944
X29025Y34984
X29221Y34984
X29025Y34787
X29025Y34590
X29025Y34394
X29025Y34197
X29221Y34197
X29418Y34394
X29418Y34589
X29615Y34589
X29812Y34787
X29812Y34985
X29615Y34985
X29615Y35181
X29462Y35574
X29069Y35609
X28675Y35609
X28281Y35609
X28203Y36168
X28045Y36444
X27730Y36444
X27455Y36562
X27494Y36168
X28084Y36916
X28675Y36444
X28990Y36365
X29344Y36365
X29777Y36365
X30171Y36601
X30368Y36365
X30594Y36129
X30644Y35574
X31037Y35574
X31234Y35259
X31431Y35574
X31667Y35614
X31746Y35338
X31560Y35041
X31746Y34944
X31510Y34826
X31785Y34118
X31195Y33803
X30875Y34117
X30590Y34386
X30403Y34197
X30206Y34394
X30206Y34590
X30009Y34590
X30014Y34787
X30206Y34787
X30206Y34984
X30403Y34984
X30009Y34985
X30250Y35574
X30732Y36719
X30014Y37113
X30206Y37743
X30206Y37940
X30403Y37940
X30206Y38137
X30009Y38137
X29812Y38137
X29615Y38137
X29615Y37940
X29418Y37940
X29221Y37940
X29025Y37743
X29305Y37349
X29812Y37741
X29812Y37940
X30009Y37940
X30403Y38334
X30590Y38523
X30206Y38531
X30206Y38727
X30009Y38727
X30014Y38924
X30206Y38924
X30206Y39121
X30403Y39121
X30009Y39122
X29812Y39122
X29615Y39122
X29615Y39318
X29462Y39711
X29069Y39746
X28675Y39746
X28281Y39746
X28084Y39357
X27769Y39470
X27494Y38924
X27494Y38530
X27494Y38136
X28045Y38451
X28321Y38688
X28631Y38373
X28828Y38334
X29025Y38334
X29221Y38334
X29025Y38531
X29025Y38727
X29025Y38924
X29025Y39121
X29221Y39121
X29025Y39318
X28658Y39081
X28478Y39357
X29418Y38726
X29418Y38531
X29615Y38726
X29812Y38924
X30250Y39711
X30644Y39711
X31037Y39711
X31234Y39396
X31431Y39711
X31667Y39751
X31746Y39475
X31560Y39178
X31746Y39081
X31510Y38963
X31785Y38255
X31195Y37940
X30875Y38254
X31735Y36719
X31667Y36168
X33599Y36168
X33836Y36444
X33560Y36562
X34151Y36444
X34308Y36168
X34781Y36444
X35095Y36365
X35450Y36365
X35883Y36365
X36277Y36601
X36473Y36365
X36699Y36129
X36749Y35574
X36355Y35574
X37143Y35574
X37340Y35259
X37536Y35574
X37773Y35614
X37851Y35338
X37665Y35041
X37851Y34944
X37615Y34826
X37891Y34118
X37300Y33803
X36981Y34117
X36695Y34386
X36508Y34197
X36311Y34394
X36311Y34590
X36114Y34590
X36119Y34787
X36311Y34787
X36311Y34984
X36114Y34985
X35918Y34985
X35721Y34985
X35721Y35181
X35568Y35574
X35174Y35609
X34781Y35609
X34387Y35609
X34584Y35220
X34764Y34944
X35130Y34984
X35130Y34787
X35130Y34590
X35130Y34394
X35130Y34197
X34933Y34197
X34736Y34236
X34426Y34551
X34151Y34314
X33599Y34393
X33599Y33999
X33599Y34787
X33875Y35333
X34190Y35220
X35130Y35181
X35327Y34984
X35524Y34589
X35524Y34394
X35721Y34589
X35918Y34787
X36508Y34984
X36311Y34000
X36114Y34000
X35918Y34000
X35918Y33803
X36114Y33803
X36311Y33803
X36311Y33606
X36508Y33803
X35918Y33604
X35721Y33803
X35721Y34000
X35524Y33803
X35327Y33803
X35130Y33606
X35410Y33212
X36119Y32976
X36277Y32464
X36473Y32228
X36699Y31992
X36749Y31437
X36355Y31437
X37143Y31437
X37340Y31122
X37536Y31437
X37773Y31477
X37851Y31201
X37665Y30904
X37851Y30807
X37615Y30689
X37891Y29981
X37300Y29666
X36981Y29980
X36695Y30249
X36508Y30060
X36311Y30256
X36311Y30453
X36114Y30453
X36119Y30650
X36311Y30650
X36311Y30847
X36114Y30848
X35918Y30848
X35721Y30848
X35721Y31044
X35568Y31437
X35174Y31472
X34781Y31472
X34387Y31472
X34584Y31083
X34764Y30807
X35130Y30847
X35130Y30650
X35130Y30453
X35130Y30256
X35130Y30060
X34933Y30060
X34736Y30099
X34426Y30414
X34151Y30177
X33599Y30256
X33599Y29862
X33599Y30650
X33875Y31196
X34190Y31083
X35130Y31044
X35327Y30847
X35524Y30452
X35524Y30256
X35721Y30452
X35918Y30650
X36508Y30847
X36311Y29863
X36114Y29863
X35918Y29863
X35918Y29666
X36114Y29666
X36311Y29666
X36311Y29469
X36508Y29666
X35918Y29467
X35721Y29666
X35721Y29863
X35524Y29666
X35327Y29666
X35130Y29469
X35410Y29075
X36119Y28839
X36277Y28327
X36473Y28091
X36699Y27855
X36749Y27300
X36355Y27300
X36311Y26710
X36114Y26711
X35918Y26711
X35721Y26711
X35721Y26907
X35568Y27300
X35174Y27335
X34781Y27335
X34387Y27335
X34584Y26946
X34764Y26670
X35130Y26710
X35130Y26513
X35130Y26316
X35130Y26119
X35130Y25923
X34933Y25923
X34736Y25962
X34426Y26277
X34151Y26040
X33599Y26119
X33599Y25725
X33599Y26513
X33875Y27059
X34190Y26946
X35130Y26907
X35327Y26710
X35524Y26315
X35524Y26119
X35721Y26315
X35918Y26513
X36119Y26513
X36311Y26513
X36311Y26316
X36311Y26119
X36508Y25923
X36695Y26112
X36981Y25843
X37300Y25529
X37891Y25844
X37615Y26552
X37665Y26767
X37851Y26670
X37851Y27064
X37773Y27340
X37536Y27300
X37340Y26985
X37143Y27300
X36508Y26710
X36114Y26316
X36114Y25726
X35918Y25726
X35918Y25529
X36114Y25529
X36311Y25529
X36311Y25726
X36508Y25529
X36311Y25332
X35918Y25330
X35721Y25529
X35721Y25726
X35524Y25529
X35327Y25529
X35130Y25332
X35410Y24938
X36119Y24702
X36277Y24190
X36473Y23954
X36699Y23718
X36749Y23163
X36355Y23163
X36311Y22573
X36114Y22574
X35918Y22574
X35721Y22574
X35721Y22770
X35568Y23163
X35174Y23198
X34781Y23198
X34387Y23198
X34584Y22809
X34764Y22533
X35130Y22573
X35130Y22376
X35130Y22179
X35130Y21982
X35130Y21786
X34933Y21786
X34736Y21825
X34426Y22140
X34151Y21903
X33599Y21982
X33599Y21588
X33599Y22376
X34190Y22809
X33875Y22922
X33599Y23757
X33836Y24032
X33560Y24151
X34151Y24032
X34308Y23757
X34781Y24032
X35095Y23954
X35450Y23954
X35883Y23954
X36838Y24308
X37841Y24308
X37773Y23757
X37773Y23203
X37536Y23163
X37340Y22848
X37143Y23163
X37665Y22630
X37851Y22533
X37615Y22415
X37891Y21706
X37300Y21392
X36981Y21706
X36695Y21975
X36508Y21786
X36311Y21982
X36311Y22179
X36114Y22179
X36119Y22376
X36311Y22376
X36508Y22573
X35918Y22376
X35721Y22178
X35524Y22178
X35524Y21982
X35327Y21786
X35327Y21392
X35524Y21392
X35721Y21392
X35918Y21392
X36114Y21392
X36114Y21589
X35918Y21589
X35721Y21589
X35918Y21193
X36311Y21195
X36311Y21392
X36311Y21589
X36508Y21392
X36119Y20565
X36277Y20053
X36473Y19817
X36699Y19581
X36749Y19026
X36355Y19026
X36311Y18436
X36114Y18437
X35918Y18437
X35721Y18437
X35721Y18633
X35568Y19026
X35174Y19061
X34781Y19061
X34387Y19061
X34584Y18672
X34764Y18396
X35130Y18436
X35130Y18239
X35130Y18042
X35130Y17845
X35130Y17649
X34933Y17649
X34736Y17688
X34426Y18003
X34151Y17766
X33599Y17845
X33599Y17451
X33599Y18239
X33875Y18785
X34190Y18672
X35130Y18633
X35327Y18436
X35524Y18041
X35524Y17845
X35721Y18041
X35918Y18239
X36119Y18239
X36311Y18239
X36311Y18042
X36311Y17845
X36508Y17649
X36695Y17838
X36981Y17569
X37300Y17255
X37891Y17569
X37615Y18278
X37665Y18493
X37851Y18396
X37851Y18790
X37773Y19066
X37536Y19026
X37340Y18711
X37143Y19026
X36508Y18436
X36114Y18042
X36114Y17452
X35918Y17452
X35918Y17255
X36114Y17255
X36311Y17255
X36311Y17452
X36508Y17255
X36311Y17058
X35918Y17056
X35721Y17255
X35721Y17452
X35524Y17255
X35327Y17255
X35130Y17058
X35410Y16664
X36119Y16428
X36277Y15916
X36473Y15680
X36699Y15444
X36838Y16034
X37841Y16034
X37773Y15483
X37773Y14929
X37536Y14889
X37340Y14574
X37143Y14889
X36749Y14889
X36355Y14889
X36311Y14299
X36114Y14300
X35918Y14300
X35721Y14300
X35721Y14496
X35568Y14889
X35174Y14924
X34781Y14924
X34387Y14924
X34584Y14535
X34764Y14259
X35130Y14299
X35130Y14102
X35130Y13905
X35130Y13708
X35130Y13512
X34933Y13512
X34736Y13551
X34426Y13866
X34151Y13629
X33599Y13708
X33599Y13314
X33599Y14102
X33875Y14648
X34190Y14535
X35130Y14496
X35327Y14299
X35524Y13904
X35524Y13708
X35721Y13904
X35918Y14102
X36119Y14102
X36311Y14102
X36311Y13905
X36311Y13708
X36508Y13512
X36695Y13701
X36981Y13432
X37300Y13118
X37891Y13432
X37615Y14141
X37665Y14356
X37851Y14259
X37851Y14653
X36508Y14299
X36114Y13905
X36114Y13315
X35918Y13315
X35918Y13118
X36114Y13118
X36311Y13118
X36311Y13315
X36508Y13118
X36311Y12921
X35918Y12919
X35721Y13118
X35721Y13315
X35524Y13118
X35327Y13118
X35130Y12921
X35410Y12527
X36119Y12291
X36277Y11779
X36473Y11543
X36699Y11306
X36838Y11897
X37841Y11897
X37773Y11346
X37773Y10792
X37536Y10752
X37340Y10437
X37143Y10752
X36749Y10752
X36355Y10752
X36311Y10162
X36114Y10163
X35918Y10163
X35721Y10163
X35721Y10359
X35568Y10752
X35174Y10787
X34781Y10787
X34387Y10787
X34584Y10398
X34764Y10122
X35130Y10162
X35130Y9965
X35130Y9768
X35130Y9571
X35130Y9375
X34933Y9375
X34736Y9414
X34426Y9729
X34151Y9492
X33599Y9571
X33599Y9177
X33599Y9965
X33875Y10511
X34190Y10398
X35130Y10359
X35327Y10162
X35524Y9767
X35524Y9571
X35721Y9767
X35918Y9965
X36119Y9965
X36311Y9965
X36311Y9768
X36311Y9571
X36508Y9375
X36695Y9564
X36981Y9295
X37300Y8981
X37891Y9295
X37615Y10004
X37665Y10219
X37851Y10122
X37851Y10516
X36508Y10162
X36114Y9768
X36114Y9178
X35918Y9178
X35918Y8981
X36114Y8981
X36311Y8981
X36311Y9178
X36508Y8981
X36311Y8784
X35918Y8782
X35721Y8981
X35721Y9178
X35524Y8981
X35327Y8981
X35130Y8784
X35410Y8390
X36119Y8154
X36277Y7642
X36473Y7406
X36699Y7169
X36749Y6615
X36355Y6615
X37143Y6615
X37340Y6300
X37536Y6615
X37773Y6655
X37851Y6379
X37665Y6082
X37851Y5985
X37615Y5867
X37891Y5158
X37300Y4844
X36981Y5158
X36695Y5427
X36508Y5238
X36311Y5434
X36311Y5631
X36114Y5631
X36119Y5828
X36311Y5828
X36311Y6025
X36114Y6026
X35918Y6026
X35721Y6026
X35721Y6222
X35568Y6615
X35174Y6650
X34781Y6650
X34387Y6650
X34584Y6261
X34764Y5985
X35130Y6025
X35130Y5828
X35130Y5631
X35130Y5434
X35130Y5238
X34933Y5238
X34736Y5277
X34426Y5592
X34151Y5355
X33599Y5434
X33599Y5040
X33599Y5828
X33875Y6374
X34190Y6261
X35130Y6222
X35327Y6025
X35524Y5630
X35524Y5434
X35721Y5630
X35918Y5828
X36508Y6025
X36311Y5041
X36114Y5041
X35918Y5041
X35918Y4844
X36114Y4844
X36311Y4844
X36311Y4647
X36508Y4844
X35918Y4645
X35721Y4844
X35721Y5041
X35524Y4844
X35327Y4844
X35130Y4647
X35410Y4253
X36119Y4017
X36277Y3505
X36473Y3269
X36699Y3032
X36838Y3623
X37841Y3623
X37773Y3072
X35883Y3269
X35450Y3269
X35095Y3269
X34781Y3347
X34308Y3072
X34151Y3347
X33836Y3347
X33560Y3466
X33599Y3072
X34190Y3820
X35327Y5238
X35450Y7406
X35095Y7406
X34781Y7484
X34308Y7209
X34151Y7484
X33836Y7484
X33560Y7603
X33599Y7209
X34190Y7957
X35327Y9375
X35450Y11543
X35095Y11543
X34781Y11621
X34308Y11346
X34151Y11621
X33836Y11621
X33560Y11740
X33599Y11346
X34190Y12094
X35327Y13512
X35883Y11543
X36838Y7760
X37841Y7760
X37773Y7209
X35883Y7406
X31785Y9295
X31510Y10004
X31560Y10219
X31746Y10122
X31746Y10516
X31667Y10792
X31431Y10752
X31234Y10437
X31037Y10752
X30644Y10752
X30250Y10752
X29812Y9965
X29615Y9767
X29418Y9767
X29418Y9571
X29221Y9375
X29025Y9375
X29025Y9571
X29025Y9768
X29025Y9965
X29025Y10162
X29221Y10162
X29025Y10359
X28658Y10122
X28478Y10398
X28084Y10398
X27769Y10511
X27494Y9965
X27494Y9571
X27494Y9177
X28045Y9492
X28321Y9729
X28631Y9414
X28828Y9375
X30732Y7760
X31735Y7760
X31667Y7209
X31735Y3623
X31667Y3072
X31667Y11346
X31735Y11897
X31785Y13432
X31510Y14141
X31560Y14356
X31746Y14259
X31746Y14653
X31667Y14929
X31431Y14889
X31234Y14574
X31037Y14889
X30644Y14889
X30250Y14889
X29812Y14102
X29615Y13904
X29418Y13904
X29418Y13708
X29221Y13512
X29025Y13512
X29025Y13708
X29025Y13905
X29025Y14102
X29025Y14299
X29221Y14299
X29025Y14496
X28658Y14259
X28478Y14535
X28084Y14535
X27769Y14648
X27494Y14102
X27494Y13708
X27494Y13314
X28045Y13629
X28321Y13866
X28631Y13551
X28828Y13512
X31667Y15483
X31735Y16034
X33560Y15877
X33836Y15758
X34151Y15758
X34308Y15483
X34781Y15758
X35095Y15680
X35450Y15680
X35883Y15680
X34190Y16231
X33599Y15483
X35327Y17649
X34308Y19620
X34151Y19895
X33836Y19895
X33560Y20014
X33599Y19620
X34190Y20368
X34781Y19895
X35095Y19817
X35450Y19817
X35883Y19817
X36838Y20171
X37841Y20171
X37773Y19620
X35410Y20801
X35130Y21195
X35327Y22573
X35130Y22770
X34190Y24505
X35327Y25923
X34308Y27894
X34151Y28169
X33836Y28169
X33560Y28288
X33599Y27894
X34190Y28642
X34781Y28169
X35095Y28091
X35450Y28091
X35883Y28091
X36838Y28445
X37841Y28445
X37773Y27894
X35327Y30060
X35450Y32228
X35095Y32228
X34781Y32307
X34308Y32031
X34151Y32307
X33836Y32307
X33560Y32425
X33599Y32031
X34190Y32779
X35327Y34197
X36838Y32582
X37841Y32582
X37773Y32031
X35883Y32228
X31735Y32582
X31667Y32031
X30732Y32582
X30014Y32976
X30206Y33606
X30206Y33803
X30403Y33803
X30206Y34000
X30009Y34000
X29812Y34000
X29615Y34000
X29615Y33803
X29418Y33803
X29221Y33803
X29025Y33606
X29305Y33212
X29812Y33604
X29812Y33803
X30009Y33803
X28828Y34197
X28631Y34236
X28321Y34551
X28045Y34314
X29025Y35181
X28084Y32779
X30250Y31437
X25562Y36168
X25630Y36719
X33599Y38136
X33599Y38530
X33599Y38924
X33875Y39470
X34190Y39357
X34584Y39357
X34764Y39081
X35130Y39121
X35130Y38924
X35130Y38727
X35130Y38531
X35130Y38334
X34933Y38334
X34736Y38373
X34426Y38688
X34151Y38451
X35130Y37743
X35327Y37940
X35524Y37940
X35721Y37940
X35918Y37940
X36114Y37940
X36114Y38137
X35918Y38137
X35721Y38137
X35524Y38531
X35524Y38726
X35721Y38726
X35918Y38924
X35918Y39122
X36114Y39122
X36311Y39121
X36311Y38924
X36119Y38924
X36114Y38727
X36311Y38727
X36311Y38531
X36508Y38334
X36695Y38523
X36981Y38254
X37300Y37940
X37891Y38255
X37615Y38963
X37665Y39178
X37851Y39081
X37851Y39475
X37773Y39751
X37536Y39711
X37340Y39396
X37143Y39711
X36749Y39711
X36355Y39711
X36508Y39121
X35721Y39122
X35721Y39318
X35568Y39711
X35174Y39746
X34781Y39746
X34387Y39746
X35130Y39318
X35327Y39121
X35327Y38334
X35918Y37741
X36311Y37743
X36311Y37940
X36311Y38137
X36508Y37940
X36119Y37113
X35410Y37349
X34190Y36916
X36838Y36719
X37841Y36719
X37773Y36168
X37851Y22927
X19524Y11897
X19456Y11346
X17404Y10359
X17404Y10163
X17251Y10752
X15873Y7957
X15283Y7209
X15558Y6374
X15873Y6261
X16267Y6261
X16447Y5985
X16814Y6025
X17010Y6025
X16814Y6222
X16814Y5828
X16814Y5631
X16814Y5434
X16814Y5238
X17010Y5238
X17207Y5434
X17207Y5630
X17404Y5630
X17601Y5828
X17601Y5041
X17798Y5041
X17995Y5041
X17995Y4844
X18192Y4844
X17995Y4647
X17798Y4844
X17601Y4844
X17404Y4844
X17207Y4844
X17010Y4844
X16814Y4647
X17094Y4253
X17601Y4645
X17404Y5041
X16617Y5238
X16420Y5277
X16110Y5592
X15834Y5355
X15283Y5434
X15283Y5040
X15283Y5828
X16070Y6650
X16464Y6650
X16858Y6650
X17251Y6615
X17803Y4017
X17960Y3505
X18157Y3269
X18382Y3032
X18521Y3623
X19524Y3623
X19456Y3072
X17566Y3269
X17133Y3269
X16779Y3269
X16464Y3347
X15992Y3072
X15834Y3347
X15519Y3347
X15244Y3466
X15283Y3072
X15873Y3820
X13419Y3623
X13351Y3072
X12416Y3623
X12051Y3269
X11855Y3505
X11461Y3269
X11028Y3269
X10673Y3269
X10358Y3347
X9886Y3072
X9729Y3347
X9414Y3347
X9138Y3466
X9177Y3072
X9768Y3820
X10708Y4647
X10905Y4844
X11102Y4844
X11299Y4844
X11495Y4844
X11495Y5041
X11299Y5041
X11692Y5041
X11692Y4844
X11889Y4844
X11889Y5041
X12086Y4844
X11889Y4647
X11495Y4645
X10988Y4253
X11697Y4017
X12277Y3032
X10905Y5238
X7313Y3623
X7245Y3072
X3662Y7957
X5193Y10163
X5193Y10359
X5040Y10752
X7245Y11346
X7313Y11897
X5193Y14300
X5193Y14496
X5040Y14889
X9768Y16231
M30
