G75*
%MOIN*%
%OFA0B0*%
%FSLAX25Y25*%
%IPPOS*%
%LPD*%
%AMOC8*
5,1,8,0,0,1.08239X$1,22.5*
%
%ADD10C,0.00500*%
%ADD11C,0.01969*%
%ADD12C,0.01500*%
%ADD13C,0.01100*%
%ADD14C,0.01000*%
D10*
X0028750Y0028750D02*
X0028750Y0068120D01*
X0087805Y0068120D01*
X0087805Y0028750D01*
X0028750Y0028750D01*
X0028750Y0070120D02*
X0028750Y0109490D01*
X0087805Y0109490D01*
X0087805Y0070120D01*
X0028750Y0070120D01*
X0028750Y0111490D02*
X0028750Y0150860D01*
X0087805Y0150860D01*
X0087805Y0111490D01*
X0028750Y0111490D01*
X0028750Y0152860D02*
X0028750Y0192230D01*
X0087805Y0192230D01*
X0087805Y0152860D01*
X0028750Y0152860D01*
X0028750Y0194230D02*
X0028750Y0233600D01*
X0087805Y0233600D01*
X0087805Y0194230D01*
X0028750Y0194230D01*
X0028750Y0235600D02*
X0028750Y0274970D01*
X0087805Y0274970D01*
X0087805Y0235600D01*
X0028750Y0235600D01*
X0028750Y0276970D02*
X0028750Y0316341D01*
X0087805Y0316341D01*
X0087805Y0276970D01*
X0028750Y0276970D01*
X0028750Y0318341D02*
X0028750Y0357711D01*
X0087805Y0357711D01*
X0087805Y0318341D01*
X0028750Y0318341D01*
X0028750Y0359711D02*
X0028750Y0399081D01*
X0087805Y0399081D01*
X0087805Y0359711D01*
X0028750Y0359711D01*
X0089805Y0359711D02*
X0089805Y0399081D01*
X0148860Y0399081D01*
X0148860Y0359711D01*
X0089805Y0359711D01*
X0089805Y0357711D02*
X0089805Y0318341D01*
X0148860Y0318341D01*
X0148860Y0357711D01*
X0089805Y0357711D01*
X0089805Y0316341D02*
X0089805Y0276970D01*
X0148860Y0276970D01*
X0148860Y0316341D01*
X0089805Y0316341D01*
X0089805Y0274970D02*
X0089805Y0235600D01*
X0148860Y0235600D01*
X0148860Y0274970D01*
X0089805Y0274970D01*
X0089805Y0233600D02*
X0089805Y0194230D01*
X0148860Y0194230D01*
X0148860Y0233600D01*
X0089805Y0233600D01*
X0089805Y0192230D02*
X0089805Y0152860D01*
X0148860Y0152860D01*
X0148860Y0192230D01*
X0089805Y0192230D01*
X0089805Y0150860D02*
X0089805Y0111490D01*
X0148860Y0111490D01*
X0148860Y0150860D01*
X0089805Y0150860D01*
X0089805Y0109490D02*
X0089805Y0070120D01*
X0148860Y0070120D01*
X0148860Y0109490D01*
X0089805Y0109490D01*
X0089805Y0068120D02*
X0089805Y0028750D01*
X0148860Y0028750D01*
X0148860Y0068120D01*
X0089805Y0068120D01*
X0150860Y0068120D02*
X0150860Y0028750D01*
X0209915Y0028750D01*
X0209915Y0068120D01*
X0150860Y0068120D01*
X0150860Y0070120D02*
X0150860Y0109490D01*
X0209915Y0109490D01*
X0209915Y0070120D01*
X0150860Y0070120D01*
X0150860Y0111490D02*
X0150860Y0150860D01*
X0209915Y0150860D01*
X0209915Y0111490D01*
X0150860Y0111490D01*
X0150860Y0152860D02*
X0150860Y0192230D01*
X0209915Y0192230D01*
X0209915Y0152860D01*
X0150860Y0152860D01*
X0150860Y0194230D02*
X0150860Y0233600D01*
X0209915Y0233600D01*
X0209915Y0194230D01*
X0150860Y0194230D01*
X0150860Y0235600D02*
X0150860Y0274970D01*
X0209915Y0274970D01*
X0209915Y0235600D01*
X0150860Y0235600D01*
X0150860Y0276970D02*
X0150860Y0316341D01*
X0209915Y0316341D01*
X0209915Y0276970D01*
X0150860Y0276970D01*
X0150860Y0318341D02*
X0150860Y0357711D01*
X0209915Y0357711D01*
X0209915Y0318341D01*
X0150860Y0318341D01*
X0150860Y0359711D02*
X0150860Y0399081D01*
X0209915Y0399081D01*
X0209915Y0359711D01*
X0150860Y0359711D01*
X0211915Y0359711D02*
X0211915Y0399081D01*
X0270971Y0399081D01*
X0270971Y0359711D01*
X0211915Y0359711D01*
X0211915Y0357711D02*
X0211915Y0318341D01*
X0270971Y0318341D01*
X0270971Y0357711D01*
X0211915Y0357711D01*
X0211915Y0316341D02*
X0211915Y0276970D01*
X0270971Y0276970D01*
X0270971Y0316341D01*
X0211915Y0316341D01*
X0211915Y0274970D02*
X0211915Y0235600D01*
X0270971Y0235600D01*
X0270971Y0274970D01*
X0211915Y0274970D01*
X0211915Y0233600D02*
X0211915Y0194230D01*
X0270971Y0194230D01*
X0270971Y0233600D01*
X0211915Y0233600D01*
X0211915Y0192230D02*
X0211915Y0152860D01*
X0270971Y0152860D01*
X0270971Y0192230D01*
X0211915Y0192230D01*
X0211915Y0150860D02*
X0211915Y0111490D01*
X0270971Y0111490D01*
X0270971Y0150860D01*
X0211915Y0150860D01*
X0211915Y0109490D02*
X0211915Y0070120D01*
X0270971Y0070120D01*
X0270971Y0109490D01*
X0211915Y0109490D01*
X0211915Y0068120D02*
X0211915Y0028750D01*
X0270971Y0028750D01*
X0270971Y0068120D01*
X0211915Y0068120D01*
X0272970Y0068120D02*
X0272970Y0028750D01*
X0332026Y0028750D01*
X0332026Y0068120D01*
X0272970Y0068120D01*
X0272970Y0070120D02*
X0272970Y0109490D01*
X0332026Y0109490D01*
X0332026Y0070120D01*
X0272970Y0070120D01*
X0272970Y0111490D02*
X0272970Y0150860D01*
X0332026Y0150860D01*
X0332026Y0111490D01*
X0272970Y0111490D01*
X0272970Y0152860D02*
X0272970Y0192230D01*
X0332026Y0192230D01*
X0332026Y0152860D01*
X0272970Y0152860D01*
X0272970Y0194230D02*
X0272970Y0233600D01*
X0332026Y0233600D01*
X0332026Y0194230D01*
X0272970Y0194230D01*
X0272970Y0235600D02*
X0272970Y0274970D01*
X0332026Y0274970D01*
X0332026Y0235600D01*
X0272970Y0235600D01*
X0272970Y0276970D02*
X0272970Y0316341D01*
X0332026Y0316341D01*
X0332026Y0276970D01*
X0272970Y0276970D01*
X0272970Y0318341D02*
X0272970Y0357711D01*
X0332026Y0357711D01*
X0332026Y0318341D01*
X0272970Y0318341D01*
X0272970Y0359711D02*
X0272970Y0399081D01*
X0332026Y0399081D01*
X0332026Y0359711D01*
X0272970Y0359711D01*
X0334026Y0359711D02*
X0334026Y0399081D01*
X0393081Y0399081D01*
X0393081Y0359711D01*
X0334026Y0359711D01*
X0334026Y0357711D02*
X0334026Y0318341D01*
X0393081Y0318341D01*
X0393081Y0357711D01*
X0334026Y0357711D01*
X0334026Y0316341D02*
X0334026Y0276970D01*
X0393081Y0276970D01*
X0393081Y0316341D01*
X0334026Y0316341D01*
X0334026Y0274970D02*
X0334026Y0235600D01*
X0393081Y0235600D01*
X0393081Y0274970D01*
X0334026Y0274970D01*
X0334026Y0233600D02*
X0334026Y0194230D01*
X0393081Y0194230D01*
X0393081Y0233600D01*
X0334026Y0233600D01*
X0334026Y0192230D02*
X0334026Y0152860D01*
X0393081Y0152860D01*
X0393081Y0192230D01*
X0334026Y0192230D01*
X0334026Y0150860D02*
X0334026Y0111490D01*
X0393081Y0111490D01*
X0393081Y0150860D01*
X0334026Y0150860D01*
X0334026Y0109490D02*
X0334026Y0070120D01*
X0393081Y0070120D01*
X0393081Y0109490D01*
X0334026Y0109490D01*
X0334026Y0068120D02*
X0334026Y0028750D01*
X0393081Y0028750D01*
X0393081Y0068120D01*
X0334026Y0068120D01*
D11*
X0319427Y0079569D02*
X0319427Y0086459D01*
X0319427Y0120939D02*
X0319427Y0127829D01*
X0319427Y0162309D02*
X0319427Y0169199D01*
X0319427Y0203679D02*
X0319427Y0210569D01*
X0319427Y0245049D02*
X0319427Y0251939D01*
X0319427Y0286419D02*
X0319427Y0293309D01*
X0319427Y0327789D02*
X0319427Y0334679D01*
X0319427Y0369159D02*
X0319427Y0376049D01*
X0258372Y0376049D02*
X0258372Y0369159D01*
X0258372Y0334679D02*
X0258372Y0327789D01*
X0258372Y0293309D02*
X0258372Y0286419D01*
X0258372Y0251939D02*
X0258372Y0245049D01*
X0258372Y0210569D02*
X0258372Y0203679D01*
X0258372Y0169199D02*
X0258372Y0162309D01*
X0258372Y0127829D02*
X0258372Y0120939D01*
X0258372Y0086459D02*
X0258372Y0079569D01*
X0258372Y0045089D02*
X0258372Y0038199D01*
X0319427Y0038199D02*
X0319427Y0045089D01*
X0380482Y0045089D02*
X0380482Y0038199D01*
X0380482Y0079569D02*
X0380482Y0086459D01*
X0380482Y0120939D02*
X0380482Y0127829D01*
X0380482Y0162309D02*
X0380482Y0169199D01*
X0380482Y0203679D02*
X0380482Y0210569D01*
X0380482Y0245049D02*
X0380482Y0251939D01*
X0380482Y0286419D02*
X0380482Y0293309D01*
X0380482Y0327789D02*
X0380482Y0334679D01*
X0380482Y0369159D02*
X0380482Y0376049D01*
X0197317Y0376049D02*
X0197317Y0369159D01*
X0197317Y0334679D02*
X0197317Y0327789D01*
X0197317Y0293309D02*
X0197317Y0286419D01*
X0197317Y0251939D02*
X0197317Y0245049D01*
X0197317Y0210569D02*
X0197317Y0203679D01*
X0197317Y0169199D02*
X0197317Y0162309D01*
X0197317Y0127829D02*
X0197317Y0120939D01*
X0197317Y0086459D02*
X0197317Y0079569D01*
X0197317Y0045089D02*
X0197317Y0038199D01*
X0136262Y0038199D02*
X0136262Y0045089D01*
X0136262Y0079569D02*
X0136262Y0086459D01*
X0136262Y0120939D02*
X0136262Y0127829D01*
X0136262Y0162309D02*
X0136262Y0169199D01*
X0136262Y0203679D02*
X0136262Y0210569D01*
X0136262Y0245049D02*
X0136262Y0251939D01*
X0136262Y0286419D02*
X0136262Y0293309D01*
X0136262Y0327789D02*
X0136262Y0334679D01*
X0136262Y0369159D02*
X0136262Y0376049D01*
X0075207Y0376049D02*
X0075207Y0369159D01*
X0075207Y0334679D02*
X0075207Y0327789D01*
X0075207Y0293309D02*
X0075207Y0286419D01*
X0075207Y0251939D02*
X0075207Y0245049D01*
X0075207Y0210569D02*
X0075207Y0203679D01*
X0075207Y0169199D02*
X0075207Y0162309D01*
X0075207Y0127829D02*
X0075207Y0120939D01*
X0075207Y0086459D02*
X0075207Y0079569D01*
X0075207Y0045089D02*
X0075207Y0038199D01*
D12*
X0088805Y0001750D02*
X0088805Y0451081D01*
X0027750Y0451081D02*
X0027750Y0001750D01*
X0001750Y0027750D02*
X0445081Y0027750D01*
X0445081Y0069120D02*
X0001750Y0069120D01*
X0001750Y0110490D02*
X0445081Y0110490D01*
X0445081Y0151860D02*
X0001750Y0151860D01*
X0001750Y0193230D02*
X0445081Y0193230D01*
X0445081Y0234600D02*
X0001750Y0234600D01*
X0001750Y0275970D02*
X0445081Y0275970D01*
X0445081Y0317341D02*
X0001750Y0317341D01*
X0001750Y0358711D02*
X0445081Y0358711D01*
X0445081Y0400081D02*
X0001750Y0400081D01*
X0149860Y0451081D02*
X0149860Y0001750D01*
X0210915Y0001750D02*
X0210915Y0451081D01*
X0271970Y0451081D02*
X0271970Y0001750D01*
X0333026Y0001750D02*
X0333026Y0451081D01*
X0394081Y0451081D02*
X0394081Y0001750D01*
D13*
X0459183Y0024800D02*
X0460494Y0028733D01*
X0457872Y0028733D02*
X0459183Y0024800D01*
X0463165Y0027094D02*
X0467098Y0027094D01*
X0470466Y0027094D02*
X0472105Y0026439D01*
X0472106Y0026439D02*
X0472158Y0026416D01*
X0472209Y0026389D01*
X0472258Y0026359D01*
X0472305Y0026326D01*
X0472350Y0026290D01*
X0472392Y0026250D01*
X0472431Y0026208D01*
X0472467Y0026164D01*
X0472500Y0026117D01*
X0472530Y0026067D01*
X0472557Y0026016D01*
X0472580Y0025964D01*
X0472599Y0025910D01*
X0472615Y0025854D01*
X0472627Y0025798D01*
X0472635Y0025741D01*
X0472639Y0025684D01*
X0472640Y0025626D01*
X0472636Y0025569D01*
X0472629Y0025512D01*
X0472617Y0025455D01*
X0472602Y0025400D01*
X0472584Y0025345D01*
X0472561Y0025292D01*
X0472535Y0025241D01*
X0472506Y0025192D01*
X0472473Y0025144D01*
X0472437Y0025099D01*
X0472399Y0025057D01*
X0472357Y0025017D01*
X0472313Y0024980D01*
X0472266Y0024946D01*
X0472218Y0024915D01*
X0472167Y0024888D01*
X0472115Y0024864D01*
X0472061Y0024844D01*
X0472006Y0024828D01*
X0471950Y0024815D01*
X0471893Y0024806D01*
X0471835Y0024801D01*
X0471778Y0024800D01*
X0472269Y0028405D02*
X0472162Y0028451D01*
X0472053Y0028494D01*
X0471943Y0028534D01*
X0471831Y0028570D01*
X0471719Y0028602D01*
X0471605Y0028631D01*
X0471491Y0028657D01*
X0471376Y0028678D01*
X0471261Y0028697D01*
X0471144Y0028711D01*
X0471028Y0028722D01*
X0470911Y0028729D01*
X0470794Y0028733D01*
X0470794Y0028734D02*
X0470737Y0028733D01*
X0470679Y0028728D01*
X0470622Y0028719D01*
X0470566Y0028706D01*
X0470511Y0028690D01*
X0470457Y0028670D01*
X0470405Y0028646D01*
X0470354Y0028619D01*
X0470306Y0028588D01*
X0470259Y0028554D01*
X0470215Y0028517D01*
X0470173Y0028477D01*
X0470135Y0028435D01*
X0470099Y0028390D01*
X0470066Y0028342D01*
X0470037Y0028293D01*
X0470011Y0028242D01*
X0469988Y0028189D01*
X0469970Y0028134D01*
X0469955Y0028079D01*
X0469943Y0028022D01*
X0469936Y0027965D01*
X0469932Y0027908D01*
X0469933Y0027850D01*
X0469937Y0027793D01*
X0469945Y0027736D01*
X0469957Y0027680D01*
X0469973Y0027624D01*
X0469992Y0027570D01*
X0470015Y0027518D01*
X0470042Y0027467D01*
X0470072Y0027417D01*
X0470105Y0027370D01*
X0470141Y0027326D01*
X0470180Y0027284D01*
X0470222Y0027244D01*
X0470267Y0027208D01*
X0470314Y0027175D01*
X0470363Y0027145D01*
X0470414Y0027118D01*
X0470466Y0027095D01*
X0469975Y0025128D02*
X0470109Y0025082D01*
X0470244Y0025039D01*
X0470380Y0025000D01*
X0470517Y0024964D01*
X0470654Y0024932D01*
X0470793Y0024903D01*
X0470932Y0024877D01*
X0471072Y0024856D01*
X0471213Y0024837D01*
X0471353Y0024823D01*
X0471495Y0024812D01*
X0471636Y0024804D01*
X0471778Y0024801D01*
X0475319Y0025783D02*
X0475319Y0027750D01*
X0475321Y0027812D01*
X0475327Y0027873D01*
X0475336Y0027934D01*
X0475350Y0027994D01*
X0475367Y0028054D01*
X0475388Y0028112D01*
X0475413Y0028169D01*
X0475441Y0028224D01*
X0475472Y0028277D01*
X0475507Y0028328D01*
X0475545Y0028377D01*
X0475585Y0028423D01*
X0475629Y0028467D01*
X0475675Y0028507D01*
X0475724Y0028545D01*
X0475775Y0028580D01*
X0475828Y0028611D01*
X0475883Y0028639D01*
X0475940Y0028664D01*
X0475998Y0028685D01*
X0476058Y0028702D01*
X0476118Y0028716D01*
X0476179Y0028725D01*
X0476240Y0028731D01*
X0476302Y0028733D01*
X0477613Y0028733D01*
X0480026Y0027422D02*
X0480026Y0026111D01*
X0480028Y0026040D01*
X0480034Y0025969D01*
X0480043Y0025899D01*
X0480057Y0025829D01*
X0480074Y0025760D01*
X0480095Y0025692D01*
X0480119Y0025626D01*
X0480147Y0025561D01*
X0480179Y0025497D01*
X0480214Y0025435D01*
X0480252Y0025375D01*
X0480293Y0025318D01*
X0480338Y0025262D01*
X0480385Y0025209D01*
X0480435Y0025159D01*
X0480488Y0025112D01*
X0480544Y0025067D01*
X0480601Y0025026D01*
X0480661Y0024988D01*
X0480723Y0024953D01*
X0480787Y0024921D01*
X0480852Y0024893D01*
X0480918Y0024869D01*
X0480986Y0024848D01*
X0481055Y0024831D01*
X0481125Y0024817D01*
X0481195Y0024808D01*
X0481266Y0024802D01*
X0481337Y0024800D01*
X0481408Y0024802D01*
X0481479Y0024808D01*
X0481549Y0024817D01*
X0481619Y0024831D01*
X0481688Y0024848D01*
X0481756Y0024869D01*
X0481822Y0024893D01*
X0481887Y0024921D01*
X0481951Y0024953D01*
X0482013Y0024988D01*
X0482073Y0025026D01*
X0482130Y0025067D01*
X0482186Y0025112D01*
X0482239Y0025159D01*
X0482289Y0025209D01*
X0482336Y0025262D01*
X0482381Y0025318D01*
X0482422Y0025375D01*
X0482460Y0025435D01*
X0482495Y0025497D01*
X0482527Y0025561D01*
X0482555Y0025626D01*
X0482579Y0025692D01*
X0482600Y0025760D01*
X0482617Y0025829D01*
X0482631Y0025899D01*
X0482640Y0025969D01*
X0482646Y0026040D01*
X0482648Y0026111D01*
X0482648Y0027422D01*
X0482646Y0027493D01*
X0482640Y0027564D01*
X0482631Y0027634D01*
X0482617Y0027704D01*
X0482600Y0027773D01*
X0482579Y0027841D01*
X0482555Y0027907D01*
X0482527Y0027972D01*
X0482495Y0028036D01*
X0482460Y0028098D01*
X0482422Y0028158D01*
X0482381Y0028215D01*
X0482336Y0028271D01*
X0482289Y0028324D01*
X0482239Y0028374D01*
X0482186Y0028421D01*
X0482130Y0028466D01*
X0482073Y0028507D01*
X0482013Y0028545D01*
X0481951Y0028580D01*
X0481887Y0028612D01*
X0481822Y0028640D01*
X0481756Y0028664D01*
X0481688Y0028685D01*
X0481619Y0028702D01*
X0481549Y0028716D01*
X0481479Y0028725D01*
X0481408Y0028731D01*
X0481337Y0028733D01*
X0481266Y0028731D01*
X0481195Y0028725D01*
X0481125Y0028716D01*
X0481055Y0028702D01*
X0480986Y0028685D01*
X0480918Y0028664D01*
X0480852Y0028640D01*
X0480787Y0028612D01*
X0480723Y0028580D01*
X0480661Y0028545D01*
X0480601Y0028507D01*
X0480544Y0028466D01*
X0480488Y0028421D01*
X0480435Y0028374D01*
X0480385Y0028324D01*
X0480338Y0028271D01*
X0480293Y0028215D01*
X0480252Y0028158D01*
X0480214Y0028098D01*
X0480179Y0028036D01*
X0480147Y0027972D01*
X0480119Y0027907D01*
X0480095Y0027841D01*
X0480074Y0027773D01*
X0480057Y0027704D01*
X0480043Y0027634D01*
X0480034Y0027564D01*
X0480028Y0027493D01*
X0480026Y0027422D01*
X0477613Y0024800D02*
X0476302Y0024800D01*
X0476240Y0024802D01*
X0476179Y0024808D01*
X0476118Y0024817D01*
X0476058Y0024831D01*
X0475998Y0024848D01*
X0475940Y0024869D01*
X0475883Y0024894D01*
X0475828Y0024922D01*
X0475775Y0024953D01*
X0475724Y0024988D01*
X0475675Y0025026D01*
X0475629Y0025066D01*
X0475585Y0025110D01*
X0475545Y0025156D01*
X0475507Y0025205D01*
X0475472Y0025256D01*
X0475441Y0025309D01*
X0475413Y0025364D01*
X0475388Y0025421D01*
X0475367Y0025479D01*
X0475350Y0025539D01*
X0475336Y0025599D01*
X0475327Y0025660D01*
X0475321Y0025721D01*
X0475319Y0025783D01*
X0485615Y0024800D02*
X0485615Y0028733D01*
X0487582Y0028733D01*
X0487582Y0028078D01*
X0489667Y0027422D02*
X0489667Y0025783D01*
X0489667Y0026767D02*
X0492290Y0026767D01*
X0492290Y0027422D01*
X0492288Y0027493D01*
X0492282Y0027564D01*
X0492273Y0027634D01*
X0492259Y0027704D01*
X0492242Y0027773D01*
X0492221Y0027841D01*
X0492197Y0027907D01*
X0492169Y0027972D01*
X0492137Y0028036D01*
X0492102Y0028098D01*
X0492064Y0028158D01*
X0492023Y0028215D01*
X0491978Y0028271D01*
X0491931Y0028324D01*
X0491881Y0028374D01*
X0491828Y0028421D01*
X0491772Y0028466D01*
X0491715Y0028507D01*
X0491655Y0028545D01*
X0491593Y0028580D01*
X0491529Y0028612D01*
X0491464Y0028640D01*
X0491398Y0028664D01*
X0491330Y0028685D01*
X0491261Y0028702D01*
X0491191Y0028716D01*
X0491121Y0028725D01*
X0491050Y0028731D01*
X0490979Y0028733D01*
X0490908Y0028731D01*
X0490837Y0028725D01*
X0490767Y0028716D01*
X0490697Y0028702D01*
X0490628Y0028685D01*
X0490560Y0028664D01*
X0490494Y0028640D01*
X0490429Y0028612D01*
X0490365Y0028580D01*
X0490303Y0028545D01*
X0490243Y0028507D01*
X0490186Y0028466D01*
X0490130Y0028421D01*
X0490077Y0028374D01*
X0490027Y0028324D01*
X0489980Y0028271D01*
X0489935Y0028215D01*
X0489894Y0028158D01*
X0489856Y0028098D01*
X0489821Y0028036D01*
X0489789Y0027972D01*
X0489761Y0027907D01*
X0489737Y0027841D01*
X0489716Y0027773D01*
X0489699Y0027704D01*
X0489685Y0027634D01*
X0489676Y0027564D01*
X0489670Y0027493D01*
X0489668Y0027422D01*
X0489668Y0025783D02*
X0489670Y0025721D01*
X0489676Y0025660D01*
X0489685Y0025599D01*
X0489699Y0025539D01*
X0489716Y0025479D01*
X0489737Y0025421D01*
X0489762Y0025364D01*
X0489790Y0025309D01*
X0489821Y0025256D01*
X0489856Y0025205D01*
X0489894Y0025156D01*
X0489934Y0025110D01*
X0489978Y0025066D01*
X0490024Y0025026D01*
X0490073Y0024988D01*
X0490124Y0024953D01*
X0490177Y0024922D01*
X0490232Y0024894D01*
X0490289Y0024869D01*
X0490347Y0024848D01*
X0490407Y0024831D01*
X0490467Y0024817D01*
X0490528Y0024808D01*
X0490589Y0024802D01*
X0490651Y0024800D01*
X0492290Y0024800D01*
X0492290Y0066170D02*
X0490651Y0066170D01*
X0490589Y0066172D01*
X0490528Y0066178D01*
X0490467Y0066187D01*
X0490407Y0066201D01*
X0490347Y0066218D01*
X0490289Y0066239D01*
X0490232Y0066264D01*
X0490177Y0066292D01*
X0490124Y0066323D01*
X0490073Y0066358D01*
X0490024Y0066396D01*
X0489978Y0066436D01*
X0489934Y0066480D01*
X0489894Y0066526D01*
X0489856Y0066575D01*
X0489821Y0066626D01*
X0489790Y0066679D01*
X0489762Y0066734D01*
X0489737Y0066791D01*
X0489716Y0066849D01*
X0489699Y0066909D01*
X0489685Y0066969D01*
X0489676Y0067030D01*
X0489670Y0067091D01*
X0489668Y0067153D01*
X0489667Y0067153D02*
X0489667Y0068792D01*
X0489667Y0068137D02*
X0492290Y0068137D01*
X0492290Y0068792D01*
X0492288Y0068863D01*
X0492282Y0068934D01*
X0492273Y0069004D01*
X0492259Y0069074D01*
X0492242Y0069143D01*
X0492221Y0069211D01*
X0492197Y0069277D01*
X0492169Y0069342D01*
X0492137Y0069406D01*
X0492102Y0069468D01*
X0492064Y0069528D01*
X0492023Y0069585D01*
X0491978Y0069641D01*
X0491931Y0069694D01*
X0491881Y0069744D01*
X0491828Y0069791D01*
X0491772Y0069836D01*
X0491715Y0069877D01*
X0491655Y0069915D01*
X0491593Y0069950D01*
X0491529Y0069982D01*
X0491464Y0070010D01*
X0491398Y0070034D01*
X0491330Y0070055D01*
X0491261Y0070072D01*
X0491191Y0070086D01*
X0491121Y0070095D01*
X0491050Y0070101D01*
X0490979Y0070103D01*
X0490908Y0070101D01*
X0490837Y0070095D01*
X0490767Y0070086D01*
X0490697Y0070072D01*
X0490628Y0070055D01*
X0490560Y0070034D01*
X0490494Y0070010D01*
X0490429Y0069982D01*
X0490365Y0069950D01*
X0490303Y0069915D01*
X0490243Y0069877D01*
X0490186Y0069836D01*
X0490130Y0069791D01*
X0490077Y0069744D01*
X0490027Y0069694D01*
X0489980Y0069641D01*
X0489935Y0069585D01*
X0489894Y0069528D01*
X0489856Y0069468D01*
X0489821Y0069406D01*
X0489789Y0069342D01*
X0489761Y0069277D01*
X0489737Y0069211D01*
X0489716Y0069143D01*
X0489699Y0069074D01*
X0489685Y0069004D01*
X0489676Y0068934D01*
X0489670Y0068863D01*
X0489668Y0068792D01*
X0487582Y0069448D02*
X0487582Y0070103D01*
X0485615Y0070103D01*
X0485615Y0066170D01*
X0482648Y0067481D02*
X0482648Y0068792D01*
X0482646Y0068863D01*
X0482640Y0068934D01*
X0482631Y0069004D01*
X0482617Y0069074D01*
X0482600Y0069143D01*
X0482579Y0069211D01*
X0482555Y0069277D01*
X0482527Y0069342D01*
X0482495Y0069406D01*
X0482460Y0069468D01*
X0482422Y0069528D01*
X0482381Y0069585D01*
X0482336Y0069641D01*
X0482289Y0069694D01*
X0482239Y0069744D01*
X0482186Y0069791D01*
X0482130Y0069836D01*
X0482073Y0069877D01*
X0482013Y0069915D01*
X0481951Y0069950D01*
X0481887Y0069982D01*
X0481822Y0070010D01*
X0481756Y0070034D01*
X0481688Y0070055D01*
X0481619Y0070072D01*
X0481549Y0070086D01*
X0481479Y0070095D01*
X0481408Y0070101D01*
X0481337Y0070103D01*
X0481266Y0070101D01*
X0481195Y0070095D01*
X0481125Y0070086D01*
X0481055Y0070072D01*
X0480986Y0070055D01*
X0480918Y0070034D01*
X0480852Y0070010D01*
X0480787Y0069982D01*
X0480723Y0069950D01*
X0480661Y0069915D01*
X0480601Y0069877D01*
X0480544Y0069836D01*
X0480488Y0069791D01*
X0480435Y0069744D01*
X0480385Y0069694D01*
X0480338Y0069641D01*
X0480293Y0069585D01*
X0480252Y0069528D01*
X0480214Y0069468D01*
X0480179Y0069406D01*
X0480147Y0069342D01*
X0480119Y0069277D01*
X0480095Y0069211D01*
X0480074Y0069143D01*
X0480057Y0069074D01*
X0480043Y0069004D01*
X0480034Y0068934D01*
X0480028Y0068863D01*
X0480026Y0068792D01*
X0480026Y0067481D01*
X0480028Y0067410D01*
X0480034Y0067339D01*
X0480043Y0067269D01*
X0480057Y0067199D01*
X0480074Y0067130D01*
X0480095Y0067062D01*
X0480119Y0066996D01*
X0480147Y0066931D01*
X0480179Y0066867D01*
X0480214Y0066805D01*
X0480252Y0066745D01*
X0480293Y0066688D01*
X0480338Y0066632D01*
X0480385Y0066579D01*
X0480435Y0066529D01*
X0480488Y0066482D01*
X0480544Y0066437D01*
X0480601Y0066396D01*
X0480661Y0066358D01*
X0480723Y0066323D01*
X0480787Y0066291D01*
X0480852Y0066263D01*
X0480918Y0066239D01*
X0480986Y0066218D01*
X0481055Y0066201D01*
X0481125Y0066187D01*
X0481195Y0066178D01*
X0481266Y0066172D01*
X0481337Y0066170D01*
X0481408Y0066172D01*
X0481479Y0066178D01*
X0481549Y0066187D01*
X0481619Y0066201D01*
X0481688Y0066218D01*
X0481756Y0066239D01*
X0481822Y0066263D01*
X0481887Y0066291D01*
X0481951Y0066323D01*
X0482013Y0066358D01*
X0482073Y0066396D01*
X0482130Y0066437D01*
X0482186Y0066482D01*
X0482239Y0066529D01*
X0482289Y0066579D01*
X0482336Y0066632D01*
X0482381Y0066688D01*
X0482422Y0066745D01*
X0482460Y0066805D01*
X0482495Y0066867D01*
X0482527Y0066931D01*
X0482555Y0066996D01*
X0482579Y0067062D01*
X0482600Y0067130D01*
X0482617Y0067199D01*
X0482631Y0067269D01*
X0482640Y0067339D01*
X0482646Y0067410D01*
X0482648Y0067481D01*
X0477613Y0066170D02*
X0476302Y0066170D01*
X0476240Y0066172D01*
X0476179Y0066178D01*
X0476118Y0066187D01*
X0476058Y0066201D01*
X0475998Y0066218D01*
X0475940Y0066239D01*
X0475883Y0066264D01*
X0475828Y0066292D01*
X0475775Y0066323D01*
X0475724Y0066358D01*
X0475675Y0066396D01*
X0475629Y0066436D01*
X0475585Y0066480D01*
X0475545Y0066526D01*
X0475507Y0066575D01*
X0475472Y0066626D01*
X0475441Y0066679D01*
X0475413Y0066734D01*
X0475388Y0066791D01*
X0475367Y0066849D01*
X0475350Y0066909D01*
X0475336Y0066969D01*
X0475327Y0067030D01*
X0475321Y0067091D01*
X0475319Y0067153D01*
X0475319Y0069120D01*
X0475321Y0069182D01*
X0475327Y0069243D01*
X0475336Y0069304D01*
X0475350Y0069364D01*
X0475367Y0069424D01*
X0475388Y0069482D01*
X0475413Y0069539D01*
X0475441Y0069594D01*
X0475472Y0069647D01*
X0475507Y0069698D01*
X0475545Y0069747D01*
X0475585Y0069793D01*
X0475629Y0069837D01*
X0475675Y0069877D01*
X0475724Y0069915D01*
X0475775Y0069950D01*
X0475828Y0069981D01*
X0475883Y0070009D01*
X0475940Y0070034D01*
X0475998Y0070055D01*
X0476058Y0070072D01*
X0476118Y0070086D01*
X0476179Y0070095D01*
X0476240Y0070101D01*
X0476302Y0070103D01*
X0477613Y0070103D01*
X0472105Y0067809D02*
X0470466Y0068465D01*
X0470414Y0068488D01*
X0470363Y0068515D01*
X0470314Y0068545D01*
X0470267Y0068578D01*
X0470222Y0068614D01*
X0470180Y0068654D01*
X0470141Y0068696D01*
X0470105Y0068740D01*
X0470072Y0068787D01*
X0470042Y0068837D01*
X0470015Y0068888D01*
X0469992Y0068940D01*
X0469973Y0068994D01*
X0469957Y0069050D01*
X0469945Y0069106D01*
X0469937Y0069163D01*
X0469933Y0069220D01*
X0469932Y0069278D01*
X0469936Y0069335D01*
X0469943Y0069392D01*
X0469955Y0069449D01*
X0469970Y0069504D01*
X0469988Y0069559D01*
X0470011Y0069612D01*
X0470037Y0069663D01*
X0470066Y0069712D01*
X0470099Y0069760D01*
X0470135Y0069805D01*
X0470173Y0069847D01*
X0470215Y0069887D01*
X0470259Y0069924D01*
X0470306Y0069958D01*
X0470354Y0069989D01*
X0470405Y0070016D01*
X0470457Y0070040D01*
X0470511Y0070060D01*
X0470566Y0070076D01*
X0470622Y0070089D01*
X0470679Y0070098D01*
X0470737Y0070103D01*
X0470794Y0070104D01*
X0469975Y0066498D02*
X0470109Y0066452D01*
X0470244Y0066409D01*
X0470380Y0066370D01*
X0470517Y0066334D01*
X0470654Y0066302D01*
X0470793Y0066273D01*
X0470932Y0066247D01*
X0471072Y0066226D01*
X0471213Y0066207D01*
X0471353Y0066193D01*
X0471495Y0066182D01*
X0471636Y0066174D01*
X0471778Y0066171D01*
X0471778Y0066170D02*
X0471835Y0066171D01*
X0471893Y0066176D01*
X0471950Y0066185D01*
X0472006Y0066198D01*
X0472061Y0066214D01*
X0472115Y0066234D01*
X0472167Y0066258D01*
X0472218Y0066285D01*
X0472266Y0066316D01*
X0472313Y0066350D01*
X0472357Y0066387D01*
X0472399Y0066427D01*
X0472437Y0066469D01*
X0472473Y0066514D01*
X0472506Y0066562D01*
X0472535Y0066611D01*
X0472561Y0066662D01*
X0472584Y0066715D01*
X0472602Y0066770D01*
X0472617Y0066825D01*
X0472629Y0066882D01*
X0472636Y0066939D01*
X0472640Y0066996D01*
X0472639Y0067054D01*
X0472635Y0067111D01*
X0472627Y0067168D01*
X0472615Y0067224D01*
X0472599Y0067280D01*
X0472580Y0067334D01*
X0472557Y0067386D01*
X0472530Y0067437D01*
X0472500Y0067487D01*
X0472467Y0067534D01*
X0472431Y0067578D01*
X0472392Y0067620D01*
X0472350Y0067660D01*
X0472305Y0067696D01*
X0472258Y0067729D01*
X0472209Y0067759D01*
X0472158Y0067786D01*
X0472106Y0067809D01*
X0472269Y0069775D02*
X0472162Y0069821D01*
X0472053Y0069864D01*
X0471943Y0069904D01*
X0471831Y0069940D01*
X0471719Y0069972D01*
X0471605Y0070001D01*
X0471491Y0070027D01*
X0471376Y0070048D01*
X0471261Y0070067D01*
X0471144Y0070081D01*
X0471028Y0070092D01*
X0470911Y0070099D01*
X0470794Y0070103D01*
X0467098Y0068465D02*
X0463165Y0068465D01*
X0460494Y0070103D02*
X0459183Y0066170D01*
X0457872Y0070103D01*
X0459183Y0107540D02*
X0460494Y0111474D01*
X0457872Y0111474D02*
X0459183Y0107540D01*
X0463165Y0109835D02*
X0467098Y0109835D01*
X0470466Y0109835D02*
X0472105Y0109179D01*
X0472106Y0109179D02*
X0472158Y0109156D01*
X0472209Y0109129D01*
X0472258Y0109099D01*
X0472305Y0109066D01*
X0472350Y0109030D01*
X0472392Y0108990D01*
X0472431Y0108948D01*
X0472467Y0108904D01*
X0472500Y0108857D01*
X0472530Y0108807D01*
X0472557Y0108756D01*
X0472580Y0108704D01*
X0472599Y0108650D01*
X0472615Y0108594D01*
X0472627Y0108538D01*
X0472635Y0108481D01*
X0472639Y0108424D01*
X0472640Y0108366D01*
X0472636Y0108309D01*
X0472629Y0108252D01*
X0472617Y0108195D01*
X0472602Y0108140D01*
X0472584Y0108085D01*
X0472561Y0108032D01*
X0472535Y0107981D01*
X0472506Y0107932D01*
X0472473Y0107884D01*
X0472437Y0107839D01*
X0472399Y0107797D01*
X0472357Y0107757D01*
X0472313Y0107720D01*
X0472266Y0107686D01*
X0472218Y0107655D01*
X0472167Y0107628D01*
X0472115Y0107604D01*
X0472061Y0107584D01*
X0472006Y0107568D01*
X0471950Y0107555D01*
X0471893Y0107546D01*
X0471835Y0107541D01*
X0471778Y0107540D01*
X0472269Y0111146D02*
X0472162Y0111192D01*
X0472053Y0111235D01*
X0471943Y0111275D01*
X0471831Y0111311D01*
X0471719Y0111343D01*
X0471605Y0111372D01*
X0471491Y0111398D01*
X0471376Y0111419D01*
X0471261Y0111438D01*
X0471144Y0111452D01*
X0471028Y0111463D01*
X0470911Y0111470D01*
X0470794Y0111474D01*
X0470737Y0111473D01*
X0470679Y0111468D01*
X0470622Y0111459D01*
X0470566Y0111446D01*
X0470511Y0111430D01*
X0470457Y0111410D01*
X0470405Y0111386D01*
X0470354Y0111359D01*
X0470306Y0111328D01*
X0470259Y0111294D01*
X0470215Y0111257D01*
X0470173Y0111217D01*
X0470135Y0111175D01*
X0470099Y0111130D01*
X0470066Y0111082D01*
X0470037Y0111033D01*
X0470011Y0110982D01*
X0469988Y0110929D01*
X0469970Y0110874D01*
X0469955Y0110819D01*
X0469943Y0110762D01*
X0469936Y0110705D01*
X0469932Y0110648D01*
X0469933Y0110590D01*
X0469937Y0110533D01*
X0469945Y0110476D01*
X0469957Y0110420D01*
X0469973Y0110364D01*
X0469992Y0110310D01*
X0470015Y0110258D01*
X0470042Y0110207D01*
X0470072Y0110157D01*
X0470105Y0110110D01*
X0470141Y0110066D01*
X0470180Y0110024D01*
X0470222Y0109984D01*
X0470267Y0109948D01*
X0470314Y0109915D01*
X0470363Y0109885D01*
X0470414Y0109858D01*
X0470466Y0109835D01*
X0469975Y0107868D02*
X0470109Y0107822D01*
X0470244Y0107779D01*
X0470380Y0107740D01*
X0470517Y0107704D01*
X0470654Y0107672D01*
X0470793Y0107643D01*
X0470932Y0107617D01*
X0471072Y0107596D01*
X0471213Y0107577D01*
X0471353Y0107563D01*
X0471495Y0107552D01*
X0471636Y0107544D01*
X0471778Y0107541D01*
X0475319Y0108524D02*
X0475319Y0110490D01*
X0475321Y0110552D01*
X0475327Y0110613D01*
X0475336Y0110674D01*
X0475350Y0110734D01*
X0475367Y0110794D01*
X0475388Y0110852D01*
X0475413Y0110909D01*
X0475441Y0110964D01*
X0475472Y0111017D01*
X0475507Y0111068D01*
X0475545Y0111117D01*
X0475585Y0111163D01*
X0475629Y0111207D01*
X0475675Y0111247D01*
X0475724Y0111285D01*
X0475775Y0111320D01*
X0475828Y0111351D01*
X0475883Y0111379D01*
X0475940Y0111404D01*
X0475998Y0111425D01*
X0476058Y0111442D01*
X0476118Y0111456D01*
X0476179Y0111465D01*
X0476240Y0111471D01*
X0476302Y0111473D01*
X0476302Y0111474D02*
X0477613Y0111474D01*
X0480026Y0110162D02*
X0480026Y0108851D01*
X0480028Y0108780D01*
X0480034Y0108709D01*
X0480043Y0108639D01*
X0480057Y0108569D01*
X0480074Y0108500D01*
X0480095Y0108432D01*
X0480119Y0108366D01*
X0480147Y0108301D01*
X0480179Y0108237D01*
X0480214Y0108175D01*
X0480252Y0108115D01*
X0480293Y0108058D01*
X0480338Y0108002D01*
X0480385Y0107949D01*
X0480435Y0107899D01*
X0480488Y0107852D01*
X0480544Y0107807D01*
X0480601Y0107766D01*
X0480661Y0107728D01*
X0480723Y0107693D01*
X0480787Y0107661D01*
X0480852Y0107633D01*
X0480918Y0107609D01*
X0480986Y0107588D01*
X0481055Y0107571D01*
X0481125Y0107557D01*
X0481195Y0107548D01*
X0481266Y0107542D01*
X0481337Y0107540D01*
X0481408Y0107542D01*
X0481479Y0107548D01*
X0481549Y0107557D01*
X0481619Y0107571D01*
X0481688Y0107588D01*
X0481756Y0107609D01*
X0481822Y0107633D01*
X0481887Y0107661D01*
X0481951Y0107693D01*
X0482013Y0107728D01*
X0482073Y0107766D01*
X0482130Y0107807D01*
X0482186Y0107852D01*
X0482239Y0107899D01*
X0482289Y0107949D01*
X0482336Y0108002D01*
X0482381Y0108058D01*
X0482422Y0108115D01*
X0482460Y0108175D01*
X0482495Y0108237D01*
X0482527Y0108301D01*
X0482555Y0108366D01*
X0482579Y0108432D01*
X0482600Y0108500D01*
X0482617Y0108569D01*
X0482631Y0108639D01*
X0482640Y0108709D01*
X0482646Y0108780D01*
X0482648Y0108851D01*
X0482648Y0110162D01*
X0482646Y0110233D01*
X0482640Y0110304D01*
X0482631Y0110374D01*
X0482617Y0110444D01*
X0482600Y0110513D01*
X0482579Y0110581D01*
X0482555Y0110647D01*
X0482527Y0110712D01*
X0482495Y0110776D01*
X0482460Y0110838D01*
X0482422Y0110898D01*
X0482381Y0110955D01*
X0482336Y0111011D01*
X0482289Y0111064D01*
X0482239Y0111114D01*
X0482186Y0111161D01*
X0482130Y0111206D01*
X0482073Y0111247D01*
X0482013Y0111285D01*
X0481951Y0111320D01*
X0481887Y0111352D01*
X0481822Y0111380D01*
X0481756Y0111404D01*
X0481688Y0111425D01*
X0481619Y0111442D01*
X0481549Y0111456D01*
X0481479Y0111465D01*
X0481408Y0111471D01*
X0481337Y0111473D01*
X0481266Y0111471D01*
X0481195Y0111465D01*
X0481125Y0111456D01*
X0481055Y0111442D01*
X0480986Y0111425D01*
X0480918Y0111404D01*
X0480852Y0111380D01*
X0480787Y0111352D01*
X0480723Y0111320D01*
X0480661Y0111285D01*
X0480601Y0111247D01*
X0480544Y0111206D01*
X0480488Y0111161D01*
X0480435Y0111114D01*
X0480385Y0111064D01*
X0480338Y0111011D01*
X0480293Y0110955D01*
X0480252Y0110898D01*
X0480214Y0110838D01*
X0480179Y0110776D01*
X0480147Y0110712D01*
X0480119Y0110647D01*
X0480095Y0110581D01*
X0480074Y0110513D01*
X0480057Y0110444D01*
X0480043Y0110374D01*
X0480034Y0110304D01*
X0480028Y0110233D01*
X0480026Y0110162D01*
X0477613Y0107540D02*
X0476302Y0107540D01*
X0476302Y0107541D02*
X0476240Y0107543D01*
X0476179Y0107549D01*
X0476118Y0107558D01*
X0476058Y0107572D01*
X0475998Y0107589D01*
X0475940Y0107610D01*
X0475883Y0107635D01*
X0475828Y0107663D01*
X0475775Y0107694D01*
X0475724Y0107729D01*
X0475675Y0107767D01*
X0475629Y0107807D01*
X0475585Y0107851D01*
X0475545Y0107897D01*
X0475507Y0107946D01*
X0475472Y0107997D01*
X0475441Y0108050D01*
X0475413Y0108105D01*
X0475388Y0108162D01*
X0475367Y0108220D01*
X0475350Y0108280D01*
X0475336Y0108340D01*
X0475327Y0108401D01*
X0475321Y0108462D01*
X0475319Y0108524D01*
X0485615Y0107540D02*
X0485615Y0111474D01*
X0487582Y0111474D01*
X0487582Y0110818D01*
X0489667Y0110162D02*
X0489667Y0108524D01*
X0489667Y0109507D02*
X0492290Y0109507D01*
X0492290Y0110162D01*
X0492288Y0110233D01*
X0492282Y0110304D01*
X0492273Y0110374D01*
X0492259Y0110444D01*
X0492242Y0110513D01*
X0492221Y0110581D01*
X0492197Y0110647D01*
X0492169Y0110712D01*
X0492137Y0110776D01*
X0492102Y0110838D01*
X0492064Y0110898D01*
X0492023Y0110955D01*
X0491978Y0111011D01*
X0491931Y0111064D01*
X0491881Y0111114D01*
X0491828Y0111161D01*
X0491772Y0111206D01*
X0491715Y0111247D01*
X0491655Y0111285D01*
X0491593Y0111320D01*
X0491529Y0111352D01*
X0491464Y0111380D01*
X0491398Y0111404D01*
X0491330Y0111425D01*
X0491261Y0111442D01*
X0491191Y0111456D01*
X0491121Y0111465D01*
X0491050Y0111471D01*
X0490979Y0111473D01*
X0490908Y0111471D01*
X0490837Y0111465D01*
X0490767Y0111456D01*
X0490697Y0111442D01*
X0490628Y0111425D01*
X0490560Y0111404D01*
X0490494Y0111380D01*
X0490429Y0111352D01*
X0490365Y0111320D01*
X0490303Y0111285D01*
X0490243Y0111247D01*
X0490186Y0111206D01*
X0490130Y0111161D01*
X0490077Y0111114D01*
X0490027Y0111064D01*
X0489980Y0111011D01*
X0489935Y0110955D01*
X0489894Y0110898D01*
X0489856Y0110838D01*
X0489821Y0110776D01*
X0489789Y0110712D01*
X0489761Y0110647D01*
X0489737Y0110581D01*
X0489716Y0110513D01*
X0489699Y0110444D01*
X0489685Y0110374D01*
X0489676Y0110304D01*
X0489670Y0110233D01*
X0489668Y0110162D01*
X0489668Y0108524D02*
X0489670Y0108462D01*
X0489676Y0108401D01*
X0489685Y0108340D01*
X0489699Y0108280D01*
X0489716Y0108220D01*
X0489737Y0108162D01*
X0489762Y0108105D01*
X0489790Y0108050D01*
X0489821Y0107997D01*
X0489856Y0107946D01*
X0489894Y0107897D01*
X0489934Y0107851D01*
X0489978Y0107807D01*
X0490024Y0107767D01*
X0490073Y0107729D01*
X0490124Y0107694D01*
X0490177Y0107663D01*
X0490232Y0107635D01*
X0490289Y0107610D01*
X0490347Y0107589D01*
X0490407Y0107572D01*
X0490467Y0107558D01*
X0490528Y0107549D01*
X0490589Y0107543D01*
X0490651Y0107541D01*
X0490651Y0107540D02*
X0492290Y0107540D01*
X0492290Y0148910D02*
X0490651Y0148910D01*
X0490651Y0148911D02*
X0490589Y0148913D01*
X0490528Y0148919D01*
X0490467Y0148928D01*
X0490407Y0148942D01*
X0490347Y0148959D01*
X0490289Y0148980D01*
X0490232Y0149005D01*
X0490177Y0149033D01*
X0490124Y0149064D01*
X0490073Y0149099D01*
X0490024Y0149137D01*
X0489978Y0149177D01*
X0489934Y0149221D01*
X0489894Y0149267D01*
X0489856Y0149316D01*
X0489821Y0149367D01*
X0489790Y0149420D01*
X0489762Y0149475D01*
X0489737Y0149532D01*
X0489716Y0149590D01*
X0489699Y0149650D01*
X0489685Y0149710D01*
X0489676Y0149771D01*
X0489670Y0149832D01*
X0489668Y0149894D01*
X0489667Y0149894D02*
X0489667Y0151532D01*
X0489667Y0150877D02*
X0492290Y0150877D01*
X0492290Y0151532D01*
X0492288Y0151603D01*
X0492282Y0151674D01*
X0492273Y0151744D01*
X0492259Y0151814D01*
X0492242Y0151883D01*
X0492221Y0151951D01*
X0492197Y0152017D01*
X0492169Y0152082D01*
X0492137Y0152146D01*
X0492102Y0152208D01*
X0492064Y0152268D01*
X0492023Y0152325D01*
X0491978Y0152381D01*
X0491931Y0152434D01*
X0491881Y0152484D01*
X0491828Y0152531D01*
X0491772Y0152576D01*
X0491715Y0152617D01*
X0491655Y0152655D01*
X0491593Y0152690D01*
X0491529Y0152722D01*
X0491464Y0152750D01*
X0491398Y0152774D01*
X0491330Y0152795D01*
X0491261Y0152812D01*
X0491191Y0152826D01*
X0491121Y0152835D01*
X0491050Y0152841D01*
X0490979Y0152843D01*
X0490908Y0152841D01*
X0490837Y0152835D01*
X0490767Y0152826D01*
X0490697Y0152812D01*
X0490628Y0152795D01*
X0490560Y0152774D01*
X0490494Y0152750D01*
X0490429Y0152722D01*
X0490365Y0152690D01*
X0490303Y0152655D01*
X0490243Y0152617D01*
X0490186Y0152576D01*
X0490130Y0152531D01*
X0490077Y0152484D01*
X0490027Y0152434D01*
X0489980Y0152381D01*
X0489935Y0152325D01*
X0489894Y0152268D01*
X0489856Y0152208D01*
X0489821Y0152146D01*
X0489789Y0152082D01*
X0489761Y0152017D01*
X0489737Y0151951D01*
X0489716Y0151883D01*
X0489699Y0151814D01*
X0489685Y0151744D01*
X0489676Y0151674D01*
X0489670Y0151603D01*
X0489668Y0151532D01*
X0487582Y0152188D02*
X0487582Y0152844D01*
X0485615Y0152844D01*
X0485615Y0148910D01*
X0482648Y0150221D02*
X0482648Y0151532D01*
X0482646Y0151603D01*
X0482640Y0151674D01*
X0482631Y0151744D01*
X0482617Y0151814D01*
X0482600Y0151883D01*
X0482579Y0151951D01*
X0482555Y0152017D01*
X0482527Y0152082D01*
X0482495Y0152146D01*
X0482460Y0152208D01*
X0482422Y0152268D01*
X0482381Y0152325D01*
X0482336Y0152381D01*
X0482289Y0152434D01*
X0482239Y0152484D01*
X0482186Y0152531D01*
X0482130Y0152576D01*
X0482073Y0152617D01*
X0482013Y0152655D01*
X0481951Y0152690D01*
X0481887Y0152722D01*
X0481822Y0152750D01*
X0481756Y0152774D01*
X0481688Y0152795D01*
X0481619Y0152812D01*
X0481549Y0152826D01*
X0481479Y0152835D01*
X0481408Y0152841D01*
X0481337Y0152843D01*
X0481266Y0152841D01*
X0481195Y0152835D01*
X0481125Y0152826D01*
X0481055Y0152812D01*
X0480986Y0152795D01*
X0480918Y0152774D01*
X0480852Y0152750D01*
X0480787Y0152722D01*
X0480723Y0152690D01*
X0480661Y0152655D01*
X0480601Y0152617D01*
X0480544Y0152576D01*
X0480488Y0152531D01*
X0480435Y0152484D01*
X0480385Y0152434D01*
X0480338Y0152381D01*
X0480293Y0152325D01*
X0480252Y0152268D01*
X0480214Y0152208D01*
X0480179Y0152146D01*
X0480147Y0152082D01*
X0480119Y0152017D01*
X0480095Y0151951D01*
X0480074Y0151883D01*
X0480057Y0151814D01*
X0480043Y0151744D01*
X0480034Y0151674D01*
X0480028Y0151603D01*
X0480026Y0151532D01*
X0480026Y0150221D01*
X0480028Y0150150D01*
X0480034Y0150079D01*
X0480043Y0150009D01*
X0480057Y0149939D01*
X0480074Y0149870D01*
X0480095Y0149802D01*
X0480119Y0149736D01*
X0480147Y0149671D01*
X0480179Y0149607D01*
X0480214Y0149545D01*
X0480252Y0149485D01*
X0480293Y0149428D01*
X0480338Y0149372D01*
X0480385Y0149319D01*
X0480435Y0149269D01*
X0480488Y0149222D01*
X0480544Y0149177D01*
X0480601Y0149136D01*
X0480661Y0149098D01*
X0480723Y0149063D01*
X0480787Y0149031D01*
X0480852Y0149003D01*
X0480918Y0148979D01*
X0480986Y0148958D01*
X0481055Y0148941D01*
X0481125Y0148927D01*
X0481195Y0148918D01*
X0481266Y0148912D01*
X0481337Y0148910D01*
X0481408Y0148912D01*
X0481479Y0148918D01*
X0481549Y0148927D01*
X0481619Y0148941D01*
X0481688Y0148958D01*
X0481756Y0148979D01*
X0481822Y0149003D01*
X0481887Y0149031D01*
X0481951Y0149063D01*
X0482013Y0149098D01*
X0482073Y0149136D01*
X0482130Y0149177D01*
X0482186Y0149222D01*
X0482239Y0149269D01*
X0482289Y0149319D01*
X0482336Y0149372D01*
X0482381Y0149428D01*
X0482422Y0149485D01*
X0482460Y0149545D01*
X0482495Y0149607D01*
X0482527Y0149671D01*
X0482555Y0149736D01*
X0482579Y0149802D01*
X0482600Y0149870D01*
X0482617Y0149939D01*
X0482631Y0150009D01*
X0482640Y0150079D01*
X0482646Y0150150D01*
X0482648Y0150221D01*
X0477613Y0148910D02*
X0476302Y0148910D01*
X0476302Y0148911D02*
X0476240Y0148913D01*
X0476179Y0148919D01*
X0476118Y0148928D01*
X0476058Y0148942D01*
X0475998Y0148959D01*
X0475940Y0148980D01*
X0475883Y0149005D01*
X0475828Y0149033D01*
X0475775Y0149064D01*
X0475724Y0149099D01*
X0475675Y0149137D01*
X0475629Y0149177D01*
X0475585Y0149221D01*
X0475545Y0149267D01*
X0475507Y0149316D01*
X0475472Y0149367D01*
X0475441Y0149420D01*
X0475413Y0149475D01*
X0475388Y0149532D01*
X0475367Y0149590D01*
X0475350Y0149650D01*
X0475336Y0149710D01*
X0475327Y0149771D01*
X0475321Y0149832D01*
X0475319Y0149894D01*
X0475319Y0151860D01*
X0475321Y0151922D01*
X0475327Y0151983D01*
X0475336Y0152044D01*
X0475350Y0152104D01*
X0475367Y0152164D01*
X0475388Y0152222D01*
X0475413Y0152279D01*
X0475441Y0152334D01*
X0475472Y0152387D01*
X0475507Y0152438D01*
X0475545Y0152487D01*
X0475585Y0152533D01*
X0475629Y0152577D01*
X0475675Y0152617D01*
X0475724Y0152655D01*
X0475775Y0152690D01*
X0475828Y0152721D01*
X0475883Y0152749D01*
X0475940Y0152774D01*
X0475998Y0152795D01*
X0476058Y0152812D01*
X0476118Y0152826D01*
X0476179Y0152835D01*
X0476240Y0152841D01*
X0476302Y0152843D01*
X0476302Y0152844D02*
X0477613Y0152844D01*
X0472105Y0150549D02*
X0470466Y0151205D01*
X0470414Y0151228D01*
X0470363Y0151255D01*
X0470314Y0151285D01*
X0470267Y0151318D01*
X0470222Y0151354D01*
X0470180Y0151394D01*
X0470141Y0151436D01*
X0470105Y0151480D01*
X0470072Y0151527D01*
X0470042Y0151577D01*
X0470015Y0151628D01*
X0469992Y0151680D01*
X0469973Y0151734D01*
X0469957Y0151790D01*
X0469945Y0151846D01*
X0469937Y0151903D01*
X0469933Y0151960D01*
X0469932Y0152018D01*
X0469936Y0152075D01*
X0469943Y0152132D01*
X0469955Y0152189D01*
X0469970Y0152244D01*
X0469988Y0152299D01*
X0470011Y0152352D01*
X0470037Y0152403D01*
X0470066Y0152452D01*
X0470099Y0152500D01*
X0470135Y0152545D01*
X0470173Y0152587D01*
X0470215Y0152627D01*
X0470259Y0152664D01*
X0470306Y0152698D01*
X0470354Y0152729D01*
X0470405Y0152756D01*
X0470457Y0152780D01*
X0470511Y0152800D01*
X0470566Y0152816D01*
X0470622Y0152829D01*
X0470679Y0152838D01*
X0470737Y0152843D01*
X0470794Y0152844D01*
X0469975Y0149238D02*
X0470109Y0149192D01*
X0470244Y0149149D01*
X0470380Y0149110D01*
X0470517Y0149074D01*
X0470654Y0149042D01*
X0470793Y0149013D01*
X0470932Y0148987D01*
X0471072Y0148966D01*
X0471213Y0148947D01*
X0471353Y0148933D01*
X0471495Y0148922D01*
X0471636Y0148914D01*
X0471778Y0148911D01*
X0471778Y0148910D02*
X0471835Y0148911D01*
X0471893Y0148916D01*
X0471950Y0148925D01*
X0472006Y0148938D01*
X0472061Y0148954D01*
X0472115Y0148974D01*
X0472167Y0148998D01*
X0472218Y0149025D01*
X0472266Y0149056D01*
X0472313Y0149090D01*
X0472357Y0149127D01*
X0472399Y0149167D01*
X0472437Y0149209D01*
X0472473Y0149254D01*
X0472506Y0149302D01*
X0472535Y0149351D01*
X0472561Y0149402D01*
X0472584Y0149455D01*
X0472602Y0149510D01*
X0472617Y0149565D01*
X0472629Y0149622D01*
X0472636Y0149679D01*
X0472640Y0149736D01*
X0472639Y0149794D01*
X0472635Y0149851D01*
X0472627Y0149908D01*
X0472615Y0149964D01*
X0472599Y0150020D01*
X0472580Y0150074D01*
X0472557Y0150126D01*
X0472530Y0150177D01*
X0472500Y0150227D01*
X0472467Y0150274D01*
X0472431Y0150318D01*
X0472392Y0150360D01*
X0472350Y0150400D01*
X0472305Y0150436D01*
X0472258Y0150469D01*
X0472209Y0150499D01*
X0472158Y0150526D01*
X0472106Y0150549D01*
X0472269Y0152516D02*
X0472162Y0152562D01*
X0472053Y0152605D01*
X0471943Y0152645D01*
X0471831Y0152681D01*
X0471719Y0152713D01*
X0471605Y0152742D01*
X0471491Y0152768D01*
X0471376Y0152789D01*
X0471261Y0152808D01*
X0471144Y0152822D01*
X0471028Y0152833D01*
X0470911Y0152840D01*
X0470794Y0152844D01*
X0467098Y0151205D02*
X0463165Y0151205D01*
X0460494Y0152844D02*
X0459183Y0148910D01*
X0457872Y0152844D01*
X0459183Y0190280D02*
X0460494Y0194214D01*
X0457872Y0194214D02*
X0459183Y0190280D01*
X0463165Y0192575D02*
X0467098Y0192575D01*
X0470466Y0192575D02*
X0472105Y0191919D01*
X0472106Y0191919D02*
X0472158Y0191896D01*
X0472209Y0191869D01*
X0472258Y0191839D01*
X0472305Y0191806D01*
X0472350Y0191770D01*
X0472392Y0191730D01*
X0472431Y0191688D01*
X0472467Y0191644D01*
X0472500Y0191597D01*
X0472530Y0191547D01*
X0472557Y0191496D01*
X0472580Y0191444D01*
X0472599Y0191390D01*
X0472615Y0191334D01*
X0472627Y0191278D01*
X0472635Y0191221D01*
X0472639Y0191164D01*
X0472640Y0191106D01*
X0472636Y0191049D01*
X0472629Y0190992D01*
X0472617Y0190935D01*
X0472602Y0190880D01*
X0472584Y0190825D01*
X0472561Y0190772D01*
X0472535Y0190721D01*
X0472506Y0190672D01*
X0472473Y0190624D01*
X0472437Y0190579D01*
X0472399Y0190537D01*
X0472357Y0190497D01*
X0472313Y0190460D01*
X0472266Y0190426D01*
X0472218Y0190395D01*
X0472167Y0190368D01*
X0472115Y0190344D01*
X0472061Y0190324D01*
X0472006Y0190308D01*
X0471950Y0190295D01*
X0471893Y0190286D01*
X0471835Y0190281D01*
X0471778Y0190280D01*
X0472269Y0193886D02*
X0472162Y0193932D01*
X0472053Y0193975D01*
X0471943Y0194015D01*
X0471831Y0194051D01*
X0471719Y0194083D01*
X0471605Y0194112D01*
X0471491Y0194138D01*
X0471376Y0194159D01*
X0471261Y0194178D01*
X0471144Y0194192D01*
X0471028Y0194203D01*
X0470911Y0194210D01*
X0470794Y0194214D01*
X0470737Y0194213D01*
X0470679Y0194208D01*
X0470622Y0194199D01*
X0470566Y0194186D01*
X0470511Y0194170D01*
X0470457Y0194150D01*
X0470405Y0194126D01*
X0470354Y0194099D01*
X0470306Y0194068D01*
X0470259Y0194034D01*
X0470215Y0193997D01*
X0470173Y0193957D01*
X0470135Y0193915D01*
X0470099Y0193870D01*
X0470066Y0193822D01*
X0470037Y0193773D01*
X0470011Y0193722D01*
X0469988Y0193669D01*
X0469970Y0193614D01*
X0469955Y0193559D01*
X0469943Y0193502D01*
X0469936Y0193445D01*
X0469932Y0193388D01*
X0469933Y0193330D01*
X0469937Y0193273D01*
X0469945Y0193216D01*
X0469957Y0193160D01*
X0469973Y0193104D01*
X0469992Y0193050D01*
X0470015Y0192998D01*
X0470042Y0192947D01*
X0470072Y0192897D01*
X0470105Y0192850D01*
X0470141Y0192806D01*
X0470180Y0192764D01*
X0470222Y0192724D01*
X0470267Y0192688D01*
X0470314Y0192655D01*
X0470363Y0192625D01*
X0470414Y0192598D01*
X0470466Y0192575D01*
X0469975Y0190608D02*
X0470109Y0190562D01*
X0470244Y0190519D01*
X0470380Y0190480D01*
X0470517Y0190444D01*
X0470654Y0190412D01*
X0470793Y0190383D01*
X0470932Y0190357D01*
X0471072Y0190336D01*
X0471213Y0190317D01*
X0471353Y0190303D01*
X0471495Y0190292D01*
X0471636Y0190284D01*
X0471778Y0190281D01*
X0475319Y0191264D02*
X0475319Y0193230D01*
X0475321Y0193292D01*
X0475327Y0193353D01*
X0475336Y0193414D01*
X0475350Y0193474D01*
X0475367Y0193534D01*
X0475388Y0193592D01*
X0475413Y0193649D01*
X0475441Y0193704D01*
X0475472Y0193757D01*
X0475507Y0193808D01*
X0475545Y0193857D01*
X0475585Y0193903D01*
X0475629Y0193947D01*
X0475675Y0193987D01*
X0475724Y0194025D01*
X0475775Y0194060D01*
X0475828Y0194091D01*
X0475883Y0194119D01*
X0475940Y0194144D01*
X0475998Y0194165D01*
X0476058Y0194182D01*
X0476118Y0194196D01*
X0476179Y0194205D01*
X0476240Y0194211D01*
X0476302Y0194213D01*
X0476302Y0194214D02*
X0477613Y0194214D01*
X0480026Y0192903D02*
X0480026Y0191591D01*
X0480028Y0191520D01*
X0480034Y0191449D01*
X0480043Y0191379D01*
X0480057Y0191309D01*
X0480074Y0191240D01*
X0480095Y0191172D01*
X0480119Y0191106D01*
X0480147Y0191041D01*
X0480179Y0190977D01*
X0480214Y0190915D01*
X0480252Y0190855D01*
X0480293Y0190798D01*
X0480338Y0190742D01*
X0480385Y0190689D01*
X0480435Y0190639D01*
X0480488Y0190592D01*
X0480544Y0190547D01*
X0480601Y0190506D01*
X0480661Y0190468D01*
X0480723Y0190433D01*
X0480787Y0190401D01*
X0480852Y0190373D01*
X0480918Y0190349D01*
X0480986Y0190328D01*
X0481055Y0190311D01*
X0481125Y0190297D01*
X0481195Y0190288D01*
X0481266Y0190282D01*
X0481337Y0190280D01*
X0481408Y0190282D01*
X0481479Y0190288D01*
X0481549Y0190297D01*
X0481619Y0190311D01*
X0481688Y0190328D01*
X0481756Y0190349D01*
X0481822Y0190373D01*
X0481887Y0190401D01*
X0481951Y0190433D01*
X0482013Y0190468D01*
X0482073Y0190506D01*
X0482130Y0190547D01*
X0482186Y0190592D01*
X0482239Y0190639D01*
X0482289Y0190689D01*
X0482336Y0190742D01*
X0482381Y0190798D01*
X0482422Y0190855D01*
X0482460Y0190915D01*
X0482495Y0190977D01*
X0482527Y0191041D01*
X0482555Y0191106D01*
X0482579Y0191172D01*
X0482600Y0191240D01*
X0482617Y0191309D01*
X0482631Y0191379D01*
X0482640Y0191449D01*
X0482646Y0191520D01*
X0482648Y0191591D01*
X0482648Y0192903D01*
X0482646Y0192974D01*
X0482640Y0193045D01*
X0482631Y0193115D01*
X0482617Y0193185D01*
X0482600Y0193254D01*
X0482579Y0193322D01*
X0482555Y0193388D01*
X0482527Y0193453D01*
X0482495Y0193517D01*
X0482460Y0193579D01*
X0482422Y0193639D01*
X0482381Y0193696D01*
X0482336Y0193752D01*
X0482289Y0193805D01*
X0482239Y0193855D01*
X0482186Y0193902D01*
X0482130Y0193947D01*
X0482073Y0193988D01*
X0482013Y0194026D01*
X0481951Y0194061D01*
X0481887Y0194093D01*
X0481822Y0194121D01*
X0481756Y0194145D01*
X0481688Y0194166D01*
X0481619Y0194183D01*
X0481549Y0194197D01*
X0481479Y0194206D01*
X0481408Y0194212D01*
X0481337Y0194214D01*
X0481266Y0194212D01*
X0481195Y0194206D01*
X0481125Y0194197D01*
X0481055Y0194183D01*
X0480986Y0194166D01*
X0480918Y0194145D01*
X0480852Y0194121D01*
X0480787Y0194093D01*
X0480723Y0194061D01*
X0480661Y0194026D01*
X0480601Y0193988D01*
X0480544Y0193947D01*
X0480488Y0193902D01*
X0480435Y0193855D01*
X0480385Y0193805D01*
X0480338Y0193752D01*
X0480293Y0193696D01*
X0480252Y0193639D01*
X0480214Y0193579D01*
X0480179Y0193517D01*
X0480147Y0193453D01*
X0480119Y0193388D01*
X0480095Y0193322D01*
X0480074Y0193254D01*
X0480057Y0193185D01*
X0480043Y0193115D01*
X0480034Y0193045D01*
X0480028Y0192974D01*
X0480026Y0192903D01*
X0477613Y0190280D02*
X0476302Y0190280D01*
X0476302Y0190281D02*
X0476240Y0190283D01*
X0476179Y0190289D01*
X0476118Y0190298D01*
X0476058Y0190312D01*
X0475998Y0190329D01*
X0475940Y0190350D01*
X0475883Y0190375D01*
X0475828Y0190403D01*
X0475775Y0190434D01*
X0475724Y0190469D01*
X0475675Y0190507D01*
X0475629Y0190547D01*
X0475585Y0190591D01*
X0475545Y0190637D01*
X0475507Y0190686D01*
X0475472Y0190737D01*
X0475441Y0190790D01*
X0475413Y0190845D01*
X0475388Y0190902D01*
X0475367Y0190960D01*
X0475350Y0191020D01*
X0475336Y0191080D01*
X0475327Y0191141D01*
X0475321Y0191202D01*
X0475319Y0191264D01*
X0485615Y0190280D02*
X0485615Y0194214D01*
X0487582Y0194214D01*
X0487582Y0193558D01*
X0489667Y0192903D02*
X0489667Y0191264D01*
X0489667Y0192247D02*
X0492290Y0192247D01*
X0492290Y0192903D01*
X0492288Y0192974D01*
X0492282Y0193045D01*
X0492273Y0193115D01*
X0492259Y0193185D01*
X0492242Y0193254D01*
X0492221Y0193322D01*
X0492197Y0193388D01*
X0492169Y0193453D01*
X0492137Y0193517D01*
X0492102Y0193579D01*
X0492064Y0193639D01*
X0492023Y0193696D01*
X0491978Y0193752D01*
X0491931Y0193805D01*
X0491881Y0193855D01*
X0491828Y0193902D01*
X0491772Y0193947D01*
X0491715Y0193988D01*
X0491655Y0194026D01*
X0491593Y0194061D01*
X0491529Y0194093D01*
X0491464Y0194121D01*
X0491398Y0194145D01*
X0491330Y0194166D01*
X0491261Y0194183D01*
X0491191Y0194197D01*
X0491121Y0194206D01*
X0491050Y0194212D01*
X0490979Y0194214D01*
X0490908Y0194212D01*
X0490837Y0194206D01*
X0490767Y0194197D01*
X0490697Y0194183D01*
X0490628Y0194166D01*
X0490560Y0194145D01*
X0490494Y0194121D01*
X0490429Y0194093D01*
X0490365Y0194061D01*
X0490303Y0194026D01*
X0490243Y0193988D01*
X0490186Y0193947D01*
X0490130Y0193902D01*
X0490077Y0193855D01*
X0490027Y0193805D01*
X0489980Y0193752D01*
X0489935Y0193696D01*
X0489894Y0193639D01*
X0489856Y0193579D01*
X0489821Y0193517D01*
X0489789Y0193453D01*
X0489761Y0193388D01*
X0489737Y0193322D01*
X0489716Y0193254D01*
X0489699Y0193185D01*
X0489685Y0193115D01*
X0489676Y0193045D01*
X0489670Y0192974D01*
X0489668Y0192903D01*
X0489668Y0191264D02*
X0489670Y0191202D01*
X0489676Y0191141D01*
X0489685Y0191080D01*
X0489699Y0191020D01*
X0489716Y0190960D01*
X0489737Y0190902D01*
X0489762Y0190845D01*
X0489790Y0190790D01*
X0489821Y0190737D01*
X0489856Y0190686D01*
X0489894Y0190637D01*
X0489934Y0190591D01*
X0489978Y0190547D01*
X0490024Y0190507D01*
X0490073Y0190469D01*
X0490124Y0190434D01*
X0490177Y0190403D01*
X0490232Y0190375D01*
X0490289Y0190350D01*
X0490347Y0190329D01*
X0490407Y0190312D01*
X0490467Y0190298D01*
X0490528Y0190289D01*
X0490589Y0190283D01*
X0490651Y0190281D01*
X0490651Y0190280D02*
X0492290Y0190280D01*
X0492290Y0231650D02*
X0490651Y0231650D01*
X0490651Y0231651D02*
X0490589Y0231653D01*
X0490528Y0231659D01*
X0490467Y0231668D01*
X0490407Y0231682D01*
X0490347Y0231699D01*
X0490289Y0231720D01*
X0490232Y0231745D01*
X0490177Y0231773D01*
X0490124Y0231804D01*
X0490073Y0231839D01*
X0490024Y0231877D01*
X0489978Y0231917D01*
X0489934Y0231961D01*
X0489894Y0232007D01*
X0489856Y0232056D01*
X0489821Y0232107D01*
X0489790Y0232160D01*
X0489762Y0232215D01*
X0489737Y0232272D01*
X0489716Y0232330D01*
X0489699Y0232390D01*
X0489685Y0232450D01*
X0489676Y0232511D01*
X0489670Y0232572D01*
X0489668Y0232634D01*
X0489667Y0232634D02*
X0489667Y0234273D01*
X0489667Y0233617D02*
X0492290Y0233617D01*
X0492290Y0234273D01*
X0492288Y0234344D01*
X0492282Y0234415D01*
X0492273Y0234485D01*
X0492259Y0234555D01*
X0492242Y0234624D01*
X0492221Y0234692D01*
X0492197Y0234758D01*
X0492169Y0234823D01*
X0492137Y0234887D01*
X0492102Y0234949D01*
X0492064Y0235009D01*
X0492023Y0235066D01*
X0491978Y0235122D01*
X0491931Y0235175D01*
X0491881Y0235225D01*
X0491828Y0235272D01*
X0491772Y0235317D01*
X0491715Y0235358D01*
X0491655Y0235396D01*
X0491593Y0235431D01*
X0491529Y0235463D01*
X0491464Y0235491D01*
X0491398Y0235515D01*
X0491330Y0235536D01*
X0491261Y0235553D01*
X0491191Y0235567D01*
X0491121Y0235576D01*
X0491050Y0235582D01*
X0490979Y0235584D01*
X0490908Y0235582D01*
X0490837Y0235576D01*
X0490767Y0235567D01*
X0490697Y0235553D01*
X0490628Y0235536D01*
X0490560Y0235515D01*
X0490494Y0235491D01*
X0490429Y0235463D01*
X0490365Y0235431D01*
X0490303Y0235396D01*
X0490243Y0235358D01*
X0490186Y0235317D01*
X0490130Y0235272D01*
X0490077Y0235225D01*
X0490027Y0235175D01*
X0489980Y0235122D01*
X0489935Y0235066D01*
X0489894Y0235009D01*
X0489856Y0234949D01*
X0489821Y0234887D01*
X0489789Y0234823D01*
X0489761Y0234758D01*
X0489737Y0234692D01*
X0489716Y0234624D01*
X0489699Y0234555D01*
X0489685Y0234485D01*
X0489676Y0234415D01*
X0489670Y0234344D01*
X0489668Y0234273D01*
X0487582Y0234928D02*
X0487582Y0235584D01*
X0485615Y0235584D01*
X0485615Y0231650D01*
X0482648Y0232962D02*
X0482648Y0234273D01*
X0482646Y0234344D01*
X0482640Y0234415D01*
X0482631Y0234485D01*
X0482617Y0234555D01*
X0482600Y0234624D01*
X0482579Y0234692D01*
X0482555Y0234758D01*
X0482527Y0234823D01*
X0482495Y0234887D01*
X0482460Y0234949D01*
X0482422Y0235009D01*
X0482381Y0235066D01*
X0482336Y0235122D01*
X0482289Y0235175D01*
X0482239Y0235225D01*
X0482186Y0235272D01*
X0482130Y0235317D01*
X0482073Y0235358D01*
X0482013Y0235396D01*
X0481951Y0235431D01*
X0481887Y0235463D01*
X0481822Y0235491D01*
X0481756Y0235515D01*
X0481688Y0235536D01*
X0481619Y0235553D01*
X0481549Y0235567D01*
X0481479Y0235576D01*
X0481408Y0235582D01*
X0481337Y0235584D01*
X0481266Y0235582D01*
X0481195Y0235576D01*
X0481125Y0235567D01*
X0481055Y0235553D01*
X0480986Y0235536D01*
X0480918Y0235515D01*
X0480852Y0235491D01*
X0480787Y0235463D01*
X0480723Y0235431D01*
X0480661Y0235396D01*
X0480601Y0235358D01*
X0480544Y0235317D01*
X0480488Y0235272D01*
X0480435Y0235225D01*
X0480385Y0235175D01*
X0480338Y0235122D01*
X0480293Y0235066D01*
X0480252Y0235009D01*
X0480214Y0234949D01*
X0480179Y0234887D01*
X0480147Y0234823D01*
X0480119Y0234758D01*
X0480095Y0234692D01*
X0480074Y0234624D01*
X0480057Y0234555D01*
X0480043Y0234485D01*
X0480034Y0234415D01*
X0480028Y0234344D01*
X0480026Y0234273D01*
X0480026Y0232962D01*
X0480028Y0232891D01*
X0480034Y0232820D01*
X0480043Y0232750D01*
X0480057Y0232680D01*
X0480074Y0232611D01*
X0480095Y0232543D01*
X0480119Y0232477D01*
X0480147Y0232412D01*
X0480179Y0232348D01*
X0480214Y0232286D01*
X0480252Y0232226D01*
X0480293Y0232169D01*
X0480338Y0232113D01*
X0480385Y0232060D01*
X0480435Y0232010D01*
X0480488Y0231963D01*
X0480544Y0231918D01*
X0480601Y0231877D01*
X0480661Y0231839D01*
X0480723Y0231804D01*
X0480787Y0231772D01*
X0480852Y0231744D01*
X0480918Y0231720D01*
X0480986Y0231699D01*
X0481055Y0231682D01*
X0481125Y0231668D01*
X0481195Y0231659D01*
X0481266Y0231653D01*
X0481337Y0231651D01*
X0481408Y0231653D01*
X0481479Y0231659D01*
X0481549Y0231668D01*
X0481619Y0231682D01*
X0481688Y0231699D01*
X0481756Y0231720D01*
X0481822Y0231744D01*
X0481887Y0231772D01*
X0481951Y0231804D01*
X0482013Y0231839D01*
X0482073Y0231877D01*
X0482130Y0231918D01*
X0482186Y0231963D01*
X0482239Y0232010D01*
X0482289Y0232060D01*
X0482336Y0232113D01*
X0482381Y0232169D01*
X0482422Y0232226D01*
X0482460Y0232286D01*
X0482495Y0232348D01*
X0482527Y0232412D01*
X0482555Y0232477D01*
X0482579Y0232543D01*
X0482600Y0232611D01*
X0482617Y0232680D01*
X0482631Y0232750D01*
X0482640Y0232820D01*
X0482646Y0232891D01*
X0482648Y0232962D01*
X0477613Y0231650D02*
X0476302Y0231650D01*
X0476302Y0231651D02*
X0476240Y0231653D01*
X0476179Y0231659D01*
X0476118Y0231668D01*
X0476058Y0231682D01*
X0475998Y0231699D01*
X0475940Y0231720D01*
X0475883Y0231745D01*
X0475828Y0231773D01*
X0475775Y0231804D01*
X0475724Y0231839D01*
X0475675Y0231877D01*
X0475629Y0231917D01*
X0475585Y0231961D01*
X0475545Y0232007D01*
X0475507Y0232056D01*
X0475472Y0232107D01*
X0475441Y0232160D01*
X0475413Y0232215D01*
X0475388Y0232272D01*
X0475367Y0232330D01*
X0475350Y0232390D01*
X0475336Y0232450D01*
X0475327Y0232511D01*
X0475321Y0232572D01*
X0475319Y0232634D01*
X0475319Y0234600D01*
X0475321Y0234662D01*
X0475327Y0234723D01*
X0475336Y0234784D01*
X0475350Y0234844D01*
X0475367Y0234904D01*
X0475388Y0234962D01*
X0475413Y0235019D01*
X0475441Y0235074D01*
X0475472Y0235127D01*
X0475507Y0235178D01*
X0475545Y0235227D01*
X0475585Y0235273D01*
X0475629Y0235317D01*
X0475675Y0235357D01*
X0475724Y0235395D01*
X0475775Y0235430D01*
X0475828Y0235461D01*
X0475883Y0235489D01*
X0475940Y0235514D01*
X0475998Y0235535D01*
X0476058Y0235552D01*
X0476118Y0235566D01*
X0476179Y0235575D01*
X0476240Y0235581D01*
X0476302Y0235583D01*
X0476302Y0235584D02*
X0477613Y0235584D01*
X0472105Y0233289D02*
X0470466Y0233945D01*
X0470414Y0233968D01*
X0470363Y0233995D01*
X0470314Y0234025D01*
X0470267Y0234058D01*
X0470222Y0234094D01*
X0470180Y0234134D01*
X0470141Y0234176D01*
X0470105Y0234220D01*
X0470072Y0234267D01*
X0470042Y0234317D01*
X0470015Y0234368D01*
X0469992Y0234420D01*
X0469973Y0234474D01*
X0469957Y0234530D01*
X0469945Y0234586D01*
X0469937Y0234643D01*
X0469933Y0234700D01*
X0469932Y0234758D01*
X0469936Y0234815D01*
X0469943Y0234872D01*
X0469955Y0234929D01*
X0469970Y0234984D01*
X0469988Y0235039D01*
X0470011Y0235092D01*
X0470037Y0235143D01*
X0470066Y0235192D01*
X0470099Y0235240D01*
X0470135Y0235285D01*
X0470173Y0235327D01*
X0470215Y0235367D01*
X0470259Y0235404D01*
X0470306Y0235438D01*
X0470354Y0235469D01*
X0470405Y0235496D01*
X0470457Y0235520D01*
X0470511Y0235540D01*
X0470566Y0235556D01*
X0470622Y0235569D01*
X0470679Y0235578D01*
X0470737Y0235583D01*
X0470794Y0235584D01*
X0469975Y0231978D02*
X0470109Y0231932D01*
X0470244Y0231889D01*
X0470380Y0231850D01*
X0470517Y0231814D01*
X0470654Y0231782D01*
X0470793Y0231753D01*
X0470932Y0231727D01*
X0471072Y0231706D01*
X0471213Y0231687D01*
X0471353Y0231673D01*
X0471495Y0231662D01*
X0471636Y0231654D01*
X0471778Y0231651D01*
X0471778Y0231650D02*
X0471835Y0231651D01*
X0471893Y0231656D01*
X0471950Y0231665D01*
X0472006Y0231678D01*
X0472061Y0231694D01*
X0472115Y0231714D01*
X0472167Y0231738D01*
X0472218Y0231765D01*
X0472266Y0231796D01*
X0472313Y0231830D01*
X0472357Y0231867D01*
X0472399Y0231907D01*
X0472437Y0231949D01*
X0472473Y0231994D01*
X0472506Y0232042D01*
X0472535Y0232091D01*
X0472561Y0232142D01*
X0472584Y0232195D01*
X0472602Y0232250D01*
X0472617Y0232305D01*
X0472629Y0232362D01*
X0472636Y0232419D01*
X0472640Y0232476D01*
X0472639Y0232534D01*
X0472635Y0232591D01*
X0472627Y0232648D01*
X0472615Y0232704D01*
X0472599Y0232760D01*
X0472580Y0232814D01*
X0472557Y0232866D01*
X0472530Y0232917D01*
X0472500Y0232967D01*
X0472467Y0233014D01*
X0472431Y0233058D01*
X0472392Y0233100D01*
X0472350Y0233140D01*
X0472305Y0233176D01*
X0472258Y0233209D01*
X0472209Y0233239D01*
X0472158Y0233266D01*
X0472106Y0233289D01*
X0472269Y0235256D02*
X0472162Y0235302D01*
X0472053Y0235345D01*
X0471943Y0235385D01*
X0471831Y0235421D01*
X0471719Y0235453D01*
X0471605Y0235482D01*
X0471491Y0235508D01*
X0471376Y0235529D01*
X0471261Y0235548D01*
X0471144Y0235562D01*
X0471028Y0235573D01*
X0470911Y0235580D01*
X0470794Y0235584D01*
X0467098Y0233945D02*
X0463165Y0233945D01*
X0460494Y0235584D02*
X0459183Y0231650D01*
X0457872Y0235584D01*
X0459183Y0273020D02*
X0460494Y0276954D01*
X0457872Y0276954D02*
X0459183Y0273020D01*
X0463165Y0275315D02*
X0467098Y0275315D01*
X0470466Y0275315D02*
X0472105Y0274659D01*
X0472106Y0274659D02*
X0472158Y0274636D01*
X0472209Y0274609D01*
X0472258Y0274579D01*
X0472305Y0274546D01*
X0472350Y0274510D01*
X0472392Y0274470D01*
X0472431Y0274428D01*
X0472467Y0274384D01*
X0472500Y0274337D01*
X0472530Y0274287D01*
X0472557Y0274236D01*
X0472580Y0274184D01*
X0472599Y0274130D01*
X0472615Y0274074D01*
X0472627Y0274018D01*
X0472635Y0273961D01*
X0472639Y0273904D01*
X0472640Y0273846D01*
X0472636Y0273789D01*
X0472629Y0273732D01*
X0472617Y0273675D01*
X0472602Y0273620D01*
X0472584Y0273565D01*
X0472561Y0273512D01*
X0472535Y0273461D01*
X0472506Y0273412D01*
X0472473Y0273364D01*
X0472437Y0273319D01*
X0472399Y0273277D01*
X0472357Y0273237D01*
X0472313Y0273200D01*
X0472266Y0273166D01*
X0472218Y0273135D01*
X0472167Y0273108D01*
X0472115Y0273084D01*
X0472061Y0273064D01*
X0472006Y0273048D01*
X0471950Y0273035D01*
X0471893Y0273026D01*
X0471835Y0273021D01*
X0471778Y0273020D01*
X0472269Y0276626D02*
X0472162Y0276672D01*
X0472053Y0276715D01*
X0471943Y0276755D01*
X0471831Y0276791D01*
X0471719Y0276823D01*
X0471605Y0276852D01*
X0471491Y0276878D01*
X0471376Y0276899D01*
X0471261Y0276918D01*
X0471144Y0276932D01*
X0471028Y0276943D01*
X0470911Y0276950D01*
X0470794Y0276954D01*
X0470737Y0276953D01*
X0470679Y0276948D01*
X0470622Y0276939D01*
X0470566Y0276926D01*
X0470511Y0276910D01*
X0470457Y0276890D01*
X0470405Y0276866D01*
X0470354Y0276839D01*
X0470306Y0276808D01*
X0470259Y0276774D01*
X0470215Y0276737D01*
X0470173Y0276697D01*
X0470135Y0276655D01*
X0470099Y0276610D01*
X0470066Y0276562D01*
X0470037Y0276513D01*
X0470011Y0276462D01*
X0469988Y0276409D01*
X0469970Y0276354D01*
X0469955Y0276299D01*
X0469943Y0276242D01*
X0469936Y0276185D01*
X0469932Y0276128D01*
X0469933Y0276070D01*
X0469937Y0276013D01*
X0469945Y0275956D01*
X0469957Y0275900D01*
X0469973Y0275844D01*
X0469992Y0275790D01*
X0470015Y0275738D01*
X0470042Y0275687D01*
X0470072Y0275637D01*
X0470105Y0275590D01*
X0470141Y0275546D01*
X0470180Y0275504D01*
X0470222Y0275464D01*
X0470267Y0275428D01*
X0470314Y0275395D01*
X0470363Y0275365D01*
X0470414Y0275338D01*
X0470466Y0275315D01*
X0469975Y0273348D02*
X0470109Y0273302D01*
X0470244Y0273259D01*
X0470380Y0273220D01*
X0470517Y0273184D01*
X0470654Y0273152D01*
X0470793Y0273123D01*
X0470932Y0273097D01*
X0471072Y0273076D01*
X0471213Y0273057D01*
X0471353Y0273043D01*
X0471495Y0273032D01*
X0471636Y0273024D01*
X0471778Y0273021D01*
X0475319Y0274004D02*
X0475319Y0275970D01*
X0475321Y0276032D01*
X0475327Y0276093D01*
X0475336Y0276154D01*
X0475350Y0276214D01*
X0475367Y0276274D01*
X0475388Y0276332D01*
X0475413Y0276389D01*
X0475441Y0276444D01*
X0475472Y0276497D01*
X0475507Y0276548D01*
X0475545Y0276597D01*
X0475585Y0276643D01*
X0475629Y0276687D01*
X0475675Y0276727D01*
X0475724Y0276765D01*
X0475775Y0276800D01*
X0475828Y0276831D01*
X0475883Y0276859D01*
X0475940Y0276884D01*
X0475998Y0276905D01*
X0476058Y0276922D01*
X0476118Y0276936D01*
X0476179Y0276945D01*
X0476240Y0276951D01*
X0476302Y0276953D01*
X0476302Y0276954D02*
X0477613Y0276954D01*
X0480026Y0275643D02*
X0480026Y0274332D01*
X0480028Y0274261D01*
X0480034Y0274190D01*
X0480043Y0274120D01*
X0480057Y0274050D01*
X0480074Y0273981D01*
X0480095Y0273913D01*
X0480119Y0273847D01*
X0480147Y0273782D01*
X0480179Y0273718D01*
X0480214Y0273656D01*
X0480252Y0273596D01*
X0480293Y0273539D01*
X0480338Y0273483D01*
X0480385Y0273430D01*
X0480435Y0273380D01*
X0480488Y0273333D01*
X0480544Y0273288D01*
X0480601Y0273247D01*
X0480661Y0273209D01*
X0480723Y0273174D01*
X0480787Y0273142D01*
X0480852Y0273114D01*
X0480918Y0273090D01*
X0480986Y0273069D01*
X0481055Y0273052D01*
X0481125Y0273038D01*
X0481195Y0273029D01*
X0481266Y0273023D01*
X0481337Y0273021D01*
X0481408Y0273023D01*
X0481479Y0273029D01*
X0481549Y0273038D01*
X0481619Y0273052D01*
X0481688Y0273069D01*
X0481756Y0273090D01*
X0481822Y0273114D01*
X0481887Y0273142D01*
X0481951Y0273174D01*
X0482013Y0273209D01*
X0482073Y0273247D01*
X0482130Y0273288D01*
X0482186Y0273333D01*
X0482239Y0273380D01*
X0482289Y0273430D01*
X0482336Y0273483D01*
X0482381Y0273539D01*
X0482422Y0273596D01*
X0482460Y0273656D01*
X0482495Y0273718D01*
X0482527Y0273782D01*
X0482555Y0273847D01*
X0482579Y0273913D01*
X0482600Y0273981D01*
X0482617Y0274050D01*
X0482631Y0274120D01*
X0482640Y0274190D01*
X0482646Y0274261D01*
X0482648Y0274332D01*
X0482648Y0275643D01*
X0482646Y0275714D01*
X0482640Y0275785D01*
X0482631Y0275855D01*
X0482617Y0275925D01*
X0482600Y0275994D01*
X0482579Y0276062D01*
X0482555Y0276128D01*
X0482527Y0276193D01*
X0482495Y0276257D01*
X0482460Y0276319D01*
X0482422Y0276379D01*
X0482381Y0276436D01*
X0482336Y0276492D01*
X0482289Y0276545D01*
X0482239Y0276595D01*
X0482186Y0276642D01*
X0482130Y0276687D01*
X0482073Y0276728D01*
X0482013Y0276766D01*
X0481951Y0276801D01*
X0481887Y0276833D01*
X0481822Y0276861D01*
X0481756Y0276885D01*
X0481688Y0276906D01*
X0481619Y0276923D01*
X0481549Y0276937D01*
X0481479Y0276946D01*
X0481408Y0276952D01*
X0481337Y0276954D01*
X0481266Y0276952D01*
X0481195Y0276946D01*
X0481125Y0276937D01*
X0481055Y0276923D01*
X0480986Y0276906D01*
X0480918Y0276885D01*
X0480852Y0276861D01*
X0480787Y0276833D01*
X0480723Y0276801D01*
X0480661Y0276766D01*
X0480601Y0276728D01*
X0480544Y0276687D01*
X0480488Y0276642D01*
X0480435Y0276595D01*
X0480385Y0276545D01*
X0480338Y0276492D01*
X0480293Y0276436D01*
X0480252Y0276379D01*
X0480214Y0276319D01*
X0480179Y0276257D01*
X0480147Y0276193D01*
X0480119Y0276128D01*
X0480095Y0276062D01*
X0480074Y0275994D01*
X0480057Y0275925D01*
X0480043Y0275855D01*
X0480034Y0275785D01*
X0480028Y0275714D01*
X0480026Y0275643D01*
X0477613Y0273020D02*
X0476302Y0273020D01*
X0476302Y0273021D02*
X0476240Y0273023D01*
X0476179Y0273029D01*
X0476118Y0273038D01*
X0476058Y0273052D01*
X0475998Y0273069D01*
X0475940Y0273090D01*
X0475883Y0273115D01*
X0475828Y0273143D01*
X0475775Y0273174D01*
X0475724Y0273209D01*
X0475675Y0273247D01*
X0475629Y0273287D01*
X0475585Y0273331D01*
X0475545Y0273377D01*
X0475507Y0273426D01*
X0475472Y0273477D01*
X0475441Y0273530D01*
X0475413Y0273585D01*
X0475388Y0273642D01*
X0475367Y0273700D01*
X0475350Y0273760D01*
X0475336Y0273820D01*
X0475327Y0273881D01*
X0475321Y0273942D01*
X0475319Y0274004D01*
X0485615Y0273020D02*
X0485615Y0276954D01*
X0487582Y0276954D01*
X0487582Y0276298D01*
X0489667Y0275643D02*
X0489667Y0274004D01*
X0489667Y0274987D02*
X0492290Y0274987D01*
X0492290Y0275643D01*
X0492288Y0275714D01*
X0492282Y0275785D01*
X0492273Y0275855D01*
X0492259Y0275925D01*
X0492242Y0275994D01*
X0492221Y0276062D01*
X0492197Y0276128D01*
X0492169Y0276193D01*
X0492137Y0276257D01*
X0492102Y0276319D01*
X0492064Y0276379D01*
X0492023Y0276436D01*
X0491978Y0276492D01*
X0491931Y0276545D01*
X0491881Y0276595D01*
X0491828Y0276642D01*
X0491772Y0276687D01*
X0491715Y0276728D01*
X0491655Y0276766D01*
X0491593Y0276801D01*
X0491529Y0276833D01*
X0491464Y0276861D01*
X0491398Y0276885D01*
X0491330Y0276906D01*
X0491261Y0276923D01*
X0491191Y0276937D01*
X0491121Y0276946D01*
X0491050Y0276952D01*
X0490979Y0276954D01*
X0490908Y0276952D01*
X0490837Y0276946D01*
X0490767Y0276937D01*
X0490697Y0276923D01*
X0490628Y0276906D01*
X0490560Y0276885D01*
X0490494Y0276861D01*
X0490429Y0276833D01*
X0490365Y0276801D01*
X0490303Y0276766D01*
X0490243Y0276728D01*
X0490186Y0276687D01*
X0490130Y0276642D01*
X0490077Y0276595D01*
X0490027Y0276545D01*
X0489980Y0276492D01*
X0489935Y0276436D01*
X0489894Y0276379D01*
X0489856Y0276319D01*
X0489821Y0276257D01*
X0489789Y0276193D01*
X0489761Y0276128D01*
X0489737Y0276062D01*
X0489716Y0275994D01*
X0489699Y0275925D01*
X0489685Y0275855D01*
X0489676Y0275785D01*
X0489670Y0275714D01*
X0489668Y0275643D01*
X0489668Y0274004D02*
X0489670Y0273942D01*
X0489676Y0273881D01*
X0489685Y0273820D01*
X0489699Y0273760D01*
X0489716Y0273700D01*
X0489737Y0273642D01*
X0489762Y0273585D01*
X0489790Y0273530D01*
X0489821Y0273477D01*
X0489856Y0273426D01*
X0489894Y0273377D01*
X0489934Y0273331D01*
X0489978Y0273287D01*
X0490024Y0273247D01*
X0490073Y0273209D01*
X0490124Y0273174D01*
X0490177Y0273143D01*
X0490232Y0273115D01*
X0490289Y0273090D01*
X0490347Y0273069D01*
X0490407Y0273052D01*
X0490467Y0273038D01*
X0490528Y0273029D01*
X0490589Y0273023D01*
X0490651Y0273021D01*
X0490651Y0273020D02*
X0492290Y0273020D01*
X0492290Y0314391D02*
X0490651Y0314391D01*
X0490589Y0314393D01*
X0490528Y0314399D01*
X0490467Y0314408D01*
X0490407Y0314422D01*
X0490347Y0314439D01*
X0490289Y0314460D01*
X0490232Y0314485D01*
X0490177Y0314513D01*
X0490124Y0314544D01*
X0490073Y0314579D01*
X0490024Y0314617D01*
X0489978Y0314657D01*
X0489934Y0314701D01*
X0489894Y0314747D01*
X0489856Y0314796D01*
X0489821Y0314847D01*
X0489790Y0314900D01*
X0489762Y0314955D01*
X0489737Y0315012D01*
X0489716Y0315070D01*
X0489699Y0315130D01*
X0489685Y0315190D01*
X0489676Y0315251D01*
X0489670Y0315312D01*
X0489668Y0315374D01*
X0489667Y0315374D02*
X0489667Y0317013D01*
X0489667Y0316357D02*
X0492290Y0316357D01*
X0492290Y0317013D01*
X0492288Y0317084D01*
X0492282Y0317155D01*
X0492273Y0317225D01*
X0492259Y0317295D01*
X0492242Y0317364D01*
X0492221Y0317432D01*
X0492197Y0317498D01*
X0492169Y0317563D01*
X0492137Y0317627D01*
X0492102Y0317689D01*
X0492064Y0317749D01*
X0492023Y0317806D01*
X0491978Y0317862D01*
X0491931Y0317915D01*
X0491881Y0317965D01*
X0491828Y0318012D01*
X0491772Y0318057D01*
X0491715Y0318098D01*
X0491655Y0318136D01*
X0491593Y0318171D01*
X0491529Y0318203D01*
X0491464Y0318231D01*
X0491398Y0318255D01*
X0491330Y0318276D01*
X0491261Y0318293D01*
X0491191Y0318307D01*
X0491121Y0318316D01*
X0491050Y0318322D01*
X0490979Y0318324D01*
X0490908Y0318322D01*
X0490837Y0318316D01*
X0490767Y0318307D01*
X0490697Y0318293D01*
X0490628Y0318276D01*
X0490560Y0318255D01*
X0490494Y0318231D01*
X0490429Y0318203D01*
X0490365Y0318171D01*
X0490303Y0318136D01*
X0490243Y0318098D01*
X0490186Y0318057D01*
X0490130Y0318012D01*
X0490077Y0317965D01*
X0490027Y0317915D01*
X0489980Y0317862D01*
X0489935Y0317806D01*
X0489894Y0317749D01*
X0489856Y0317689D01*
X0489821Y0317627D01*
X0489789Y0317563D01*
X0489761Y0317498D01*
X0489737Y0317432D01*
X0489716Y0317364D01*
X0489699Y0317295D01*
X0489685Y0317225D01*
X0489676Y0317155D01*
X0489670Y0317084D01*
X0489668Y0317013D01*
X0487582Y0317668D02*
X0487582Y0318324D01*
X0485615Y0318324D01*
X0485615Y0314391D01*
X0482648Y0315702D02*
X0482648Y0317013D01*
X0482646Y0317084D01*
X0482640Y0317155D01*
X0482631Y0317225D01*
X0482617Y0317295D01*
X0482600Y0317364D01*
X0482579Y0317432D01*
X0482555Y0317498D01*
X0482527Y0317563D01*
X0482495Y0317627D01*
X0482460Y0317689D01*
X0482422Y0317749D01*
X0482381Y0317806D01*
X0482336Y0317862D01*
X0482289Y0317915D01*
X0482239Y0317965D01*
X0482186Y0318012D01*
X0482130Y0318057D01*
X0482073Y0318098D01*
X0482013Y0318136D01*
X0481951Y0318171D01*
X0481887Y0318203D01*
X0481822Y0318231D01*
X0481756Y0318255D01*
X0481688Y0318276D01*
X0481619Y0318293D01*
X0481549Y0318307D01*
X0481479Y0318316D01*
X0481408Y0318322D01*
X0481337Y0318324D01*
X0481266Y0318322D01*
X0481195Y0318316D01*
X0481125Y0318307D01*
X0481055Y0318293D01*
X0480986Y0318276D01*
X0480918Y0318255D01*
X0480852Y0318231D01*
X0480787Y0318203D01*
X0480723Y0318171D01*
X0480661Y0318136D01*
X0480601Y0318098D01*
X0480544Y0318057D01*
X0480488Y0318012D01*
X0480435Y0317965D01*
X0480385Y0317915D01*
X0480338Y0317862D01*
X0480293Y0317806D01*
X0480252Y0317749D01*
X0480214Y0317689D01*
X0480179Y0317627D01*
X0480147Y0317563D01*
X0480119Y0317498D01*
X0480095Y0317432D01*
X0480074Y0317364D01*
X0480057Y0317295D01*
X0480043Y0317225D01*
X0480034Y0317155D01*
X0480028Y0317084D01*
X0480026Y0317013D01*
X0480026Y0315702D01*
X0480028Y0315631D01*
X0480034Y0315560D01*
X0480043Y0315490D01*
X0480057Y0315420D01*
X0480074Y0315351D01*
X0480095Y0315283D01*
X0480119Y0315217D01*
X0480147Y0315152D01*
X0480179Y0315088D01*
X0480214Y0315026D01*
X0480252Y0314966D01*
X0480293Y0314909D01*
X0480338Y0314853D01*
X0480385Y0314800D01*
X0480435Y0314750D01*
X0480488Y0314703D01*
X0480544Y0314658D01*
X0480601Y0314617D01*
X0480661Y0314579D01*
X0480723Y0314544D01*
X0480787Y0314512D01*
X0480852Y0314484D01*
X0480918Y0314460D01*
X0480986Y0314439D01*
X0481055Y0314422D01*
X0481125Y0314408D01*
X0481195Y0314399D01*
X0481266Y0314393D01*
X0481337Y0314391D01*
X0481408Y0314393D01*
X0481479Y0314399D01*
X0481549Y0314408D01*
X0481619Y0314422D01*
X0481688Y0314439D01*
X0481756Y0314460D01*
X0481822Y0314484D01*
X0481887Y0314512D01*
X0481951Y0314544D01*
X0482013Y0314579D01*
X0482073Y0314617D01*
X0482130Y0314658D01*
X0482186Y0314703D01*
X0482239Y0314750D01*
X0482289Y0314800D01*
X0482336Y0314853D01*
X0482381Y0314909D01*
X0482422Y0314966D01*
X0482460Y0315026D01*
X0482495Y0315088D01*
X0482527Y0315152D01*
X0482555Y0315217D01*
X0482579Y0315283D01*
X0482600Y0315351D01*
X0482617Y0315420D01*
X0482631Y0315490D01*
X0482640Y0315560D01*
X0482646Y0315631D01*
X0482648Y0315702D01*
X0477613Y0314391D02*
X0476302Y0314391D01*
X0476240Y0314393D01*
X0476179Y0314399D01*
X0476118Y0314408D01*
X0476058Y0314422D01*
X0475998Y0314439D01*
X0475940Y0314460D01*
X0475883Y0314485D01*
X0475828Y0314513D01*
X0475775Y0314544D01*
X0475724Y0314579D01*
X0475675Y0314617D01*
X0475629Y0314657D01*
X0475585Y0314701D01*
X0475545Y0314747D01*
X0475507Y0314796D01*
X0475472Y0314847D01*
X0475441Y0314900D01*
X0475413Y0314955D01*
X0475388Y0315012D01*
X0475367Y0315070D01*
X0475350Y0315130D01*
X0475336Y0315190D01*
X0475327Y0315251D01*
X0475321Y0315312D01*
X0475319Y0315374D01*
X0475319Y0317341D01*
X0475321Y0317403D01*
X0475327Y0317464D01*
X0475336Y0317525D01*
X0475350Y0317585D01*
X0475367Y0317645D01*
X0475388Y0317703D01*
X0475413Y0317760D01*
X0475441Y0317815D01*
X0475472Y0317868D01*
X0475507Y0317919D01*
X0475545Y0317968D01*
X0475585Y0318014D01*
X0475629Y0318058D01*
X0475675Y0318098D01*
X0475724Y0318136D01*
X0475775Y0318171D01*
X0475828Y0318202D01*
X0475883Y0318230D01*
X0475940Y0318255D01*
X0475998Y0318276D01*
X0476058Y0318293D01*
X0476118Y0318307D01*
X0476179Y0318316D01*
X0476240Y0318322D01*
X0476302Y0318324D01*
X0477613Y0318324D01*
X0472105Y0316029D02*
X0470466Y0316685D01*
X0470414Y0316708D01*
X0470363Y0316735D01*
X0470314Y0316765D01*
X0470267Y0316798D01*
X0470222Y0316834D01*
X0470180Y0316874D01*
X0470141Y0316916D01*
X0470105Y0316960D01*
X0470072Y0317007D01*
X0470042Y0317057D01*
X0470015Y0317108D01*
X0469992Y0317160D01*
X0469973Y0317214D01*
X0469957Y0317270D01*
X0469945Y0317326D01*
X0469937Y0317383D01*
X0469933Y0317440D01*
X0469932Y0317498D01*
X0469936Y0317555D01*
X0469943Y0317612D01*
X0469955Y0317669D01*
X0469970Y0317724D01*
X0469988Y0317779D01*
X0470011Y0317832D01*
X0470037Y0317883D01*
X0470066Y0317932D01*
X0470099Y0317980D01*
X0470135Y0318025D01*
X0470173Y0318067D01*
X0470215Y0318107D01*
X0470259Y0318144D01*
X0470306Y0318178D01*
X0470354Y0318209D01*
X0470405Y0318236D01*
X0470457Y0318260D01*
X0470511Y0318280D01*
X0470566Y0318296D01*
X0470622Y0318309D01*
X0470679Y0318318D01*
X0470737Y0318323D01*
X0470794Y0318324D01*
X0469975Y0314718D02*
X0470109Y0314672D01*
X0470244Y0314629D01*
X0470380Y0314590D01*
X0470517Y0314554D01*
X0470654Y0314522D01*
X0470793Y0314493D01*
X0470932Y0314467D01*
X0471072Y0314446D01*
X0471213Y0314427D01*
X0471353Y0314413D01*
X0471495Y0314402D01*
X0471636Y0314394D01*
X0471778Y0314391D01*
X0471778Y0314390D02*
X0471835Y0314391D01*
X0471893Y0314396D01*
X0471950Y0314405D01*
X0472006Y0314418D01*
X0472061Y0314434D01*
X0472115Y0314454D01*
X0472167Y0314478D01*
X0472218Y0314505D01*
X0472266Y0314536D01*
X0472313Y0314570D01*
X0472357Y0314607D01*
X0472399Y0314647D01*
X0472437Y0314689D01*
X0472473Y0314734D01*
X0472506Y0314782D01*
X0472535Y0314831D01*
X0472561Y0314882D01*
X0472584Y0314935D01*
X0472602Y0314990D01*
X0472617Y0315045D01*
X0472629Y0315102D01*
X0472636Y0315159D01*
X0472640Y0315216D01*
X0472639Y0315274D01*
X0472635Y0315331D01*
X0472627Y0315388D01*
X0472615Y0315444D01*
X0472599Y0315500D01*
X0472580Y0315554D01*
X0472557Y0315606D01*
X0472530Y0315657D01*
X0472500Y0315707D01*
X0472467Y0315754D01*
X0472431Y0315798D01*
X0472392Y0315840D01*
X0472350Y0315880D01*
X0472305Y0315916D01*
X0472258Y0315949D01*
X0472209Y0315979D01*
X0472158Y0316006D01*
X0472106Y0316029D01*
X0472269Y0317996D02*
X0472162Y0318042D01*
X0472053Y0318085D01*
X0471943Y0318125D01*
X0471831Y0318161D01*
X0471719Y0318193D01*
X0471605Y0318222D01*
X0471491Y0318248D01*
X0471376Y0318269D01*
X0471261Y0318288D01*
X0471144Y0318302D01*
X0471028Y0318313D01*
X0470911Y0318320D01*
X0470794Y0318324D01*
X0467098Y0316685D02*
X0463165Y0316685D01*
X0460494Y0318324D02*
X0459183Y0314391D01*
X0457872Y0318324D01*
X0459183Y0355761D02*
X0460494Y0359694D01*
X0457872Y0359694D02*
X0459183Y0355761D01*
X0463165Y0358055D02*
X0467098Y0358055D01*
X0470466Y0358055D02*
X0472105Y0357399D01*
X0472106Y0357399D02*
X0472158Y0357376D01*
X0472209Y0357349D01*
X0472258Y0357319D01*
X0472305Y0357286D01*
X0472350Y0357250D01*
X0472392Y0357210D01*
X0472431Y0357168D01*
X0472467Y0357124D01*
X0472500Y0357077D01*
X0472530Y0357027D01*
X0472557Y0356976D01*
X0472580Y0356924D01*
X0472599Y0356870D01*
X0472615Y0356814D01*
X0472627Y0356758D01*
X0472635Y0356701D01*
X0472639Y0356644D01*
X0472640Y0356586D01*
X0472636Y0356529D01*
X0472629Y0356472D01*
X0472617Y0356415D01*
X0472602Y0356360D01*
X0472584Y0356305D01*
X0472561Y0356252D01*
X0472535Y0356201D01*
X0472506Y0356152D01*
X0472473Y0356104D01*
X0472437Y0356059D01*
X0472399Y0356017D01*
X0472357Y0355977D01*
X0472313Y0355940D01*
X0472266Y0355906D01*
X0472218Y0355875D01*
X0472167Y0355848D01*
X0472115Y0355824D01*
X0472061Y0355804D01*
X0472006Y0355788D01*
X0471950Y0355775D01*
X0471893Y0355766D01*
X0471835Y0355761D01*
X0471778Y0355760D01*
X0472269Y0359366D02*
X0472162Y0359412D01*
X0472053Y0359455D01*
X0471943Y0359495D01*
X0471831Y0359531D01*
X0471719Y0359563D01*
X0471605Y0359592D01*
X0471491Y0359618D01*
X0471376Y0359639D01*
X0471261Y0359658D01*
X0471144Y0359672D01*
X0471028Y0359683D01*
X0470911Y0359690D01*
X0470794Y0359694D01*
X0470737Y0359693D01*
X0470679Y0359688D01*
X0470622Y0359679D01*
X0470566Y0359666D01*
X0470511Y0359650D01*
X0470457Y0359630D01*
X0470405Y0359606D01*
X0470354Y0359579D01*
X0470306Y0359548D01*
X0470259Y0359514D01*
X0470215Y0359477D01*
X0470173Y0359437D01*
X0470135Y0359395D01*
X0470099Y0359350D01*
X0470066Y0359302D01*
X0470037Y0359253D01*
X0470011Y0359202D01*
X0469988Y0359149D01*
X0469970Y0359094D01*
X0469955Y0359039D01*
X0469943Y0358982D01*
X0469936Y0358925D01*
X0469932Y0358868D01*
X0469933Y0358810D01*
X0469937Y0358753D01*
X0469945Y0358696D01*
X0469957Y0358640D01*
X0469973Y0358584D01*
X0469992Y0358530D01*
X0470015Y0358478D01*
X0470042Y0358427D01*
X0470072Y0358377D01*
X0470105Y0358330D01*
X0470141Y0358286D01*
X0470180Y0358244D01*
X0470222Y0358204D01*
X0470267Y0358168D01*
X0470314Y0358135D01*
X0470363Y0358105D01*
X0470414Y0358078D01*
X0470466Y0358055D01*
X0469975Y0356088D02*
X0470109Y0356042D01*
X0470244Y0355999D01*
X0470380Y0355960D01*
X0470517Y0355924D01*
X0470654Y0355892D01*
X0470793Y0355863D01*
X0470932Y0355837D01*
X0471072Y0355816D01*
X0471213Y0355797D01*
X0471353Y0355783D01*
X0471495Y0355772D01*
X0471636Y0355764D01*
X0471778Y0355761D01*
X0475319Y0356744D02*
X0475319Y0358711D01*
X0475321Y0358773D01*
X0475327Y0358834D01*
X0475336Y0358895D01*
X0475350Y0358955D01*
X0475367Y0359015D01*
X0475388Y0359073D01*
X0475413Y0359130D01*
X0475441Y0359185D01*
X0475472Y0359238D01*
X0475507Y0359289D01*
X0475545Y0359338D01*
X0475585Y0359384D01*
X0475629Y0359428D01*
X0475675Y0359468D01*
X0475724Y0359506D01*
X0475775Y0359541D01*
X0475828Y0359572D01*
X0475883Y0359600D01*
X0475940Y0359625D01*
X0475998Y0359646D01*
X0476058Y0359663D01*
X0476118Y0359677D01*
X0476179Y0359686D01*
X0476240Y0359692D01*
X0476302Y0359694D01*
X0477613Y0359694D01*
X0480026Y0358383D02*
X0480026Y0357072D01*
X0480028Y0357001D01*
X0480034Y0356930D01*
X0480043Y0356860D01*
X0480057Y0356790D01*
X0480074Y0356721D01*
X0480095Y0356653D01*
X0480119Y0356587D01*
X0480147Y0356522D01*
X0480179Y0356458D01*
X0480214Y0356396D01*
X0480252Y0356336D01*
X0480293Y0356279D01*
X0480338Y0356223D01*
X0480385Y0356170D01*
X0480435Y0356120D01*
X0480488Y0356073D01*
X0480544Y0356028D01*
X0480601Y0355987D01*
X0480661Y0355949D01*
X0480723Y0355914D01*
X0480787Y0355882D01*
X0480852Y0355854D01*
X0480918Y0355830D01*
X0480986Y0355809D01*
X0481055Y0355792D01*
X0481125Y0355778D01*
X0481195Y0355769D01*
X0481266Y0355763D01*
X0481337Y0355761D01*
X0481408Y0355763D01*
X0481479Y0355769D01*
X0481549Y0355778D01*
X0481619Y0355792D01*
X0481688Y0355809D01*
X0481756Y0355830D01*
X0481822Y0355854D01*
X0481887Y0355882D01*
X0481951Y0355914D01*
X0482013Y0355949D01*
X0482073Y0355987D01*
X0482130Y0356028D01*
X0482186Y0356073D01*
X0482239Y0356120D01*
X0482289Y0356170D01*
X0482336Y0356223D01*
X0482381Y0356279D01*
X0482422Y0356336D01*
X0482460Y0356396D01*
X0482495Y0356458D01*
X0482527Y0356522D01*
X0482555Y0356587D01*
X0482579Y0356653D01*
X0482600Y0356721D01*
X0482617Y0356790D01*
X0482631Y0356860D01*
X0482640Y0356930D01*
X0482646Y0357001D01*
X0482648Y0357072D01*
X0482648Y0358383D01*
X0482646Y0358454D01*
X0482640Y0358525D01*
X0482631Y0358595D01*
X0482617Y0358665D01*
X0482600Y0358734D01*
X0482579Y0358802D01*
X0482555Y0358868D01*
X0482527Y0358933D01*
X0482495Y0358997D01*
X0482460Y0359059D01*
X0482422Y0359119D01*
X0482381Y0359176D01*
X0482336Y0359232D01*
X0482289Y0359285D01*
X0482239Y0359335D01*
X0482186Y0359382D01*
X0482130Y0359427D01*
X0482073Y0359468D01*
X0482013Y0359506D01*
X0481951Y0359541D01*
X0481887Y0359573D01*
X0481822Y0359601D01*
X0481756Y0359625D01*
X0481688Y0359646D01*
X0481619Y0359663D01*
X0481549Y0359677D01*
X0481479Y0359686D01*
X0481408Y0359692D01*
X0481337Y0359694D01*
X0481266Y0359692D01*
X0481195Y0359686D01*
X0481125Y0359677D01*
X0481055Y0359663D01*
X0480986Y0359646D01*
X0480918Y0359625D01*
X0480852Y0359601D01*
X0480787Y0359573D01*
X0480723Y0359541D01*
X0480661Y0359506D01*
X0480601Y0359468D01*
X0480544Y0359427D01*
X0480488Y0359382D01*
X0480435Y0359335D01*
X0480385Y0359285D01*
X0480338Y0359232D01*
X0480293Y0359176D01*
X0480252Y0359119D01*
X0480214Y0359059D01*
X0480179Y0358997D01*
X0480147Y0358933D01*
X0480119Y0358868D01*
X0480095Y0358802D01*
X0480074Y0358734D01*
X0480057Y0358665D01*
X0480043Y0358595D01*
X0480034Y0358525D01*
X0480028Y0358454D01*
X0480026Y0358383D01*
X0477613Y0355761D02*
X0476302Y0355761D01*
X0476240Y0355763D01*
X0476179Y0355769D01*
X0476118Y0355778D01*
X0476058Y0355792D01*
X0475998Y0355809D01*
X0475940Y0355830D01*
X0475883Y0355855D01*
X0475828Y0355883D01*
X0475775Y0355914D01*
X0475724Y0355949D01*
X0475675Y0355987D01*
X0475629Y0356027D01*
X0475585Y0356071D01*
X0475545Y0356117D01*
X0475507Y0356166D01*
X0475472Y0356217D01*
X0475441Y0356270D01*
X0475413Y0356325D01*
X0475388Y0356382D01*
X0475367Y0356440D01*
X0475350Y0356500D01*
X0475336Y0356560D01*
X0475327Y0356621D01*
X0475321Y0356682D01*
X0475319Y0356744D01*
X0485615Y0355761D02*
X0485615Y0359694D01*
X0487582Y0359694D01*
X0487582Y0359038D01*
X0489667Y0358383D02*
X0489667Y0356744D01*
X0489667Y0357727D02*
X0492290Y0357727D01*
X0492290Y0358383D01*
X0492288Y0358454D01*
X0492282Y0358525D01*
X0492273Y0358595D01*
X0492259Y0358665D01*
X0492242Y0358734D01*
X0492221Y0358802D01*
X0492197Y0358868D01*
X0492169Y0358933D01*
X0492137Y0358997D01*
X0492102Y0359059D01*
X0492064Y0359119D01*
X0492023Y0359176D01*
X0491978Y0359232D01*
X0491931Y0359285D01*
X0491881Y0359335D01*
X0491828Y0359382D01*
X0491772Y0359427D01*
X0491715Y0359468D01*
X0491655Y0359506D01*
X0491593Y0359541D01*
X0491529Y0359573D01*
X0491464Y0359601D01*
X0491398Y0359625D01*
X0491330Y0359646D01*
X0491261Y0359663D01*
X0491191Y0359677D01*
X0491121Y0359686D01*
X0491050Y0359692D01*
X0490979Y0359694D01*
X0490908Y0359692D01*
X0490837Y0359686D01*
X0490767Y0359677D01*
X0490697Y0359663D01*
X0490628Y0359646D01*
X0490560Y0359625D01*
X0490494Y0359601D01*
X0490429Y0359573D01*
X0490365Y0359541D01*
X0490303Y0359506D01*
X0490243Y0359468D01*
X0490186Y0359427D01*
X0490130Y0359382D01*
X0490077Y0359335D01*
X0490027Y0359285D01*
X0489980Y0359232D01*
X0489935Y0359176D01*
X0489894Y0359119D01*
X0489856Y0359059D01*
X0489821Y0358997D01*
X0489789Y0358933D01*
X0489761Y0358868D01*
X0489737Y0358802D01*
X0489716Y0358734D01*
X0489699Y0358665D01*
X0489685Y0358595D01*
X0489676Y0358525D01*
X0489670Y0358454D01*
X0489668Y0358383D01*
X0489668Y0356744D02*
X0489670Y0356682D01*
X0489676Y0356621D01*
X0489685Y0356560D01*
X0489699Y0356500D01*
X0489716Y0356440D01*
X0489737Y0356382D01*
X0489762Y0356325D01*
X0489790Y0356270D01*
X0489821Y0356217D01*
X0489856Y0356166D01*
X0489894Y0356117D01*
X0489934Y0356071D01*
X0489978Y0356027D01*
X0490024Y0355987D01*
X0490073Y0355949D01*
X0490124Y0355914D01*
X0490177Y0355883D01*
X0490232Y0355855D01*
X0490289Y0355830D01*
X0490347Y0355809D01*
X0490407Y0355792D01*
X0490467Y0355778D01*
X0490528Y0355769D01*
X0490589Y0355763D01*
X0490651Y0355761D01*
X0492290Y0355761D01*
X0492290Y0397131D02*
X0490651Y0397131D01*
X0490589Y0397133D01*
X0490528Y0397139D01*
X0490467Y0397148D01*
X0490407Y0397162D01*
X0490347Y0397179D01*
X0490289Y0397200D01*
X0490232Y0397225D01*
X0490177Y0397253D01*
X0490124Y0397284D01*
X0490073Y0397319D01*
X0490024Y0397357D01*
X0489978Y0397397D01*
X0489934Y0397441D01*
X0489894Y0397487D01*
X0489856Y0397536D01*
X0489821Y0397587D01*
X0489790Y0397640D01*
X0489762Y0397695D01*
X0489737Y0397752D01*
X0489716Y0397810D01*
X0489699Y0397870D01*
X0489685Y0397930D01*
X0489676Y0397991D01*
X0489670Y0398052D01*
X0489668Y0398114D01*
X0489667Y0398114D02*
X0489667Y0399753D01*
X0489667Y0399097D02*
X0492290Y0399097D01*
X0492290Y0399753D01*
X0492288Y0399824D01*
X0492282Y0399895D01*
X0492273Y0399965D01*
X0492259Y0400035D01*
X0492242Y0400104D01*
X0492221Y0400172D01*
X0492197Y0400238D01*
X0492169Y0400303D01*
X0492137Y0400367D01*
X0492102Y0400429D01*
X0492064Y0400489D01*
X0492023Y0400546D01*
X0491978Y0400602D01*
X0491931Y0400655D01*
X0491881Y0400705D01*
X0491828Y0400752D01*
X0491772Y0400797D01*
X0491715Y0400838D01*
X0491655Y0400876D01*
X0491593Y0400911D01*
X0491529Y0400943D01*
X0491464Y0400971D01*
X0491398Y0400995D01*
X0491330Y0401016D01*
X0491261Y0401033D01*
X0491191Y0401047D01*
X0491121Y0401056D01*
X0491050Y0401062D01*
X0490979Y0401064D01*
X0490908Y0401062D01*
X0490837Y0401056D01*
X0490767Y0401047D01*
X0490697Y0401033D01*
X0490628Y0401016D01*
X0490560Y0400995D01*
X0490494Y0400971D01*
X0490429Y0400943D01*
X0490365Y0400911D01*
X0490303Y0400876D01*
X0490243Y0400838D01*
X0490186Y0400797D01*
X0490130Y0400752D01*
X0490077Y0400705D01*
X0490027Y0400655D01*
X0489980Y0400602D01*
X0489935Y0400546D01*
X0489894Y0400489D01*
X0489856Y0400429D01*
X0489821Y0400367D01*
X0489789Y0400303D01*
X0489761Y0400238D01*
X0489737Y0400172D01*
X0489716Y0400104D01*
X0489699Y0400035D01*
X0489685Y0399965D01*
X0489676Y0399895D01*
X0489670Y0399824D01*
X0489668Y0399753D01*
X0487582Y0400408D02*
X0487582Y0401064D01*
X0485615Y0401064D01*
X0485615Y0397131D01*
X0482648Y0398442D02*
X0482648Y0399753D01*
X0482646Y0399824D01*
X0482640Y0399895D01*
X0482631Y0399965D01*
X0482617Y0400035D01*
X0482600Y0400104D01*
X0482579Y0400172D01*
X0482555Y0400238D01*
X0482527Y0400303D01*
X0482495Y0400367D01*
X0482460Y0400429D01*
X0482422Y0400489D01*
X0482381Y0400546D01*
X0482336Y0400602D01*
X0482289Y0400655D01*
X0482239Y0400705D01*
X0482186Y0400752D01*
X0482130Y0400797D01*
X0482073Y0400838D01*
X0482013Y0400876D01*
X0481951Y0400911D01*
X0481887Y0400943D01*
X0481822Y0400971D01*
X0481756Y0400995D01*
X0481688Y0401016D01*
X0481619Y0401033D01*
X0481549Y0401047D01*
X0481479Y0401056D01*
X0481408Y0401062D01*
X0481337Y0401064D01*
X0481266Y0401062D01*
X0481195Y0401056D01*
X0481125Y0401047D01*
X0481055Y0401033D01*
X0480986Y0401016D01*
X0480918Y0400995D01*
X0480852Y0400971D01*
X0480787Y0400943D01*
X0480723Y0400911D01*
X0480661Y0400876D01*
X0480601Y0400838D01*
X0480544Y0400797D01*
X0480488Y0400752D01*
X0480435Y0400705D01*
X0480385Y0400655D01*
X0480338Y0400602D01*
X0480293Y0400546D01*
X0480252Y0400489D01*
X0480214Y0400429D01*
X0480179Y0400367D01*
X0480147Y0400303D01*
X0480119Y0400238D01*
X0480095Y0400172D01*
X0480074Y0400104D01*
X0480057Y0400035D01*
X0480043Y0399965D01*
X0480034Y0399895D01*
X0480028Y0399824D01*
X0480026Y0399753D01*
X0480026Y0398442D01*
X0480028Y0398371D01*
X0480034Y0398300D01*
X0480043Y0398230D01*
X0480057Y0398160D01*
X0480074Y0398091D01*
X0480095Y0398023D01*
X0480119Y0397957D01*
X0480147Y0397892D01*
X0480179Y0397828D01*
X0480214Y0397766D01*
X0480252Y0397706D01*
X0480293Y0397649D01*
X0480338Y0397593D01*
X0480385Y0397540D01*
X0480435Y0397490D01*
X0480488Y0397443D01*
X0480544Y0397398D01*
X0480601Y0397357D01*
X0480661Y0397319D01*
X0480723Y0397284D01*
X0480787Y0397252D01*
X0480852Y0397224D01*
X0480918Y0397200D01*
X0480986Y0397179D01*
X0481055Y0397162D01*
X0481125Y0397148D01*
X0481195Y0397139D01*
X0481266Y0397133D01*
X0481337Y0397131D01*
X0481408Y0397133D01*
X0481479Y0397139D01*
X0481549Y0397148D01*
X0481619Y0397162D01*
X0481688Y0397179D01*
X0481756Y0397200D01*
X0481822Y0397224D01*
X0481887Y0397252D01*
X0481951Y0397284D01*
X0482013Y0397319D01*
X0482073Y0397357D01*
X0482130Y0397398D01*
X0482186Y0397443D01*
X0482239Y0397490D01*
X0482289Y0397540D01*
X0482336Y0397593D01*
X0482381Y0397649D01*
X0482422Y0397706D01*
X0482460Y0397766D01*
X0482495Y0397828D01*
X0482527Y0397892D01*
X0482555Y0397957D01*
X0482579Y0398023D01*
X0482600Y0398091D01*
X0482617Y0398160D01*
X0482631Y0398230D01*
X0482640Y0398300D01*
X0482646Y0398371D01*
X0482648Y0398442D01*
X0477613Y0397131D02*
X0476302Y0397131D01*
X0476240Y0397133D01*
X0476179Y0397139D01*
X0476118Y0397148D01*
X0476058Y0397162D01*
X0475998Y0397179D01*
X0475940Y0397200D01*
X0475883Y0397225D01*
X0475828Y0397253D01*
X0475775Y0397284D01*
X0475724Y0397319D01*
X0475675Y0397357D01*
X0475629Y0397397D01*
X0475585Y0397441D01*
X0475545Y0397487D01*
X0475507Y0397536D01*
X0475472Y0397587D01*
X0475441Y0397640D01*
X0475413Y0397695D01*
X0475388Y0397752D01*
X0475367Y0397810D01*
X0475350Y0397870D01*
X0475336Y0397930D01*
X0475327Y0397991D01*
X0475321Y0398052D01*
X0475319Y0398114D01*
X0475319Y0400081D01*
X0475321Y0400143D01*
X0475327Y0400204D01*
X0475336Y0400265D01*
X0475350Y0400325D01*
X0475367Y0400385D01*
X0475388Y0400443D01*
X0475413Y0400500D01*
X0475441Y0400555D01*
X0475472Y0400608D01*
X0475507Y0400659D01*
X0475545Y0400708D01*
X0475585Y0400754D01*
X0475629Y0400798D01*
X0475675Y0400838D01*
X0475724Y0400876D01*
X0475775Y0400911D01*
X0475828Y0400942D01*
X0475883Y0400970D01*
X0475940Y0400995D01*
X0475998Y0401016D01*
X0476058Y0401033D01*
X0476118Y0401047D01*
X0476179Y0401056D01*
X0476240Y0401062D01*
X0476302Y0401064D01*
X0477613Y0401064D01*
X0472105Y0398770D02*
X0470466Y0399425D01*
X0470414Y0399448D01*
X0470363Y0399475D01*
X0470314Y0399505D01*
X0470267Y0399538D01*
X0470222Y0399574D01*
X0470180Y0399614D01*
X0470141Y0399656D01*
X0470105Y0399700D01*
X0470072Y0399747D01*
X0470042Y0399797D01*
X0470015Y0399848D01*
X0469992Y0399900D01*
X0469973Y0399954D01*
X0469957Y0400010D01*
X0469945Y0400066D01*
X0469937Y0400123D01*
X0469933Y0400180D01*
X0469932Y0400238D01*
X0469936Y0400295D01*
X0469943Y0400352D01*
X0469955Y0400409D01*
X0469970Y0400464D01*
X0469988Y0400519D01*
X0470011Y0400572D01*
X0470037Y0400623D01*
X0470066Y0400672D01*
X0470099Y0400720D01*
X0470135Y0400765D01*
X0470173Y0400807D01*
X0470215Y0400847D01*
X0470259Y0400884D01*
X0470306Y0400918D01*
X0470354Y0400949D01*
X0470405Y0400976D01*
X0470457Y0401000D01*
X0470511Y0401020D01*
X0470566Y0401036D01*
X0470622Y0401049D01*
X0470679Y0401058D01*
X0470737Y0401063D01*
X0470794Y0401064D01*
X0469975Y0397458D02*
X0470109Y0397412D01*
X0470244Y0397369D01*
X0470380Y0397330D01*
X0470517Y0397294D01*
X0470654Y0397262D01*
X0470793Y0397233D01*
X0470932Y0397207D01*
X0471072Y0397186D01*
X0471213Y0397167D01*
X0471353Y0397153D01*
X0471495Y0397142D01*
X0471636Y0397134D01*
X0471778Y0397131D01*
X0471778Y0397130D02*
X0471835Y0397131D01*
X0471893Y0397136D01*
X0471950Y0397145D01*
X0472006Y0397158D01*
X0472061Y0397174D01*
X0472115Y0397194D01*
X0472167Y0397218D01*
X0472218Y0397245D01*
X0472266Y0397276D01*
X0472313Y0397310D01*
X0472357Y0397347D01*
X0472399Y0397387D01*
X0472437Y0397429D01*
X0472473Y0397474D01*
X0472506Y0397522D01*
X0472535Y0397571D01*
X0472561Y0397622D01*
X0472584Y0397675D01*
X0472602Y0397730D01*
X0472617Y0397785D01*
X0472629Y0397842D01*
X0472636Y0397899D01*
X0472640Y0397956D01*
X0472639Y0398014D01*
X0472635Y0398071D01*
X0472627Y0398128D01*
X0472615Y0398184D01*
X0472599Y0398240D01*
X0472580Y0398294D01*
X0472557Y0398346D01*
X0472530Y0398397D01*
X0472500Y0398447D01*
X0472467Y0398494D01*
X0472431Y0398538D01*
X0472392Y0398580D01*
X0472350Y0398620D01*
X0472305Y0398656D01*
X0472258Y0398689D01*
X0472209Y0398719D01*
X0472158Y0398746D01*
X0472106Y0398769D01*
X0472269Y0400736D02*
X0472162Y0400782D01*
X0472053Y0400825D01*
X0471943Y0400865D01*
X0471831Y0400901D01*
X0471719Y0400933D01*
X0471605Y0400962D01*
X0471491Y0400988D01*
X0471376Y0401009D01*
X0471261Y0401028D01*
X0471144Y0401042D01*
X0471028Y0401053D01*
X0470911Y0401060D01*
X0470794Y0401064D01*
X0467098Y0399425D02*
X0463165Y0399425D01*
X0460494Y0401064D02*
X0459183Y0397131D01*
X0457872Y0401064D01*
X0411290Y0457131D02*
X0409651Y0457131D01*
X0409589Y0457133D01*
X0409528Y0457139D01*
X0409467Y0457148D01*
X0409407Y0457162D01*
X0409347Y0457179D01*
X0409289Y0457200D01*
X0409232Y0457225D01*
X0409177Y0457253D01*
X0409124Y0457284D01*
X0409073Y0457319D01*
X0409024Y0457357D01*
X0408978Y0457397D01*
X0408934Y0457441D01*
X0408894Y0457487D01*
X0408856Y0457536D01*
X0408821Y0457587D01*
X0408790Y0457640D01*
X0408762Y0457695D01*
X0408737Y0457752D01*
X0408716Y0457810D01*
X0408699Y0457870D01*
X0408685Y0457930D01*
X0408676Y0457991D01*
X0408670Y0458052D01*
X0408668Y0458114D01*
X0408667Y0458114D02*
X0408667Y0459753D01*
X0408667Y0459097D02*
X0411290Y0459097D01*
X0411290Y0459753D01*
X0411288Y0459824D01*
X0411282Y0459895D01*
X0411273Y0459965D01*
X0411259Y0460035D01*
X0411242Y0460104D01*
X0411221Y0460172D01*
X0411197Y0460238D01*
X0411169Y0460303D01*
X0411137Y0460367D01*
X0411102Y0460429D01*
X0411064Y0460489D01*
X0411023Y0460546D01*
X0410978Y0460602D01*
X0410931Y0460655D01*
X0410881Y0460705D01*
X0410828Y0460752D01*
X0410772Y0460797D01*
X0410715Y0460838D01*
X0410655Y0460876D01*
X0410593Y0460911D01*
X0410529Y0460943D01*
X0410464Y0460971D01*
X0410398Y0460995D01*
X0410330Y0461016D01*
X0410261Y0461033D01*
X0410191Y0461047D01*
X0410121Y0461056D01*
X0410050Y0461062D01*
X0409979Y0461064D01*
X0409908Y0461062D01*
X0409837Y0461056D01*
X0409767Y0461047D01*
X0409697Y0461033D01*
X0409628Y0461016D01*
X0409560Y0460995D01*
X0409494Y0460971D01*
X0409429Y0460943D01*
X0409365Y0460911D01*
X0409303Y0460876D01*
X0409243Y0460838D01*
X0409186Y0460797D01*
X0409130Y0460752D01*
X0409077Y0460705D01*
X0409027Y0460655D01*
X0408980Y0460602D01*
X0408935Y0460546D01*
X0408894Y0460489D01*
X0408856Y0460429D01*
X0408821Y0460367D01*
X0408789Y0460303D01*
X0408761Y0460238D01*
X0408737Y0460172D01*
X0408716Y0460104D01*
X0408699Y0460035D01*
X0408685Y0459965D01*
X0408676Y0459895D01*
X0408670Y0459824D01*
X0408668Y0459753D01*
X0406582Y0460408D02*
X0406582Y0461064D01*
X0404615Y0461064D01*
X0404615Y0457131D01*
X0401648Y0458442D02*
X0401648Y0459753D01*
X0401646Y0459824D01*
X0401640Y0459895D01*
X0401631Y0459965D01*
X0401617Y0460035D01*
X0401600Y0460104D01*
X0401579Y0460172D01*
X0401555Y0460238D01*
X0401527Y0460303D01*
X0401495Y0460367D01*
X0401460Y0460429D01*
X0401422Y0460489D01*
X0401381Y0460546D01*
X0401336Y0460602D01*
X0401289Y0460655D01*
X0401239Y0460705D01*
X0401186Y0460752D01*
X0401130Y0460797D01*
X0401073Y0460838D01*
X0401013Y0460876D01*
X0400951Y0460911D01*
X0400887Y0460943D01*
X0400822Y0460971D01*
X0400756Y0460995D01*
X0400688Y0461016D01*
X0400619Y0461033D01*
X0400549Y0461047D01*
X0400479Y0461056D01*
X0400408Y0461062D01*
X0400337Y0461064D01*
X0400266Y0461062D01*
X0400195Y0461056D01*
X0400125Y0461047D01*
X0400055Y0461033D01*
X0399986Y0461016D01*
X0399918Y0460995D01*
X0399852Y0460971D01*
X0399787Y0460943D01*
X0399723Y0460911D01*
X0399661Y0460876D01*
X0399601Y0460838D01*
X0399544Y0460797D01*
X0399488Y0460752D01*
X0399435Y0460705D01*
X0399385Y0460655D01*
X0399338Y0460602D01*
X0399293Y0460546D01*
X0399252Y0460489D01*
X0399214Y0460429D01*
X0399179Y0460367D01*
X0399147Y0460303D01*
X0399119Y0460238D01*
X0399095Y0460172D01*
X0399074Y0460104D01*
X0399057Y0460035D01*
X0399043Y0459965D01*
X0399034Y0459895D01*
X0399028Y0459824D01*
X0399026Y0459753D01*
X0399026Y0458442D01*
X0399028Y0458371D01*
X0399034Y0458300D01*
X0399043Y0458230D01*
X0399057Y0458160D01*
X0399074Y0458091D01*
X0399095Y0458023D01*
X0399119Y0457957D01*
X0399147Y0457892D01*
X0399179Y0457828D01*
X0399214Y0457766D01*
X0399252Y0457706D01*
X0399293Y0457649D01*
X0399338Y0457593D01*
X0399385Y0457540D01*
X0399435Y0457490D01*
X0399488Y0457443D01*
X0399544Y0457398D01*
X0399601Y0457357D01*
X0399661Y0457319D01*
X0399723Y0457284D01*
X0399787Y0457252D01*
X0399852Y0457224D01*
X0399918Y0457200D01*
X0399986Y0457179D01*
X0400055Y0457162D01*
X0400125Y0457148D01*
X0400195Y0457139D01*
X0400266Y0457133D01*
X0400337Y0457131D01*
X0400408Y0457133D01*
X0400479Y0457139D01*
X0400549Y0457148D01*
X0400619Y0457162D01*
X0400688Y0457179D01*
X0400756Y0457200D01*
X0400822Y0457224D01*
X0400887Y0457252D01*
X0400951Y0457284D01*
X0401013Y0457319D01*
X0401073Y0457357D01*
X0401130Y0457398D01*
X0401186Y0457443D01*
X0401239Y0457490D01*
X0401289Y0457540D01*
X0401336Y0457593D01*
X0401381Y0457649D01*
X0401422Y0457706D01*
X0401460Y0457766D01*
X0401495Y0457828D01*
X0401527Y0457892D01*
X0401555Y0457957D01*
X0401579Y0458023D01*
X0401600Y0458091D01*
X0401617Y0458160D01*
X0401631Y0458230D01*
X0401640Y0458300D01*
X0401646Y0458371D01*
X0401648Y0458442D01*
X0396613Y0457131D02*
X0395302Y0457131D01*
X0395240Y0457133D01*
X0395179Y0457139D01*
X0395118Y0457148D01*
X0395058Y0457162D01*
X0394998Y0457179D01*
X0394940Y0457200D01*
X0394883Y0457225D01*
X0394828Y0457253D01*
X0394775Y0457284D01*
X0394724Y0457319D01*
X0394675Y0457357D01*
X0394629Y0457397D01*
X0394585Y0457441D01*
X0394545Y0457487D01*
X0394507Y0457536D01*
X0394472Y0457587D01*
X0394441Y0457640D01*
X0394413Y0457695D01*
X0394388Y0457752D01*
X0394367Y0457810D01*
X0394350Y0457870D01*
X0394336Y0457930D01*
X0394327Y0457991D01*
X0394321Y0458052D01*
X0394319Y0458114D01*
X0394319Y0460081D01*
X0394321Y0460143D01*
X0394327Y0460204D01*
X0394336Y0460265D01*
X0394350Y0460325D01*
X0394367Y0460385D01*
X0394388Y0460443D01*
X0394413Y0460500D01*
X0394441Y0460555D01*
X0394472Y0460608D01*
X0394507Y0460659D01*
X0394545Y0460708D01*
X0394585Y0460754D01*
X0394629Y0460798D01*
X0394675Y0460838D01*
X0394724Y0460876D01*
X0394775Y0460911D01*
X0394828Y0460942D01*
X0394883Y0460970D01*
X0394940Y0460995D01*
X0394998Y0461016D01*
X0395058Y0461033D01*
X0395118Y0461047D01*
X0395179Y0461056D01*
X0395240Y0461062D01*
X0395302Y0461064D01*
X0396613Y0461064D01*
X0391105Y0458770D02*
X0389466Y0459425D01*
X0389414Y0459448D01*
X0389363Y0459475D01*
X0389314Y0459505D01*
X0389267Y0459538D01*
X0389222Y0459574D01*
X0389180Y0459614D01*
X0389141Y0459656D01*
X0389105Y0459700D01*
X0389072Y0459747D01*
X0389042Y0459797D01*
X0389015Y0459848D01*
X0388992Y0459900D01*
X0388973Y0459954D01*
X0388957Y0460010D01*
X0388945Y0460066D01*
X0388937Y0460123D01*
X0388933Y0460180D01*
X0388932Y0460238D01*
X0388936Y0460295D01*
X0388943Y0460352D01*
X0388955Y0460409D01*
X0388970Y0460464D01*
X0388988Y0460519D01*
X0389011Y0460572D01*
X0389037Y0460623D01*
X0389066Y0460672D01*
X0389099Y0460720D01*
X0389135Y0460765D01*
X0389173Y0460807D01*
X0389215Y0460847D01*
X0389259Y0460884D01*
X0389306Y0460918D01*
X0389354Y0460949D01*
X0389405Y0460976D01*
X0389457Y0461000D01*
X0389511Y0461020D01*
X0389566Y0461036D01*
X0389622Y0461049D01*
X0389679Y0461058D01*
X0389737Y0461063D01*
X0389794Y0461064D01*
X0388975Y0457458D02*
X0389109Y0457412D01*
X0389244Y0457369D01*
X0389380Y0457330D01*
X0389517Y0457294D01*
X0389654Y0457262D01*
X0389793Y0457233D01*
X0389932Y0457207D01*
X0390072Y0457186D01*
X0390213Y0457167D01*
X0390353Y0457153D01*
X0390495Y0457142D01*
X0390636Y0457134D01*
X0390778Y0457131D01*
X0390778Y0457130D02*
X0390835Y0457131D01*
X0390893Y0457136D01*
X0390950Y0457145D01*
X0391006Y0457158D01*
X0391061Y0457174D01*
X0391115Y0457194D01*
X0391167Y0457218D01*
X0391218Y0457245D01*
X0391266Y0457276D01*
X0391313Y0457310D01*
X0391357Y0457347D01*
X0391399Y0457387D01*
X0391437Y0457429D01*
X0391473Y0457474D01*
X0391506Y0457522D01*
X0391535Y0457571D01*
X0391561Y0457622D01*
X0391584Y0457675D01*
X0391602Y0457730D01*
X0391617Y0457785D01*
X0391629Y0457842D01*
X0391636Y0457899D01*
X0391640Y0457956D01*
X0391639Y0458014D01*
X0391635Y0458071D01*
X0391627Y0458128D01*
X0391615Y0458184D01*
X0391599Y0458240D01*
X0391580Y0458294D01*
X0391557Y0458346D01*
X0391530Y0458397D01*
X0391500Y0458447D01*
X0391467Y0458494D01*
X0391431Y0458538D01*
X0391392Y0458580D01*
X0391350Y0458620D01*
X0391305Y0458656D01*
X0391258Y0458689D01*
X0391209Y0458719D01*
X0391158Y0458746D01*
X0391106Y0458769D01*
X0391269Y0460736D02*
X0391162Y0460782D01*
X0391053Y0460825D01*
X0390943Y0460865D01*
X0390831Y0460901D01*
X0390719Y0460933D01*
X0390605Y0460962D01*
X0390491Y0460988D01*
X0390376Y0461009D01*
X0390261Y0461028D01*
X0390144Y0461042D01*
X0390028Y0461053D01*
X0389911Y0461060D01*
X0389794Y0461064D01*
X0386098Y0459425D02*
X0382165Y0459425D01*
X0379494Y0461064D02*
X0378183Y0457131D01*
X0376872Y0461064D01*
X0350235Y0459753D02*
X0350235Y0459097D01*
X0347612Y0459097D01*
X0347612Y0459753D02*
X0347612Y0458114D01*
X0347613Y0458114D02*
X0347615Y0458052D01*
X0347621Y0457991D01*
X0347630Y0457930D01*
X0347644Y0457870D01*
X0347661Y0457810D01*
X0347682Y0457752D01*
X0347707Y0457695D01*
X0347735Y0457640D01*
X0347766Y0457587D01*
X0347801Y0457536D01*
X0347839Y0457487D01*
X0347879Y0457441D01*
X0347923Y0457397D01*
X0347969Y0457357D01*
X0348018Y0457319D01*
X0348069Y0457284D01*
X0348122Y0457253D01*
X0348177Y0457225D01*
X0348234Y0457200D01*
X0348292Y0457179D01*
X0348352Y0457162D01*
X0348412Y0457148D01*
X0348473Y0457139D01*
X0348534Y0457133D01*
X0348596Y0457131D01*
X0350235Y0457131D01*
X0350235Y0459753D02*
X0350233Y0459824D01*
X0350227Y0459895D01*
X0350218Y0459965D01*
X0350204Y0460035D01*
X0350187Y0460104D01*
X0350166Y0460172D01*
X0350142Y0460238D01*
X0350114Y0460303D01*
X0350082Y0460367D01*
X0350047Y0460429D01*
X0350009Y0460489D01*
X0349968Y0460546D01*
X0349923Y0460602D01*
X0349876Y0460655D01*
X0349826Y0460705D01*
X0349773Y0460752D01*
X0349717Y0460797D01*
X0349660Y0460838D01*
X0349600Y0460876D01*
X0349538Y0460911D01*
X0349474Y0460943D01*
X0349409Y0460971D01*
X0349343Y0460995D01*
X0349275Y0461016D01*
X0349206Y0461033D01*
X0349136Y0461047D01*
X0349066Y0461056D01*
X0348995Y0461062D01*
X0348924Y0461064D01*
X0348853Y0461062D01*
X0348782Y0461056D01*
X0348712Y0461047D01*
X0348642Y0461033D01*
X0348573Y0461016D01*
X0348505Y0460995D01*
X0348439Y0460971D01*
X0348374Y0460943D01*
X0348310Y0460911D01*
X0348248Y0460876D01*
X0348188Y0460838D01*
X0348131Y0460797D01*
X0348075Y0460752D01*
X0348022Y0460705D01*
X0347972Y0460655D01*
X0347925Y0460602D01*
X0347880Y0460546D01*
X0347839Y0460489D01*
X0347801Y0460429D01*
X0347766Y0460367D01*
X0347734Y0460303D01*
X0347706Y0460238D01*
X0347682Y0460172D01*
X0347661Y0460104D01*
X0347644Y0460035D01*
X0347630Y0459965D01*
X0347621Y0459895D01*
X0347615Y0459824D01*
X0347613Y0459753D01*
X0345527Y0460408D02*
X0345527Y0461064D01*
X0343560Y0461064D01*
X0343560Y0457131D01*
X0340593Y0458442D02*
X0340593Y0459753D01*
X0340591Y0459824D01*
X0340585Y0459895D01*
X0340576Y0459965D01*
X0340562Y0460035D01*
X0340545Y0460104D01*
X0340524Y0460172D01*
X0340500Y0460238D01*
X0340472Y0460303D01*
X0340440Y0460367D01*
X0340405Y0460429D01*
X0340367Y0460489D01*
X0340326Y0460546D01*
X0340281Y0460602D01*
X0340234Y0460655D01*
X0340184Y0460705D01*
X0340131Y0460752D01*
X0340075Y0460797D01*
X0340018Y0460838D01*
X0339958Y0460876D01*
X0339896Y0460911D01*
X0339832Y0460943D01*
X0339767Y0460971D01*
X0339701Y0460995D01*
X0339633Y0461016D01*
X0339564Y0461033D01*
X0339494Y0461047D01*
X0339424Y0461056D01*
X0339353Y0461062D01*
X0339282Y0461064D01*
X0339211Y0461062D01*
X0339140Y0461056D01*
X0339070Y0461047D01*
X0339000Y0461033D01*
X0338931Y0461016D01*
X0338863Y0460995D01*
X0338797Y0460971D01*
X0338732Y0460943D01*
X0338668Y0460911D01*
X0338606Y0460876D01*
X0338546Y0460838D01*
X0338489Y0460797D01*
X0338433Y0460752D01*
X0338380Y0460705D01*
X0338330Y0460655D01*
X0338283Y0460602D01*
X0338238Y0460546D01*
X0338197Y0460489D01*
X0338159Y0460429D01*
X0338124Y0460367D01*
X0338092Y0460303D01*
X0338064Y0460238D01*
X0338040Y0460172D01*
X0338019Y0460104D01*
X0338002Y0460035D01*
X0337988Y0459965D01*
X0337979Y0459895D01*
X0337973Y0459824D01*
X0337971Y0459753D01*
X0337971Y0458442D01*
X0337973Y0458371D01*
X0337979Y0458300D01*
X0337988Y0458230D01*
X0338002Y0458160D01*
X0338019Y0458091D01*
X0338040Y0458023D01*
X0338064Y0457957D01*
X0338092Y0457892D01*
X0338124Y0457828D01*
X0338159Y0457766D01*
X0338197Y0457706D01*
X0338238Y0457649D01*
X0338283Y0457593D01*
X0338330Y0457540D01*
X0338380Y0457490D01*
X0338433Y0457443D01*
X0338489Y0457398D01*
X0338546Y0457357D01*
X0338606Y0457319D01*
X0338668Y0457284D01*
X0338732Y0457252D01*
X0338797Y0457224D01*
X0338863Y0457200D01*
X0338931Y0457179D01*
X0339000Y0457162D01*
X0339070Y0457148D01*
X0339140Y0457139D01*
X0339211Y0457133D01*
X0339282Y0457131D01*
X0339353Y0457133D01*
X0339424Y0457139D01*
X0339494Y0457148D01*
X0339564Y0457162D01*
X0339633Y0457179D01*
X0339701Y0457200D01*
X0339767Y0457224D01*
X0339832Y0457252D01*
X0339896Y0457284D01*
X0339958Y0457319D01*
X0340018Y0457357D01*
X0340075Y0457398D01*
X0340131Y0457443D01*
X0340184Y0457490D01*
X0340234Y0457540D01*
X0340281Y0457593D01*
X0340326Y0457649D01*
X0340367Y0457706D01*
X0340405Y0457766D01*
X0340440Y0457828D01*
X0340472Y0457892D01*
X0340500Y0457957D01*
X0340524Y0458023D01*
X0340545Y0458091D01*
X0340562Y0458160D01*
X0340576Y0458230D01*
X0340585Y0458300D01*
X0340591Y0458371D01*
X0340593Y0458442D01*
X0335558Y0457131D02*
X0334247Y0457131D01*
X0334185Y0457133D01*
X0334124Y0457139D01*
X0334063Y0457148D01*
X0334003Y0457162D01*
X0333943Y0457179D01*
X0333885Y0457200D01*
X0333828Y0457225D01*
X0333773Y0457253D01*
X0333720Y0457284D01*
X0333669Y0457319D01*
X0333620Y0457357D01*
X0333574Y0457397D01*
X0333530Y0457441D01*
X0333490Y0457487D01*
X0333452Y0457536D01*
X0333417Y0457587D01*
X0333386Y0457640D01*
X0333358Y0457695D01*
X0333333Y0457752D01*
X0333312Y0457810D01*
X0333295Y0457870D01*
X0333281Y0457930D01*
X0333272Y0457991D01*
X0333266Y0458052D01*
X0333264Y0458114D01*
X0333263Y0458114D02*
X0333263Y0460081D01*
X0333264Y0460081D02*
X0333266Y0460143D01*
X0333272Y0460204D01*
X0333281Y0460265D01*
X0333295Y0460325D01*
X0333312Y0460385D01*
X0333333Y0460443D01*
X0333358Y0460500D01*
X0333386Y0460555D01*
X0333417Y0460608D01*
X0333452Y0460659D01*
X0333490Y0460708D01*
X0333530Y0460754D01*
X0333574Y0460798D01*
X0333620Y0460838D01*
X0333669Y0460876D01*
X0333720Y0460911D01*
X0333773Y0460942D01*
X0333828Y0460970D01*
X0333885Y0460995D01*
X0333943Y0461016D01*
X0334003Y0461033D01*
X0334063Y0461047D01*
X0334124Y0461056D01*
X0334185Y0461062D01*
X0334247Y0461064D01*
X0335558Y0461064D01*
X0330050Y0458770D02*
X0328411Y0459425D01*
X0328359Y0459448D01*
X0328308Y0459475D01*
X0328259Y0459505D01*
X0328212Y0459538D01*
X0328167Y0459574D01*
X0328125Y0459614D01*
X0328086Y0459656D01*
X0328050Y0459700D01*
X0328017Y0459747D01*
X0327987Y0459797D01*
X0327960Y0459848D01*
X0327937Y0459900D01*
X0327918Y0459954D01*
X0327902Y0460010D01*
X0327890Y0460066D01*
X0327882Y0460123D01*
X0327878Y0460180D01*
X0327877Y0460238D01*
X0327881Y0460295D01*
X0327888Y0460352D01*
X0327900Y0460409D01*
X0327915Y0460464D01*
X0327933Y0460519D01*
X0327956Y0460572D01*
X0327982Y0460623D01*
X0328011Y0460672D01*
X0328044Y0460720D01*
X0328080Y0460765D01*
X0328118Y0460807D01*
X0328160Y0460847D01*
X0328204Y0460884D01*
X0328251Y0460918D01*
X0328299Y0460949D01*
X0328350Y0460976D01*
X0328402Y0461000D01*
X0328456Y0461020D01*
X0328511Y0461036D01*
X0328567Y0461049D01*
X0328624Y0461058D01*
X0328682Y0461063D01*
X0328739Y0461064D01*
X0327920Y0457458D02*
X0328054Y0457412D01*
X0328189Y0457369D01*
X0328325Y0457330D01*
X0328462Y0457294D01*
X0328599Y0457262D01*
X0328738Y0457233D01*
X0328877Y0457207D01*
X0329017Y0457186D01*
X0329158Y0457167D01*
X0329298Y0457153D01*
X0329440Y0457142D01*
X0329581Y0457134D01*
X0329723Y0457131D01*
X0329722Y0457130D02*
X0329779Y0457131D01*
X0329837Y0457136D01*
X0329894Y0457145D01*
X0329950Y0457158D01*
X0330005Y0457174D01*
X0330059Y0457194D01*
X0330111Y0457218D01*
X0330162Y0457245D01*
X0330210Y0457276D01*
X0330257Y0457310D01*
X0330301Y0457347D01*
X0330343Y0457387D01*
X0330381Y0457429D01*
X0330417Y0457474D01*
X0330450Y0457522D01*
X0330479Y0457571D01*
X0330505Y0457622D01*
X0330528Y0457675D01*
X0330546Y0457730D01*
X0330561Y0457785D01*
X0330573Y0457842D01*
X0330580Y0457899D01*
X0330584Y0457956D01*
X0330583Y0458014D01*
X0330579Y0458071D01*
X0330571Y0458128D01*
X0330559Y0458184D01*
X0330543Y0458240D01*
X0330524Y0458294D01*
X0330501Y0458346D01*
X0330474Y0458397D01*
X0330444Y0458447D01*
X0330411Y0458494D01*
X0330375Y0458538D01*
X0330336Y0458580D01*
X0330294Y0458620D01*
X0330249Y0458656D01*
X0330202Y0458689D01*
X0330153Y0458719D01*
X0330102Y0458746D01*
X0330050Y0458769D01*
X0330214Y0460736D02*
X0330107Y0460782D01*
X0329998Y0460825D01*
X0329888Y0460865D01*
X0329776Y0460901D01*
X0329664Y0460933D01*
X0329550Y0460962D01*
X0329436Y0460988D01*
X0329321Y0461009D01*
X0329206Y0461028D01*
X0329089Y0461042D01*
X0328973Y0461053D01*
X0328856Y0461060D01*
X0328739Y0461064D01*
X0325043Y0459425D02*
X0321110Y0459425D01*
X0318439Y0461064D02*
X0317128Y0457131D01*
X0315817Y0461064D01*
X0289180Y0459753D02*
X0289180Y0459097D01*
X0286557Y0459097D01*
X0286557Y0459753D02*
X0286557Y0458114D01*
X0286558Y0458114D02*
X0286560Y0458052D01*
X0286566Y0457991D01*
X0286575Y0457930D01*
X0286589Y0457870D01*
X0286606Y0457810D01*
X0286627Y0457752D01*
X0286652Y0457695D01*
X0286680Y0457640D01*
X0286711Y0457587D01*
X0286746Y0457536D01*
X0286784Y0457487D01*
X0286824Y0457441D01*
X0286868Y0457397D01*
X0286914Y0457357D01*
X0286963Y0457319D01*
X0287014Y0457284D01*
X0287067Y0457253D01*
X0287122Y0457225D01*
X0287179Y0457200D01*
X0287237Y0457179D01*
X0287297Y0457162D01*
X0287357Y0457148D01*
X0287418Y0457139D01*
X0287479Y0457133D01*
X0287541Y0457131D01*
X0289180Y0457131D01*
X0289179Y0459753D02*
X0289177Y0459824D01*
X0289171Y0459895D01*
X0289162Y0459965D01*
X0289148Y0460035D01*
X0289131Y0460104D01*
X0289110Y0460172D01*
X0289086Y0460238D01*
X0289058Y0460303D01*
X0289026Y0460367D01*
X0288991Y0460429D01*
X0288953Y0460489D01*
X0288912Y0460546D01*
X0288867Y0460602D01*
X0288820Y0460655D01*
X0288770Y0460705D01*
X0288717Y0460752D01*
X0288661Y0460797D01*
X0288604Y0460838D01*
X0288544Y0460876D01*
X0288482Y0460911D01*
X0288418Y0460943D01*
X0288353Y0460971D01*
X0288287Y0460995D01*
X0288219Y0461016D01*
X0288150Y0461033D01*
X0288080Y0461047D01*
X0288010Y0461056D01*
X0287939Y0461062D01*
X0287868Y0461064D01*
X0287797Y0461062D01*
X0287726Y0461056D01*
X0287656Y0461047D01*
X0287586Y0461033D01*
X0287517Y0461016D01*
X0287449Y0460995D01*
X0287383Y0460971D01*
X0287318Y0460943D01*
X0287254Y0460911D01*
X0287192Y0460876D01*
X0287132Y0460838D01*
X0287075Y0460797D01*
X0287019Y0460752D01*
X0286966Y0460705D01*
X0286916Y0460655D01*
X0286869Y0460602D01*
X0286824Y0460546D01*
X0286783Y0460489D01*
X0286745Y0460429D01*
X0286710Y0460367D01*
X0286678Y0460303D01*
X0286650Y0460238D01*
X0286626Y0460172D01*
X0286605Y0460104D01*
X0286588Y0460035D01*
X0286574Y0459965D01*
X0286565Y0459895D01*
X0286559Y0459824D01*
X0286557Y0459753D01*
X0284472Y0460408D02*
X0284472Y0461064D01*
X0282505Y0461064D01*
X0282505Y0457131D01*
X0279538Y0458442D02*
X0279538Y0459753D01*
X0279536Y0459824D01*
X0279530Y0459895D01*
X0279521Y0459965D01*
X0279507Y0460035D01*
X0279490Y0460104D01*
X0279469Y0460172D01*
X0279445Y0460238D01*
X0279417Y0460303D01*
X0279385Y0460367D01*
X0279350Y0460429D01*
X0279312Y0460489D01*
X0279271Y0460546D01*
X0279226Y0460602D01*
X0279179Y0460655D01*
X0279129Y0460705D01*
X0279076Y0460752D01*
X0279020Y0460797D01*
X0278963Y0460838D01*
X0278903Y0460876D01*
X0278841Y0460911D01*
X0278777Y0460943D01*
X0278712Y0460971D01*
X0278646Y0460995D01*
X0278578Y0461016D01*
X0278509Y0461033D01*
X0278439Y0461047D01*
X0278369Y0461056D01*
X0278298Y0461062D01*
X0278227Y0461064D01*
X0278156Y0461062D01*
X0278085Y0461056D01*
X0278015Y0461047D01*
X0277945Y0461033D01*
X0277876Y0461016D01*
X0277808Y0460995D01*
X0277742Y0460971D01*
X0277677Y0460943D01*
X0277613Y0460911D01*
X0277551Y0460876D01*
X0277491Y0460838D01*
X0277434Y0460797D01*
X0277378Y0460752D01*
X0277325Y0460705D01*
X0277275Y0460655D01*
X0277228Y0460602D01*
X0277183Y0460546D01*
X0277142Y0460489D01*
X0277104Y0460429D01*
X0277069Y0460367D01*
X0277037Y0460303D01*
X0277009Y0460238D01*
X0276985Y0460172D01*
X0276964Y0460104D01*
X0276947Y0460035D01*
X0276933Y0459965D01*
X0276924Y0459895D01*
X0276918Y0459824D01*
X0276916Y0459753D01*
X0276916Y0458442D01*
X0276918Y0458371D01*
X0276924Y0458300D01*
X0276933Y0458230D01*
X0276947Y0458160D01*
X0276964Y0458091D01*
X0276985Y0458023D01*
X0277009Y0457957D01*
X0277037Y0457892D01*
X0277069Y0457828D01*
X0277104Y0457766D01*
X0277142Y0457706D01*
X0277183Y0457649D01*
X0277228Y0457593D01*
X0277275Y0457540D01*
X0277325Y0457490D01*
X0277378Y0457443D01*
X0277434Y0457398D01*
X0277491Y0457357D01*
X0277551Y0457319D01*
X0277613Y0457284D01*
X0277677Y0457252D01*
X0277742Y0457224D01*
X0277808Y0457200D01*
X0277876Y0457179D01*
X0277945Y0457162D01*
X0278015Y0457148D01*
X0278085Y0457139D01*
X0278156Y0457133D01*
X0278227Y0457131D01*
X0278298Y0457133D01*
X0278369Y0457139D01*
X0278439Y0457148D01*
X0278509Y0457162D01*
X0278578Y0457179D01*
X0278646Y0457200D01*
X0278712Y0457224D01*
X0278777Y0457252D01*
X0278841Y0457284D01*
X0278903Y0457319D01*
X0278963Y0457357D01*
X0279020Y0457398D01*
X0279076Y0457443D01*
X0279129Y0457490D01*
X0279179Y0457540D01*
X0279226Y0457593D01*
X0279271Y0457649D01*
X0279312Y0457706D01*
X0279350Y0457766D01*
X0279385Y0457828D01*
X0279417Y0457892D01*
X0279445Y0457957D01*
X0279469Y0458023D01*
X0279490Y0458091D01*
X0279507Y0458160D01*
X0279521Y0458230D01*
X0279530Y0458300D01*
X0279536Y0458371D01*
X0279538Y0458442D01*
X0274503Y0457131D02*
X0273192Y0457131D01*
X0273130Y0457133D01*
X0273069Y0457139D01*
X0273008Y0457148D01*
X0272948Y0457162D01*
X0272888Y0457179D01*
X0272830Y0457200D01*
X0272773Y0457225D01*
X0272718Y0457253D01*
X0272665Y0457284D01*
X0272614Y0457319D01*
X0272565Y0457357D01*
X0272519Y0457397D01*
X0272475Y0457441D01*
X0272435Y0457487D01*
X0272397Y0457536D01*
X0272362Y0457587D01*
X0272331Y0457640D01*
X0272303Y0457695D01*
X0272278Y0457752D01*
X0272257Y0457810D01*
X0272240Y0457870D01*
X0272226Y0457930D01*
X0272217Y0457991D01*
X0272211Y0458052D01*
X0272209Y0458114D01*
X0272208Y0458114D02*
X0272208Y0460081D01*
X0272209Y0460081D02*
X0272211Y0460143D01*
X0272217Y0460204D01*
X0272226Y0460265D01*
X0272240Y0460325D01*
X0272257Y0460385D01*
X0272278Y0460443D01*
X0272303Y0460500D01*
X0272331Y0460555D01*
X0272362Y0460608D01*
X0272397Y0460659D01*
X0272435Y0460708D01*
X0272475Y0460754D01*
X0272519Y0460798D01*
X0272565Y0460838D01*
X0272614Y0460876D01*
X0272665Y0460911D01*
X0272718Y0460942D01*
X0272773Y0460970D01*
X0272830Y0460995D01*
X0272888Y0461016D01*
X0272948Y0461033D01*
X0273008Y0461047D01*
X0273069Y0461056D01*
X0273130Y0461062D01*
X0273192Y0461064D01*
X0274503Y0461064D01*
X0268995Y0458770D02*
X0267356Y0459425D01*
X0267304Y0459448D01*
X0267253Y0459475D01*
X0267204Y0459505D01*
X0267157Y0459538D01*
X0267112Y0459574D01*
X0267070Y0459614D01*
X0267031Y0459656D01*
X0266995Y0459700D01*
X0266962Y0459747D01*
X0266932Y0459797D01*
X0266905Y0459848D01*
X0266882Y0459900D01*
X0266863Y0459954D01*
X0266847Y0460010D01*
X0266835Y0460066D01*
X0266827Y0460123D01*
X0266823Y0460180D01*
X0266822Y0460238D01*
X0266826Y0460295D01*
X0266833Y0460352D01*
X0266845Y0460409D01*
X0266860Y0460464D01*
X0266878Y0460519D01*
X0266901Y0460572D01*
X0266927Y0460623D01*
X0266956Y0460672D01*
X0266989Y0460720D01*
X0267025Y0460765D01*
X0267063Y0460807D01*
X0267105Y0460847D01*
X0267149Y0460884D01*
X0267196Y0460918D01*
X0267244Y0460949D01*
X0267295Y0460976D01*
X0267347Y0461000D01*
X0267401Y0461020D01*
X0267456Y0461036D01*
X0267512Y0461049D01*
X0267569Y0461058D01*
X0267627Y0461063D01*
X0267684Y0461064D01*
X0266865Y0457458D02*
X0266999Y0457412D01*
X0267134Y0457369D01*
X0267270Y0457330D01*
X0267407Y0457294D01*
X0267544Y0457262D01*
X0267683Y0457233D01*
X0267822Y0457207D01*
X0267962Y0457186D01*
X0268103Y0457167D01*
X0268243Y0457153D01*
X0268385Y0457142D01*
X0268526Y0457134D01*
X0268668Y0457131D01*
X0268667Y0457130D02*
X0268724Y0457131D01*
X0268782Y0457136D01*
X0268839Y0457145D01*
X0268895Y0457158D01*
X0268950Y0457174D01*
X0269004Y0457194D01*
X0269056Y0457218D01*
X0269107Y0457245D01*
X0269155Y0457276D01*
X0269202Y0457310D01*
X0269246Y0457347D01*
X0269288Y0457387D01*
X0269326Y0457429D01*
X0269362Y0457474D01*
X0269395Y0457522D01*
X0269424Y0457571D01*
X0269450Y0457622D01*
X0269473Y0457675D01*
X0269491Y0457730D01*
X0269506Y0457785D01*
X0269518Y0457842D01*
X0269525Y0457899D01*
X0269529Y0457956D01*
X0269528Y0458014D01*
X0269524Y0458071D01*
X0269516Y0458128D01*
X0269504Y0458184D01*
X0269488Y0458240D01*
X0269469Y0458294D01*
X0269446Y0458346D01*
X0269419Y0458397D01*
X0269389Y0458447D01*
X0269356Y0458494D01*
X0269320Y0458538D01*
X0269281Y0458580D01*
X0269239Y0458620D01*
X0269194Y0458656D01*
X0269147Y0458689D01*
X0269098Y0458719D01*
X0269047Y0458746D01*
X0268995Y0458769D01*
X0269159Y0460736D02*
X0269052Y0460782D01*
X0268943Y0460825D01*
X0268833Y0460865D01*
X0268721Y0460901D01*
X0268609Y0460933D01*
X0268495Y0460962D01*
X0268381Y0460988D01*
X0268266Y0461009D01*
X0268151Y0461028D01*
X0268034Y0461042D01*
X0267918Y0461053D01*
X0267801Y0461060D01*
X0267684Y0461064D01*
X0263988Y0459425D02*
X0260055Y0459425D01*
X0257384Y0461064D02*
X0256073Y0457131D01*
X0254761Y0461064D01*
X0228124Y0459753D02*
X0228124Y0459097D01*
X0225502Y0459097D01*
X0225502Y0459753D02*
X0225502Y0458114D01*
X0225503Y0458114D02*
X0225505Y0458052D01*
X0225511Y0457991D01*
X0225520Y0457930D01*
X0225534Y0457870D01*
X0225551Y0457810D01*
X0225572Y0457752D01*
X0225597Y0457695D01*
X0225625Y0457640D01*
X0225656Y0457587D01*
X0225691Y0457536D01*
X0225729Y0457487D01*
X0225769Y0457441D01*
X0225813Y0457397D01*
X0225859Y0457357D01*
X0225908Y0457319D01*
X0225959Y0457284D01*
X0226012Y0457253D01*
X0226067Y0457225D01*
X0226124Y0457200D01*
X0226182Y0457179D01*
X0226242Y0457162D01*
X0226302Y0457148D01*
X0226363Y0457139D01*
X0226424Y0457133D01*
X0226486Y0457131D01*
X0228124Y0457131D01*
X0228124Y0459753D02*
X0228122Y0459824D01*
X0228116Y0459895D01*
X0228107Y0459965D01*
X0228093Y0460035D01*
X0228076Y0460104D01*
X0228055Y0460172D01*
X0228031Y0460238D01*
X0228003Y0460303D01*
X0227971Y0460367D01*
X0227936Y0460429D01*
X0227898Y0460489D01*
X0227857Y0460546D01*
X0227812Y0460602D01*
X0227765Y0460655D01*
X0227715Y0460705D01*
X0227662Y0460752D01*
X0227606Y0460797D01*
X0227549Y0460838D01*
X0227489Y0460876D01*
X0227427Y0460911D01*
X0227363Y0460943D01*
X0227298Y0460971D01*
X0227232Y0460995D01*
X0227164Y0461016D01*
X0227095Y0461033D01*
X0227025Y0461047D01*
X0226955Y0461056D01*
X0226884Y0461062D01*
X0226813Y0461064D01*
X0226742Y0461062D01*
X0226671Y0461056D01*
X0226601Y0461047D01*
X0226531Y0461033D01*
X0226462Y0461016D01*
X0226394Y0460995D01*
X0226328Y0460971D01*
X0226263Y0460943D01*
X0226199Y0460911D01*
X0226137Y0460876D01*
X0226077Y0460838D01*
X0226020Y0460797D01*
X0225964Y0460752D01*
X0225911Y0460705D01*
X0225861Y0460655D01*
X0225814Y0460602D01*
X0225769Y0460546D01*
X0225728Y0460489D01*
X0225690Y0460429D01*
X0225655Y0460367D01*
X0225623Y0460303D01*
X0225595Y0460238D01*
X0225571Y0460172D01*
X0225550Y0460104D01*
X0225533Y0460035D01*
X0225519Y0459965D01*
X0225510Y0459895D01*
X0225504Y0459824D01*
X0225502Y0459753D01*
X0223417Y0460408D02*
X0223417Y0461064D01*
X0221450Y0461064D01*
X0221450Y0457131D01*
X0218483Y0458442D02*
X0218483Y0459753D01*
X0218481Y0459824D01*
X0218475Y0459895D01*
X0218466Y0459965D01*
X0218452Y0460035D01*
X0218435Y0460104D01*
X0218414Y0460172D01*
X0218390Y0460238D01*
X0218362Y0460303D01*
X0218330Y0460367D01*
X0218295Y0460429D01*
X0218257Y0460489D01*
X0218216Y0460546D01*
X0218171Y0460602D01*
X0218124Y0460655D01*
X0218074Y0460705D01*
X0218021Y0460752D01*
X0217965Y0460797D01*
X0217908Y0460838D01*
X0217848Y0460876D01*
X0217786Y0460911D01*
X0217722Y0460943D01*
X0217657Y0460971D01*
X0217591Y0460995D01*
X0217523Y0461016D01*
X0217454Y0461033D01*
X0217384Y0461047D01*
X0217314Y0461056D01*
X0217243Y0461062D01*
X0217172Y0461064D01*
X0217101Y0461062D01*
X0217030Y0461056D01*
X0216960Y0461047D01*
X0216890Y0461033D01*
X0216821Y0461016D01*
X0216753Y0460995D01*
X0216687Y0460971D01*
X0216622Y0460943D01*
X0216558Y0460911D01*
X0216496Y0460876D01*
X0216436Y0460838D01*
X0216379Y0460797D01*
X0216323Y0460752D01*
X0216270Y0460705D01*
X0216220Y0460655D01*
X0216173Y0460602D01*
X0216128Y0460546D01*
X0216087Y0460489D01*
X0216049Y0460429D01*
X0216014Y0460367D01*
X0215982Y0460303D01*
X0215954Y0460238D01*
X0215930Y0460172D01*
X0215909Y0460104D01*
X0215892Y0460035D01*
X0215878Y0459965D01*
X0215869Y0459895D01*
X0215863Y0459824D01*
X0215861Y0459753D01*
X0215861Y0458442D01*
X0215863Y0458371D01*
X0215869Y0458300D01*
X0215878Y0458230D01*
X0215892Y0458160D01*
X0215909Y0458091D01*
X0215930Y0458023D01*
X0215954Y0457957D01*
X0215982Y0457892D01*
X0216014Y0457828D01*
X0216049Y0457766D01*
X0216087Y0457706D01*
X0216128Y0457649D01*
X0216173Y0457593D01*
X0216220Y0457540D01*
X0216270Y0457490D01*
X0216323Y0457443D01*
X0216379Y0457398D01*
X0216436Y0457357D01*
X0216496Y0457319D01*
X0216558Y0457284D01*
X0216622Y0457252D01*
X0216687Y0457224D01*
X0216753Y0457200D01*
X0216821Y0457179D01*
X0216890Y0457162D01*
X0216960Y0457148D01*
X0217030Y0457139D01*
X0217101Y0457133D01*
X0217172Y0457131D01*
X0217243Y0457133D01*
X0217314Y0457139D01*
X0217384Y0457148D01*
X0217454Y0457162D01*
X0217523Y0457179D01*
X0217591Y0457200D01*
X0217657Y0457224D01*
X0217722Y0457252D01*
X0217786Y0457284D01*
X0217848Y0457319D01*
X0217908Y0457357D01*
X0217965Y0457398D01*
X0218021Y0457443D01*
X0218074Y0457490D01*
X0218124Y0457540D01*
X0218171Y0457593D01*
X0218216Y0457649D01*
X0218257Y0457706D01*
X0218295Y0457766D01*
X0218330Y0457828D01*
X0218362Y0457892D01*
X0218390Y0457957D01*
X0218414Y0458023D01*
X0218435Y0458091D01*
X0218452Y0458160D01*
X0218466Y0458230D01*
X0218475Y0458300D01*
X0218481Y0458371D01*
X0218483Y0458442D01*
X0213448Y0457131D02*
X0212137Y0457131D01*
X0212075Y0457133D01*
X0212014Y0457139D01*
X0211953Y0457148D01*
X0211893Y0457162D01*
X0211833Y0457179D01*
X0211775Y0457200D01*
X0211718Y0457225D01*
X0211663Y0457253D01*
X0211610Y0457284D01*
X0211559Y0457319D01*
X0211510Y0457357D01*
X0211464Y0457397D01*
X0211420Y0457441D01*
X0211380Y0457487D01*
X0211342Y0457536D01*
X0211307Y0457587D01*
X0211276Y0457640D01*
X0211248Y0457695D01*
X0211223Y0457752D01*
X0211202Y0457810D01*
X0211185Y0457870D01*
X0211171Y0457930D01*
X0211162Y0457991D01*
X0211156Y0458052D01*
X0211154Y0458114D01*
X0211153Y0458114D02*
X0211153Y0460081D01*
X0211154Y0460081D02*
X0211156Y0460143D01*
X0211162Y0460204D01*
X0211171Y0460265D01*
X0211185Y0460325D01*
X0211202Y0460385D01*
X0211223Y0460443D01*
X0211248Y0460500D01*
X0211276Y0460555D01*
X0211307Y0460608D01*
X0211342Y0460659D01*
X0211380Y0460708D01*
X0211420Y0460754D01*
X0211464Y0460798D01*
X0211510Y0460838D01*
X0211559Y0460876D01*
X0211610Y0460911D01*
X0211663Y0460942D01*
X0211718Y0460970D01*
X0211775Y0460995D01*
X0211833Y0461016D01*
X0211893Y0461033D01*
X0211953Y0461047D01*
X0212014Y0461056D01*
X0212075Y0461062D01*
X0212137Y0461064D01*
X0213448Y0461064D01*
X0207940Y0458770D02*
X0206301Y0459425D01*
X0206249Y0459448D01*
X0206198Y0459475D01*
X0206149Y0459505D01*
X0206102Y0459538D01*
X0206057Y0459574D01*
X0206015Y0459614D01*
X0205976Y0459656D01*
X0205940Y0459700D01*
X0205907Y0459747D01*
X0205877Y0459797D01*
X0205850Y0459848D01*
X0205827Y0459900D01*
X0205808Y0459954D01*
X0205792Y0460010D01*
X0205780Y0460066D01*
X0205772Y0460123D01*
X0205768Y0460180D01*
X0205767Y0460238D01*
X0205771Y0460295D01*
X0205778Y0460352D01*
X0205790Y0460409D01*
X0205805Y0460464D01*
X0205823Y0460519D01*
X0205846Y0460572D01*
X0205872Y0460623D01*
X0205901Y0460672D01*
X0205934Y0460720D01*
X0205970Y0460765D01*
X0206008Y0460807D01*
X0206050Y0460847D01*
X0206094Y0460884D01*
X0206141Y0460918D01*
X0206189Y0460949D01*
X0206240Y0460976D01*
X0206292Y0461000D01*
X0206346Y0461020D01*
X0206401Y0461036D01*
X0206457Y0461049D01*
X0206514Y0461058D01*
X0206572Y0461063D01*
X0206629Y0461064D01*
X0205809Y0457458D02*
X0205943Y0457412D01*
X0206078Y0457369D01*
X0206214Y0457330D01*
X0206351Y0457294D01*
X0206488Y0457262D01*
X0206627Y0457233D01*
X0206766Y0457207D01*
X0206906Y0457186D01*
X0207047Y0457167D01*
X0207187Y0457153D01*
X0207329Y0457142D01*
X0207470Y0457134D01*
X0207612Y0457131D01*
X0207612Y0457130D02*
X0207669Y0457131D01*
X0207727Y0457136D01*
X0207784Y0457145D01*
X0207840Y0457158D01*
X0207895Y0457174D01*
X0207949Y0457194D01*
X0208001Y0457218D01*
X0208052Y0457245D01*
X0208100Y0457276D01*
X0208147Y0457310D01*
X0208191Y0457347D01*
X0208233Y0457387D01*
X0208271Y0457429D01*
X0208307Y0457474D01*
X0208340Y0457522D01*
X0208369Y0457571D01*
X0208395Y0457622D01*
X0208418Y0457675D01*
X0208436Y0457730D01*
X0208451Y0457785D01*
X0208463Y0457842D01*
X0208470Y0457899D01*
X0208474Y0457956D01*
X0208473Y0458014D01*
X0208469Y0458071D01*
X0208461Y0458128D01*
X0208449Y0458184D01*
X0208433Y0458240D01*
X0208414Y0458294D01*
X0208391Y0458346D01*
X0208364Y0458397D01*
X0208334Y0458447D01*
X0208301Y0458494D01*
X0208265Y0458538D01*
X0208226Y0458580D01*
X0208184Y0458620D01*
X0208139Y0458656D01*
X0208092Y0458689D01*
X0208043Y0458719D01*
X0207992Y0458746D01*
X0207940Y0458769D01*
X0208104Y0460736D02*
X0207997Y0460782D01*
X0207888Y0460825D01*
X0207778Y0460865D01*
X0207666Y0460901D01*
X0207554Y0460933D01*
X0207440Y0460962D01*
X0207326Y0460988D01*
X0207211Y0461009D01*
X0207096Y0461028D01*
X0206979Y0461042D01*
X0206863Y0461053D01*
X0206746Y0461060D01*
X0206629Y0461064D01*
X0202933Y0459425D02*
X0199000Y0459425D01*
X0196329Y0461064D02*
X0195017Y0457131D01*
X0193706Y0461064D01*
X0167069Y0459753D02*
X0167069Y0459097D01*
X0164447Y0459097D01*
X0164447Y0459753D02*
X0164447Y0458114D01*
X0164449Y0458052D01*
X0164455Y0457991D01*
X0164464Y0457930D01*
X0164478Y0457870D01*
X0164495Y0457810D01*
X0164516Y0457752D01*
X0164541Y0457695D01*
X0164569Y0457640D01*
X0164600Y0457587D01*
X0164635Y0457536D01*
X0164673Y0457487D01*
X0164713Y0457441D01*
X0164757Y0457397D01*
X0164803Y0457357D01*
X0164852Y0457319D01*
X0164903Y0457284D01*
X0164956Y0457253D01*
X0165011Y0457225D01*
X0165068Y0457200D01*
X0165126Y0457179D01*
X0165186Y0457162D01*
X0165246Y0457148D01*
X0165307Y0457139D01*
X0165368Y0457133D01*
X0165430Y0457131D01*
X0167069Y0457131D01*
X0167069Y0459753D02*
X0167067Y0459824D01*
X0167061Y0459895D01*
X0167052Y0459965D01*
X0167038Y0460035D01*
X0167021Y0460104D01*
X0167000Y0460172D01*
X0166976Y0460238D01*
X0166948Y0460303D01*
X0166916Y0460367D01*
X0166881Y0460429D01*
X0166843Y0460489D01*
X0166802Y0460546D01*
X0166757Y0460602D01*
X0166710Y0460655D01*
X0166660Y0460705D01*
X0166607Y0460752D01*
X0166551Y0460797D01*
X0166494Y0460838D01*
X0166434Y0460876D01*
X0166372Y0460911D01*
X0166308Y0460943D01*
X0166243Y0460971D01*
X0166177Y0460995D01*
X0166109Y0461016D01*
X0166040Y0461033D01*
X0165970Y0461047D01*
X0165900Y0461056D01*
X0165829Y0461062D01*
X0165758Y0461064D01*
X0165687Y0461062D01*
X0165616Y0461056D01*
X0165546Y0461047D01*
X0165476Y0461033D01*
X0165407Y0461016D01*
X0165339Y0460995D01*
X0165273Y0460971D01*
X0165208Y0460943D01*
X0165144Y0460911D01*
X0165082Y0460876D01*
X0165022Y0460838D01*
X0164965Y0460797D01*
X0164909Y0460752D01*
X0164856Y0460705D01*
X0164806Y0460655D01*
X0164759Y0460602D01*
X0164714Y0460546D01*
X0164673Y0460489D01*
X0164635Y0460429D01*
X0164600Y0460367D01*
X0164568Y0460303D01*
X0164540Y0460238D01*
X0164516Y0460172D01*
X0164495Y0460104D01*
X0164478Y0460035D01*
X0164464Y0459965D01*
X0164455Y0459895D01*
X0164449Y0459824D01*
X0164447Y0459753D01*
X0162361Y0460408D02*
X0162361Y0461064D01*
X0160395Y0461064D01*
X0160395Y0457131D01*
X0157428Y0458442D02*
X0157428Y0459753D01*
X0157426Y0459824D01*
X0157420Y0459895D01*
X0157411Y0459965D01*
X0157397Y0460035D01*
X0157380Y0460104D01*
X0157359Y0460172D01*
X0157335Y0460238D01*
X0157307Y0460303D01*
X0157275Y0460367D01*
X0157240Y0460429D01*
X0157202Y0460489D01*
X0157161Y0460546D01*
X0157116Y0460602D01*
X0157069Y0460655D01*
X0157019Y0460705D01*
X0156966Y0460752D01*
X0156910Y0460797D01*
X0156853Y0460838D01*
X0156793Y0460876D01*
X0156731Y0460911D01*
X0156667Y0460943D01*
X0156602Y0460971D01*
X0156536Y0460995D01*
X0156468Y0461016D01*
X0156399Y0461033D01*
X0156329Y0461047D01*
X0156259Y0461056D01*
X0156188Y0461062D01*
X0156117Y0461064D01*
X0156046Y0461062D01*
X0155975Y0461056D01*
X0155905Y0461047D01*
X0155835Y0461033D01*
X0155766Y0461016D01*
X0155698Y0460995D01*
X0155632Y0460971D01*
X0155567Y0460943D01*
X0155503Y0460911D01*
X0155441Y0460876D01*
X0155381Y0460838D01*
X0155324Y0460797D01*
X0155268Y0460752D01*
X0155215Y0460705D01*
X0155165Y0460655D01*
X0155118Y0460602D01*
X0155073Y0460546D01*
X0155032Y0460489D01*
X0154994Y0460429D01*
X0154959Y0460367D01*
X0154927Y0460303D01*
X0154899Y0460238D01*
X0154875Y0460172D01*
X0154854Y0460104D01*
X0154837Y0460035D01*
X0154823Y0459965D01*
X0154814Y0459895D01*
X0154808Y0459824D01*
X0154806Y0459753D01*
X0154806Y0458442D01*
X0154808Y0458371D01*
X0154814Y0458300D01*
X0154823Y0458230D01*
X0154837Y0458160D01*
X0154854Y0458091D01*
X0154875Y0458023D01*
X0154899Y0457957D01*
X0154927Y0457892D01*
X0154959Y0457828D01*
X0154994Y0457766D01*
X0155032Y0457706D01*
X0155073Y0457649D01*
X0155118Y0457593D01*
X0155165Y0457540D01*
X0155215Y0457490D01*
X0155268Y0457443D01*
X0155324Y0457398D01*
X0155381Y0457357D01*
X0155441Y0457319D01*
X0155503Y0457284D01*
X0155567Y0457252D01*
X0155632Y0457224D01*
X0155698Y0457200D01*
X0155766Y0457179D01*
X0155835Y0457162D01*
X0155905Y0457148D01*
X0155975Y0457139D01*
X0156046Y0457133D01*
X0156117Y0457131D01*
X0156188Y0457133D01*
X0156259Y0457139D01*
X0156329Y0457148D01*
X0156399Y0457162D01*
X0156468Y0457179D01*
X0156536Y0457200D01*
X0156602Y0457224D01*
X0156667Y0457252D01*
X0156731Y0457284D01*
X0156793Y0457319D01*
X0156853Y0457357D01*
X0156910Y0457398D01*
X0156966Y0457443D01*
X0157019Y0457490D01*
X0157069Y0457540D01*
X0157116Y0457593D01*
X0157161Y0457649D01*
X0157202Y0457706D01*
X0157240Y0457766D01*
X0157275Y0457828D01*
X0157307Y0457892D01*
X0157335Y0457957D01*
X0157359Y0458023D01*
X0157380Y0458091D01*
X0157397Y0458160D01*
X0157411Y0458230D01*
X0157420Y0458300D01*
X0157426Y0458371D01*
X0157428Y0458442D01*
X0152392Y0457131D02*
X0151081Y0457131D01*
X0151019Y0457133D01*
X0150958Y0457139D01*
X0150897Y0457148D01*
X0150837Y0457162D01*
X0150777Y0457179D01*
X0150719Y0457200D01*
X0150662Y0457225D01*
X0150607Y0457253D01*
X0150554Y0457284D01*
X0150503Y0457319D01*
X0150454Y0457357D01*
X0150408Y0457397D01*
X0150364Y0457441D01*
X0150324Y0457487D01*
X0150286Y0457536D01*
X0150251Y0457587D01*
X0150220Y0457640D01*
X0150192Y0457695D01*
X0150167Y0457752D01*
X0150146Y0457810D01*
X0150129Y0457870D01*
X0150115Y0457930D01*
X0150106Y0457991D01*
X0150100Y0458052D01*
X0150098Y0458114D01*
X0150098Y0460081D01*
X0150100Y0460143D01*
X0150106Y0460204D01*
X0150115Y0460265D01*
X0150129Y0460325D01*
X0150146Y0460385D01*
X0150167Y0460443D01*
X0150192Y0460500D01*
X0150220Y0460555D01*
X0150251Y0460608D01*
X0150286Y0460659D01*
X0150324Y0460708D01*
X0150364Y0460754D01*
X0150408Y0460798D01*
X0150454Y0460838D01*
X0150503Y0460876D01*
X0150554Y0460911D01*
X0150607Y0460942D01*
X0150662Y0460970D01*
X0150719Y0460995D01*
X0150777Y0461016D01*
X0150837Y0461033D01*
X0150897Y0461047D01*
X0150958Y0461056D01*
X0151019Y0461062D01*
X0151081Y0461064D01*
X0152392Y0461064D01*
X0146885Y0458770D02*
X0145246Y0459425D01*
X0145245Y0459425D02*
X0145193Y0459448D01*
X0145142Y0459475D01*
X0145093Y0459505D01*
X0145046Y0459538D01*
X0145001Y0459574D01*
X0144959Y0459614D01*
X0144920Y0459656D01*
X0144884Y0459700D01*
X0144851Y0459747D01*
X0144821Y0459797D01*
X0144794Y0459848D01*
X0144771Y0459900D01*
X0144752Y0459954D01*
X0144736Y0460010D01*
X0144724Y0460066D01*
X0144716Y0460123D01*
X0144712Y0460180D01*
X0144711Y0460238D01*
X0144715Y0460295D01*
X0144722Y0460352D01*
X0144734Y0460409D01*
X0144749Y0460464D01*
X0144767Y0460519D01*
X0144790Y0460572D01*
X0144816Y0460623D01*
X0144845Y0460672D01*
X0144878Y0460720D01*
X0144914Y0460765D01*
X0144952Y0460807D01*
X0144994Y0460847D01*
X0145038Y0460884D01*
X0145085Y0460918D01*
X0145133Y0460949D01*
X0145184Y0460976D01*
X0145236Y0461000D01*
X0145290Y0461020D01*
X0145345Y0461036D01*
X0145401Y0461049D01*
X0145458Y0461058D01*
X0145516Y0461063D01*
X0145573Y0461064D01*
X0144754Y0457458D02*
X0144888Y0457412D01*
X0145023Y0457369D01*
X0145159Y0457330D01*
X0145296Y0457294D01*
X0145433Y0457262D01*
X0145572Y0457233D01*
X0145711Y0457207D01*
X0145851Y0457186D01*
X0145992Y0457167D01*
X0146132Y0457153D01*
X0146274Y0457142D01*
X0146415Y0457134D01*
X0146557Y0457131D01*
X0146557Y0457130D02*
X0146614Y0457131D01*
X0146672Y0457136D01*
X0146729Y0457145D01*
X0146785Y0457158D01*
X0146840Y0457174D01*
X0146894Y0457194D01*
X0146946Y0457218D01*
X0146997Y0457245D01*
X0147045Y0457276D01*
X0147092Y0457310D01*
X0147136Y0457347D01*
X0147178Y0457387D01*
X0147216Y0457429D01*
X0147252Y0457474D01*
X0147285Y0457522D01*
X0147314Y0457571D01*
X0147340Y0457622D01*
X0147363Y0457675D01*
X0147381Y0457730D01*
X0147396Y0457785D01*
X0147408Y0457842D01*
X0147415Y0457899D01*
X0147419Y0457956D01*
X0147418Y0458014D01*
X0147414Y0458071D01*
X0147406Y0458128D01*
X0147394Y0458184D01*
X0147378Y0458240D01*
X0147359Y0458294D01*
X0147336Y0458346D01*
X0147309Y0458397D01*
X0147279Y0458447D01*
X0147246Y0458494D01*
X0147210Y0458538D01*
X0147171Y0458580D01*
X0147129Y0458620D01*
X0147084Y0458656D01*
X0147037Y0458689D01*
X0146988Y0458719D01*
X0146937Y0458746D01*
X0146885Y0458769D01*
X0147048Y0460736D02*
X0146941Y0460782D01*
X0146832Y0460825D01*
X0146722Y0460865D01*
X0146610Y0460901D01*
X0146498Y0460933D01*
X0146384Y0460962D01*
X0146270Y0460988D01*
X0146155Y0461009D01*
X0146040Y0461028D01*
X0145923Y0461042D01*
X0145807Y0461053D01*
X0145690Y0461060D01*
X0145573Y0461064D01*
X0141878Y0459425D02*
X0137945Y0459425D01*
X0135273Y0461064D02*
X0133962Y0457131D01*
X0132651Y0461064D01*
X0106014Y0459753D02*
X0106014Y0459097D01*
X0103392Y0459097D01*
X0103392Y0459753D02*
X0103392Y0458114D01*
X0103394Y0458052D01*
X0103400Y0457991D01*
X0103409Y0457930D01*
X0103423Y0457870D01*
X0103440Y0457810D01*
X0103461Y0457752D01*
X0103486Y0457695D01*
X0103514Y0457640D01*
X0103545Y0457587D01*
X0103580Y0457536D01*
X0103618Y0457487D01*
X0103658Y0457441D01*
X0103702Y0457397D01*
X0103748Y0457357D01*
X0103797Y0457319D01*
X0103848Y0457284D01*
X0103901Y0457253D01*
X0103956Y0457225D01*
X0104013Y0457200D01*
X0104071Y0457179D01*
X0104131Y0457162D01*
X0104191Y0457148D01*
X0104252Y0457139D01*
X0104313Y0457133D01*
X0104375Y0457131D01*
X0106014Y0457131D01*
X0106014Y0459753D02*
X0106012Y0459824D01*
X0106006Y0459895D01*
X0105997Y0459965D01*
X0105983Y0460035D01*
X0105966Y0460104D01*
X0105945Y0460172D01*
X0105921Y0460238D01*
X0105893Y0460303D01*
X0105861Y0460367D01*
X0105826Y0460429D01*
X0105788Y0460489D01*
X0105747Y0460546D01*
X0105702Y0460602D01*
X0105655Y0460655D01*
X0105605Y0460705D01*
X0105552Y0460752D01*
X0105496Y0460797D01*
X0105439Y0460838D01*
X0105379Y0460876D01*
X0105317Y0460911D01*
X0105253Y0460943D01*
X0105188Y0460971D01*
X0105122Y0460995D01*
X0105054Y0461016D01*
X0104985Y0461033D01*
X0104915Y0461047D01*
X0104845Y0461056D01*
X0104774Y0461062D01*
X0104703Y0461064D01*
X0104632Y0461062D01*
X0104561Y0461056D01*
X0104491Y0461047D01*
X0104421Y0461033D01*
X0104352Y0461016D01*
X0104284Y0460995D01*
X0104218Y0460971D01*
X0104153Y0460943D01*
X0104089Y0460911D01*
X0104027Y0460876D01*
X0103967Y0460838D01*
X0103910Y0460797D01*
X0103854Y0460752D01*
X0103801Y0460705D01*
X0103751Y0460655D01*
X0103704Y0460602D01*
X0103659Y0460546D01*
X0103618Y0460489D01*
X0103580Y0460429D01*
X0103545Y0460367D01*
X0103513Y0460303D01*
X0103485Y0460238D01*
X0103461Y0460172D01*
X0103440Y0460104D01*
X0103423Y0460035D01*
X0103409Y0459965D01*
X0103400Y0459895D01*
X0103394Y0459824D01*
X0103392Y0459753D01*
X0101306Y0460408D02*
X0101306Y0461064D01*
X0099340Y0461064D01*
X0099340Y0457131D01*
X0096373Y0458442D02*
X0096373Y0459753D01*
X0096371Y0459824D01*
X0096365Y0459895D01*
X0096356Y0459965D01*
X0096342Y0460035D01*
X0096325Y0460104D01*
X0096304Y0460172D01*
X0096280Y0460238D01*
X0096252Y0460303D01*
X0096220Y0460367D01*
X0096185Y0460429D01*
X0096147Y0460489D01*
X0096106Y0460546D01*
X0096061Y0460602D01*
X0096014Y0460655D01*
X0095964Y0460705D01*
X0095911Y0460752D01*
X0095855Y0460797D01*
X0095798Y0460838D01*
X0095738Y0460876D01*
X0095676Y0460911D01*
X0095612Y0460943D01*
X0095547Y0460971D01*
X0095481Y0460995D01*
X0095413Y0461016D01*
X0095344Y0461033D01*
X0095274Y0461047D01*
X0095204Y0461056D01*
X0095133Y0461062D01*
X0095062Y0461064D01*
X0094991Y0461062D01*
X0094920Y0461056D01*
X0094850Y0461047D01*
X0094780Y0461033D01*
X0094711Y0461016D01*
X0094643Y0460995D01*
X0094577Y0460971D01*
X0094512Y0460943D01*
X0094448Y0460911D01*
X0094386Y0460876D01*
X0094326Y0460838D01*
X0094269Y0460797D01*
X0094213Y0460752D01*
X0094160Y0460705D01*
X0094110Y0460655D01*
X0094063Y0460602D01*
X0094018Y0460546D01*
X0093977Y0460489D01*
X0093939Y0460429D01*
X0093904Y0460367D01*
X0093872Y0460303D01*
X0093844Y0460238D01*
X0093820Y0460172D01*
X0093799Y0460104D01*
X0093782Y0460035D01*
X0093768Y0459965D01*
X0093759Y0459895D01*
X0093753Y0459824D01*
X0093751Y0459753D01*
X0093751Y0458442D01*
X0093753Y0458371D01*
X0093759Y0458300D01*
X0093768Y0458230D01*
X0093782Y0458160D01*
X0093799Y0458091D01*
X0093820Y0458023D01*
X0093844Y0457957D01*
X0093872Y0457892D01*
X0093904Y0457828D01*
X0093939Y0457766D01*
X0093977Y0457706D01*
X0094018Y0457649D01*
X0094063Y0457593D01*
X0094110Y0457540D01*
X0094160Y0457490D01*
X0094213Y0457443D01*
X0094269Y0457398D01*
X0094326Y0457357D01*
X0094386Y0457319D01*
X0094448Y0457284D01*
X0094512Y0457252D01*
X0094577Y0457224D01*
X0094643Y0457200D01*
X0094711Y0457179D01*
X0094780Y0457162D01*
X0094850Y0457148D01*
X0094920Y0457139D01*
X0094991Y0457133D01*
X0095062Y0457131D01*
X0095133Y0457133D01*
X0095204Y0457139D01*
X0095274Y0457148D01*
X0095344Y0457162D01*
X0095413Y0457179D01*
X0095481Y0457200D01*
X0095547Y0457224D01*
X0095612Y0457252D01*
X0095676Y0457284D01*
X0095738Y0457319D01*
X0095798Y0457357D01*
X0095855Y0457398D01*
X0095911Y0457443D01*
X0095964Y0457490D01*
X0096014Y0457540D01*
X0096061Y0457593D01*
X0096106Y0457649D01*
X0096147Y0457706D01*
X0096185Y0457766D01*
X0096220Y0457828D01*
X0096252Y0457892D01*
X0096280Y0457957D01*
X0096304Y0458023D01*
X0096325Y0458091D01*
X0096342Y0458160D01*
X0096356Y0458230D01*
X0096365Y0458300D01*
X0096371Y0458371D01*
X0096373Y0458442D01*
X0091337Y0457131D02*
X0090026Y0457131D01*
X0089964Y0457133D01*
X0089903Y0457139D01*
X0089842Y0457148D01*
X0089782Y0457162D01*
X0089722Y0457179D01*
X0089664Y0457200D01*
X0089607Y0457225D01*
X0089552Y0457253D01*
X0089499Y0457284D01*
X0089448Y0457319D01*
X0089399Y0457357D01*
X0089353Y0457397D01*
X0089309Y0457441D01*
X0089269Y0457487D01*
X0089231Y0457536D01*
X0089196Y0457587D01*
X0089165Y0457640D01*
X0089137Y0457695D01*
X0089112Y0457752D01*
X0089091Y0457810D01*
X0089074Y0457870D01*
X0089060Y0457930D01*
X0089051Y0457991D01*
X0089045Y0458052D01*
X0089043Y0458114D01*
X0089043Y0460081D01*
X0089045Y0460143D01*
X0089051Y0460204D01*
X0089060Y0460265D01*
X0089074Y0460325D01*
X0089091Y0460385D01*
X0089112Y0460443D01*
X0089137Y0460500D01*
X0089165Y0460555D01*
X0089196Y0460608D01*
X0089231Y0460659D01*
X0089269Y0460708D01*
X0089309Y0460754D01*
X0089353Y0460798D01*
X0089399Y0460838D01*
X0089448Y0460876D01*
X0089499Y0460911D01*
X0089552Y0460942D01*
X0089607Y0460970D01*
X0089664Y0460995D01*
X0089722Y0461016D01*
X0089782Y0461033D01*
X0089842Y0461047D01*
X0089903Y0461056D01*
X0089964Y0461062D01*
X0090026Y0461064D01*
X0091337Y0461064D01*
X0085830Y0458770D02*
X0084191Y0459425D01*
X0084190Y0459425D02*
X0084138Y0459448D01*
X0084087Y0459475D01*
X0084038Y0459505D01*
X0083991Y0459538D01*
X0083946Y0459574D01*
X0083904Y0459614D01*
X0083865Y0459656D01*
X0083829Y0459700D01*
X0083796Y0459747D01*
X0083766Y0459797D01*
X0083739Y0459848D01*
X0083716Y0459900D01*
X0083697Y0459954D01*
X0083681Y0460010D01*
X0083669Y0460066D01*
X0083661Y0460123D01*
X0083657Y0460180D01*
X0083656Y0460238D01*
X0083660Y0460295D01*
X0083667Y0460352D01*
X0083679Y0460409D01*
X0083694Y0460464D01*
X0083712Y0460519D01*
X0083735Y0460572D01*
X0083761Y0460623D01*
X0083790Y0460672D01*
X0083823Y0460720D01*
X0083859Y0460765D01*
X0083897Y0460807D01*
X0083939Y0460847D01*
X0083983Y0460884D01*
X0084030Y0460918D01*
X0084078Y0460949D01*
X0084129Y0460976D01*
X0084181Y0461000D01*
X0084235Y0461020D01*
X0084290Y0461036D01*
X0084346Y0461049D01*
X0084403Y0461058D01*
X0084461Y0461063D01*
X0084518Y0461064D01*
X0083699Y0457458D02*
X0083833Y0457412D01*
X0083968Y0457369D01*
X0084104Y0457330D01*
X0084241Y0457294D01*
X0084378Y0457262D01*
X0084517Y0457233D01*
X0084656Y0457207D01*
X0084796Y0457186D01*
X0084937Y0457167D01*
X0085077Y0457153D01*
X0085219Y0457142D01*
X0085360Y0457134D01*
X0085502Y0457131D01*
X0085502Y0457130D02*
X0085559Y0457131D01*
X0085617Y0457136D01*
X0085674Y0457145D01*
X0085730Y0457158D01*
X0085785Y0457174D01*
X0085839Y0457194D01*
X0085891Y0457218D01*
X0085942Y0457245D01*
X0085990Y0457276D01*
X0086037Y0457310D01*
X0086081Y0457347D01*
X0086123Y0457387D01*
X0086161Y0457429D01*
X0086197Y0457474D01*
X0086230Y0457522D01*
X0086259Y0457571D01*
X0086285Y0457622D01*
X0086308Y0457675D01*
X0086326Y0457730D01*
X0086341Y0457785D01*
X0086353Y0457842D01*
X0086360Y0457899D01*
X0086364Y0457956D01*
X0086363Y0458014D01*
X0086359Y0458071D01*
X0086351Y0458128D01*
X0086339Y0458184D01*
X0086323Y0458240D01*
X0086304Y0458294D01*
X0086281Y0458346D01*
X0086254Y0458397D01*
X0086224Y0458447D01*
X0086191Y0458494D01*
X0086155Y0458538D01*
X0086116Y0458580D01*
X0086074Y0458620D01*
X0086029Y0458656D01*
X0085982Y0458689D01*
X0085933Y0458719D01*
X0085882Y0458746D01*
X0085830Y0458769D01*
X0085993Y0460736D02*
X0085886Y0460782D01*
X0085777Y0460825D01*
X0085667Y0460865D01*
X0085555Y0460901D01*
X0085443Y0460933D01*
X0085329Y0460962D01*
X0085215Y0460988D01*
X0085100Y0461009D01*
X0084985Y0461028D01*
X0084868Y0461042D01*
X0084752Y0461053D01*
X0084635Y0461060D01*
X0084518Y0461064D01*
X0080823Y0459425D02*
X0076889Y0459425D01*
X0074218Y0461064D02*
X0072907Y0457131D01*
X0071596Y0461064D01*
X0044959Y0459753D02*
X0044959Y0459097D01*
X0042337Y0459097D01*
X0042337Y0459753D02*
X0042337Y0458114D01*
X0042339Y0458052D01*
X0042345Y0457991D01*
X0042354Y0457930D01*
X0042368Y0457870D01*
X0042385Y0457810D01*
X0042406Y0457752D01*
X0042431Y0457695D01*
X0042459Y0457640D01*
X0042490Y0457587D01*
X0042525Y0457536D01*
X0042563Y0457487D01*
X0042603Y0457441D01*
X0042647Y0457397D01*
X0042693Y0457357D01*
X0042742Y0457319D01*
X0042793Y0457284D01*
X0042846Y0457253D01*
X0042901Y0457225D01*
X0042958Y0457200D01*
X0043016Y0457179D01*
X0043076Y0457162D01*
X0043136Y0457148D01*
X0043197Y0457139D01*
X0043258Y0457133D01*
X0043320Y0457131D01*
X0044959Y0457131D01*
X0044959Y0459753D02*
X0044957Y0459824D01*
X0044951Y0459895D01*
X0044942Y0459965D01*
X0044928Y0460035D01*
X0044911Y0460104D01*
X0044890Y0460172D01*
X0044866Y0460238D01*
X0044838Y0460303D01*
X0044806Y0460367D01*
X0044771Y0460429D01*
X0044733Y0460489D01*
X0044692Y0460546D01*
X0044647Y0460602D01*
X0044600Y0460655D01*
X0044550Y0460705D01*
X0044497Y0460752D01*
X0044441Y0460797D01*
X0044384Y0460838D01*
X0044324Y0460876D01*
X0044262Y0460911D01*
X0044198Y0460943D01*
X0044133Y0460971D01*
X0044067Y0460995D01*
X0043999Y0461016D01*
X0043930Y0461033D01*
X0043860Y0461047D01*
X0043790Y0461056D01*
X0043719Y0461062D01*
X0043648Y0461064D01*
X0043577Y0461062D01*
X0043506Y0461056D01*
X0043436Y0461047D01*
X0043366Y0461033D01*
X0043297Y0461016D01*
X0043229Y0460995D01*
X0043163Y0460971D01*
X0043098Y0460943D01*
X0043034Y0460911D01*
X0042972Y0460876D01*
X0042912Y0460838D01*
X0042855Y0460797D01*
X0042799Y0460752D01*
X0042746Y0460705D01*
X0042696Y0460655D01*
X0042649Y0460602D01*
X0042604Y0460546D01*
X0042563Y0460489D01*
X0042525Y0460429D01*
X0042490Y0460367D01*
X0042458Y0460303D01*
X0042430Y0460238D01*
X0042406Y0460172D01*
X0042385Y0460104D01*
X0042368Y0460035D01*
X0042354Y0459965D01*
X0042345Y0459895D01*
X0042339Y0459824D01*
X0042337Y0459753D01*
X0040251Y0460408D02*
X0040251Y0461064D01*
X0038284Y0461064D01*
X0038284Y0457131D01*
X0035318Y0458442D02*
X0035318Y0459753D01*
X0035316Y0459824D01*
X0035310Y0459895D01*
X0035301Y0459965D01*
X0035287Y0460035D01*
X0035270Y0460104D01*
X0035249Y0460172D01*
X0035225Y0460238D01*
X0035197Y0460303D01*
X0035165Y0460367D01*
X0035130Y0460429D01*
X0035092Y0460489D01*
X0035051Y0460546D01*
X0035006Y0460602D01*
X0034959Y0460655D01*
X0034909Y0460705D01*
X0034856Y0460752D01*
X0034800Y0460797D01*
X0034743Y0460838D01*
X0034683Y0460876D01*
X0034621Y0460911D01*
X0034557Y0460943D01*
X0034492Y0460971D01*
X0034426Y0460995D01*
X0034358Y0461016D01*
X0034289Y0461033D01*
X0034219Y0461047D01*
X0034149Y0461056D01*
X0034078Y0461062D01*
X0034007Y0461064D01*
X0033936Y0461062D01*
X0033865Y0461056D01*
X0033795Y0461047D01*
X0033725Y0461033D01*
X0033656Y0461016D01*
X0033588Y0460995D01*
X0033522Y0460971D01*
X0033457Y0460943D01*
X0033393Y0460911D01*
X0033331Y0460876D01*
X0033271Y0460838D01*
X0033214Y0460797D01*
X0033158Y0460752D01*
X0033105Y0460705D01*
X0033055Y0460655D01*
X0033008Y0460602D01*
X0032963Y0460546D01*
X0032922Y0460489D01*
X0032884Y0460429D01*
X0032849Y0460367D01*
X0032817Y0460303D01*
X0032789Y0460238D01*
X0032765Y0460172D01*
X0032744Y0460104D01*
X0032727Y0460035D01*
X0032713Y0459965D01*
X0032704Y0459895D01*
X0032698Y0459824D01*
X0032696Y0459753D01*
X0032695Y0459753D02*
X0032695Y0458442D01*
X0032696Y0458442D02*
X0032698Y0458371D01*
X0032704Y0458300D01*
X0032713Y0458230D01*
X0032727Y0458160D01*
X0032744Y0458091D01*
X0032765Y0458023D01*
X0032789Y0457957D01*
X0032817Y0457892D01*
X0032849Y0457828D01*
X0032884Y0457766D01*
X0032922Y0457706D01*
X0032963Y0457649D01*
X0033008Y0457593D01*
X0033055Y0457540D01*
X0033105Y0457490D01*
X0033158Y0457443D01*
X0033214Y0457398D01*
X0033271Y0457357D01*
X0033331Y0457319D01*
X0033393Y0457284D01*
X0033457Y0457252D01*
X0033522Y0457224D01*
X0033588Y0457200D01*
X0033656Y0457179D01*
X0033725Y0457162D01*
X0033795Y0457148D01*
X0033865Y0457139D01*
X0033936Y0457133D01*
X0034007Y0457131D01*
X0034078Y0457133D01*
X0034149Y0457139D01*
X0034219Y0457148D01*
X0034289Y0457162D01*
X0034358Y0457179D01*
X0034426Y0457200D01*
X0034492Y0457224D01*
X0034557Y0457252D01*
X0034621Y0457284D01*
X0034683Y0457319D01*
X0034743Y0457357D01*
X0034800Y0457398D01*
X0034856Y0457443D01*
X0034909Y0457490D01*
X0034959Y0457540D01*
X0035006Y0457593D01*
X0035051Y0457649D01*
X0035092Y0457706D01*
X0035130Y0457766D01*
X0035165Y0457828D01*
X0035197Y0457892D01*
X0035225Y0457957D01*
X0035249Y0458023D01*
X0035270Y0458091D01*
X0035287Y0458160D01*
X0035301Y0458230D01*
X0035310Y0458300D01*
X0035316Y0458371D01*
X0035318Y0458442D01*
X0030282Y0457131D02*
X0028971Y0457131D01*
X0028909Y0457133D01*
X0028848Y0457139D01*
X0028787Y0457148D01*
X0028727Y0457162D01*
X0028667Y0457179D01*
X0028609Y0457200D01*
X0028552Y0457225D01*
X0028497Y0457253D01*
X0028444Y0457284D01*
X0028393Y0457319D01*
X0028344Y0457357D01*
X0028298Y0457397D01*
X0028254Y0457441D01*
X0028214Y0457487D01*
X0028176Y0457536D01*
X0028141Y0457587D01*
X0028110Y0457640D01*
X0028082Y0457695D01*
X0028057Y0457752D01*
X0028036Y0457810D01*
X0028019Y0457870D01*
X0028005Y0457930D01*
X0027996Y0457991D01*
X0027990Y0458052D01*
X0027988Y0458114D01*
X0027988Y0460081D01*
X0027990Y0460143D01*
X0027996Y0460204D01*
X0028005Y0460265D01*
X0028019Y0460325D01*
X0028036Y0460385D01*
X0028057Y0460443D01*
X0028082Y0460500D01*
X0028110Y0460555D01*
X0028141Y0460608D01*
X0028176Y0460659D01*
X0028214Y0460708D01*
X0028254Y0460754D01*
X0028298Y0460798D01*
X0028344Y0460838D01*
X0028393Y0460876D01*
X0028444Y0460911D01*
X0028497Y0460942D01*
X0028552Y0460970D01*
X0028609Y0460995D01*
X0028667Y0461016D01*
X0028727Y0461033D01*
X0028787Y0461047D01*
X0028848Y0461056D01*
X0028909Y0461062D01*
X0028971Y0461064D01*
X0030282Y0461064D01*
X0024774Y0458770D02*
X0023136Y0459425D01*
X0023135Y0459425D02*
X0023083Y0459448D01*
X0023032Y0459475D01*
X0022983Y0459505D01*
X0022936Y0459538D01*
X0022891Y0459574D01*
X0022849Y0459614D01*
X0022810Y0459656D01*
X0022774Y0459700D01*
X0022741Y0459747D01*
X0022711Y0459797D01*
X0022684Y0459848D01*
X0022661Y0459900D01*
X0022642Y0459954D01*
X0022626Y0460010D01*
X0022614Y0460066D01*
X0022606Y0460123D01*
X0022602Y0460180D01*
X0022601Y0460238D01*
X0022605Y0460295D01*
X0022612Y0460352D01*
X0022624Y0460409D01*
X0022639Y0460464D01*
X0022657Y0460519D01*
X0022680Y0460572D01*
X0022706Y0460623D01*
X0022735Y0460672D01*
X0022768Y0460720D01*
X0022804Y0460765D01*
X0022842Y0460807D01*
X0022884Y0460847D01*
X0022928Y0460884D01*
X0022975Y0460918D01*
X0023023Y0460949D01*
X0023074Y0460976D01*
X0023126Y0461000D01*
X0023180Y0461020D01*
X0023235Y0461036D01*
X0023291Y0461049D01*
X0023348Y0461058D01*
X0023406Y0461063D01*
X0023463Y0461064D01*
X0022644Y0457458D02*
X0022778Y0457412D01*
X0022913Y0457369D01*
X0023049Y0457330D01*
X0023186Y0457294D01*
X0023323Y0457262D01*
X0023462Y0457233D01*
X0023601Y0457207D01*
X0023741Y0457186D01*
X0023882Y0457167D01*
X0024022Y0457153D01*
X0024164Y0457142D01*
X0024305Y0457134D01*
X0024447Y0457131D01*
X0024447Y0457130D02*
X0024504Y0457131D01*
X0024562Y0457136D01*
X0024619Y0457145D01*
X0024675Y0457158D01*
X0024730Y0457174D01*
X0024784Y0457194D01*
X0024836Y0457218D01*
X0024887Y0457245D01*
X0024935Y0457276D01*
X0024982Y0457310D01*
X0025026Y0457347D01*
X0025068Y0457387D01*
X0025106Y0457429D01*
X0025142Y0457474D01*
X0025175Y0457522D01*
X0025204Y0457571D01*
X0025230Y0457622D01*
X0025253Y0457675D01*
X0025271Y0457730D01*
X0025286Y0457785D01*
X0025298Y0457842D01*
X0025305Y0457899D01*
X0025309Y0457956D01*
X0025308Y0458014D01*
X0025304Y0458071D01*
X0025296Y0458128D01*
X0025284Y0458184D01*
X0025268Y0458240D01*
X0025249Y0458294D01*
X0025226Y0458346D01*
X0025199Y0458397D01*
X0025169Y0458447D01*
X0025136Y0458494D01*
X0025100Y0458538D01*
X0025061Y0458580D01*
X0025019Y0458620D01*
X0024974Y0458656D01*
X0024927Y0458689D01*
X0024878Y0458719D01*
X0024827Y0458746D01*
X0024775Y0458769D01*
X0024938Y0460736D02*
X0024831Y0460782D01*
X0024722Y0460825D01*
X0024612Y0460865D01*
X0024500Y0460901D01*
X0024388Y0460933D01*
X0024274Y0460962D01*
X0024160Y0460988D01*
X0024045Y0461009D01*
X0023930Y0461028D01*
X0023813Y0461042D01*
X0023697Y0461053D01*
X0023580Y0461060D01*
X0023463Y0461064D01*
X0019768Y0459425D02*
X0015834Y0459425D01*
X0013163Y0461064D02*
X0011852Y0457131D01*
X0010541Y0461064D01*
D14*
X0001750Y0026750D02*
X0001750Y0001750D01*
X0420081Y0001750D01*
X0420081Y0026750D01*
X0001750Y0026750D01*
X0001750Y0028750D02*
X0001750Y0399081D01*
X0026750Y0399081D01*
X0026750Y0028750D01*
X0001750Y0028750D01*
X0001750Y0401081D02*
X0001750Y0426081D01*
X0420081Y0426081D01*
X0420081Y0401081D01*
X0001750Y0401081D01*
X0395081Y0399081D02*
X0395081Y0028750D01*
X0420081Y0028750D01*
X0420081Y0399081D01*
X0395081Y0399081D01*
M02*
